#N canvas 237 191 599 415 10;
#N canvas 1 111 1161 596 sound 0;
#N canvas 73 50 356 792 engine 0;
#X obj 155 769 outlet~;
#X obj 215 428 delwrite~ e1b 50;
#X obj 215 662 delwrite~ e2b 50;
#X obj 99 581 +~;
#X obj 53 702 s~ ewgfb1;
#X obj 215 704 s~ ewgfb2;
#X obj 52 364 r~ ewgfb2;
#X obj 52 418 delwrite~ e1a 10;
#X obj 53 659 delwrite~ e2a 10;
#X obj 215 386 r~ ewgfb1;
#X obj 59 184 *~;
#X obj 4 202 sig~ 1;
#X obj 22 231 /~;
#X obj 59 205 +~ 1;
#X obj 23 312 -~ 0.5;
#X obj 215 407 bp~ 100 2;
#X obj 153 99 noise~;
#X obj 153 165 clip~ -0.5 0.5;
#X obj 22 288 +~;
#X obj 153 143 *~ 12;
#X obj 74 530 cos~;
#X obj 74 508 -~ 0.25;
#X obj 138 529 cos~;
#X obj 138 507 -~ 0.25;
#X obj 74 486 *~ 0.125;
#X obj 138 485 *~ 0.125;
#X obj 99 622 hip~ 12;
#X obj 99 601 lop~ 200;
#X obj 23 335 hip~ 30;
#X obj 153 121 bp~ 500 5;
#X obj 38 266 *~;
#X obj 153 187 *~ 0.15;
#X obj 74 556 *~ 0.17;
#X obj 138 554 *~ 0.17;
#X obj 52 385 *~ 0.6;
#X obj 53 439 vd~ e1a 8;
#X obj 215 450 vd~ e1b 9;
#X obj 53 681 vd~ e2a 3;
#X obj 215 683 vd~ e2b 6;
#X obj 75 54 *~;
#X obj 59 77 *~;
#X obj 59 125 +~;
#X obj 59 98 *~ -14;
#X obj 106 99 *~ 14;
#X obj 59 163 *~ 7;
#X obj 155 725 hip~ 200;
#X obj 155 747 hip~ 200;
#X obj 59 2 inlet~;
#X obj 59 23 phasor~;
#X connect 3 0 27 0;
#X connect 6 0 34 0;
#X connect 9 0 15 0;
#X connect 10 0 13 0;
#X connect 11 0 12 0;
#X connect 12 0 30 0;
#X connect 12 0 18 0;
#X connect 13 0 12 1;
#X connect 14 0 28 0;
#X connect 15 0 1 0;
#X connect 16 0 29 0;
#X connect 17 0 31 0;
#X connect 18 0 14 0;
#X connect 19 0 17 0;
#X connect 20 0 32 0;
#X connect 21 0 20 0;
#X connect 22 0 33 0;
#X connect 23 0 22 0;
#X connect 24 0 21 0;
#X connect 25 0 23 0;
#X connect 26 0 8 0;
#X connect 26 0 2 0;
#X connect 27 0 26 0;
#X connect 28 0 7 0;
#X connect 29 0 19 0;
#X connect 30 0 18 1;
#X connect 31 0 30 1;
#X connect 32 0 3 0;
#X connect 33 0 3 1;
#X connect 34 0 7 0;
#X connect 35 0 8 0;
#X connect 35 0 24 0;
#X connect 35 0 32 0;
#X connect 36 0 2 0;
#X connect 36 0 25 0;
#X connect 36 0 33 0;
#X connect 37 0 4 0;
#X connect 38 0 5 0;
#X connect 38 0 45 0;
#X connect 39 0 40 1;
#X connect 39 0 43 0;
#X connect 40 0 42 0;
#X connect 41 0 44 0;
#X connect 42 0 41 0;
#X connect 43 0 41 1;
#X connect 44 0 10 0;
#X connect 44 0 10 1;
#X connect 45 0 46 0;
#X connect 46 0 0 0;
#X connect 47 0 48 0;
#X connect 48 0 39 0;
#X connect 48 0 39 1;
#X connect 48 0 40 0;
#X restore 145 223 pd engine;
#N canvas 0 50 231 361 tail 0;
#X obj 109 2 inlet~;
#X obj 26 341 outlet~;
#X obj 80 152 noise~;
#X obj 2 115 sig~ 1;
#X obj 2 143 /~;
#X obj 59 87 *~;
#X obj 59 112 +~ 1;
#X obj 26 317 +~;
#X obj 2 287 *~ 0.1;
#X obj 80 229 vcf~ 1 12;
#X obj 64 256 *~;
#X obj 109 205 +~ 100;
#X obj 109 183 *~ 500;
#X obj 158 183 loadbang;
#X obj 64 286 *~ 0.3;
#X obj 109 26 osc~;
#X obj 59 62 *~ 1.5;
#X msg 158 206 6;
#X connect 0 0 15 0;
#X connect 2 0 9 0;
#X connect 3 0 4 0;
#X connect 4 0 8 0;
#X connect 4 0 10 0;
#X connect 5 0 6 0;
#X connect 6 0 4 1;
#X connect 7 0 1 0;
#X connect 8 0 7 0;
#X connect 9 0 10 1;
#X connect 10 0 14 0;
#X connect 11 0 9 1;
#X connect 12 0 11 0;
#X connect 13 0 17 0;
#X connect 14 0 7 1;
#X connect 15 0 12 0;
#X connect 15 0 16 0;
#X connect 16 0 5 0;
#X connect 16 0 5 1;
#X connect 17 0 9 2;
#X restore 284 228 pd tail rotor;
#N canvas 57 50 207 209 gears 0;
#X obj 60 189 outlet~;
#X obj 1 99 *~ 1.45;
#X obj 61 148 *~ 0.33;
#X obj 61 59 *~;
#X obj 78 28 inlet~ gear-ratio;
#X obj 61 4 inlet~ engine speed;
#X obj 1 123 osc~;
#X obj 61 123 osc~;
#X obj 121 122 osc~;
#X obj 61 98 *~ 2.81;
#X obj 1 147 *~ 0.2;
#X obj 121 97 *~ 9.41;
#X obj 121 148 *~ 0.14;
#X connect 1 0 6 0;
#X connect 2 0 0 0;
#X connect 3 0 1 0;
#X connect 3 0 9 0;
#X connect 3 0 11 0;
#X connect 4 0 3 1;
#X connect 5 0 3 0;
#X connect 6 0 10 0;
#X connect 7 0 2 0;
#X connect 8 0 12 0;
#X connect 9 0 7 0;
#X connect 10 0 0 0;
#X connect 11 0 8 0;
#X connect 12 0 0 0;
#X restore 17 206 pd gears;
#N canvas 0 50 205 392 distance 0;
#X obj 5 93 inlet~;
#X obj 4 370 outlet~;
#X obj 5 346 +~;
#X obj 32 199 delwrite~ distance 1000;
#X obj 21 243 sig~;
#X obj 5 115 lop~ 100;
#X obj 21 303 vd~ distance;
#X obj 21 323 *~ 0.5;
#X obj 67 2 inlet;
#X obj 87 29 swap 1;
#X obj 87 50 -;
#X obj 87 92 + 50;
#X obj 5 137 lop~ 100;
#X obj 5 159 lop~ 100;
#X obj 21 283 +~ 2;
#X obj 21 263 *~ 3;
#X obj 87 71 * 6000;
#X connect 0 0 5 0;
#X connect 2 0 1 0;
#X connect 4 0 15 0;
#X connect 5 0 12 0;
#X connect 6 0 7 0;
#X connect 7 0 2 1;
#X connect 8 0 4 0;
#X connect 8 0 9 0;
#X connect 9 0 10 0;
#X connect 9 1 10 1;
#X connect 10 0 16 0;
#X connect 11 0 5 1;
#X connect 11 0 12 1;
#X connect 11 0 13 1;
#X connect 12 0 13 0;
#X connect 13 0 2 0;
#X connect 13 0 3 0;
#X connect 14 0 6 0;
#X connect 15 0 14 0;
#X connect 16 0 11 0;
#X restore 297 398 pd distance;
#X obj 296 559 dac~;
#X obj 297 335 catch~ body;
#X obj 16 291 throw~ body;
#X obj 144 291 throw~ body;
#X obj 145 90 lop~ 0.6;
#X obj 420 112 mainrotor;
#X obj 498 241 throw~ body;
#X obj 282 291 throw~ body;
#X obj 300 180 lop~ 0.6;
#X obj 284 203 *~;
#X obj 300 159 sig~;
#X obj 431 54 hsl 64 12 0 1 0 1 \$0-tail-mix empty tail-mix 12 6 1
8 -262144 -1 -1 2800 1;
#X obj 299 248 r \$0-tail-mix;
#X obj 283 271 *~;
#X obj 498 217 *~;
#X obj 516 193 r \$0-rotor-mix;
#X obj 431 90 hsl 64 12 0 1 0 1 \$0-rotor-mix empty rotor-mix 12 6
1 8 -262144 -1 -1 5000 1;
#X obj 431 30 hsl 64 12 0 1 0 1 \$0-engine-mix empty engine-mix 6 6
1 8 -262144 -1 -1 1800 1;
#X obj 145 270 *~;
#X obj 161 246 r \$0-engine-mix;
#X obj 16 270 *~;
#X obj 431 66 hsl 64 12 0 1 0 1 \$0-gear-ratio empty gear-ratio 12
6 1 8 -262144 -1 -1 6300 1;
#X obj 68 184 + 2;
#X obj 68 163 * 12;
#X obj 68 140 r \$0-gear-ratio;
#X obj 431 78 hsl 64 12 0 1 0 1 \$0-gear-mix empty gear-mix 12 6 1
8 -262144 -1 -1 1000 1;
#X obj 32 226 r \$0-gear-mix;
#X obj 32 248 * 0.1;
#X obj 431 18 hsl 64 12 0 1 0 1 \$0-engine-speed empty engine-speed
0 6 1 8 -262144 -1 -1 4095 1;
#X obj 145 30 r \$0-engine-speed;
#X obj 145 50 * 90;
#X obj 145 70 + 1;
#X obj 300 117 r \$0-tail-speed;
#X obj 431 42 hsl 64 12 0 1 0 1 \$0-tail-speed empty tail-speed 12
6 1 8 -262144 -1 -1 3700 1;
#X obj 300 138 * 2;
#X obj 298 358 vrdel 500 3000 0.2;
#X obj 431 6 hsl 64 12 0 1 0 1 \$0-distance empty distance 10 6 1 8
-262144 -1 -1 1638 1;
#X obj 369 378 r \$0-distance;
#X obj 296 509 hip~ 5;
#X obj 296 531 clip~ -1 1;
#X obj 297 462 *~;
#X obj 297 484 *~;
#X obj 497 377 vsl 15 100 0 1 0 0 empty empty empty 0 -9 0 10 -262130
-1 -1 6930 1;
#X msg 497 485 \$1 20;
#X obj 497 507 line~;
#X obj 551 421 tgl 15 0 empty empty empty 17 7 0 10 -262144 -1 -1 0
1;
#X obj 551 441 swap 1;
#X obj 551 463 -;
#X msg 551 485 \$1 20;
#X obj 551 507 line~;
#X obj 662 378 tgl 15 0 empty empty empty 17 7 0 10 -262144 -1 -1 1
1;
#X msg 662 398 \; pd dsp \$1;
#X obj 537 302 loadbang;
#X msg 497 344 0.7;
#X msg 551 344 0;
#X msg 662 344 1;
#X obj 812 94 abs-hid;
#X obj 794 269 clip 0 1;
#X obj 794 203 t b f;
#X obj 794 246 +;
#X obj 794 224 f 0;
#X obj 862 207 f;
#X obj 794 49 metro 100;
#X obj 794 155 f;
#X floatatom 794 291 5 0 0 0 - - -, f 5;
#X obj 862 251 line;
#X msg 862 229 \$1 100;
#X obj 794 23 tgl 15 0 empty empty empty 17 7 0 10 -262144 -1 -1 1
1;
#X msg 690 207 0;
#X obj 794 179 * 0.01;
#X obj 690 14 loadbang;
#X msg 690 36 1;
#X obj 954 269 clip 0 1;
#X obj 954 203 t b f;
#X obj 954 246 +;
#X obj 954 224 f 0;
#X obj 1022 207 f;
#X obj 954 155 f;
#X floatatom 954 291 5 0 0 0 - - -, f 5;
#X obj 1022 251 line;
#X msg 1022 229 \$1 100;
#X obj 954 179 * -0.01;
#X msg 690 236 0.5;
#X connect 0 0 22 0;
#X connect 1 0 17 0;
#X connect 2 0 24 0;
#X connect 3 0 44 0;
#X connect 5 0 39 0;
#X connect 8 0 2 0;
#X connect 8 0 13 0;
#X connect 8 0 0 0;
#X connect 9 0 39 1;
#X connect 9 1 18 0;
#X connect 12 0 13 1;
#X connect 13 0 1 0;
#X connect 14 0 12 0;
#X connect 16 0 17 1;
#X connect 17 0 11 0;
#X connect 18 0 10 0;
#X connect 19 0 18 1;
#X connect 22 0 7 0;
#X connect 23 0 22 1;
#X connect 24 0 6 0;
#X connect 26 0 2 1;
#X connect 27 0 26 0;
#X connect 28 0 27 0;
#X connect 30 0 31 0;
#X connect 31 0 24 1;
#X connect 33 0 34 0;
#X connect 34 0 35 0;
#X connect 35 0 8 0;
#X connect 36 0 38 0;
#X connect 38 0 14 0;
#X connect 39 0 3 0;
#X connect 41 0 3 1;
#X connect 42 0 43 0;
#X connect 43 0 4 0;
#X connect 43 0 4 1;
#X connect 44 0 45 0;
#X connect 45 0 42 0;
#X connect 46 0 47 0;
#X connect 47 0 48 0;
#X connect 48 0 44 1;
#X connect 49 0 50 0;
#X connect 50 0 51 0;
#X connect 50 1 51 1;
#X connect 51 0 52 0;
#X connect 52 0 53 0;
#X connect 53 0 45 1;
#X connect 54 0 55 0;
#X connect 56 0 57 0;
#X connect 56 0 58 0;
#X connect 56 0 59 0;
#X connect 57 0 46 0;
#X connect 58 0 49 0;
#X connect 59 0 54 0;
#X connect 60 0 67 1;
#X connect 60 1 81 1;
#X connect 61 0 65 0;
#X connect 61 0 68 0;
#X connect 62 0 64 0;
#X connect 62 1 63 1;
#X connect 63 0 61 0;
#X connect 64 0 63 0;
#X connect 65 0 64 1;
#X connect 65 0 70 0;
#X connect 66 0 67 0;
#X connect 66 0 81 0;
#X connect 67 0 73 0;
#X connect 69 0 40 0;
#X connect 70 0 69 0;
#X connect 71 0 66 0;
#X connect 72 0 64 1;
#X connect 73 0 62 0;
#X connect 74 0 75 0;
#X connect 74 0 72 0;
#X connect 74 0 86 0;
#X connect 75 0 71 0;
#X connect 76 0 80 0;
#X connect 76 0 82 0;
#X connect 77 0 79 0;
#X connect 77 1 78 1;
#X connect 78 0 76 0;
#X connect 79 0 78 0;
#X connect 80 0 79 1;
#X connect 80 0 84 0;
#X connect 81 0 85 0;
#X connect 83 0 32 0;
#X connect 84 0 83 0;
#X connect 85 0 77 0;
#X connect 86 0 79 1;
#X restore 517 385 pd sound;
#X obj 297 199 image helicopter.gif;
