#N canvas 0 0 448 326 10;
#X text 36 25 transport controls;
#X obj 83 99 loadbang;
#X msg 83 121 250;
#X obj 37 96 t f b;
#X obj 130 214 s synthtime;
#X obj 99 239 s drumtime;
#X obj 68 264 s scoretime;
#X obj 37 289 s trig;
#X obj 130 130 r zero;
#X obj 37 59 r start-stop;
#X obj 94 159 s period;
#X obj 37 186 A2-masterclock;
#X text 199 148 send out global data;
#X text 165 98 default tempo 240 bpm;
#X connect 1 0 2 0;
#X connect 2 0 10 0;
#X connect 2 0 11 1;
#X connect 3 0 11 0;
#X connect 3 1 2 0;
#X connect 8 0 11 2;
#X connect 9 0 3 0;
#X connect 11 0 7 0;
#X connect 11 1 6 0;
#X connect 11 2 5 0;
#X connect 11 3 4 0;
