#N canvas 0 0 282 287 10;
#X obj 66 101 catch~ right;
#X obj 15 55 catch~ left;
#X obj 66 198 *~;
#X obj 14 198 *~;
#X obj 172 121 line~;
#X msg 172 99 \$1 20;
#X obj 15 235 dac~ 1 2;
#X obj 172 76 inlet volume;
#X text 77 14 mixer output;
#X text 104 199 main left and right outs;
#X connect 0 0 2 0;
#X connect 1 0 3 0;
#X connect 2 0 6 1;
#X connect 3 0 6 0;
#X connect 4 0 2 1;
#X connect 4 0 3 1;
#X connect 5 0 4 0;
#X connect 7 0 5 0;
