#N canvas 0 0 454 301 10;
#X obj 18 120 phasor~ 300;
#X obj 18 98 mtof;
#X obj 104 204 *~ 0.1;
#X obj 104 120 phasor~ 300;
#X obj 104 99 mtof;
#X obj 191 120 phasor~ 300;
#X obj 191 98 mtof;
#X obj 277 119 phasor~ 300;
#X obj 277 98 mtof;
#X obj 18 75 inlet;
#X obj 104 74 inlet;
#X obj 191 74 inlet;
#X obj 277 74 inlet;
#X obj 104 226 outlet~;
#X obj 18 145 -~ 0.5;
#X obj 104 145 -~ 0.5;
#X obj 191 145 -~ 0.5;
#X obj 277 145 -~ 0.5;
#X text 330 144 remove dc offset;
#X text 165 206 scale quite low;
#X text 328 97 separate [mtof];
#X text 108 34 oscillator bank;
#X text 341 58 4 x phasor;
#X connect 0 0 14 0;
#X connect 1 0 0 0;
#X connect 2 0 13 0;
#X connect 3 0 15 0;
#X connect 4 0 3 0;
#X connect 5 0 16 0;
#X connect 6 0 5 0;
#X connect 7 0 17 0;
#X connect 8 0 7 0;
#X connect 9 0 1 0;
#X connect 10 0 4 0;
#X connect 11 0 6 0;
#X connect 12 0 8 0;
#X connect 14 0 2 0;
#X connect 15 0 2 0;
#X connect 16 0 2 0;
#X connect 17 0 2 0;
