#N canvas 0 0 362 271 10;
#X msg 54 156 600 100;
#X msg 65 178 1800 80;
#X msg 43 135 300 130;
#X obj 43 103 select 0 1 2;
#X obj 43 79 random 4;
#X obj 42 244 outlet~;
#X obj 43 32 inlet;
#X obj 43 56 t;
#X obj 43 217 H4-kickdrum-synth;
#X text 134 128 choose one of three;
#X text 133 151 some with shorter decay;
#X text 39 6 kick drum wrapper;
#X connect 0 0 8 0;
#X connect 1 0 8 0;
#X connect 2 0 8 0;
#X connect 3 0 2 0;
#X connect 3 1 0 0;
#X connect 3 2 1 0;
#X connect 4 0 3 0;
#X connect 6 0 7 0;
#X connect 7 0 4 0;
#X connect 8 0 5 0;
