#N canvas 0 0 394 383 10;
#X obj 102 38 inlet;
#X obj 89 339 outlet~;
#X obj 90 164 line~;
#X obj 89 188 *~;
#X obj 89 211 *~;
#X msg 124 92 1 2;
#X obj 78 93 del 2;
#X obj 90 296 *~;
#X obj 90 275 osc~;
#X obj 89 235 *~ 100;
#X obj 89 255 +~ 20;
#X obj 89 318 *~ 0.3;
#X obj 162 92 unpack 1 2;
#X obj 77 133 pack 1 2;
#X msg 77 112 0;
#X obj 102 64 t b b l;
#X text 132 192 4th power decay;
#X text 144 277 affects amp and pitch;
#X text 158 147 short line decay;
#X text 142 245 base 20 and sweep 100;
#X text 82 8 kick drum synth;
#X connect 0 0 15 0;
#X connect 2 0 3 0;
#X connect 2 0 3 1;
#X connect 3 0 4 0;
#X connect 3 0 4 1;
#X connect 4 0 7 1;
#X connect 4 0 9 0;
#X connect 5 0 2 0;
#X connect 6 0 14 0;
#X connect 7 0 11 0;
#X connect 8 0 7 0;
#X connect 9 0 10 0;
#X connect 10 0 8 0;
#X connect 11 0 1 0;
#X connect 12 0 13 1;
#X connect 12 1 9 1;
#X connect 13 0 2 0;
#X connect 14 0 13 0;
#X connect 15 0 6 0;
#X connect 15 1 5 0;
#X connect 15 2 12 0;
