#N canvas 0 0 465 485 10;
#X obj 84 444 outlet~;
#X obj 85 401 *~;
#X obj 53 285 noise~;
#X obj 84 329 bp~ 400 2;
#X obj 100 198 line;
#X obj 100 222 *;
#X obj 100 247 *;
#X obj 113 285 * 100;
#X obj 113 307 + 600;
#X obj 190 161 unpack 1 2 3 4;
#X obj 84 423 *~;
#X obj 144 141 del 2;
#X msg 144 161 0 400;
#X msg 100 162 1 1;
#X obj 122 83 inlet params;
#X obj 122 112 t b b l;
#X text 205 140 get parameters;
#X text 26 59 (filter amount \, filter base \, resonance \, amplitude)
;
#X text 130 233 power 4 decay curve;
#X obj 100 352 sig~;
#X obj 101 375 lop~ 8;
#X text 154 363 smooth signal;
#X text 132 31 snare synth;
#X connect 1 0 10 0;
#X connect 2 0 3 0;
#X connect 3 0 1 0;
#X connect 4 0 5 0;
#X connect 4 0 5 1;
#X connect 5 0 6 0;
#X connect 5 0 6 1;
#X connect 6 0 7 0;
#X connect 6 0 19 0;
#X connect 7 0 8 0;
#X connect 8 0 3 1;
#X connect 9 0 7 1;
#X connect 9 1 8 1;
#X connect 9 2 3 2;
#X connect 9 3 10 1;
#X connect 10 0 0 0;
#X connect 11 0 12 0;
#X connect 12 0 4 0;
#X connect 13 0 4 0;
#X connect 14 0 15 0;
#X connect 15 0 13 0;
#X connect 15 1 11 0;
#X connect 15 2 9 0;
#X connect 19 0 20 0;
#X connect 20 0 1 1;
