#N canvas 0 0 170 145 10;
#X obj 23 38 inlet;
#X obj 23 117 outlet;
#X obj 23 62 random 2;
#X obj 23 90 sel 1;
#X text 16 11 random one of two;
#X connect 0 0 2 0;
#X connect 2 0 3 0;
#X connect 3 0 1 0;
