#N canvas 0 0 450 307 10;
#X obj 36 245 f;
#X obj 67 245 f;
#X obj 98 245 f;
#X obj 129 245 f;
#X obj 159 245 f;
#X obj 190 245 f;
#X obj 221 245 f;
#X obj 252 245 f;
#X obj 282 245 f;
#X obj 314 245 f;
#X obj 347 245 f;
#X obj 129 134 select 0 1 2 3 4 5 6 7 8 9 10;
#X obj 86 72 inlet chord;
#X obj 131 92 inlet trigger;
#X obj 180 287 outlet;
#X obj 86 156 unpack 1 2 3 4 5 6 7 8;
#X obj 298 219 + 12;
#X obj 330 219 + 12;
#X obj 363 219 + 12;
#X obj 131 113 random 12;
#X text 112 19 arp sequence;
#X text 209 58 float box selector;
#X text 262 105 copy some notes octave up;
#X connect 0 0 14 0;
#X connect 1 0 14 0;
#X connect 2 0 14 0;
#X connect 3 0 14 0;
#X connect 4 0 14 0;
#X connect 5 0 14 0;
#X connect 6 0 14 0;
#X connect 7 0 14 0;
#X connect 8 0 14 0;
#X connect 9 0 14 0;
#X connect 10 0 14 0;
#X connect 11 0 0 0;
#X connect 11 1 1 0;
#X connect 11 2 2 0;
#X connect 11 3 3 0;
#X connect 11 4 4 0;
#X connect 11 5 5 0;
#X connect 11 6 6 0;
#X connect 11 7 7 0;
#X connect 11 8 8 0;
#X connect 11 9 9 0;
#X connect 11 10 10 0;
#X connect 12 0 15 0;
#X connect 13 0 19 0;
#X connect 15 0 0 1;
#X connect 15 1 1 1;
#X connect 15 2 2 1;
#X connect 15 3 3 1;
#X connect 15 4 4 1;
#X connect 15 5 5 1;
#X connect 15 5 16 0;
#X connect 15 6 6 1;
#X connect 15 6 17 0;
#X connect 15 7 7 1;
#X connect 15 7 18 0;
#X connect 16 0 8 1;
#X connect 17 0 9 1;
#X connect 18 0 10 1;
#X connect 19 0 11 0;
