#N canvas 0 0 284 380 10;
#X obj 204 110 *;
#X obj 204 81 t b f;
#X obj 164 56 r ch6;
#X obj 204 56 r m6;
#X obj 128 269 r pan6;
#X obj 21 77 r synthtime;
#X obj 53 97 r drumtime;
#X obj 88 117 r chords;
#X obj 21 137 L2-saw-seq;
#X obj 108 193 loadbang;
#X obj 45 216 * 3;
#X msg 108 216 0.6;
#X obj 45 193 r period;
#X obj 21 161 L3-saw-synth;
#X text 75 19 saw-swoop part;
#X obj 21 294 B3-mixer-channel;
#X obj 20 239 K4-delay;
#X connect 0 0 15 2;
#X connect 1 0 0 0;
#X connect 1 1 0 1;
#X connect 2 0 0 0;
#X connect 3 0 1 0;
#X connect 4 0 15 3;
#X connect 5 0 8 0;
#X connect 6 0 8 1;
#X connect 7 0 8 2;
#X connect 8 0 13 0;
#X connect 9 0 11 0;
#X connect 10 0 16 1;
#X connect 11 0 16 2;
#X connect 12 0 10 0;
#X connect 13 0 16 0;
#X connect 16 0 15 0;
#X connect 16 1 15 1;
