#N canvas 0 0 599 458 10;
#X obj 62 190 select 0 1 2 3 4 5 6 7;
#X obj 62 165 random 8;
#X obj 120 104 mod 64;
#X obj 225 103 unpack 1 2 3 4 5 6 7 8 9 10 11 12;
#X obj 229 241 f;
#X obj 256 241 f;
#X obj 174 242 f;
#X obj 201 242 f;
#X obj 230 266 f;
#X obj 257 266 f;
#X obj 175 267 f;
#X obj 202 267 f;
#X obj 120 128 sel 56 60 63;
#X obj 8 104 mod 16;
#X obj 8 127 select 0;
#X obj 159 365 outlet;
#X msg 159 306 \$1 1 30 0.6 250 200 100 4000 0.3;
#X msg 169 331 \$1 1 10 0.6 450 250 400 6000 0.3;
#X obj 8 81 inlet synthtime;
#X obj 120 81 inlet drumtime;
#X obj 225 80 inlet chords;
#X text 303 255 random slice;
#X text 107 34 saw sequence;
#X text 405 315 two possible patches;
#X text 377 158 non root notes;
#X connect 0 0 6 0;
#X connect 0 1 7 0;
#X connect 0 2 4 0;
#X connect 0 3 5 0;
#X connect 0 4 10 0;
#X connect 0 5 11 0;
#X connect 0 6 8 0;
#X connect 0 7 9 0;
#X connect 1 0 0 0;
#X connect 2 0 12 0;
#X connect 3 2 6 1;
#X connect 3 3 7 1;
#X connect 3 4 4 1;
#X connect 3 5 5 1;
#X connect 3 6 10 1;
#X connect 3 7 11 1;
#X connect 3 8 8 1;
#X connect 3 9 9 1;
#X connect 4 0 16 0;
#X connect 5 0 16 0;
#X connect 6 0 16 0;
#X connect 7 0 16 0;
#X connect 8 0 17 0;
#X connect 9 0 17 0;
#X connect 10 0 17 0;
#X connect 11 0 17 0;
#X connect 12 0 1 0;
#X connect 12 1 1 0;
#X connect 12 2 1 0;
#X connect 13 0 14 0;
#X connect 14 0 1 0;
#X connect 16 0 15 0;
#X connect 17 0 15 0;
#X connect 18 0 13 0;
#X connect 19 0 2 0;
#X connect 20 0 3 0;
