#N canvas 392 127 988 610 10;
#X obj 424 170 / 127;
#X obj 469 329 == 0;
#X obj 549 329 == 1;
#X obj 424 385 f;
#X obj 424 351 spigot 1;
#X obj 504 351 spigot 0;
#X obj 504 281 avarager5;
#X obj 4 100 loadbang;
#X msg 4 148 1;
#X obj 424 264 f;
#X obj 424 238 spigot 1;
#X obj 549 67 inlet panic;
#X obj 809 154 sel 0;
#X obj 809 242 line;
#X obj 809 197 f;
#X obj 809 175 t b;
#X obj 424 208 - 100;
#X obj 424 189 * 200;
#X msg 56 180 100;
#X obj 424 70 inlet raw;
#X obj 424 543 outlet normalized;
#X obj 424 410 normalizer;
#X obj 100 105 cnv 15 100 240 empty empty AC-channel 5 12 0 14 -204800
-66577 0;
#X obj 133 199 vsl 10 100 -100 50 0 0 empty empty empty 0 -9 0 10 -261234
-1 -1 0 1;
#X obj 146 199 vsl 10 100 -50 100 0 0 empty empty empty 0 -9 0 10 -204786
-1 -1 9900 1;
#X floatatom 135 328 4 0 0 0 - - -, f 4;
#X floatatom 135 310 4 0 0 0 - - -, f 4;
#X obj 167 199 vsl 15 100 0 1 0 0 empty empty norm 0 -9 0 10 -232576
-1 -1 0 1;
#X floatatom 167 310 4 0 0 3 nor - -, f 4;
#X obj 105 165 tgl 15 0 empty empty avrg 17 7 0 10 -262144 -1 -1 1
1;
#X obj 152 165 bng 15 250 50 0 empty empty rst 17 7 0 10 -262144 -1
-1;
#X obj 105 139 tgl 15 0 empty empty ON/OFF 17 7 0 10 -258699 -1 -1
0 1;
#X obj 103 199 vsl 15 100 -100 100 0 0 empty empty 100G 0 -9 0 10 -262144
-1 -1 0 1;
#X floatatom 103 310 4 0 0 3 100g - -, f 4;
#X msg 4 122 0;
#X obj 615 312 f;
#X msg 16 180 -100;
#X obj 34 139 colorizer;
#X obj 135 390 s \$0-min;
#X obj 135 370 s \$0-max;
#X obj 516 385 r \$0-max;
#X obj 457 385 r \$0-min;
#X obj 615 290 r \$0-avrg-ON-OFF;
#X obj 284 180 s \$0-avrg-ON-OFF;
#X obj 284 154 s \$0-spi-ON-OFF;
#X obj 463 431 r \$0-spi-ON-OFF;
#X obj 424 454 spigot;
#X text 166 122 v03;
#X msg 809 220 \$1 \, 0 1000;
#X connect 0 0 17 0;
#X connect 1 0 4 1;
#X connect 2 0 5 1;
#X connect 3 0 21 0;
#X connect 4 0 3 0;
#X connect 5 0 3 0;
#X connect 6 0 5 0;
#X connect 7 0 8 0;
#X connect 7 0 30 0;
#X connect 7 0 34 0;
#X connect 8 0 29 0;
#X connect 8 0 27 0;
#X connect 9 0 6 0;
#X connect 9 0 4 0;
#X connect 10 0 9 0;
#X connect 11 0 31 0;
#X connect 12 0 15 0;
#X connect 13 0 27 0;
#X connect 14 0 48 0;
#X connect 15 0 14 0;
#X connect 16 0 32 0;
#X connect 17 0 16 0;
#X connect 18 0 24 0;
#X connect 19 0 0 0;
#X connect 21 0 46 0;
#X connect 23 0 25 0;
#X connect 24 0 26 0;
#X connect 25 0 38 0;
#X connect 26 0 39 0;
#X connect 27 0 28 0;
#X connect 28 0 20 0;
#X connect 28 0 14 1;
#X connect 29 0 43 0;
#X connect 30 0 18 0;
#X connect 30 0 36 0;
#X connect 31 0 10 1;
#X connect 31 0 12 0;
#X connect 31 0 37 0;
#X connect 31 0 44 0;
#X connect 32 0 33 0;
#X connect 33 0 10 0;
#X connect 34 0 31 0;
#X connect 35 0 1 0;
#X connect 35 0 2 0;
#X connect 36 0 23 0;
#X connect 37 0 31 0;
#X connect 40 0 21 2;
#X connect 41 0 21 1;
#X connect 42 0 35 0;
#X connect 45 0 46 1;
#X connect 46 0 27 0;
#X connect 48 0 13 0;
#X coords 0 -1 1 1 100 250 2 100 100;
