#N canvas 182 42 810 647 10;
#X obj 194 247 tabwrite \$0-buffer;
#X obj 214 168 f;
#X obj 254 168 + 1;
#X obj 254 113 loadbang;
#X msg 254 135 0;
#X floatatom 13 202 5 0 0 0 - - -, f 5;
#X obj 214 190 % 5;
#X floatatom 214 211 5 0 0 0 - - -, f 5;
#X obj 359 238 until;
#X obj 359 268 f;
#X obj 387 268 + 1;
#X obj 359 207 t a b;
#X obj 400 238 0;
#X msg 359 184 5;
#X obj 359 298 tabread \$0-buffer;
#X msg 431 174 0;
#X obj 359 324 +;
#X obj 399 324 f;
#X obj 340 376 / 5;
#X floatatom 340 398 5 0 0 0 - - -, f 5;
#X obj 340 353 f;
#X obj 340 157 t b b b;
#X obj 36 177 f;
#X msg 36 105 0;
#X msg 76 105 128;
#X msg 36 126 256;
#X msg 76 126 512;
#X msg 36 146 768;
#X msg 76 146 1023;
#X obj 175 140 t b f b;
#X obj 16 79 hsl 100 15 0 1023 0 0 empty empty empty -2 -8 0 10 -204786
-1 -1 0 1;
#X obj 535 38 loadbang;
#X obj 514 130 until;
#X obj 619 169 f;
#X obj 647 169 + 1;
#X obj 514 81 t b b;
#X msg 637 98 0;
#X msg 514 103 5;
#X obj 514 60 bng 15 250 50 0 empty empty empty 17 7 0 10 -262144 -1
-1;
#X obj 514 152 t b b;
#X msg 514 177 0;
#X obj 514 199 tabwrite \$0-buffer;
#X text 596 39 reset;
#X obj 514 16 inlet reset;
#X text 168 268 write value inside the;
#X text 168 288 circular buffer;
#X text 378 397 read values and calculate the arithmetic mean;
#X obj 10 10 cnv 15 130 60 empty empty avarager5 5 12 0 14 -233017
-66577 0;
#X obj 16 38 bng 15 250 50 0 empty empty reset 17 7 0 10 -262144 -1
-1;
#X obj 175 11 inlet raw;
#X obj 175 412 outlet avarage;
#X obj 562 302 table \$0-buffer;
#X text 107 15 v0.2;
#X connect 1 0 2 0;
#X connect 1 0 6 0;
#X connect 2 0 1 1;
#X connect 3 0 4 0;
#X connect 4 0 1 1;
#X connect 5 0 29 0;
#X connect 6 0 7 0;
#X connect 7 0 0 1;
#X connect 8 0 9 0;
#X connect 9 0 10 0;
#X connect 9 0 14 0;
#X connect 10 0 9 1;
#X connect 11 0 8 0;
#X connect 11 1 12 0;
#X connect 12 0 9 1;
#X connect 13 0 11 0;
#X connect 14 0 16 0;
#X connect 15 0 16 1;
#X connect 16 0 17 0;
#X connect 16 0 20 1;
#X connect 17 0 16 1;
#X connect 18 0 19 0;
#X connect 19 0 50 0;
#X connect 20 0 18 0;
#X connect 21 0 20 0;
#X connect 21 1 13 0;
#X connect 21 2 15 0;
#X connect 22 0 5 0;
#X connect 23 0 22 0;
#X connect 24 0 22 0;
#X connect 25 0 22 0;
#X connect 26 0 22 0;
#X connect 27 0 22 0;
#X connect 28 0 22 0;
#X connect 29 0 21 0;
#X connect 29 1 0 0;
#X connect 29 2 1 0;
#X connect 30 0 5 0;
#X connect 31 0 38 0;
#X connect 32 0 39 0;
#X connect 33 0 34 0;
#X connect 33 0 41 1;
#X connect 34 0 33 1;
#X connect 35 0 37 0;
#X connect 35 1 36 0;
#X connect 36 0 33 1;
#X connect 37 0 32 0;
#X connect 38 0 35 0;
#X connect 39 0 40 0;
#X connect 39 1 33 0;
#X connect 40 0 41 0;
#X connect 43 0 38 0;
#X connect 48 0 38 0;
#X connect 49 0 29 0;
#X coords 0 647 1 646 130 60 0;
