#N canvas 107 362 450 300 10;
#X obj 118 179 *~;
#X obj 185 262 throw~ right;
#X obj 103 262 throw~ left;
#X obj 178 178 *~;
#X obj 156 205 - 30;
#X obj 216 204 + 30;
#X obj 193 78 inlet volume;
#X obj 294 77 inlet pan;
#X obj 193 121 line~;
#X msg 193 99 \$1 20;
#X obj 59 46 inlet~ left;
#X obj 143 47 inlet~ right;
#X text 122 16 mixer channel;
#X obj 119 231 B4-pan;
#X obj 179 231 B4-pan;
#X text 295 114 volume and pan;
#X text 238 237 throw to left and right bus;
#X connect 0 0 13 0;
#X connect 3 0 14 0;
#X connect 4 0 13 1;
#X connect 5 0 14 1;
#X connect 6 0 9 0;
#X connect 7 0 5 0;
#X connect 7 0 4 0;
#X connect 8 0 3 1;
#X connect 8 0 0 1;
#X connect 9 0 8 0;
#X connect 10 0 0 0;
#X connect 11 0 3 0;
#X connect 13 0 2 0;
#X connect 13 1 1 0;
#X connect 14 0 2 0;
#X connect 14 1 1 0;
