#N canvas 0 0 600 299 10;
#X obj 13 35 inlet~ audio;
#X obj 13 219 outlet~ left;
#X obj 186 219 outlet~ right;
#X obj 172 38 inlet pan;
#X obj 202 129 swap 1;
#X obj 202 152 -;
#X obj 172 107 t f f;
#X obj 13 196 *~;
#X obj 186 196 *~;
#X obj 172 61 + 90;
#X obj 172 84 / 180;
#X text 226 59 pan in degrees -90 >< +90;
#X text 246 153 right = 1 - left;
#X text 99 4 simple panner;
#X connect 0 0 8 0;
#X connect 0 0 7 0;
#X connect 3 0 9 0;
#X connect 4 0 5 0;
#X connect 4 1 5 1;
#X connect 5 0 8 1;
#X connect 6 0 7 1;
#X connect 6 1 4 0;
#X connect 7 0 1 0;
#X connect 8 0 2 0;
#X connect 9 0 10 0;
#X connect 10 0 6 0;
