#N canvas 0 0 384 364 10;
#X obj 57 99 select 0 1 2 3 4 5 6 7;
#X obj 57 74 mod 16;
#X obj 11 127 select 8 9 10 11 12 13 14 15;
#X msg 188 153 bang;
#X obj 151 204 spigot;
#X obj 188 177 random 2;
#X obj 57 323 outlet;
#X text 240 100 2 part sequence;
#X text 113 74 16 beats to a bar;
#X obj 57 52 inlet;
#X msg 57 299 bang;
#X text 218 205 add in occasional;
#X text 104 6 kick sequence;
#X connect 0 0 10 0;
#X connect 0 2 4 0;
#X connect 0 6 10 0;
#X connect 0 7 4 0;
#X connect 1 0 0 0;
#X connect 1 0 2 0;
#X connect 1 0 3 0;
#X connect 2 0 10 0;
#X connect 2 2 4 0;
#X connect 2 4 10 0;
#X connect 3 0 5 0;
#X connect 4 0 10 0;
#X connect 5 0 4 1;
#X connect 9 0 1 0;
#X connect 10 0 6 0;
