#N canvas 0 0 462 420 10;
#X obj 60 98 select 0 1 2 3 4 5 6 7;
#X obj 60 73 mod 16;
#X obj 14 126 select 8 9 10 11 12 13 14 15;
#X obj 38 326 f;
#X obj 103 326 f;
#X msg 191 152 bang;
#X obj 154 302 f;
#X obj 154 203 spigot;
#X obj 154 326 - 12;
#X obj 191 176 random 2;
#X obj 103 374 outlet;
#X text 62 7 bass sequence;
#X obj 54 270 unpack 1 2;
#X text 221 204 add in occasional suboctave;
#X text 243 99 2 part sequence;
#X text 116 73 16 beats to a bar;
#X text 171 242 get the current chord;
#X text 173 268 pick the first two notes;
#X obj 60 51 inlet;
#X obj 9 31 inlet chords;
#X connect 0 0 4 0;
#X connect 0 2 7 0;
#X connect 0 6 4 0;
#X connect 1 0 0 0;
#X connect 1 0 2 0;
#X connect 1 0 5 0;
#X connect 2 2 7 0;
#X connect 2 4 3 0;
#X connect 3 0 10 0;
#X connect 4 0 10 0;
#X connect 5 0 9 0;
#X connect 6 0 8 0;
#X connect 7 0 6 0;
#X connect 8 0 10 0;
#X connect 9 0 7 1;
#X connect 12 0 3 1;
#X connect 12 1 4 1;
#X connect 12 1 6 1;
#X connect 18 0 1 0;
#X connect 19 0 12 0;
