#N canvas 0 0 450 300 10;
#X obj 85 39 inlet;
#X text 110 65 (note \, l0 \, l1 \, l2 \, f1 \, f2 \, A \, D \, Amp)
;
#X msg 85 86 \$1 0.298 0.353 0.172 0.122 0.251 20 1000 0.9;
#X obj 85 137 outlet~;
#X text 154 45 wrapper for cosynth \, bass sound;
#X obj 85 111 z-3cosynth;
#X connect 0 0 2 0;
#X connect 2 0 5 0;
#X connect 5 0 3 0;
