#N canvas 26 154 450 300 10;
#X obj 48 191 vcf~ 100 0.7;
#X obj 87 106 phasor~ 0.212;
#X obj 149 128 loadbang;
#X obj 49 75 inlet~;
#X obj 50 255 outlet~;
#X obj 74 45 inlet tempo;
#X obj 88 167 +~ 200;
#X obj 87 147 *~ 900;
#X obj 87 126 lop~ 0.2;
#X msg 149 150 0.3;
#X obj 163 44 inlet feedback;
#X obj 101 273 outlet~;
#X obj 274 44 inlet resonance;
#X text 108 11 filterdelay;
#X text 126 229 L-R delay;
#X text 194 105 slow moving saw lfo;
#X text 160 190 sweeps frequency up;
#X obj 49 231 K4-delay;
#X connect 0 0 17 0;
#X connect 1 0 8 0;
#X connect 2 0 9 0;
#X connect 3 0 0 0;
#X connect 5 0 17 1;
#X connect 6 0 0 1;
#X connect 7 0 6 0;
#X connect 8 0 7 0;
#X connect 9 0 0 2;
#X connect 10 0 17 2;
#X connect 12 0 0 2;
#X connect 17 0 4 0;
#X connect 17 1 11 0;
