#N canvas 0 0 450 300 10;
#X text 129 153 effects;
#X obj 114 105 loadbang;
#X obj 46 132 * 0.5;
#X msg 114 127 0.05;
#X obj 87 241 *;
#X obj 87 212 t b f;
#X obj 15 38 r chords;
#X obj 46 110 r period;
#X obj 123 188 r pan4;
#X obj 87 187 r m4;
#X obj 45 187 r ch4;
#X obj 15 60 J2-pluckseq;
#X obj 15 82 J3-pluck-synth;
#X obj 15 154 I4-filterdelay;
#X obj 16 267 B3-mixer-channel;
#X text 126 4 pluck strings;
#X text 125 80 same synth as before with different program;
#X connect 1 0 3 0;
#X connect 2 0 13 1;
#X connect 3 0 13 2;
#X connect 4 0 14 2;
#X connect 5 0 4 0;
#X connect 5 1 4 1;
#X connect 6 0 11 0;
#X connect 7 0 2 0;
#X connect 8 0 14 3;
#X connect 9 0 5 0;
#X connect 10 0 4 0;
#X connect 11 0 12 0;
#X connect 12 0 13 0;
#X connect 13 0 14 0;
#X connect 13 1 14 1;
