#N canvas 0 0 382 446 10;
#X obj 42 331 *~;
#X obj 32 82 mtof;
#X obj 32 27 inlet;
#X obj 40 419 outlet~;
#X obj 172 112 pack 1 1;
#X obj 160 173 pack 0 1;
#X obj 158 153 del 1;
#X obj 32 48 unpack 1 2 3 4 5 6 7 8 9;
#X obj 58 307 clip~ -0.9 0.9;
#X obj 6 227 phasor~;
#X obj 58 261 bp~ 100 1;
#X obj 83 226 phasor~;
#X obj 104 285 * -1;
#X obj 6 163 pack 1 1;
#X obj 82 162 pack 1 1;
#X obj 42 377 hip~ 50;
#X obj 151 284 * 1;
#X obj 42 353 *~ 0.5;
#X obj 45 185 +;
#X obj 41 398 *~;
#X obj 142 85 t b b;
#X obj 32 106 t f f f;
#X obj 173 226 line~;
#X obj 6 185 line~;
#X obj 82 184 line~;
#X obj 83 203 +~ 1;
#X text 251 195 detutned phasors;
#X text 251 257 filtered;
#X text 251 306 clipped;
#X text 105 2 sawslider;
#X connect 0 0 17 0;
#X connect 1 0 21 0;
#X connect 2 0 7 0;
#X connect 4 0 22 0;
#X connect 5 0 22 0;
#X connect 6 0 5 0;
#X connect 7 0 1 0;
#X connect 7 0 20 0;
#X connect 7 1 18 0;
#X connect 7 2 10 2;
#X connect 7 3 12 0;
#X connect 7 3 16 0;
#X connect 7 4 13 1;
#X connect 7 5 14 1;
#X connect 7 6 4 1;
#X connect 7 6 6 1;
#X connect 7 7 5 1;
#X connect 7 8 19 1;
#X connect 8 0 0 1;
#X connect 9 0 10 0;
#X connect 10 0 8 0;
#X connect 11 0 10 0;
#X connect 12 0 8 1;
#X connect 13 0 23 0;
#X connect 14 0 24 0;
#X connect 15 0 19 0;
#X connect 16 0 8 2;
#X connect 17 0 15 0;
#X connect 18 0 10 1;
#X connect 19 0 3 0;
#X connect 20 0 6 0;
#X connect 20 1 4 0;
#X connect 21 0 13 0;
#X connect 21 1 18 1;
#X connect 21 2 14 0;
#X connect 22 0 0 0;
#X connect 23 0 9 0;
#X connect 24 0 25 0;
#X connect 25 0 11 0;
