#N canvas 395 119 581 558 10;
#N canvas 125 91 1175 660 sounds 0;
#X obj 176 276 noise~;
#X obj 160 360 *~;
#X obj 363 411 dac~;
#X obj 144 204 sig~ 1;
#X obj 144 232 /~;
#X obj 193 182 *~;
#X obj 193 152 *~;
#X obj 144 384 +~;
#X obj 193 204 +~ 1;
#X obj 160 255 *~ 0.4;
#X obj 176 298 bp~ 700 1;
#X obj 7 71 phasor~;
#N canvas 5 50 292 361 rotor 0;
#N canvas 0 50 450 300 grapha 0;
#X obj 100 100 cnv 15 100 100 empty empty empty 20 12 0 14 -262144
-66577 0;
#N canvas 0 50 450 300 (subpatch) 0;
#X array A 100 float 0;
#X coords 0 1 99 -1 100 100 1;
#X restore 100 100 graph;
#X obj 289 155 inlet~;
#X obj 210 182 tabwrite~ A;
#X obj 222 110 metro 200;
#X obj 230 148 s b;
#X obj 221 86 tgl 15 0 empty empty empty 0 -6 0 8 -262144 -1 -1 0 1
;
#X connect 2 0 3 0;
#X connect 4 0 3 0;
#X connect 4 0 5 0;
#X connect 6 0 4 0;
#X coords 0 -1 1 1 100 100 1 100 100;
#X restore 4 260 pd grapha;
#X obj 117 227 *~;
#X obj 117 67 *~;
#X obj 117 135 +~;
#X obj 134 182 *~;
#X obj 133 110 sig~ 0.2;
#X obj 117 0 noise~;
#X obj 133 44 r brush-level;
#X obj 133 87 r rotor-level;
#X obj 117 22 bp~ 4000 1;
#X obj 133 204 *~;
#X obj 134 157 inlet~ drive;
#X obj 117 272 outlet~;
#N canvas 0 50 450 300 grapha 0;
#X obj 100 100 cnv 15 100 100 empty empty empty 20 12 0 14 -262144
-66577 0;
#N canvas 0 50 450 300 (subpatch) 0;
#X array B 100 float 0;
#X coords 0 1 99 -1 100 100 1;
#X restore 100 100 graph;
#X obj 289 155 inlet~;
#X obj 210 182 tabwrite~ B;
#X obj 210 156 r b;
#X connect 2 0 3 0;
#X connect 4 0 3 0;
#X coords 0 -1 1 1 100 100 1 100 100;
#X restore 189 259 pd grapha;
#X connect 1 0 12 0;
#X connect 1 0 13 0;
#X connect 2 0 3 0;
#X connect 3 0 1 0;
#X connect 3 0 0 0;
#X connect 4 0 10 0;
#X connect 4 0 10 1;
#X connect 5 0 3 1;
#X connect 6 0 9 0;
#X connect 7 0 2 1;
#X connect 8 0 5 0;
#X connect 9 0 2 0;
#X connect 10 0 1 1;
#X connect 11 0 4 0;
#X connect 11 0 4 1;
#X restore 7 204 pd rotor;
#N canvas 541 50 203 345 stator 0;
#X obj -1 96 sig~ 1;
#X obj 31 150 /~;
#X obj 47 123 +~ 1;
#X obj 47 96 *~;
#X obj 47 68 cos~;
#N canvas 0 50 450 300 grapha 0;
#X obj 100 100 cnv 15 100 100 empty empty empty 20 12 0 14 -262144
-66577 0;
#N canvas 0 50 450 300 (subpatch) 0;
#X array C 100 float 0;
#X coords 0 1 99 -1 100 100 1;
#X restore 100 100 graph;
#X obj 289 155 inlet~;
#X obj 210 156 r b;
#X obj 210 182 tabwrite~ C;
#X connect 2 0 4 0;
#X connect 3 0 4 0;
#X coords 0 -1 1 1 100 100 1 100 100;
#X restore 98 239 pd grapha;
#X obj 47 46 wrap~;
#X obj 30 172 -~ 0.5;
#X obj 47 22 *~ 2;
#X obj 48 -2 inlet~ drive;
#X obj 31 249 outlet~;
#X obj 31 222 *~;
#X obj 47 198 r stator-level;
#X connect 0 0 1 0;
#X connect 1 0 7 0;
#X connect 2 0 1 1;
#X connect 3 0 2 0;
#X connect 4 0 3 0;
#X connect 4 0 3 1;
#X connect 6 0 4 0;
#X connect 7 0 5 0;
#X connect 7 0 11 0;
#X connect 8 0 6 0;
#X connect 9 0 8 0;
#X connect 11 0 10 0;
#X connect 12 0 11 1;
#X restore 73 204 pd stator;
#X obj 8 230 +~;
#X obj 8 25 sig~;
#X obj 209 129 r fan-pulsewidth;
#X obj 9 273 *~;
#X obj 25 251 r motor-level;
#X obj 8 3 r main-speed;
#X obj 7 123 *~;
#X obj 23 99 r motor-ratio;
#X obj 7 146 wrap~;
#X obj 193 103 cos~;
#X obj 130 454 +~;
#X obj 145 427 *~;
#X obj 163 405 r fan-level;
#X obj 192 318 r fan-noise;
#X obj 176 339 *~;
#X obj 164 561 s~ fba;
#X obj 164 457 r~ fba;
#X obj 164 513 delread~ a 22;
#X obj 164 491 delwrite~ a 22;
#X obj 271 454 r~ fbb;
#X obj 271 598 s~ fbb;
#X obj 271 534 *~ 0.499;
#X obj 271 488 delwrite~ b 200;
#X obj 271 510 delread~ b 70;
#X obj 164 537 *~ 0.3;
#X msg 365 25 \; main-speed 22 \; motor-ratio 20 \; motor-level 0.2
\; brush-level 0.05 \; rotor-level 0.1 \; stator-level 0.3 \; fan-pulsewidth
4 \; fan-noise 0.2 \; fan-level 0.5;
#X msg 364 194 \; main-speed 0 \; motor-ratio 20 \; motor-level 0.2
\; brush-level 0.05 \; rotor-level 0.1 \; stator-level 0.3 \; fan-pulsewidth
4 \; fan-noise 0.2 \; fan-level 0.5;
#X obj 8 48 lop~ 0.1;
#X obj 389 596 throw~ mono;
#X obj 363 339 catch~ mono;
#X obj 509 157 sel 0 1;
#X obj 509 92 f;
#X obj 542 91 + 1;
#X obj 509 113 mod 2;
#X floatatom 509 135 5 0 0 0 - - -, f 5;
#X obj 509 44 bng 15 250 50 0 empty empty empty 17 7 0 10 -262144 -1
-1;
#X obj 538 44 loadbang;
#X obj 408 484 tgl 15 0 empty empty ON-OFF 17 7 0 10 -257985 -1 -1
1 1;
#X obj 390 568 *~;
#X obj 408 438 loadbang;
#X msg 408 460 1;
#X obj 509 16 r turn-on-off;
#X obj 645 114 sig~ 1;
#X obj 645 142 /~;
#X obj 694 92 *~;
#X obj 694 62 *~;
#X obj 710 43 nbx 5 14 1 10 0 1 empty empty pulsewidth 0 -6 1 8 -262144
-1 -1 6 256;
#X obj 694 114 +~ 1;
#X obj 645 165 *~ 0.2;
#X obj 694 13 osc~ 12;
#X obj 644 426 throw~ mono;
#X obj 663 324 tgl 15 0 empty empty ON-OFF 17 7 0 10 -257985 -1 -1
0 1;
#X obj 645 398 *~;
#X obj 663 278 loadbang;
#X msg 663 300 0;
#X obj 901 200 noise~;
#X obj 885 244 *~;
#X obj 869 128 sig~ 1;
#X obj 869 156 /~;
#X obj 918 106 *~;
#X obj 918 76 *~;
#X obj 934 57 nbx 5 14 1 10 0 1 empty empty pulsewidth 0 -6 1 8 -262144
-1 -1 5 256;
#X obj 869 268 +~;
#X obj 918 128 +~ 1;
#X obj 869 291 *~ 0.2;
#X obj 885 179 *~ 0.4;
#X obj 901 222 bp~ 700 1;
#X obj 918 27 osc~ 12;
#X obj 939 429 throw~ mono;
#X obj 957 329 tgl 15 0 empty empty ON-OFF 17 7 0 10 -257985 -1 -1
0 1;
#X obj 940 401 *~;
#X obj 957 283 loadbang;
#X msg 957 305 0;
#X msg 538 66 1;
#X msg 408 514 \$1 20;
#X obj 408 536 line~;
#X msg 663 349 \$1 20;
#X obj 663 371 line~;
#X msg 957 350 \$1 20;
#X obj 957 372 line~;
#X obj 952 490 loadbang;
#X msg 952 512 \; pd dsp 1;
#X obj 363 361 hip~ 5;
#X obj 363 383 clip~ -1 1;
#X connect 0 0 10 0;
#X connect 1 0 7 1;
#X connect 3 0 4 0;
#X connect 4 0 7 0;
#X connect 4 0 9 0;
#X connect 5 0 8 0;
#X connect 6 0 5 0;
#X connect 6 0 5 1;
#X connect 7 0 25 0;
#X connect 8 0 4 1;
#X connect 9 0 1 0;
#X connect 10 0 28 0;
#X connect 11 0 20 0;
#X connect 11 0 23 0;
#X connect 12 0 14 0;
#X connect 13 0 14 1;
#X connect 14 0 17 0;
#X connect 15 0 41 0;
#X connect 16 0 6 1;
#X connect 17 0 24 0;
#X connect 18 0 17 1;
#X connect 19 0 15 0;
#X connect 20 0 22 0;
#X connect 21 0 20 1;
#X connect 22 0 13 0;
#X connect 22 0 12 0;
#X connect 23 0 6 0;
#X connect 24 0 32 0;
#X connect 25 0 24 1;
#X connect 26 0 25 1;
#X connect 27 0 28 1;
#X connect 28 0 1 1;
#X connect 30 0 32 0;
#X connect 30 0 36 0;
#X connect 31 0 38 0;
#X connect 33 0 32 0;
#X connect 33 0 36 0;
#X connect 35 0 34 0;
#X connect 35 0 52 0;
#X connect 37 0 35 0;
#X connect 38 0 29 0;
#X connect 41 0 11 0;
#X connect 43 0 96 0;
#X connect 44 0 40 0;
#X connect 44 1 39 0;
#X connect 45 0 47 0;
#X connect 46 0 45 1;
#X connect 47 0 46 0;
#X connect 47 0 48 0;
#X connect 48 0 44 0;
#X connect 49 0 45 0;
#X connect 50 0 87 0;
#X connect 51 0 88 0;
#X connect 52 0 42 0;
#X connect 53 0 54 0;
#X connect 54 0 51 0;
#X connect 55 0 49 0;
#X connect 56 0 57 0;
#X connect 57 0 62 0;
#X connect 58 0 61 0;
#X connect 59 0 58 0;
#X connect 59 0 58 1;
#X connect 60 0 59 1;
#X connect 61 0 57 1;
#X connect 62 0 66 0;
#X connect 63 0 59 0;
#X connect 65 0 90 0;
#X connect 66 0 64 0;
#X connect 67 0 68 0;
#X connect 68 0 65 0;
#X connect 69 0 80 0;
#X connect 70 0 76 1;
#X connect 71 0 72 0;
#X connect 72 0 76 0;
#X connect 72 0 79 0;
#X connect 73 0 77 0;
#X connect 74 0 73 0;
#X connect 74 0 73 1;
#X connect 75 0 74 1;
#X connect 76 0 78 0;
#X connect 77 0 72 1;
#X connect 78 0 84 0;
#X connect 79 0 70 0;
#X connect 80 0 70 1;
#X connect 81 0 74 0;
#X connect 83 0 92 0;
#X connect 84 0 82 0;
#X connect 85 0 86 0;
#X connect 86 0 83 0;
#X connect 87 0 45 1;
#X connect 88 0 89 0;
#X connect 89 0 52 1;
#X connect 90 0 91 0;
#X connect 91 0 66 1;
#X connect 92 0 93 0;
#X connect 93 0 84 1;
#X connect 94 0 95 0;
#X connect 96 0 97 0;
#X connect 97 0 2 0;
#X connect 97 0 2 1;
#X restore 476 510 pd sounds;
#X obj 288 264 image fan.gif;
#X obj 288 233 bng 15 250 50 0 turn-on-off empty empty 17 7 0 10 -162280
-1 -1;
