#N canvas 0 0 503 373 10;
#X obj 103 49 loadbang;
#X obj 215 204 + 48;
#X obj 164 74 hsl 128 15 10 500 0 1 empty empty speed 40 7 1 8 -262144
-260818 -1 2200 1;
#X obj 103 120 t bang bang;
#X obj 103 142 random 100;
#X obj 103 164 / 100;
#X obj 103 98 metro 200;
#X text 182 97 every 200 ms;
#N canvas 0 0 361 288 sinewave 0;
#X obj 40 137 mtof;
#X obj 40 159 osc~;
#X obj 24 201 *~ 0.3;
#X obj 24 180 *~;
#X obj 24 91 inlet amp;
#X obj 40 63 inlet midinote;
#X text 44 15 Subpatched oscillator;
#X obj 25 246 outlet~;
#X text 103 92 inlet boxes connect to outside;
#X text 97 246 audio rate output;
#X text 103 163 reusable code inside;
#X connect 0 0 1 0;
#X connect 1 0 3 1;
#X connect 2 0 7 0;
#X connect 3 0 2 0;
#X connect 4 0 3 0;
#X connect 5 0 0 0;
#X restore 52 273 pd sinewave amp midinote;
#X obj 53 349 dac~;
#X text 261 273 subpatched oscillator;
#N canvas 0 0 361 288 sinewave 0;
#X obj 40 137 mtof;
#X obj 40 159 osc~;
#X obj 24 201 *~ 0.3;
#X obj 24 180 *~;
#X obj 24 91 inlet amp;
#X obj 40 63 inlet midinote;
#X text 44 15 Subpatched oscillator;
#X obj 25 246 outlet~;
#X text 103 92 inlet boxes connect to outside;
#X text 97 246 audio rate output;
#X text 103 163 reusable code inside;
#X connect 0 0 1 0;
#X connect 1 0 3 1;
#X connect 2 0 7 0;
#X connect 3 0 2 0;
#X connect 4 0 3 0;
#X connect 5 0 0 0;
#X restore 76 313 pd sinewave amp midinote;
#X text 264 311 a second copy;
#X obj 103 209 swap 1;
#X obj 103 232 -;
#X text 271 235 second oscillator plays harmony;
#X obj 215 147 random 6;
#X obj 215 175 * 5;
#X obj 239 235 + 5;
#X text 106 14 subpatched sine wave gens;
#X connect 0 0 6 0;
#X connect 1 0 8 1;
#X connect 1 0 18 0;
#X connect 2 0 6 1;
#X connect 3 0 4 0;
#X connect 3 1 16 0;
#X connect 4 0 5 0;
#X connect 5 0 8 0;
#X connect 5 0 13 0;
#X connect 6 0 3 0;
#X connect 8 0 9 0;
#X connect 11 0 9 1;
#X connect 13 0 14 0;
#X connect 13 1 14 1;
#X connect 14 0 11 0;
#X connect 16 0 17 0;
#X connect 17 0 1 0;
#X connect 18 0 11 1;
