#N canvas 15 0 428 377 10;
#X text 176 97 Perfect Hammond organ accompaniment;
#X msg 113 345;
#X obj 173 186 image ./images/Cheese.gif;
#X text 177 45 Low fat cheesy biscuit box;
#X obj 353 222 vradio 15 1 0 8 patternselect empty empty 0 -6 0 8 -260818
-90881 -1 5;
#X symbolatom 254 202 16 0 0 0 - beatname -;
#X obj 228 200 tgl 15 0 stopgo empty go! 0 -6 0 8 -123526 -262144 -1
1 1;
#N canvas 34 457 733 411 stuff 0;
#X msg 595 52 samba;
#X msg 85 99 bossanova;
#X msg 399 97 gabber;
#X msg 529 58 soul;
#X msg 616 91 rap;
#X msg 564 81 surf;
#X text 220 9 Style;
#N canvas 0 0 939 456 sequencer 0;
#X obj 31 398 s t-kick;
#X obj 98 398 s t-snr;
#X obj 162 398 s t-bongoh;
#X obj 251 398 s t-bongol;
#X obj 333 397 s t-clap;
#X obj 400 397 s t-cym;
#X obj 463 397 s t-bell;
#X obj 530 397 s t-hato;
#X obj 599 396 s t-hatc;
#X obj 666 396 s t-crash;
#X obj 406 174 f 0;
#X obj 437 174 + 1;
#X obj 445 207 mod 16;
#N canvas 0 0 590 343 16seq 0;
#X obj 187 176 unpack 0 1 2 3 4 5 6 7 8 9 10 11 12 13 14 15;
#X obj 160 98 sel 0 1 2 3 4 5 6 7 8 9 10 11 12 13 14 15;
#X obj 13 243 f;
#X obj 45 242 f;
#X obj 75 241 f;
#X obj 107 240 f;
#X obj 138 239 f;
#X obj 169 238 f;
#X obj 199 237 f;
#X obj 231 236 f;
#X obj 264 235 f;
#X obj 295 234 f;
#X obj 326 233 f;
#X obj 358 232 f;
#X obj 388 231 f;
#X obj 420 230 f;
#X obj 450 229 f;
#X obj 482 228 f;
#X obj 237 280 sel 1;
#X obj 237 304 outlet;
#X obj 123 30 inlet;
#X obj 253 28 inlet;
#X msg 360 57 0 0 0 0 0 0 0 0 0 0 0 0 0 0 0 0;
#X obj 358 34 loadbang;
#X text 249 9 pattern;
#X text 120 8 time;
#X connect 0 0 2 1;
#X connect 0 1 3 1;
#X connect 0 2 4 1;
#X connect 0 3 5 1;
#X connect 0 4 6 1;
#X connect 0 5 7 1;
#X connect 0 6 8 1;
#X connect 0 7 9 1;
#X connect 0 8 10 1;
#X connect 0 9 11 1;
#X connect 0 10 12 1;
#X connect 0 11 13 1;
#X connect 0 12 14 1;
#X connect 0 13 15 1;
#X connect 0 14 16 1;
#X connect 0 15 17 1;
#X connect 1 0 2 0;
#X connect 1 1 3 0;
#X connect 1 2 4 0;
#X connect 1 3 5 0;
#X connect 1 4 6 0;
#X connect 1 5 7 0;
#X connect 1 6 8 0;
#X connect 1 7 9 0;
#X connect 1 8 10 0;
#X connect 1 9 11 0;
#X connect 1 10 12 0;
#X connect 1 11 13 0;
#X connect 1 12 14 0;
#X connect 1 13 15 0;
#X connect 1 14 16 0;
#X connect 1 15 17 0;
#X connect 2 0 18 0;
#X connect 3 0 18 0;
#X connect 4 0 18 0;
#X connect 5 0 18 0;
#X connect 6 0 18 0;
#X connect 7 0 18 0;
#X connect 8 0 18 0;
#X connect 9 0 18 0;
#X connect 10 0 18 0;
#X connect 11 0 18 0;
#X connect 12 0 18 0;
#X connect 13 0 18 0;
#X connect 14 0 18 0;
#X connect 15 0 18 0;
#X connect 16 0 18 0;
#X connect 17 0 18 0;
#X connect 18 0 19 0;
#X connect 20 0 1 0;
#X connect 21 0 0 0;
#X connect 22 0 0 0;
#X connect 23 0 22 0;
#X restore 46 335 pd 16seq;
#N canvas 0 0 590 343 16seq 0;
#X obj 187 176 unpack 0 1 2 3 4 5 6 7 8 9 10 11 12 13 14 15;
#X obj 160 98 sel 0 1 2 3 4 5 6 7 8 9 10 11 12 13 14 15;
#X obj 13 243 f;
#X obj 45 242 f;
#X obj 75 241 f;
#X obj 107 240 f;
#X obj 138 239 f;
#X obj 169 238 f;
#X obj 199 237 f;
#X obj 231 236 f;
#X obj 264 235 f;
#X obj 295 234 f;
#X obj 326 233 f;
#X obj 358 232 f;
#X obj 388 231 f;
#X obj 420 230 f;
#X obj 450 229 f;
#X obj 482 228 f;
#X obj 237 280 sel 1;
#X obj 237 304 outlet;
#X obj 123 30 inlet;
#X obj 253 28 inlet;
#X msg 360 57 0 0 0 0 0 0 0 0 0 0 0 0 0 0 0 0;
#X obj 358 34 loadbang;
#X text 249 9 pattern;
#X text 120 8 time;
#X connect 0 0 2 1;
#X connect 0 1 3 1;
#X connect 0 2 4 1;
#X connect 0 3 5 1;
#X connect 0 4 6 1;
#X connect 0 5 7 1;
#X connect 0 6 8 1;
#X connect 0 7 9 1;
#X connect 0 8 10 1;
#X connect 0 9 11 1;
#X connect 0 10 12 1;
#X connect 0 11 13 1;
#X connect 0 12 14 1;
#X connect 0 13 15 1;
#X connect 0 14 16 1;
#X connect 0 15 17 1;
#X connect 1 0 2 0;
#X connect 1 1 3 0;
#X connect 1 2 4 0;
#X connect 1 3 5 0;
#X connect 1 4 6 0;
#X connect 1 5 7 0;
#X connect 1 6 8 0;
#X connect 1 7 9 0;
#X connect 1 8 10 0;
#X connect 1 9 11 0;
#X connect 1 10 12 0;
#X connect 1 11 13 0;
#X connect 1 12 14 0;
#X connect 1 13 15 0;
#X connect 1 14 16 0;
#X connect 1 15 17 0;
#X connect 2 0 18 0;
#X connect 3 0 18 0;
#X connect 4 0 18 0;
#X connect 5 0 18 0;
#X connect 6 0 18 0;
#X connect 7 0 18 0;
#X connect 8 0 18 0;
#X connect 9 0 18 0;
#X connect 10 0 18 0;
#X connect 11 0 18 0;
#X connect 12 0 18 0;
#X connect 13 0 18 0;
#X connect 14 0 18 0;
#X connect 15 0 18 0;
#X connect 16 0 18 0;
#X connect 17 0 18 0;
#X connect 18 0 19 0;
#X connect 20 0 1 0;
#X connect 21 0 0 0;
#X connect 22 0 0 0;
#X connect 23 0 22 0;
#X restore 122 334 pd 16seq;
#N canvas 0 0 590 343 16seq 0;
#X obj 187 176 unpack 0 1 2 3 4 5 6 7 8 9 10 11 12 13 14 15;
#X obj 160 98 sel 0 1 2 3 4 5 6 7 8 9 10 11 12 13 14 15;
#X obj 13 243 f;
#X obj 45 242 f;
#X obj 75 241 f;
#X obj 107 240 f;
#X obj 138 239 f;
#X obj 169 238 f;
#X obj 199 237 f;
#X obj 231 236 f;
#X obj 264 235 f;
#X obj 295 234 f;
#X obj 326 233 f;
#X obj 358 232 f;
#X obj 388 231 f;
#X obj 420 230 f;
#X obj 450 229 f;
#X obj 482 228 f;
#X obj 237 280 sel 1;
#X obj 237 304 outlet;
#X obj 123 30 inlet;
#X obj 253 28 inlet;
#X msg 360 57 0 0 0 0 0 0 0 0 0 0 0 0 0 0 0 0;
#X obj 358 34 loadbang;
#X text 249 9 pattern;
#X text 120 8 time;
#X connect 0 0 2 1;
#X connect 0 1 3 1;
#X connect 0 2 4 1;
#X connect 0 3 5 1;
#X connect 0 4 6 1;
#X connect 0 5 7 1;
#X connect 0 6 8 1;
#X connect 0 7 9 1;
#X connect 0 8 10 1;
#X connect 0 9 11 1;
#X connect 0 10 12 1;
#X connect 0 11 13 1;
#X connect 0 12 14 1;
#X connect 0 13 15 1;
#X connect 0 14 16 1;
#X connect 0 15 17 1;
#X connect 1 0 2 0;
#X connect 1 1 3 0;
#X connect 1 2 4 0;
#X connect 1 3 5 0;
#X connect 1 4 6 0;
#X connect 1 5 7 0;
#X connect 1 6 8 0;
#X connect 1 7 9 0;
#X connect 1 8 10 0;
#X connect 1 9 11 0;
#X connect 1 10 12 0;
#X connect 1 11 13 0;
#X connect 1 12 14 0;
#X connect 1 13 15 0;
#X connect 1 14 16 0;
#X connect 1 15 17 0;
#X connect 2 0 18 0;
#X connect 3 0 18 0;
#X connect 4 0 18 0;
#X connect 5 0 18 0;
#X connect 6 0 18 0;
#X connect 7 0 18 0;
#X connect 8 0 18 0;
#X connect 9 0 18 0;
#X connect 10 0 18 0;
#X connect 11 0 18 0;
#X connect 12 0 18 0;
#X connect 13 0 18 0;
#X connect 14 0 18 0;
#X connect 15 0 18 0;
#X connect 16 0 18 0;
#X connect 17 0 18 0;
#X connect 18 0 19 0;
#X connect 20 0 1 0;
#X connect 21 0 0 0;
#X connect 22 0 0 0;
#X connect 23 0 22 0;
#X restore 199 333 pd 16seq;
#N canvas 0 0 590 343 16seq 0;
#X obj 187 176 unpack 0 1 2 3 4 5 6 7 8 9 10 11 12 13 14 15;
#X obj 160 98 sel 0 1 2 3 4 5 6 7 8 9 10 11 12 13 14 15;
#X obj 13 243 f;
#X obj 45 242 f;
#X obj 75 241 f;
#X obj 107 240 f;
#X obj 138 239 f;
#X obj 169 238 f;
#X obj 199 237 f;
#X obj 231 236 f;
#X obj 264 235 f;
#X obj 295 234 f;
#X obj 326 233 f;
#X obj 358 232 f;
#X obj 388 231 f;
#X obj 420 230 f;
#X obj 450 229 f;
#X obj 482 228 f;
#X obj 237 280 sel 1;
#X obj 237 304 outlet;
#X obj 123 30 inlet;
#X obj 253 28 inlet;
#X msg 360 57 0 0 0 0 0 0 0 0 0 0 0 0 0 0 0 0;
#X obj 358 34 loadbang;
#X text 249 9 pattern;
#X text 120 8 time;
#X connect 0 0 2 1;
#X connect 0 1 3 1;
#X connect 0 2 4 1;
#X connect 0 3 5 1;
#X connect 0 4 6 1;
#X connect 0 5 7 1;
#X connect 0 6 8 1;
#X connect 0 7 9 1;
#X connect 0 8 10 1;
#X connect 0 9 11 1;
#X connect 0 10 12 1;
#X connect 0 11 13 1;
#X connect 0 12 14 1;
#X connect 0 13 15 1;
#X connect 0 14 16 1;
#X connect 0 15 17 1;
#X connect 1 0 2 0;
#X connect 1 1 3 0;
#X connect 1 2 4 0;
#X connect 1 3 5 0;
#X connect 1 4 6 0;
#X connect 1 5 7 0;
#X connect 1 6 8 0;
#X connect 1 7 9 0;
#X connect 1 8 10 0;
#X connect 1 9 11 0;
#X connect 1 10 12 0;
#X connect 1 11 13 0;
#X connect 1 12 14 0;
#X connect 1 13 15 0;
#X connect 1 14 16 0;
#X connect 1 15 17 0;
#X connect 2 0 18 0;
#X connect 3 0 18 0;
#X connect 4 0 18 0;
#X connect 5 0 18 0;
#X connect 6 0 18 0;
#X connect 7 0 18 0;
#X connect 8 0 18 0;
#X connect 9 0 18 0;
#X connect 10 0 18 0;
#X connect 11 0 18 0;
#X connect 12 0 18 0;
#X connect 13 0 18 0;
#X connect 14 0 18 0;
#X connect 15 0 18 0;
#X connect 16 0 18 0;
#X connect 17 0 18 0;
#X connect 18 0 19 0;
#X connect 20 0 1 0;
#X connect 21 0 0 0;
#X connect 22 0 0 0;
#X connect 23 0 22 0;
#X restore 275 332 pd 16seq;
#N canvas 0 0 590 343 16seq 0;
#X obj 187 176 unpack 0 1 2 3 4 5 6 7 8 9 10 11 12 13 14 15;
#X obj 160 98 sel 0 1 2 3 4 5 6 7 8 9 10 11 12 13 14 15;
#X obj 13 243 f;
#X obj 45 242 f;
#X obj 75 241 f;
#X obj 107 240 f;
#X obj 138 239 f;
#X obj 169 238 f;
#X obj 199 237 f;
#X obj 231 236 f;
#X obj 264 235 f;
#X obj 295 234 f;
#X obj 326 233 f;
#X obj 358 232 f;
#X obj 388 231 f;
#X obj 420 230 f;
#X obj 450 229 f;
#X obj 482 228 f;
#X obj 237 280 sel 1;
#X obj 237 304 outlet;
#X obj 123 30 inlet;
#X obj 253 28 inlet;
#X msg 360 57 0 0 0 0 0 0 0 0 0 0 0 0 0 0 0 0;
#X obj 358 34 loadbang;
#X text 249 9 pattern;
#X text 120 8 time;
#X connect 0 0 2 1;
#X connect 0 1 3 1;
#X connect 0 2 4 1;
#X connect 0 3 5 1;
#X connect 0 4 6 1;
#X connect 0 5 7 1;
#X connect 0 6 8 1;
#X connect 0 7 9 1;
#X connect 0 8 10 1;
#X connect 0 9 11 1;
#X connect 0 10 12 1;
#X connect 0 11 13 1;
#X connect 0 12 14 1;
#X connect 0 13 15 1;
#X connect 0 14 16 1;
#X connect 0 15 17 1;
#X connect 1 0 2 0;
#X connect 1 1 3 0;
#X connect 1 2 4 0;
#X connect 1 3 5 0;
#X connect 1 4 6 0;
#X connect 1 5 7 0;
#X connect 1 6 8 0;
#X connect 1 7 9 0;
#X connect 1 8 10 0;
#X connect 1 9 11 0;
#X connect 1 10 12 0;
#X connect 1 11 13 0;
#X connect 1 12 14 0;
#X connect 1 13 15 0;
#X connect 1 14 16 0;
#X connect 1 15 17 0;
#X connect 2 0 18 0;
#X connect 3 0 18 0;
#X connect 4 0 18 0;
#X connect 5 0 18 0;
#X connect 6 0 18 0;
#X connect 7 0 18 0;
#X connect 8 0 18 0;
#X connect 9 0 18 0;
#X connect 10 0 18 0;
#X connect 11 0 18 0;
#X connect 12 0 18 0;
#X connect 13 0 18 0;
#X connect 14 0 18 0;
#X connect 15 0 18 0;
#X connect 16 0 18 0;
#X connect 17 0 18 0;
#X connect 18 0 19 0;
#X connect 20 0 1 0;
#X connect 21 0 0 0;
#X connect 22 0 0 0;
#X connect 23 0 22 0;
#X restore 344 330 pd 16seq;
#N canvas 0 0 590 343 16seq 0;
#X obj 187 176 unpack 0 1 2 3 4 5 6 7 8 9 10 11 12 13 14 15;
#X obj 160 98 sel 0 1 2 3 4 5 6 7 8 9 10 11 12 13 14 15;
#X obj 13 243 f;
#X obj 45 242 f;
#X obj 75 241 f;
#X obj 107 240 f;
#X obj 138 239 f;
#X obj 169 238 f;
#X obj 199 237 f;
#X obj 231 236 f;
#X obj 264 235 f;
#X obj 295 234 f;
#X obj 326 233 f;
#X obj 358 232 f;
#X obj 388 231 f;
#X obj 420 230 f;
#X obj 450 229 f;
#X obj 482 228 f;
#X obj 237 280 sel 1;
#X obj 237 304 outlet;
#X obj 123 30 inlet;
#X obj 253 28 inlet;
#X msg 360 57 0 0 0 0 0 0 0 0 0 0 0 0 0 0 0 0;
#X obj 358 34 loadbang;
#X text 249 9 pattern;
#X text 120 8 time;
#X connect 0 0 2 1;
#X connect 0 1 3 1;
#X connect 0 2 4 1;
#X connect 0 3 5 1;
#X connect 0 4 6 1;
#X connect 0 5 7 1;
#X connect 0 6 8 1;
#X connect 0 7 9 1;
#X connect 0 8 10 1;
#X connect 0 9 11 1;
#X connect 0 10 12 1;
#X connect 0 11 13 1;
#X connect 0 12 14 1;
#X connect 0 13 15 1;
#X connect 0 14 16 1;
#X connect 0 15 17 1;
#X connect 1 0 2 0;
#X connect 1 1 3 0;
#X connect 1 2 4 0;
#X connect 1 3 5 0;
#X connect 1 4 6 0;
#X connect 1 5 7 0;
#X connect 1 6 8 0;
#X connect 1 7 9 0;
#X connect 1 8 10 0;
#X connect 1 9 11 0;
#X connect 1 10 12 0;
#X connect 1 11 13 0;
#X connect 1 12 14 0;
#X connect 1 13 15 0;
#X connect 1 14 16 0;
#X connect 1 15 17 0;
#X connect 2 0 18 0;
#X connect 3 0 18 0;
#X connect 4 0 18 0;
#X connect 5 0 18 0;
#X connect 6 0 18 0;
#X connect 7 0 18 0;
#X connect 8 0 18 0;
#X connect 9 0 18 0;
#X connect 10 0 18 0;
#X connect 11 0 18 0;
#X connect 12 0 18 0;
#X connect 13 0 18 0;
#X connect 14 0 18 0;
#X connect 15 0 18 0;
#X connect 16 0 18 0;
#X connect 17 0 18 0;
#X connect 18 0 19 0;
#X connect 20 0 1 0;
#X connect 21 0 0 0;
#X connect 22 0 0 0;
#X connect 23 0 22 0;
#X restore 420 329 pd 16seq;
#N canvas 0 0 590 343 16seq 0;
#X obj 187 176 unpack 0 1 2 3 4 5 6 7 8 9 10 11 12 13 14 15;
#X obj 160 98 sel 0 1 2 3 4 5 6 7 8 9 10 11 12 13 14 15;
#X obj 13 243 f;
#X obj 45 242 f;
#X obj 75 241 f;
#X obj 107 240 f;
#X obj 138 239 f;
#X obj 169 238 f;
#X obj 199 237 f;
#X obj 231 236 f;
#X obj 264 235 f;
#X obj 295 234 f;
#X obj 326 233 f;
#X obj 358 232 f;
#X obj 388 231 f;
#X obj 420 230 f;
#X obj 450 229 f;
#X obj 482 228 f;
#X obj 237 280 sel 1;
#X obj 237 304 outlet;
#X obj 123 30 inlet;
#X obj 253 28 inlet;
#X msg 360 57 0 0 0 0 0 0 0 0 0 0 0 0 0 0 0 0;
#X obj 358 34 loadbang;
#X text 249 9 pattern;
#X text 120 8 time;
#X connect 0 0 2 1;
#X connect 0 1 3 1;
#X connect 0 2 4 1;
#X connect 0 3 5 1;
#X connect 0 4 6 1;
#X connect 0 5 7 1;
#X connect 0 6 8 1;
#X connect 0 7 9 1;
#X connect 0 8 10 1;
#X connect 0 9 11 1;
#X connect 0 10 12 1;
#X connect 0 11 13 1;
#X connect 0 12 14 1;
#X connect 0 13 15 1;
#X connect 0 14 16 1;
#X connect 0 15 17 1;
#X connect 1 0 2 0;
#X connect 1 1 3 0;
#X connect 1 2 4 0;
#X connect 1 3 5 0;
#X connect 1 4 6 0;
#X connect 1 5 7 0;
#X connect 1 6 8 0;
#X connect 1 7 9 0;
#X connect 1 8 10 0;
#X connect 1 9 11 0;
#X connect 1 10 12 0;
#X connect 1 11 13 0;
#X connect 1 12 14 0;
#X connect 1 13 15 0;
#X connect 1 14 16 0;
#X connect 1 15 17 0;
#X connect 2 0 18 0;
#X connect 3 0 18 0;
#X connect 4 0 18 0;
#X connect 5 0 18 0;
#X connect 6 0 18 0;
#X connect 7 0 18 0;
#X connect 8 0 18 0;
#X connect 9 0 18 0;
#X connect 10 0 18 0;
#X connect 11 0 18 0;
#X connect 12 0 18 0;
#X connect 13 0 18 0;
#X connect 14 0 18 0;
#X connect 15 0 18 0;
#X connect 16 0 18 0;
#X connect 17 0 18 0;
#X connect 18 0 19 0;
#X connect 20 0 1 0;
#X connect 21 0 0 0;
#X connect 22 0 0 0;
#X connect 23 0 22 0;
#X restore 497 328 pd 16seq;
#N canvas 0 0 590 343 16seq 0;
#X obj 187 176 unpack 0 1 2 3 4 5 6 7 8 9 10 11 12 13 14 15;
#X obj 160 98 sel 0 1 2 3 4 5 6 7 8 9 10 11 12 13 14 15;
#X obj 13 243 f;
#X obj 45 242 f;
#X obj 75 241 f;
#X obj 107 240 f;
#X obj 138 239 f;
#X obj 169 238 f;
#X obj 199 237 f;
#X obj 231 236 f;
#X obj 264 235 f;
#X obj 295 234 f;
#X obj 326 233 f;
#X obj 358 232 f;
#X obj 388 231 f;
#X obj 420 230 f;
#X obj 450 229 f;
#X obj 482 228 f;
#X obj 237 280 sel 1;
#X obj 237 304 outlet;
#X obj 123 30 inlet;
#X obj 253 28 inlet;
#X msg 360 57 0 0 0 0 0 0 0 0 0 0 0 0 0 0 0 0;
#X obj 358 34 loadbang;
#X text 249 9 pattern;
#X text 120 8 time;
#X connect 0 0 2 1;
#X connect 0 1 3 1;
#X connect 0 2 4 1;
#X connect 0 3 5 1;
#X connect 0 4 6 1;
#X connect 0 5 7 1;
#X connect 0 6 8 1;
#X connect 0 7 9 1;
#X connect 0 8 10 1;
#X connect 0 9 11 1;
#X connect 0 10 12 1;
#X connect 0 11 13 1;
#X connect 0 12 14 1;
#X connect 0 13 15 1;
#X connect 0 14 16 1;
#X connect 0 15 17 1;
#X connect 1 0 2 0;
#X connect 1 1 3 0;
#X connect 1 2 4 0;
#X connect 1 3 5 0;
#X connect 1 4 6 0;
#X connect 1 5 7 0;
#X connect 1 6 8 0;
#X connect 1 7 9 0;
#X connect 1 8 10 0;
#X connect 1 9 11 0;
#X connect 1 10 12 0;
#X connect 1 11 13 0;
#X connect 1 12 14 0;
#X connect 1 13 15 0;
#X connect 1 14 16 0;
#X connect 1 15 17 0;
#X connect 2 0 18 0;
#X connect 3 0 18 0;
#X connect 4 0 18 0;
#X connect 5 0 18 0;
#X connect 6 0 18 0;
#X connect 7 0 18 0;
#X connect 8 0 18 0;
#X connect 9 0 18 0;
#X connect 10 0 18 0;
#X connect 11 0 18 0;
#X connect 12 0 18 0;
#X connect 13 0 18 0;
#X connect 14 0 18 0;
#X connect 15 0 18 0;
#X connect 16 0 18 0;
#X connect 17 0 18 0;
#X connect 18 0 19 0;
#X connect 20 0 1 0;
#X connect 21 0 0 0;
#X connect 22 0 0 0;
#X connect 23 0 22 0;
#X restore 573 327 pd 16seq;
#N canvas 0 0 590 343 16seq 0;
#X obj 187 176 unpack 0 1 2 3 4 5 6 7 8 9 10 11 12 13 14 15;
#X obj 160 98 sel 0 1 2 3 4 5 6 7 8 9 10 11 12 13 14 15;
#X obj 13 243 f;
#X obj 45 242 f;
#X obj 75 241 f;
#X obj 107 240 f;
#X obj 138 239 f;
#X obj 169 238 f;
#X obj 199 237 f;
#X obj 231 236 f;
#X obj 264 235 f;
#X obj 295 234 f;
#X obj 326 233 f;
#X obj 358 232 f;
#X obj 388 231 f;
#X obj 420 230 f;
#X obj 450 229 f;
#X obj 482 228 f;
#X obj 237 280 sel 1;
#X obj 237 304 outlet;
#X obj 123 30 inlet;
#X obj 253 28 inlet;
#X msg 360 57 0 0 0 0 0 0 0 0 0 0 0 0 0 0 0 0;
#X obj 358 34 loadbang;
#X text 249 9 pattern;
#X text 120 8 time;
#X connect 0 0 2 1;
#X connect 0 1 3 1;
#X connect 0 2 4 1;
#X connect 0 3 5 1;
#X connect 0 4 6 1;
#X connect 0 5 7 1;
#X connect 0 6 8 1;
#X connect 0 7 9 1;
#X connect 0 8 10 1;
#X connect 0 9 11 1;
#X connect 0 10 12 1;
#X connect 0 11 13 1;
#X connect 0 12 14 1;
#X connect 0 13 15 1;
#X connect 0 14 16 1;
#X connect 0 15 17 1;
#X connect 1 0 2 0;
#X connect 1 1 3 0;
#X connect 1 2 4 0;
#X connect 1 3 5 0;
#X connect 1 4 6 0;
#X connect 1 5 7 0;
#X connect 1 6 8 0;
#X connect 1 7 9 0;
#X connect 1 8 10 0;
#X connect 1 9 11 0;
#X connect 1 10 12 0;
#X connect 1 11 13 0;
#X connect 1 12 14 0;
#X connect 1 13 15 0;
#X connect 1 14 16 0;
#X connect 1 15 17 0;
#X connect 2 0 18 0;
#X connect 3 0 18 0;
#X connect 4 0 18 0;
#X connect 5 0 18 0;
#X connect 6 0 18 0;
#X connect 7 0 18 0;
#X connect 8 0 18 0;
#X connect 9 0 18 0;
#X connect 10 0 18 0;
#X connect 11 0 18 0;
#X connect 12 0 18 0;
#X connect 13 0 18 0;
#X connect 14 0 18 0;
#X connect 15 0 18 0;
#X connect 16 0 18 0;
#X connect 17 0 18 0;
#X connect 18 0 19 0;
#X connect 20 0 1 0;
#X connect 21 0 0 0;
#X connect 22 0 0 0;
#X connect 23 0 22 0;
#X restore 642 325 pd 16seq;
#N canvas 0 0 590 343 16seq 0;
#X obj 187 176 unpack 0 1 2 3 4 5 6 7 8 9 10 11 12 13 14 15;
#X obj 160 98 sel 0 1 2 3 4 5 6 7 8 9 10 11 12 13 14 15;
#X obj 13 243 f;
#X obj 45 242 f;
#X obj 75 241 f;
#X obj 107 240 f;
#X obj 138 239 f;
#X obj 169 238 f;
#X obj 199 237 f;
#X obj 231 236 f;
#X obj 264 235 f;
#X obj 295 234 f;
#X obj 326 233 f;
#X obj 358 232 f;
#X obj 388 231 f;
#X obj 420 230 f;
#X obj 450 229 f;
#X obj 482 228 f;
#X obj 237 280 sel 1;
#X obj 237 304 outlet;
#X obj 123 30 inlet;
#X obj 253 28 inlet;
#X msg 360 57 0 0 0 0 0 0 0 0 0 0 0 0 0 0 0 0;
#X obj 358 34 loadbang;
#X text 249 9 pattern;
#X text 120 8 time;
#X connect 0 0 2 1;
#X connect 0 1 3 1;
#X connect 0 2 4 1;
#X connect 0 3 5 1;
#X connect 0 4 6 1;
#X connect 0 5 7 1;
#X connect 0 6 8 1;
#X connect 0 7 9 1;
#X connect 0 8 10 1;
#X connect 0 9 11 1;
#X connect 0 10 12 1;
#X connect 0 11 13 1;
#X connect 0 12 14 1;
#X connect 0 13 15 1;
#X connect 0 14 16 1;
#X connect 0 15 17 1;
#X connect 1 0 2 0;
#X connect 1 1 3 0;
#X connect 1 2 4 0;
#X connect 1 3 5 0;
#X connect 1 4 6 0;
#X connect 1 5 7 0;
#X connect 1 6 8 0;
#X connect 1 7 9 0;
#X connect 1 8 10 0;
#X connect 1 9 11 0;
#X connect 1 10 12 0;
#X connect 1 11 13 0;
#X connect 1 12 14 0;
#X connect 1 13 15 0;
#X connect 1 14 16 0;
#X connect 1 15 17 0;
#X connect 2 0 18 0;
#X connect 3 0 18 0;
#X connect 4 0 18 0;
#X connect 5 0 18 0;
#X connect 6 0 18 0;
#X connect 7 0 18 0;
#X connect 8 0 18 0;
#X connect 9 0 18 0;
#X connect 10 0 18 0;
#X connect 11 0 18 0;
#X connect 12 0 18 0;
#X connect 13 0 18 0;
#X connect 14 0 18 0;
#X connect 15 0 18 0;
#X connect 16 0 18 0;
#X connect 17 0 18 0;
#X connect 18 0 19 0;
#X connect 20 0 1 0;
#X connect 21 0 0 0;
#X connect 22 0 0 0;
#X connect 23 0 22 0;
#X restore 718 324 pd 16seq;
#X obj 406 117 metro 150;
#N canvas 0 0 590 343 16seq 0;
#X obj 187 176 unpack 0 1 2 3 4 5 6 7 8 9 10 11 12 13 14 15;
#X obj 160 98 sel 0 1 2 3 4 5 6 7 8 9 10 11 12 13 14 15;
#X obj 13 243 f;
#X obj 45 242 f;
#X obj 75 241 f;
#X obj 107 240 f;
#X obj 138 239 f;
#X obj 169 238 f;
#X obj 199 237 f;
#X obj 231 236 f;
#X obj 264 235 f;
#X obj 295 234 f;
#X obj 326 233 f;
#X obj 358 232 f;
#X obj 388 231 f;
#X obj 420 230 f;
#X obj 450 229 f;
#X obj 482 228 f;
#X obj 237 280 sel 1;
#X obj 237 304 outlet;
#X obj 123 30 inlet;
#X obj 253 28 inlet;
#X msg 360 57 0 0 0 0 0 0 0 0 0 0 0 0 0 0 0 0;
#X obj 358 34 loadbang;
#X text 249 9 pattern;
#X text 120 8 time;
#X connect 0 0 2 1;
#X connect 0 1 3 1;
#X connect 0 2 4 1;
#X connect 0 3 5 1;
#X connect 0 4 6 1;
#X connect 0 5 7 1;
#X connect 0 6 8 1;
#X connect 0 7 9 1;
#X connect 0 8 10 1;
#X connect 0 9 11 1;
#X connect 0 10 12 1;
#X connect 0 11 13 1;
#X connect 0 12 14 1;
#X connect 0 13 15 1;
#X connect 0 14 16 1;
#X connect 0 15 17 1;
#X connect 1 0 2 0;
#X connect 1 1 3 0;
#X connect 1 2 4 0;
#X connect 1 3 5 0;
#X connect 1 4 6 0;
#X connect 1 5 7 0;
#X connect 1 6 8 0;
#X connect 1 7 9 0;
#X connect 1 8 10 0;
#X connect 1 9 11 0;
#X connect 1 10 12 0;
#X connect 1 11 13 0;
#X connect 1 12 14 0;
#X connect 1 13 15 0;
#X connect 1 14 16 0;
#X connect 1 15 17 0;
#X connect 2 0 18 0;
#X connect 3 0 18 0;
#X connect 4 0 18 0;
#X connect 5 0 18 0;
#X connect 6 0 18 0;
#X connect 7 0 18 0;
#X connect 8 0 18 0;
#X connect 9 0 18 0;
#X connect 10 0 18 0;
#X connect 11 0 18 0;
#X connect 12 0 18 0;
#X connect 13 0 18 0;
#X connect 14 0 18 0;
#X connect 15 0 18 0;
#X connect 16 0 18 0;
#X connect 17 0 18 0;
#X connect 18 0 19 0;
#X connect 20 0 1 0;
#X connect 21 0 0 0;
#X connect 22 0 0 0;
#X connect 23 0 22 0;
#X restore 788 324 pd 16seq;
#X obj 414 27 route steps tempo swing kick snr bongoh bongol clap cym
bell hato hatc crash acc;
#X obj 489 160 max 1;
#X obj 488 180 min 16;
#X obj 478 118 *;
#N canvas 0 0 450 300 bpm2ms 0;
#X obj 207 34 inlet;
#X obj 212 249 outlet;
#X obj 214 176 /;
#X obj 208 130 t b f;
#X msg 192 152 1;
#X obj 208 82 max 10;
#X obj 207 58 min 300;
#X obj 208 106 / 60;
#X obj 213 198 * 1000;
#X obj 212 224 / 2;
#X connect 0 0 6 0;
#X connect 2 0 8 0;
#X connect 3 0 4 0;
#X connect 3 1 2 1;
#X connect 4 0 2 0;
#X connect 5 0 7 0;
#X connect 6 0 5 0;
#X connect 7 0 3 0;
#X connect 8 0 9 0;
#X connect 9 0 1 0;
#X restore 464 87 pd bpm2ms;
#X obj 415 144 del 100;
#X obj 537 85 t;
#X obj 414 4 r sequencer;
#X obj 538 130 s timeacc;
#X obj 762 395 s t-acc;
#X obj 361 6 inlet;
#X text 346 30 stop-go;
#X obj 306 64 == 0;
#X obj 306 87 sel 1;
#X msg 306 108 0;
#X obj 538 106 del 3;
#X connect 10 0 11 0;
#X connect 10 0 12 0;
#X connect 11 0 10 1;
#X connect 12 0 13 0;
#X connect 12 0 14 0;
#X connect 12 0 15 0;
#X connect 12 0 16 0;
#X connect 12 0 17 0;
#X connect 12 0 18 0;
#X connect 12 0 19 0;
#X connect 12 0 20 0;
#X connect 12 0 21 0;
#X connect 12 0 22 0;
#X connect 12 0 24 0;
#X connect 13 0 0 0;
#X connect 14 0 1 0;
#X connect 15 0 2 0;
#X connect 16 0 3 0;
#X connect 17 0 4 0;
#X connect 18 0 5 0;
#X connect 19 0 6 0;
#X connect 20 0 7 0;
#X connect 21 0 8 0;
#X connect 22 0 9 0;
#X connect 23 0 30 0;
#X connect 23 0 10 0;
#X connect 24 0 34 0;
#X connect 25 0 26 0;
#X connect 25 1 29 0;
#X connect 25 2 28 1;
#X connect 25 2 31 0;
#X connect 25 3 13 1;
#X connect 25 4 14 1;
#X connect 25 5 15 1;
#X connect 25 6 16 1;
#X connect 25 7 17 1;
#X connect 25 8 18 1;
#X connect 25 9 19 1;
#X connect 25 10 20 1;
#X connect 25 11 21 1;
#X connect 25 12 22 1;
#X connect 25 13 24 1;
#X connect 26 0 27 0;
#X connect 27 0 12 1;
#X connect 28 0 30 1;
#X connect 29 0 23 1;
#X connect 29 0 28 0;
#X connect 29 0 33 0;
#X connect 30 0 10 0;
#X connect 31 0 29 0;
#X connect 31 0 40 0;
#X connect 32 0 25 0;
#X connect 35 0 23 0;
#X connect 35 0 37 0;
#X connect 37 0 38 0;
#X connect 38 0 39 0;
#X connect 39 0 10 0;
#X connect 40 0 28 0;
#X restore 152 311 pd sequencer;
#X msg 33 98 disco1;
#N canvas 0 0 1112 188 drumsynth 0;
#N canvas 0 0 518 471 clap 0;
#X obj 189 66 noise~;
#X obj 336 325 *~;
#X obj 151 310 *~;
#X obj 167 250 *~ 0.8;
#X obj 148 343 *~ 0.2;
#X obj 169 284 ead~ 1 800;
#X obj 376 145 del 30;
#X obj 377 165 del 20;
#X obj 378 185 del 15;
#X obj 376 206 del 10;
#X obj 63 217 *~ 0.1;
#X obj 85 147 bp~ 1300 10;
#X obj 253 147 bp~ 700 10;
#X obj 175 147 bp~ 2500 4;
#X obj 336 369 bp~ 2700 2;
#X obj 336 292 ead~ 3 50;
#X obj 3 147 lop~ 8000;
#X obj 188 106 hip~ 300;
#X obj 322 11 inlet;
#X obj 322 40 t b;
#X obj 339 415 outlet~;
#X obj 339 390 *~ 0.7;
#X connect 0 0 16 0;
#X connect 0 0 17 0;
#X connect 1 0 14 0;
#X connect 2 0 1 1;
#X connect 2 0 4 0;
#X connect 3 0 2 1;
#X connect 4 0 14 0;
#X connect 5 0 2 0;
#X connect 6 0 7 0;
#X connect 6 0 15 0;
#X connect 7 0 8 0;
#X connect 7 0 15 0;
#X connect 8 0 9 0;
#X connect 8 0 15 0;
#X connect 9 0 15 0;
#X connect 10 0 3 0;
#X connect 11 0 3 0;
#X connect 12 0 3 0;
#X connect 13 0 3 0;
#X connect 14 0 21 0;
#X connect 15 0 1 0;
#X connect 16 0 10 0;
#X connect 17 0 11 0;
#X connect 17 0 12 0;
#X connect 17 0 13 0;
#X connect 18 0 19 0;
#X connect 19 0 5 0;
#X connect 19 0 15 0;
#X connect 19 0 6 0;
#X connect 21 0 20 0;
#X restore 362 75 pd clap;
#N canvas 0 0 450 300 bongol 0;
#X obj 143 93 noise~;
#X obj 195 66 osc~ 420;
#X obj 194 120 clip~ -0.9 0.9;
#X obj 102 68 inlet;
#X obj 102 97 t b;
#X obj 187 185 *~;
#X obj 103 142 ead~ 3 150;
#X obj 195 93 *~ 20;
#X obj 194 144 bp~ 400 25;
#X obj 187 227 outlet~;
#X obj 187 206 *~ 0.6;
#X connect 0 0 2 0;
#X connect 1 0 7 0;
#X connect 2 0 8 0;
#X connect 3 0 4 0;
#X connect 4 0 6 0;
#X connect 5 0 10 0;
#X connect 6 0 5 0;
#X connect 7 0 2 0;
#X connect 8 0 5 1;
#X connect 10 0 9 0;
#X restore 288 76 pd bongol;
#N canvas 0 0 450 300 bongoh 0;
#X obj 143 93 noise~;
#X obj 194 120 clip~ -0.9 0.9;
#X obj 102 68 inlet;
#X obj 102 97 t b;
#X obj 187 185 *~;
#X obj 195 93 *~ 20;
#X obj 187 227 outlet~;
#X obj 194 144 bp~ 600 25;
#X obj 195 66 osc~ 660;
#X obj 103 142 ead~ 3 120;
#X obj 186 205 *~ 0.7;
#X connect 0 0 1 0;
#X connect 1 0 7 0;
#X connect 2 0 3 0;
#X connect 3 0 9 0;
#X connect 4 0 10 0;
#X connect 5 0 1 0;
#X connect 7 0 4 1;
#X connect 8 0 5 0;
#X connect 9 0 4 0;
#X connect 10 0 6 0;
#X restore 216 77 pd bongoh;
#N canvas 0 0 450 300 kick 0;
#X obj 129 190 osc~ 200;
#X obj 129 221 *~;
#X obj 195 191 sqrt~;
#X obj 128 133 *~ 15;
#X obj 128 157 +~ 70;
#X obj 128 242 *~ 0.5;
#X obj 129 65 ead~ 2 800;
#X msg 193 143 0;
#X obj 129 106 *~;
#X obj 129 12 inlet;
#X obj 129 37 t b;
#X obj 127 264 outlet~;
#X connect 0 0 1 0;
#X connect 1 0 5 0;
#X connect 2 0 1 1;
#X connect 3 0 4 0;
#X connect 4 0 0 0;
#X connect 5 0 11 0;
#X connect 6 0 2 0;
#X connect 6 0 8 0;
#X connect 6 0 8 1;
#X connect 7 0 0 1;
#X connect 8 0 3 0;
#X connect 9 0 10 0;
#X connect 10 0 7 0;
#X connect 10 0 6 0;
#X restore 103 77 pd kick;
#N canvas 0 0 722 561 cym 0;
#X obj 140 26 inlet;
#X obj 140 51 t b;
#X obj 202 400 outlet~;
#X obj 83 181 *~;
#X obj 230 183 *~;
#X obj 150 213 *~;
#X obj 139 265 +~;
#X obj 150 300 osc~ 5435;
#X obj 78 238 sig~ 3435;
#X obj 150 236 *~ 12000;
#X obj 23 144 osc~ 6221;
#X obj 98 144 osc~ 4409;
#X obj 172 143 osc~ 3383;
#X obj 248 142 osc~ 2441;
#X obj 228 235 noise~;
#X obj 180 328 +~;
#X obj 228 256 bp~ 9000 12;
#X obj 230 299 clip~ -0.7 0.7;
#X obj 180 354 *~;
#X obj 139 79 ead~ 2 8000;
#X obj 235 352 *~;
#X obj 157 107 ead~ 2 100;
#X obj 176 374 *~ 0.05;
#X obj 245 373 *~ 0.05;
#X connect 0 0 1 0;
#X connect 1 0 19 0;
#X connect 1 0 21 0;
#X connect 3 0 5 0;
#X connect 4 0 5 1;
#X connect 5 0 9 0;
#X connect 6 0 7 0;
#X connect 7 0 15 0;
#X connect 8 0 6 0;
#X connect 9 0 6 1;
#X connect 10 0 3 0;
#X connect 11 0 3 1;
#X connect 12 0 4 0;
#X connect 13 0 4 1;
#X connect 14 0 16 0;
#X connect 15 0 18 0;
#X connect 15 0 20 0;
#X connect 16 0 17 0;
#X connect 17 0 15 1;
#X connect 18 0 22 0;
#X connect 19 0 18 1;
#X connect 20 0 23 0;
#X connect 21 0 20 1;
#X connect 22 0 2 0;
#X connect 23 0 2 0;
#X restore 423 74 pd cym;
#N canvas 0 0 783 776 snr 0;
#X obj 173 494 outlet~;
#X obj 100 65 inlet;
#X obj 207 131 noise~;
#X obj 99 86 t b;
#X obj 95 215 osc~;
#X obj 161 337 *~;
#X obj 189 204 *~;
#X obj 174 361 *~;
#X obj 231 329 *~;
#X obj 75 137 *~;
#X obj 129 359 *~;
#X obj 75 162 *~ 12;
#X msg 158 64 bang;
#X obj 168 391 clip~ 0 1;
#X obj 95 238 clip~ -0.8 0.8;
#X obj 227 353 *~ 0.1;
#X obj 169 412 *~ 0.4;
#X obj 115 396 *~ 0.9;
#X obj 101 107 ead~ 1 300;
#X obj 207 155 bp~ 3300 0.5;
#X obj 207 179 lop~ 7000;
#X obj 173 465 bp~ 8000 1;
#X obj 134 300 clip~ -0.9 0.9;
#X obj 132 278 *~ 10000;
#X obj 76 191 +~ 150;
#X obj 174 436 *~ 0.35;
#X connect 1 0 3 0;
#X connect 2 0 19 0;
#X connect 3 0 18 0;
#X connect 4 0 14 0;
#X connect 5 0 7 0;
#X connect 6 0 7 1;
#X connect 7 0 13 0;
#X connect 8 0 15 0;
#X connect 9 0 10 1;
#X connect 9 0 11 0;
#X connect 10 0 17 0;
#X connect 11 0 24 0;
#X connect 12 0 3 0;
#X connect 13 0 16 0;
#X connect 14 0 10 0;
#X connect 14 0 23 0;
#X connect 15 0 25 0;
#X connect 16 0 25 0;
#X connect 17 0 25 0;
#X connect 18 0 5 1;
#X connect 18 0 6 0;
#X connect 18 0 9 0;
#X connect 18 0 9 1;
#X connect 18 0 8 1;
#X connect 19 0 8 0;
#X connect 19 0 20 0;
#X connect 20 0 6 1;
#X connect 21 0 0 0;
#X connect 22 0 5 0;
#X connect 23 0 22 0;
#X connect 24 0 4 0;
#X connect 25 0 21 0;
#X restore 164 77 pd snr;
#N canvas 0 0 575 582 bell 0;
#X obj 155 103 wrap~;
#X obj 138 76 -~ 0.5;
#X obj 154 127 -~ 0.5;
#X obj 138 153 -~;
#X obj 172 278 wrap~;
#X obj 155 255 -~ 0.5;
#X obj 171 303 -~ 0.5;
#X obj 155 327 -~;
#X obj 138 350 *~;
#X obj 96 442 outlet~;
#X obj 154 232 phasor~;
#X obj 228 32 t b;
#X obj 218 7 inlet;
#X obj 96 386 *~;
#X obj 56 103 wrap~;
#X obj 39 76 -~ 0.5;
#X obj 55 127 -~ 0.5;
#X obj 39 153 -~;
#X obj 73 278 wrap~;
#X obj 56 255 -~ 0.5;
#X obj 72 303 -~ 0.5;
#X obj 56 327 -~;
#X obj 39 350 *~;
#X obj 55 232 phasor~;
#X obj 39 53 phasor~ 2139;
#X obj 138 53 phasor~ 441;
#X obj 60 29 *~ 1.33;
#X obj 154 179 *~ 1000;
#X obj 55 179 *~ 1000;
#X obj 228 57 ead~ 1 300;
#X obj 95 407 *~ 0.25;
#X obj 101 10 sig~ 881;
#X obj 54 207 +~ 1763;
#X obj 153 207 +~ 884;
#X connect 0 0 2 0;
#X connect 1 0 0 0;
#X connect 1 0 3 0;
#X connect 2 0 3 1;
#X connect 3 0 8 0;
#X connect 3 0 27 0;
#X connect 4 0 6 0;
#X connect 5 0 4 0;
#X connect 5 0 7 0;
#X connect 6 0 7 1;
#X connect 7 0 8 1;
#X connect 8 0 13 0;
#X connect 10 0 5 0;
#X connect 11 0 29 0;
#X connect 12 0 11 0;
#X connect 13 0 30 0;
#X connect 14 0 16 0;
#X connect 15 0 14 0;
#X connect 15 0 17 0;
#X connect 16 0 17 1;
#X connect 17 0 22 0;
#X connect 17 0 28 0;
#X connect 18 0 20 0;
#X connect 19 0 18 0;
#X connect 19 0 21 0;
#X connect 20 0 21 1;
#X connect 21 0 22 1;
#X connect 22 0 13 0;
#X connect 23 0 19 0;
#X connect 24 0 15 0;
#X connect 25 0 1 0;
#X connect 26 0 24 0;
#X connect 27 0 33 0;
#X connect 28 0 32 0;
#X connect 29 0 13 1;
#X connect 30 0 9 0;
#X connect 31 0 25 0;
#X connect 31 0 26 0;
#X connect 32 0 23 0;
#X connect 33 0 10 0;
#X restore 479 74 pd bell;
#N canvas 0 0 722 561 hat 0;
#X obj 140 26 inlet;
#X obj 140 51 t b;
#X obj 202 400 outlet~;
#X obj 83 181 *~;
#X obj 230 183 *~;
#X obj 150 213 *~;
#X obj 139 265 +~;
#X obj 150 300 osc~ 5435;
#X obj 150 236 *~ 12000;
#X obj 23 144 osc~ 6221;
#X obj 248 142 osc~ 2441;
#X obj 228 235 noise~;
#X obj 180 328 +~;
#X obj 230 299 clip~ -0.7 0.7;
#X obj 180 354 *~;
#X obj 235 352 *~;
#X obj 157 107 ead~ 2 100;
#X obj 245 373 *~ 0.06;
#X obj 177 374 *~ 0.06;
#X obj 78 238 sig~ 7435;
#X obj 228 256 bp~ 12000 12;
#X obj 172 143 osc~ 3283;
#X obj 98 144 osc~ 4109;
#X obj 139 79 ead~ 2 200;
#X obj 245 101 sqrt~;
#X obj 246 77 ead~ 2 800;
#X obj 226 25 inlet;
#X obj 227 51 t b;
#X connect 0 0 1 0;
#X connect 1 0 16 0;
#X connect 1 0 23 0;
#X connect 3 0 5 0;
#X connect 4 0 5 1;
#X connect 5 0 8 0;
#X connect 6 0 7 0;
#X connect 7 0 12 0;
#X connect 8 0 6 1;
#X connect 9 0 3 0;
#X connect 10 0 4 1;
#X connect 11 0 20 0;
#X connect 12 0 14 0;
#X connect 12 0 15 0;
#X connect 13 0 12 1;
#X connect 14 0 18 0;
#X connect 15 0 17 0;
#X connect 16 0 15 1;
#X connect 17 0 2 0;
#X connect 18 0 2 0;
#X connect 19 0 6 0;
#X connect 20 0 13 0;
#X connect 21 0 4 0;
#X connect 22 0 3 1;
#X connect 23 0 14 1;
#X connect 24 0 14 1;
#X connect 25 0 24 0;
#X connect 26 0 27 0;
#X connect 27 0 25 0;
#X connect 27 0 16 0;
#X restore 541 74 pd hat;
#N canvas 0 0 722 561 crash 0;
#X obj 415 47 inlet;
#X obj 415 72 t b;
#X obj 205 454 outlet~;
#X obj 83 181 *~;
#X obj 230 183 *~;
#X obj 150 213 *~;
#X obj 139 265 +~;
#X obj 138 288 osc~ 5435;
#X obj 78 238 sig~ 3435;
#X obj 150 236 *~ 12000;
#X obj 248 142 osc~ 2441;
#X obj 228 235 noise~;
#X obj 180 354 *~;
#X obj 235 352 *~;
#X obj 23 144 osc~ 12221;
#X obj 100 144 osc~ 8309;
#X obj 172 143 osc~ 2383;
#X obj 228 278 clip~ -0.9 0.9;
#X obj 347 229 noise~;
#X obj 347 272 clip~ -0.9 0.9;
#X obj 228 256 bp~ 8000 4;
#X obj 414 100 ead~ 2 5000;
#X obj 142 319 *~;
#X obj 307 99 ead~ 4000 3000;
#X obj 245 373 *~ 0.2;
#X obj 320 349 *~;
#X obj 529 97 ead~ 1 200;
#X obj 432 128 ead~ 300 7000;
#X obj 177 374 *~ 0.2;
#X obj 348 377 *~ 0.4;
#X obj 346 250 bp~ 4000 7;
#X obj 204 433 *~ 0.8;
#X connect 0 0 1 0;
#X connect 1 0 21 0;
#X connect 1 0 23 0;
#X connect 1 0 26 0;
#X connect 1 0 27 0;
#X connect 3 0 5 0;
#X connect 4 0 5 1;
#X connect 5 0 9 0;
#X connect 6 0 7 0;
#X connect 7 0 22 0;
#X connect 8 0 6 0;
#X connect 9 0 6 1;
#X connect 10 0 4 1;
#X connect 11 0 20 0;
#X connect 12 0 28 0;
#X connect 13 0 24 0;
#X connect 14 0 3 0;
#X connect 15 0 3 1;
#X connect 16 0 4 0;
#X connect 17 0 12 0;
#X connect 18 0 30 0;
#X connect 19 0 13 0;
#X connect 19 0 25 0;
#X connect 20 0 17 0;
#X connect 21 0 12 1;
#X connect 22 0 12 0;
#X connect 22 0 25 0;
#X connect 23 0 22 1;
#X connect 24 0 31 0;
#X connect 25 0 29 0;
#X connect 26 0 25 1;
#X connect 27 0 13 1;
#X connect 28 0 31 0;
#X connect 29 0 31 0;
#X connect 30 0 19 0;
#X connect 31 0 2 0;
#X restore 593 74 pd crash;
#X obj 31 36 r t-kick;
#X obj 98 36 r t-snr;
#X obj 162 36 r t-bongoh;
#X obj 251 36 r t-bongol;
#X obj 332 35 r t-clap;
#X obj 400 35 r t-cym;
#X obj 463 35 r t-bell;
#X obj 615 34 r t-hato;
#X obj 538 34 r t-hatc;
#X obj 681 35 r t-crash;
#N canvas 0 0 331 381 accent 0;
#X obj 48 193 sig~ 0.6;
#X obj 49 218 +~;
#X obj 122 143 line~;
#X obj 121 168 *~;
#X obj 32 244 *~;
#X msg 125 89 1 1;
#X obj 228 90 r timeacc;
#X obj 163 115 pack 0 150;
#X obj 163 90 del 4;
#X obj 132 51 t b;
#X obj 30 137 inlet~;
#X obj 33 281 outlet~;
#X obj 132 19 inlet;
#X obj 121 193 *~ 0.6;
#X connect 0 0 1 0;
#X connect 1 0 4 1;
#X connect 2 0 3 0;
#X connect 2 0 3 1;
#X connect 3 0 13 0;
#X connect 4 0 11 0;
#X connect 5 0 2 0;
#X connect 6 0 7 1;
#X connect 7 0 2 0;
#X connect 8 0 7 0;
#X connect 9 0 5 0;
#X connect 9 0 8 0;
#X connect 10 0 4 0;
#X connect 12 0 9 0;
#X connect 13 0 1 1;
#X restore 412 127 pd accent;
#X obj 413 155 outlet~;
#X obj 757 35 r t-acc;
#X text 826 53 Warranty void if opened;
#X text 825 72 No user serviceable parts inside;
#X text 825 32 Risque de choc!;
#X connect 0 0 19 0;
#X connect 1 0 19 0;
#X connect 2 0 19 0;
#X connect 3 0 19 0;
#X connect 4 0 19 0;
#X connect 5 0 19 0;
#X connect 6 0 19 0;
#X connect 7 0 19 0;
#X connect 8 0 19 0;
#X connect 9 0 3 0;
#X connect 10 0 5 0;
#X connect 11 0 2 0;
#X connect 12 0 1 0;
#X connect 13 0 0 0;
#X connect 14 0 4 0;
#X connect 15 0 6 0;
#X connect 16 0 7 1;
#X connect 17 0 7 0;
#X connect 18 0 8 0;
#X connect 19 0 20 0;
#X connect 21 0 19 1;
#X restore 152 338 pd drumsynth;
#N canvas 0 0 450 300 effects 0;
#X obj 106 44 inlet~;
#X obj 107 148 outlet~;
#X obj 174 149 outlet~;
#N canvas 0 0 450 300 distort 0;
#X obj 115 40 inlet~;
#X obj 115 163 outlet~;
#X obj 115 68 clip~ -0.2 0.2;
#X obj 115 90 *~ 30;
#X obj 115 114 clip~ -0.9 0.9;
#X obj 115 137 *~ 0.5;
#X connect 0 0 2 0;
#X connect 2 0 3 0;
#X connect 3 0 4 0;
#X connect 4 0 5 0;
#X connect 5 0 1 0;
#X restore 188 115 pd distort;
#X obj 134 92 *~;
#X obj 187 64 unpack 1 2 3;
#X msg 192 30 1 0 0;
#X obj 189 92 *~;
#X obj 310 17 r effects;
#X obj 191 7 loadbang;
#N canvas 549 56 450 300 delay 0;
#X obj 145 33 inlet~;
#X obj 146 243 outlet~;
#X obj 192 99 delread~ slapback 120;
#X obj 235 34 r timeacc;
#X obj 215 127 *~ 0.05;
#X obj 178 155 *~ 0.3;
#X obj 193 76 delwrite~ slapback 800;
#X obj 235 55 * 2;
#X connect 0 0 1 0;
#X connect 0 0 6 0;
#X connect 2 0 4 0;
#X connect 2 0 5 0;
#X connect 3 0 7 0;
#X connect 4 0 6 0;
#X connect 5 0 1 0;
#X connect 7 0 2 0;
#X restore 283 116 pd delay;
#X obj 284 92 *~;
#X connect 0 0 4 0;
#X connect 0 0 7 0;
#X connect 0 0 11 0;
#X connect 3 0 1 0;
#X connect 3 0 2 0;
#X connect 4 0 1 0;
#X connect 4 0 2 0;
#X connect 5 0 4 1;
#X connect 5 1 7 1;
#X connect 5 2 11 1;
#X connect 6 0 5 0;
#X connect 7 0 3 0;
#X connect 8 0 5 0;
#X connect 9 0 6 0;
#X connect 10 0 2 0;
#X connect 10 0 1 0;
#X connect 11 0 10 0;
#X restore 152 365 pd effects;
#X obj 165 392 dac~;
#X obj 152 288 r stopgo;
#X obj 97 26 r patternselect;
#N canvas 406 186 250 164 namethatbeat 0;
#X obj 27 18 inlet;
#X obj 27 74 outlet;
#X obj 85 75 s beatname;
#X obj 85 52 list2symbol;
#X connect 0 0 1 0;
#X connect 0 0 3 0;
#X connect 3 0 2 0;
#X restore 105 143 pd namethatbeat;
#X obj 17 25 loadbang;
#N canvas 0 0 344 411 disco1 0;
#X msg 30 83 steps 16;
#X obj 17 385 s sequencer;
#X msg 18 23 bang;
#X obj 18 0 inlet;
#X obj 30 45 del 3;
#X msg 30 105 tempo 125;
#X msg 32 127 swing 0.5;
#X msg 32 169 snr 0 0 0 0 1 0 0 0 0 0 0 0 1 0 0 0;
#X msg 34 316 cym 0 0 0 0 0 0 0 0 0 0 0 0 0 0 0 0;
#X obj 128 383 s effects;
#X msg 124 52 1 0 0;
#X msg 33 232 bongoh 0 0 0 0 0 0 0 0 0 0 0 0 0 0 0 0;
#X msg 34 253 bongol 0 0 0 0 0 0 0 0 0 0 0 0 0 0 0 0;
#X msg 33 274 clap 0 0 0 0 0 0 0 0 0 0 0 0 0 0 0 0;
#X msg 34 295 bell 0 0 0 0 0 0 0 0 0 0 0 0 0 0 0 0;
#X msg 31 148 kick 1 0 0 0 0 0 0 1 1 0 0 0 0 0 0 0;
#X msg 33 340 acc 1 0 0 0 1 0 0 1 1 0 0 0 1 0 0 0;
#X msg 33 189 hato 0 0 0 0 0 0 0 0 0 0 0 0 0 0 1 0;
#X msg 31 210 hatc 1 0 1 0 1 0 1 0 1 0 1 0 1 0 0 0;
#X connect 0 0 1 0;
#X connect 2 0 0 0;
#X connect 2 0 5 0;
#X connect 2 0 15 0;
#X connect 2 0 7 0;
#X connect 2 0 17 0;
#X connect 2 0 18 0;
#X connect 2 0 11 0;
#X connect 2 0 12 0;
#X connect 2 0 13 0;
#X connect 2 0 14 0;
#X connect 2 0 8 0;
#X connect 2 0 16 0;
#X connect 2 0 4 0;
#X connect 2 0 10 0;
#X connect 3 0 2 0;
#X connect 4 0 6 0;
#X connect 5 0 1 0;
#X connect 6 0 1 0;
#X connect 7 0 1 0;
#X connect 8 0 1 0;
#X connect 10 0 9 0;
#X connect 11 0 1 0;
#X connect 12 0 1 0;
#X connect 13 0 1 0;
#X connect 14 0 1 0;
#X connect 15 0 1 0;
#X connect 16 0 1 0;
#X connect 17 0 1 0;
#X connect 18 0 1 0;
#X restore 41 222 pd disco1;
#N canvas 0 0 344 411 gabber 0;
#X msg 30 83 steps 16;
#X obj 17 385 s sequencer;
#X msg 18 23 bang;
#X obj 18 0 inlet;
#X obj 30 45 del 3;
#X msg 32 127 swing 0.5;
#X msg 33 232 bongoh 0 0 0 0 0 0 0 0 0 0 0 0 0 0 0 0;
#X msg 33 253 bongol 0 0 0 0 0 0 0 0 0 0 0 0 0 0 0 0;
#X msg 35 294 bell 0 0 0 0 0 0 0 0 0 0 0 0 0 0 0 0;
#X msg 30 105 tempo 200;
#X msg 33 189 hato 0 0 0 0 0 0 0 0 0 0 0 0 0 0 0 0;
#X msg 33 209 hatc 1 0 0 0 1 0 0 0 1 0 0 0 1 0 0 0;
#X msg 34 316 cym 0 0 1 0 0 0 1 0 0 0 1 0 0 0 1 0;
#X msg 33 168 snr 0 0 1 0 0 0 1 0 0 0 1 0 0 0 1 0;
#X msg 34 340 acc 1 0 1 0 1 0 1 0 1 0 1 0 1 1 1 1;
#X msg 32 274 clap 1 0 1 0 1 0 1 0 1 0 0 0 1 1 1 0;
#X msg 31 150 kick 1 0 0 0 1 0 0 0 1 0 0 0 1 0 1 0;
#X obj 130 384 s effects;
#X msg 146 102 0 1 0;
#X connect 0 0 1 0;
#X connect 2 0 0 0;
#X connect 2 0 9 0;
#X connect 2 0 16 0;
#X connect 2 0 13 0;
#X connect 2 0 10 0;
#X connect 2 0 11 0;
#X connect 2 0 6 0;
#X connect 2 0 7 0;
#X connect 2 0 15 0;
#X connect 2 0 8 0;
#X connect 2 0 12 0;
#X connect 2 0 14 0;
#X connect 2 0 4 0;
#X connect 2 0 18 0;
#X connect 3 0 2 0;
#X connect 4 0 5 0;
#X connect 5 0 1 0;
#X connect 6 0 1 0;
#X connect 7 0 1 0;
#X connect 8 0 1 0;
#X connect 9 0 1 0;
#X connect 10 0 1 0;
#X connect 11 0 1 0;
#X connect 12 0 1 0;
#X connect 13 0 1 0;
#X connect 14 0 1 0;
#X connect 15 0 1 0;
#X connect 16 0 1 0;
#X connect 18 0 17 0;
#X restore 553 219 pd gabber;
#N canvas 0 0 344 411 electro 0;
#X msg 30 83 steps 16;
#X obj 17 385 s sequencer;
#X msg 18 23 bang;
#X obj 18 0 inlet;
#X obj 30 45 del 3;
#X msg 32 127 swing 0.5;
#X obj 130 384 s effects;
#X msg 34 340 acc 0 0 0 0 0 0 0 0 0 0 0 0 0 0 0 0;
#X msg 30 105 tempo 105;
#X msg 33 209 hatc 1 0 1 0 1 0 0 1 1 0 1 0 1 0 0 1;
#X msg 33 168 snr 0 0 0 0 1 0 0 0 0 0 0 0 1 0 0 0;
#X msg 30 150 kick 1 1 0 1 0 0 0 1 0 1 1 0 0 0 1 0;
#X msg 33 189 hato 1 0 0 0 0 0 0 0 0 0 0 0 0 0 0 0;
#X msg 33 253 bongol 1 0 0 1 0 0 0 0 1 0 0 0 0 0 0 0;
#X msg 29 274 clap 0 0 0 0 0 0 0 0 0 0 0 0 0 0 0 0;
#X msg 34 317 cym 0 0 0 0 0 0 0 0 0 0 0 0 0 0 0 0;
#X msg 37 294 bell 0 0 0 0 0 0 0 0 0 0 0 0 0 0 0 0;
#X msg 33 232 bongoh 0 0 0 0 0 0 1 1 0 0 0 0 0 1 1 1;
#X msg 146 102 0 0 1;
#X connect 0 0 1 0;
#X connect 2 0 0 0;
#X connect 2 0 8 0;
#X connect 2 0 11 0;
#X connect 2 0 10 0;
#X connect 2 0 12 0;
#X connect 2 0 9 0;
#X connect 2 0 17 0;
#X connect 2 0 13 0;
#X connect 2 0 14 0;
#X connect 2 0 16 0;
#X connect 2 0 15 0;
#X connect 2 0 7 0;
#X connect 2 0 4 0;
#X connect 2 0 18 0;
#X connect 3 0 2 0;
#X connect 4 0 5 0;
#X connect 5 0 1 0;
#X connect 7 0 1 0;
#X connect 8 0 1 0;
#X connect 9 0 1 0;
#X connect 10 0 1 0;
#X connect 11 0 1 0;
#X connect 12 0 1 0;
#X connect 13 0 1 0;
#X connect 14 0 1 0;
#X connect 15 0 1 0;
#X connect 16 0 1 0;
#X connect 17 0 1 0;
#X connect 18 0 6 0;
#X restore 205 221 pd electro;
#X msg 159 98 electro;
#X msg 349 97 jungle;
#N canvas 0 0 344 411 jungle 0;
#X msg 30 83 steps 16;
#X obj 17 385 s sequencer;
#X msg 18 23 bang;
#X obj 18 0 inlet;
#X obj 30 45 del 3;
#X obj 130 384 s effects;
#X msg 37 294 bell 0 0 0 0 0 0 0 0 0 0 0 0 0 0 0 0;
#X msg 32 127 swing 0.45;
#X msg 33 232 bongoh 0 0 0 0 0 0 0 0 0 0 0 0 0 0 0 0;
#X msg 33 253 bongol 0 0 0 0 0 0 0 0 0 0 0 0 0 0 0 0;
#X msg 30 150 kick 1 0 0 0 0 0 0 0 0 0 1 0 0 0 0 0;
#X msg 29 106 tempo 180;
#X msg 33 209 hatc 1 0 0 1 0 0 1 1 1 0 0 0 1 0 1 0;
#X msg 33 189 hato 1 0 0 0 1 0 0 0 1 0 0 0 1 0 0 0;
#X msg 34 340 acc 1 0 0 0 1 0 0 0 0 0 1 0 1 0 0 0;
#X msg 145 102 1 0 0;
#X msg 29 274 clap 0 0 0 0 1 0 0 0 0 0 0 0 1 0 0 0;
#X msg 34 317 cym 0 0 0 0 1 0 0 0 0 0 0 0 1 0 0 0;
#X msg 34 168 snr 0 0 0 0 1 0 0 0 1 0 0 0 1 0 1 0;
#X connect 0 0 1 0;
#X connect 2 0 0 0;
#X connect 2 0 11 0;
#X connect 2 0 10 0;
#X connect 2 0 18 0;
#X connect 2 0 13 0;
#X connect 2 0 12 0;
#X connect 2 0 8 0;
#X connect 2 0 9 0;
#X connect 2 0 16 0;
#X connect 2 0 6 0;
#X connect 2 0 17 0;
#X connect 2 0 14 0;
#X connect 2 0 4 0;
#X connect 2 0 15 0;
#X connect 3 0 2 0;
#X connect 4 0 7 0;
#X connect 6 0 1 0;
#X connect 7 0 1 0;
#X connect 8 0 1 0;
#X connect 9 0 1 0;
#X connect 10 0 1 0;
#X connect 11 0 1 0;
#X connect 12 0 1 0;
#X connect 13 0 1 0;
#X connect 14 0 1 0;
#X connect 15 0 5 0;
#X connect 16 0 1 0;
#X connect 17 0 1 0;
#X connect 18 0 1 0;
#X restore 484 219 pd jungle;
#X msg 218 98 rock;
#X msg 568 23 pop;
#X obj 99 50 sel 0 1 2 3 4 5 6 7;
#N canvas 0 0 344 411 rock 0;
#X msg 30 83 steps 16;
#X obj 17 385 s sequencer;
#X msg 18 23 bang;
#X obj 18 0 inlet;
#X obj 30 45 del 3;
#X obj 130 384 s effects;
#X msg 33 232 bongoh 0 0 0 0 0 0 0 0 0 0 0 0 0 0 0 0;
#X msg 33 253 bongol 0 0 0 0 0 0 0 0 0 0 0 0 0 0 0 0;
#X msg 32 127 swing 0.53;
#X msg 29 106 tempo 135;
#X msg 33 208 hatc 1 0 1 0 1 0 0 0 1 0 1 0 1 0 0 0;
#X msg 33 189 hato 0 0 0 0 0 0 1 0 0 0 0 0 0 0 1 0;
#X msg 29 274 clap 0 0 0 0 1 0 0 0 0 0 0 0 1 0 1 0;
#X msg 33 317 cym 0 0 0 0 0 0 0 0 0 0 0 0 0 0 0 1;
#X msg 33 340 acc 1 0 1 0 0 0 0 0 0 0 1 0 0 0 0 0;
#X msg 145 102 1 0 0;
#X msg 37 294 bell 0 0 0 0 0 0 0 0 0 0 0 0 0 0 0 0;
#X msg 29 150 kick 1 0 1 0 0 0 0 0 1 0 0 0 0 0 0 0;
#X msg 33 169 snr 0 0 0 0 0 0 1 0 0 0 0 0 1 0 0 0;
#X connect 0 0 1 0;
#X connect 2 0 0 0;
#X connect 2 0 9 0;
#X connect 2 0 17 0;
#X connect 2 0 18 0;
#X connect 2 0 11 0;
#X connect 2 0 10 0;
#X connect 2 0 6 0;
#X connect 2 0 7 0;
#X connect 2 0 16 0;
#X connect 2 0 13 0;
#X connect 2 0 14 0;
#X connect 2 0 4 0;
#X connect 2 0 15 0;
#X connect 2 0 12 0;
#X connect 3 0 2 0;
#X connect 4 0 8 0;
#X connect 6 0 1 0;
#X connect 7 0 1 0;
#X connect 8 0 1 0;
#X connect 9 0 1 0;
#X connect 10 0 1 0;
#X connect 11 0 1 0;
#X connect 12 0 1 0;
#X connect 13 0 1 0;
#X connect 14 0 1 0;
#X connect 15 0 5 0;
#X connect 16 0 1 0;
#X connect 17 0 1 0;
#X connect 18 0 1 0;
#X restore 284 219 pd rock;
#N canvas 0 0 344 411 reggae 0;
#X msg 30 83 steps 16;
#X obj 17 385 s sequencer;
#X msg 18 23 bang;
#X obj 18 0 inlet;
#X obj 30 45 del 3;
#X obj 130 384 s effects;
#X msg 33 189 hato 0 0 0 0 0 0 0 0 0 0 0 0 0 0 0 0;
#X msg 145 102 1 0 0;
#X msg 33 232 bongoh 1 0 0 0 0 0 0 0 0 0 0 0 0 0 0 0;
#X msg 33 208 hatc 1 0 0 0 1 0 0 0 1 0 0 0 1 0 0 0;
#X msg 33 340 acc 0 1 0 0 0 1 0 0 0 1 0 0 0 1 0 0;
#X msg 29 150 kick 0 0 1 0 0 0 1 0 0 0 1 0 0 0 1 0;
#X msg 33 253 bongol 0 1 0 0 0 0 0 0 0 0 0 0 0 0 0 1;
#X msg 31 169 snr 0 0 0 0 0 0 0 0 0 0 0 0 0 1 1 1;
#X msg 38 294 bell 0 0 0 0 1 1 0 0 0 0 0 0 1 1 0 0;
#X msg 32 317 cym 0 0 0 0 0 0 0 0 0 0 0 0 0 0 0 1;
#X msg 28 274 clap 1 0 0 0 1 0 0 0 1 0 0 0 1 0 0 0;
#X msg 29 106 tempo 75;
#X msg 32 127 swing 0.6;
#X connect 0 0 1 0;
#X connect 2 0 0 0;
#X connect 2 0 17 0;
#X connect 2 0 11 0;
#X connect 2 0 13 0;
#X connect 2 0 6 0;
#X connect 2 0 9 0;
#X connect 2 0 8 0;
#X connect 2 0 12 0;
#X connect 2 0 14 0;
#X connect 2 0 15 0;
#X connect 2 0 10 0;
#X connect 2 0 4 0;
#X connect 2 0 7 0;
#X connect 2 0 16 0;
#X connect 3 0 2 0;
#X connect 4 0 18 0;
#X connect 6 0 1 0;
#X connect 7 0 5 0;
#X connect 8 0 1 0;
#X connect 9 0 1 0;
#X connect 10 0 1 0;
#X connect 11 0 1 0;
#X connect 12 0 1 0;
#X connect 13 0 1 0;
#X connect 14 0 1 0;
#X connect 15 0 1 0;
#X connect 16 0 1 0;
#X connect 17 0 1 0;
#X connect 18 0 1 0;
#X restore 343 217 pd reggae;
#X msg 256 97 reggae;
#N canvas 0 0 344 411 bossanova 0;
#X obj 17 385 s sequencer;
#X msg 18 23 bang;
#X obj 18 0 inlet;
#X obj 30 45 del 3;
#X obj 130 384 s effects;
#X msg 33 340 acc 0 0 0 0 0 0 0 0 0 0 0 0 0 0 0 0;
#X msg 30 83 steps 14;
#X msg 33 189 hato 0 0 0 0 0 0 0 0 0 0 0 0 0 0 0 0;
#X msg 28 274 clap 0 0 0 0 0 0 0 0 0 0 0 0 0 0 0 0;
#X msg 37 294 bell 0 0 0 0 0 0 0 0 0 0 0 0 0 0 0 0;
#X msg 31 317 cym 0 0 0 0 0 0 0 0 0 0 0 0 0 0 0 0;
#X msg 144 102 1 0 0;
#X msg 32 208 hatc 1 1 1 1 1 1 1 1 1 1 1 1 1 1;
#X msg 32 127 swing 0.5;
#X msg 33 253 bongol 0 0 0 0 0 0 1 1 0 0 0 0 0 0 0 0;
#X msg 33 231 bongoh 1 0 0 1 1 0 0 0 0 0 1 0 1 0 0 0;
#X msg 30 168 snr 0 0 0 0 0 0 1 0 0 0 0 0 0 1;
#X msg 24 149 kick 1 0 0 0 0 0 0 1 0 0 0 0 0 0;
#X msg 29 106 tempo 70;
#X connect 1 0 6 0;
#X connect 1 0 18 0;
#X connect 1 0 17 0;
#X connect 1 0 16 0;
#X connect 1 0 7 0;
#X connect 1 0 12 0;
#X connect 1 0 15 0;
#X connect 1 0 14 0;
#X connect 1 0 9 0;
#X connect 1 0 10 0;
#X connect 1 0 5 0;
#X connect 1 0 3 0;
#X connect 1 0 11 0;
#X connect 1 0 8 0;
#X connect 2 0 1 0;
#X connect 3 0 13 0;
#X connect 5 0 0 0;
#X connect 6 0 0 0;
#X connect 7 0 0 0;
#X connect 8 0 0 0;
#X connect 9 0 0 0;
#X connect 10 0 0 0;
#X connect 11 0 4 0;
#X connect 12 0 0 0;
#X connect 13 0 0 0;
#X connect 14 0 0 0;
#X connect 15 0 0 0;
#X connect 16 0 0 0;
#X connect 17 0 0 0;
#X connect 18 0 0 0;
#X restore 111 222 pd bossanova;
#N canvas 0 0 344 411 bangra 0;
#X msg 30 83 steps 16;
#X obj 17 385 s sequencer;
#X msg 18 23 bang;
#X obj 18 0 inlet;
#X obj 30 45 del 3;
#X obj 130 384 s effects;
#X msg 33 340 acc 0 0 0 0 0 0 0 0 0 0 0 0 0 0 0 0;
#X msg 29 106 tempo 90;
#X msg 33 127 swing 0.44;
#X msg 33 208 hatc 1 1 0 0 0 0 1 1 0 0 0 0 1 0 0 0;
#X msg 33 189 hato 0 0 0 0 1 0 0 0 0 0 1 0 0 0 1 0;
#X msg 27 149 kick 1 0 0 1 1 0 0 0 1 0 0 1 1 0 0 0;
#X msg 30 168 snr 0 0 1 0 0 1 0 0 0 0 1 0 0 1 0 0;
#X msg 33 253 bongol 0 0 0 0 0 0 0 0 0 0 0 0 1 0 0 0;
#X msg 33 232 bongoh 0 0 0 1 0 0 0 0 0 0 0 1 0 0 0 0;
#X msg 28 274 clap 0 0 0 0 0 0 0 0 0 0 0 0 0 0 1 0;
#X msg 37 294 bell 0 0 0 0 0 0 0 0 0 0 0 0 0 0 0 1;
#X msg 31 317 cym 0 0 1 0 0 0 0 0 0 0 0 0 0 0 0 0;
#X msg 144 102 1 0 1;
#X connect 0 0 1 0;
#X connect 2 0 0 0;
#X connect 2 0 7 0;
#X connect 2 0 11 0;
#X connect 2 0 12 0;
#X connect 2 0 10 0;
#X connect 2 0 9 0;
#X connect 2 0 14 0;
#X connect 2 0 13 0;
#X connect 2 0 16 0;
#X connect 2 0 17 0;
#X connect 2 0 6 0;
#X connect 2 0 4 0;
#X connect 2 0 18 0;
#X connect 2 0 15 0;
#X connect 3 0 2 0;
#X connect 4 0 8 0;
#X connect 6 0 1 0;
#X connect 7 0 1 0;
#X connect 8 0 1 0;
#X connect 9 0 1 0;
#X connect 10 0 1 0;
#X connect 11 0 1 0;
#X connect 12 0 1 0;
#X connect 13 0 1 0;
#X connect 14 0 1 0;
#X connect 15 0 1 0;
#X connect 16 0 1 0;
#X connect 17 0 1 0;
#X connect 18 0 5 0;
#X restore 416 219 pd bangra;
#X msg 304 97 bangra;
#X obj 105 165 route disco1 bossanova electro rock reggae bangra jungle
gabber;
#X connect 1 0 14 0;
#X connect 2 0 14 0;
#X connect 8 0 14 0;
#X connect 9 0 10 0;
#X connect 10 0 11 0;
#X connect 10 1 11 1;
#X connect 12 0 7 0;
#X connect 13 0 24 0;
#X connect 14 0 31 0;
#X connect 15 0 8 0;
#X connect 19 0 14 0;
#X connect 20 0 14 0;
#X connect 22 0 14 0;
#X connect 24 0 8 0;
#X connect 24 1 1 0;
#X connect 24 2 19 0;
#X connect 24 3 22 0;
#X connect 24 4 27 0;
#X connect 24 5 30 0;
#X connect 24 6 20 0;
#X connect 24 7 2 0;
#X connect 27 0 14 0;
#X connect 30 0 14 0;
#X connect 31 0 16 0;
#X connect 31 1 28 0;
#X connect 31 2 18 0;
#X connect 31 3 25 0;
#X connect 31 4 26 0;
#X connect 31 5 29 0;
#X connect 31 6 21 0;
#X connect 31 7 17 0;
#X restore 255 150 pd stuff;
#X text 176 71 8 Wonderful preset rythmns;
