#N canvas 397 256 801 346 10;
#X obj 18 286 dac~;
#X obj 400 145 osc~ 440;
#X obj 17 257 clip~ -1 1;
#X obj 17 24 loadbang;
#X obj 17 66 metro 500;
#X obj 17 117 f 0;
#X obj 59 117 + 1;
#X obj 17 141 print pippo;
#X msg 84 24 0;
#X obj 138 25 loadbang;
#X obj 138 58 metro 500;
#X obj 138 102 + 300;
#X obj 138 80 random 2500;
#X obj 205 24 tgl 15 0 empty empty empty 17 7 0 10 -262144 -1 -1 0
1;
#X floatatom 138 130 5 0 0 0 - - -, f 5;
#X obj 104 258 clip~ -1 1;
#X obj 400 94 r left_freq;
#X floatatom 410 116 5 0 0 0 - - -, f 5;
#X floatatom 610 111 5 0 0 0 - - -, f 5;
#X obj 600 90 r right_freq;
#X obj 283 60 bng 15 250 50 0 empty empty empty 17 7 0 10 -262144 -1
-1;
#X obj 283 102 line~;
#X obj 266 157 *~;
#X obj 600 228 throw~ R;
#X obj 400 233 throw~ L;
#X obj 16 198 catch~ L;
#X obj 16 230 hip~ 5;
#X obj 105 198 catch~ R;
#X obj 105 230 hip~ 5;
#X obj 266 219 throw~ mono;
#X obj 16 171 catch~ mono;
#X obj 266 179 *~ 0.5;
#X obj 600 146 osc~ 660;
#X obj 266 133 osc~ 1500;
#X msg 283 80 1 \, 0 125;
#X obj 283 28 r ping;
#X obj 487 50 r left_toggle;
#X msg 487 72 \$1 20;
#X obj 487 94 line~;
#X obj 400 211 *~;
#X msg 691 66 \$1 20;
#X obj 691 88 line~;
#X obj 691 44 r right_toggle;
#X obj 600 205 *~;
#X obj 600 168 *~ 0.25;
#X obj 400 168 *~ 0.25;
#X connect 1 0 45 0;
#X connect 2 0 0 0;
#X connect 4 0 5 0;
#X connect 5 0 6 0;
#X connect 5 0 7 0;
#X connect 6 0 5 1;
#X connect 8 0 4 0;
#X connect 10 0 12 0;
#X connect 11 0 14 0;
#X connect 12 0 11 0;
#X connect 13 0 10 0;
#X connect 15 0 0 1;
#X connect 16 0 17 0;
#X connect 16 0 1 0;
#X connect 19 0 18 0;
#X connect 19 0 32 0;
#X connect 20 0 34 0;
#X connect 21 0 22 1;
#X connect 22 0 31 0;
#X connect 25 0 26 0;
#X connect 26 0 2 0;
#X connect 27 0 28 0;
#X connect 28 0 15 0;
#X connect 30 0 28 0;
#X connect 30 0 26 0;
#X connect 31 0 29 0;
#X connect 32 0 44 0;
#X connect 33 0 22 0;
#X connect 34 0 21 0;
#X connect 35 0 20 0;
#X connect 36 0 37 0;
#X connect 37 0 38 0;
#X connect 38 0 39 1;
#X connect 39 0 24 0;
#X connect 40 0 41 0;
#X connect 41 0 43 1;
#X connect 42 0 40 0;
#X connect 43 0 23 0;
#X connect 44 0 43 0;
#X connect 45 0 39 0;
