#N canvas 777 355 446 368 10;
#X obj 182 12 inlet period;
#X obj 318 15 inlet zero;
#X obj 220 177 + 1;
#X obj 131 94 metro 250;
#X obj 131 116 t b b;
#X obj 158 177 f 0;
#X obj 318 37 t b;
#X msg 318 59 0;
#X obj 6 12 inlet start-stop;
#X obj 111 12 loadbang;
#X msg 111 34 1;
#X obj 131 310 outlet trig;
#X obj 158 199 t f f;
#X obj 220 199 t f f;
#X obj 247 222 / 2;
#X obj 247 244 outlet synthtime;
#X obj 220 266 outlet drumtime;
#X obj 158 288 outlet scoretime;
#X connect 0 0 3 1;
#X connect 1 0 6 0;
#X connect 2 0 5 1;
#X connect 2 0 13 0;
#X connect 3 0 4 0;
#X connect 4 0 11 0;
#X connect 4 1 5 0;
#X connect 5 0 12 0;
#X connect 6 0 7 0;
#X connect 7 0 5 1;
#X connect 8 0 3 0;
#X connect 9 0 10 0;
#X connect 10 0 3 0;
#X connect 12 0 17 0;
#X connect 12 1 2 0;
#X connect 13 0 16 0;
#X connect 13 1 14 0;
#X connect 14 0 15 0;
