#N canvas 725 260 261 233 10;
#X text 108 12 conversione da BPM a ms (durata in tempo per la semiminima)
;
#X obj 14 132 swap 60000;
#X obj 14 154 /;
#X obj 47 67 > 0;
#X floatatom 47 89 5 0 0 0 - - -;
#X obj 14 110 spigot;
#X obj 14 42 t f f;
#X obj 14 176 i;
#X obj 14 13 inlet bpm;
#X obj 14 198 outlet semiminima;
#X connect 1 0 2 0;
#X connect 1 1 2 1;
#X connect 2 0 7 0;
#X connect 3 0 4 0;
#X connect 4 0 5 1;
#X connect 5 0 1 0;
#X connect 6 0 5 0;
#X connect 6 1 3 0;
#X connect 7 0 9 0;
#X connect 8 0 6 0;
