#N canvas 0 0 581 374 10;
#X obj 226 198 f 0;
#X obj 273 195 + 1;
#X obj 135 71 loadbang;
#X msg 135 96 1;
#X obj 303 245 / 2;
#X obj 135 125 metro 250;
#X text 328 190 counter;
#X obj 273 222 t f f;
#X text 328 222 define order;
#X text 135 337 send bangs;
#X obj 135 148 t b b;
#X text 182 150 define order;
#X text 209 71 start now;
#X text 387 294 drums next in order;
#X text 425 267 synth first in order;
#X text 343 244 synth is half speed;
#X text 348 319 scoretime next in order;
#X obj 226 221 t f f;
#X obj 11 69 inlet start-stop;
#X obj 359 67 inlet zero;
#X obj 359 93 t b;
#X msg 359 117 0;
#X obj 193 100 inlet period;
#X obj 303 267 outlet synthtime;
#X obj 273 293 outlet drumtime;
#X obj 226 315 outlet scoretime;
#X obj 135 319 outlet trig;
#X text 136 39 timebase;
#X connect 0 0 17 0;
#X connect 1 0 0 1;
#X connect 1 0 7 0;
#X connect 2 0 3 0;
#X connect 3 0 5 0;
#X connect 4 0 23 0;
#X connect 5 0 10 0;
#X connect 7 0 24 0;
#X connect 7 1 4 0;
#X connect 10 0 26 0;
#X connect 10 1 0 0;
#X connect 17 0 25 0;
#X connect 17 1 1 0;
#X connect 18 0 5 0;
#X connect 19 0 20 0;
#X connect 20 0 21 0;
#X connect 21 0 0 1;
#X connect 22 0 5 1;
