#N canvas 0 0 365 270 10;
#X msg 88 137 50 52 66 69 76 79 83 86;
#X msg 54 158 50 48 64 67 76 79 81 86;
#X msg 21 180 52 48 64 67 76 79 81 83;
#X obj 21 89 select 0 32 64 96;
#X obj 21 70 mod 128;
#X obj 21 231 s chords;
#X obj 21 45 r scoretime;
#X text 44 8 score;
#X text 126 117 chords sent to everything;
#X text 155 89 simple progression;
#X connect 0 0 5 0;
#X connect 1 0 5 0;
#X connect 2 0 5 0;
#X connect 3 0 2 0;
#X connect 3 1 1 0;
#X connect 3 2 0 0;
#X connect 3 3 2 0;
#X connect 4 0 3 0;
#X connect 6 0 4 0;
