#N canvas 23 505 277 245 10;
#X text 88 8 stereo pads;
#X obj 130 160 *;
#X obj 130 131 t b f;
#X obj 89 107 r ch1;
#X obj 130 106 r m1;
#X obj 166 162 r pan1;
#X obj 21 51 r chords;
#X obj 21 77 G2-padsynth;
#X obj 59 185 B3-mixer-channel;
#X text 45 28 wrapper for synth and channel;
#X text 89 53 receive global chord list;
#X text 108 79 play it all as pad;
#X connect 1 0 8 2;
#X connect 2 0 1 0;
#X connect 2 1 1 1;
#X connect 3 0 1 0;
#X connect 4 0 2 0;
#X connect 5 0 8 3;
#X connect 6 0 7 0;
#X connect 7 0 8 0;
#X connect 7 1 8 1;
