#N canvas 435 407 449 346 10;
#X obj 83 107 unpack 1 2 3 4 5 6 7 8;
#X obj 92 289 outlet~ left;
#X obj 171 314 outlet~ right;
#X obj 83 45 inlet chord;
#X obj 83 71 t l b;
#X obj 200 228 f;
#X obj 216 205 * 4;
#X obj 216 182 r period;
#X obj 46 142 G3-phasorblock;
#X obj 45 204 G4-stereopandelay;
#X obj 91 261 G5-stereoamp;
#X text 257 206 panning and effects;
#X obj 186 143 G3-phasorblock;
#X text 126 8 pad synth;
#X text 302 143 2 x oscillator bank;
#X text 261 104 unpack 8 notes;
#X connect 0 0 8 0;
#X connect 0 1 8 1;
#X connect 0 2 8 2;
#X connect 0 3 8 3;
#X connect 0 4 12 0;
#X connect 0 5 12 1;
#X connect 0 6 12 2;
#X connect 0 7 12 3;
#X connect 3 0 4 0;
#X connect 4 0 0 0;
#X connect 4 1 5 0;
#X connect 5 0 10 2;
#X connect 6 0 5 1;
#X connect 7 0 6 0;
#X connect 8 0 9 0;
#X connect 9 0 10 0;
#X connect 9 1 10 1;
#X connect 10 0 1 0;
#X connect 10 1 2 0;
#X connect 12 0 9 1;
