#N canvas 0 0 426 495 10;
#X obj 238 164 -;
#X obj 165 208 + 500;
#X obj 136 233 bp~ 500 3;
#X obj 209 233 bp~ 600 4;
#X obj 238 211 + 700;
#X obj 17 300 *~;
#X obj 72 299 *~;
#X obj 135 292 delwrite~ \$0-ffff 100;
#X obj 136 260 *~ 0.7;
#X obj 17 443 *~ 0.4;
#X obj 71 442 *~ 0.4;
#N canvas 0 0 450 300 one-second-wander 0;
#X obj 67 115 random 100;
#X obj 67 182 line;
#X obj 67 54 loadbang;
#X msg 67 74 1;
#X obj 67 95 metro 1000;
#X msg 67 160 \$1 1000;
#X obj 67 205 outlet;
#X obj 67 138 / 100;
#X connect 0 0 7 0;
#X connect 1 0 6 0;
#X connect 2 0 3 0;
#X connect 3 0 4 0;
#X connect 4 0 0 0;
#X connect 5 0 1 0;
#X connect 7 0 5 0;
#X restore 193 84 pd one-second-wander;
#X obj 16 31 inlet~ left;
#X obj 72 54 inlet~ right;
#X obj 16 468 outlet~;
#X obj 72 468 outlet~;
#X obj 136 340 + 10;
#X obj 238 140 swap 1;
#X obj 165 185 * 1000;
#X obj 238 189 * 1000;
#X obj 137 408 vd~ \$0-ffff 100;
#X obj 136 319 * 40;
#X obj 136 382 line~;
#X msg 136 360 \$1 100;
#X obj 33 259 + 0.02;
#X obj 88 258 + 0.02;
#X obj 33 235 * 0.5;
#X obj 88 233 * 0.5;
#X text 61 3 stereo pan delay;
#X text 190 386 variable delay for pitch shifting;
#X text 201 61 slowly moving random line;
#X connect 0 0 19 0;
#X connect 0 0 27 0;
#X connect 1 0 2 1;
#X connect 2 0 8 0;
#X connect 3 0 5 0;
#X connect 3 0 6 0;
#X connect 4 0 3 1;
#X connect 5 0 9 0;
#X connect 6 0 10 0;
#X connect 8 0 7 0;
#X connect 8 0 9 0;
#X connect 9 0 14 0;
#X connect 10 0 15 0;
#X connect 11 0 17 0;
#X connect 11 0 18 0;
#X connect 11 0 21 0;
#X connect 11 0 26 0;
#X connect 12 0 5 0;
#X connect 12 0 2 0;
#X connect 13 0 6 0;
#X connect 13 0 3 0;
#X connect 16 0 23 0;
#X connect 17 0 0 0;
#X connect 17 1 0 1;
#X connect 18 0 1 0;
#X connect 19 0 4 0;
#X connect 20 0 10 0;
#X connect 21 0 16 0;
#X connect 22 0 20 0;
#X connect 23 0 22 0;
#X connect 24 0 5 1;
#X connect 25 0 6 1;
#X connect 26 0 24 0;
#X connect 27 0 25 0;
