#N canvas 0 0 455 322 10;
#X obj 75 63 inlet~ left;
#X obj 170 63 inlet~ right;
#X obj 74 244 *~;
#X obj 169 244 *~;
#X obj 276 62 inlet decay;
#X obj 276 201 vline~;
#X msg 276 178 1 20 0 \, 0 \$1 \$2;
#X obj 327 110 * 4;
#X obj 276 154 pack f f;
#X obj 276 84 t f f;
#X obj 73 280 outlet~;
#X obj 168 279 outlet~;
#X obj 276 112 * 7;
#X obj 327 132 + 20;
#X text 101 25 stereo amp;
#X text 206 242 channels linked;
#X text 328 206 long envelope;
#X connect 0 0 2 0;
#X connect 1 0 3 0;
#X connect 2 0 10 0;
#X connect 3 0 11 0;
#X connect 4 0 9 0;
#X connect 5 0 3 1;
#X connect 5 0 2 1;
#X connect 6 0 5 0;
#X connect 7 0 13 0;
#X connect 8 0 6 0;
#X connect 9 0 12 0;
#X connect 9 1 7 0;
#X connect 12 0 8 0;
#X connect 13 0 8 1;
