#N canvas 0 0 452 311 10;
#X obj 121 259 *;
#X obj 121 230 t b f;
#X obj 49 24 r drumtime;
#X obj 157 261 r pan2;
#X obj 121 205 r m2;
#X obj 101 185 r ch2;
#X obj 49 65 H2-kickseq;
#X obj 49 88 H3-kickdrum;
#X obj 85 111 H5-snareseq;
#X obj 85 135 H6-snaredrum;
#X obj 84 158 H7-snare-fx;
#X text 156 3 drum part;
#X obj 50 284 B3-mixer-channel;
#X text 159 73 separate kick and snare synths;
#X text 180 134 separate kick and snare sequencers;
#X text 204 228 panning and volume stuff;
#X connect 0 0 12 2;
#X connect 1 0 0 0;
#X connect 1 1 0 1;
#X connect 2 0 6 0;
#X connect 2 0 8 0;
#X connect 3 0 12 3;
#X connect 4 0 1 0;
#X connect 5 0 0 0;
#X connect 6 0 7 0;
#X connect 7 0 12 0;
#X connect 8 0 9 0;
#X connect 9 0 10 0;
#X connect 10 0 12 1;
