#N canvas 0 0 435 199 10;
#X obj 15 69 mod 16;
#X obj 15 94 select 2 3 4 5 10 11 12;
#X obj 15 45 inlet;
#X obj 70 142 outlet;
#X text 42 13 snare pattern;
#X text 202 93 same pattern repeated;
#X connect 0 0 1 0;
#X connect 1 0 3 0;
#X connect 1 1 3 0;
#X connect 1 2 3 0;
#X connect 1 3 3 0;
#X connect 1 4 3 0;
#X connect 1 5 3 0;
#X connect 1 6 3 0;
#X connect 2 0 0 0;
