#N canvas 0 0 356 283 10;
#X msg 100 187 50 300 4 0.9;
#X msg 76 163 100 400 1 0.3;
#X msg 30 114 500 600 1 0.2;
#X msg 53 138 200 600 1 0.25;
#X obj 30 58 random 6;
#X obj 30 82 select 0 1 2 3;
#X obj 30 255 outlet~;
#X obj 30 32 inlet bang;
#X text 176 127 choose one of four;
#X text 183 159 various pitch and decay;
#X obj 30 231 H61-snare-synth;
#X text 28 6 snare wrapper;
#X connect 0 0 10 0;
#X connect 1 0 10 0;
#X connect 2 0 10 0;
#X connect 3 0 10 0;
#X connect 4 0 5 0;
#X connect 5 0 2 0;
#X connect 5 1 3 0;
#X connect 5 2 1 0;
#X connect 5 3 0 0;
#X connect 7 0 4 0;
#X connect 10 0 6 0;
