#N canvas 0 0 237 270 10;
#X obj 24 189 vcf~ 100 0.7;
#X obj 63 122 phasor~ 0.456;
#X obj 63 164 +~ 300;
#X msg 68 67 375;
#X obj 63 143 *~ 5000;
#X msg 147 66 0.9;
#X obj 25 212 *~ 0.73;
#X obj 111 36 loadbang;
#X obj 24 42 inlet~;
#X obj 25 241 outlet~;
#X msg 111 66 0.6;
#X text 40 11 snare effects;
#X obj 25 91 K4-delay;
#X connect 0 0 6 0;
#X connect 1 0 4 0;
#X connect 2 0 0 1;
#X connect 3 0 12 1;
#X connect 4 0 2 0;
#X connect 5 0 0 2;
#X connect 6 0 9 0;
#X connect 7 0 5 0;
#X connect 7 0 3 0;
#X connect 7 0 10 0;
#X connect 8 0 12 0;
#X connect 10 0 12 2;
#X connect 12 0 0 0;
