#N canvas 0 0 421 459 10;
#X obj 223 126 *;
#X obj 223 97 t b f;
#X text 72 10 bassline part;
#X obj 181 72 r ch3;
#X obj 223 72 r m3;
#X obj 128 236 r pan3;
#X obj 94 73 r synthtime;
#X obj 53 172 * 2;
#X msg 122 170 0.6;
#X obj 122 148 loadbang;
#X obj 53 150 r period;
#X obj 22 95 I2-bass-seq;
#X obj 22 72 r chords;
#X obj 22 122 I3-bass-synth;
#X obj 21 261 B3-mixer-channel;
#X text 152 171 time and feedback for delay fx;
#X obj 22 194 I4-filterdelay;
#X connect 0 0 14 2;
#X connect 1 0 0 0;
#X connect 1 1 0 1;
#X connect 3 0 0 0;
#X connect 4 0 1 0;
#X connect 5 0 14 3;
#X connect 6 0 11 1;
#X connect 7 0 16 1;
#X connect 8 0 16 2;
#X connect 9 0 8 0;
#X connect 10 0 7 0;
#X connect 11 0 13 0;
#X connect 12 0 11 0;
#X connect 13 0 16 0;
#X connect 16 0 14 0;
#X connect 16 1 14 1;
