#N canvas 0 0 450 300 10;
#X obj 65 110 mod 8;
#X obj 65 134 select 0 1 2 3 4 5 6 7;
#X obj 139 207 f;
#X obj 166 207 f;
#X obj 84 208 f;
#X obj 111 208 f;
#X obj 125 249 outlet;
#X obj 48 37 inlet;
#X obj 48 62 unpack 1 2 3 4 5 6 7 8;
#X text 80 7 pluck sequence;
#X obj 65 86 r synthtime;
#X obj 84 171 J2-half-a-chance;
#X text 231 164 sparse cycling melody;
#X connect 0 0 1 0;
#X connect 1 0 4 0;
#X connect 1 1 5 0;
#X connect 1 2 11 0;
#X connect 1 3 2 0;
#X connect 1 6 3 0;
#X connect 2 0 6 0;
#X connect 3 0 6 0;
#X connect 4 0 6 0;
#X connect 5 0 6 0;
#X connect 7 0 8 0;
#X connect 8 4 4 1;
#X connect 8 5 5 1;
#X connect 8 6 2 1;
#X connect 8 7 3 1;
#X connect 10 0 0 0;
#X connect 11 0 4 0;
