#N canvas 0 0 285 300 10;
#X obj 106 107 loadbang;
#X msg 106 130 0.3;
#X obj 43 140 * 3;
#X obj 89 246 *;
#X obj 89 217 t b f;
#X text 51 10 arp part;
#X obj 19 36 r chords;
#X obj 84 44 r trig;
#X obj 43 119 r period;
#X obj 89 192 r m5;
#X obj 44 192 r ch5;
#X obj 125 247 r pan5;
#X obj 19 66 K2-arp-seq;
#X obj 19 88 K3-arp-synth;
#X obj 18 270 B3-mixer-channel;
#X text 125 75 sequencer and synth;
#X text 97 164 delay fx at 3 x period;
#X obj 18 161 K4-delay;
#X connect 0 0 1 0;
#X connect 1 0 17 2;
#X connect 2 0 17 1;
#X connect 3 0 14 2;
#X connect 4 0 3 0;
#X connect 4 1 3 1;
#X connect 6 0 12 0;
#X connect 7 0 12 1;
#X connect 8 0 2 0;
#X connect 9 0 4 0;
#X connect 10 0 3 0;
#X connect 11 0 14 3;
#X connect 12 0 13 0;
#X connect 13 0 17 0;
#X connect 17 0 14 0;
#X connect 17 1 14 1;
