#N canvas 75 229 312 382 10;
#X obj 31 341 outlet~;
#X obj 109 250 osc~;
#X obj 32 291 *~;
#X obj 110 230 line~;
#X obj 111 209 pack 1 2;
#X obj 162 189 + 3;
#X obj 89 97 random 50;
#X obj 67 44 inlet note;
#X obj 67 69 t b b f;
#X obj 89 155 * 7;
#X obj 89 175 + 30;
#X text 98 6 slide arp;
#X obj 162 168 / 4;
#X obj 32 315 *~ 0.0165;
#X obj 112 122 mtof;
#X text 162 230 track at random rate;
#X text 70 291 envelope only sweeps;
#N canvas 0 0 450 300 denver 0;
#X obj 69 142 line~;
#X obj 69 65 del 12;
#X obj 69 166 *~;
#X obj 70 187 *~;
#X obj 70 211 outlet~;
#X obj 69 109 pack 1 2;
#X msg 69 85 0;
#X msg 119 64 1 2;
#X obj 69 42 t b b;
#X obj 160 18 inlet decay;
#X obj 69 19 inlet trig;
#X connect 0 0 2 0;
#X connect 0 0 2 1;
#X connect 1 0 6 0;
#X connect 2 0 3 0;
#X connect 2 0 3 1;
#X connect 3 0 4 0;
#X connect 5 0 0 0;
#X connect 6 0 5 0;
#X connect 7 0 0 0;
#X connect 8 0 1 0;
#X connect 8 1 7 0;
#X connect 9 0 5 1;
#X connect 10 0 8 0;
#X restore 31 199 pd denver;
#X connect 1 0 2 1;
#X connect 2 0 13 0;
#X connect 3 0 1 0;
#X connect 4 0 3 0;
#X connect 5 0 4 1;
#X connect 6 0 9 0;
#X connect 6 0 12 0;
#X connect 7 0 8 0;
#X connect 8 0 17 0;
#X connect 8 1 6 0;
#X connect 8 2 14 0;
#X connect 9 0 10 0;
#X connect 10 0 17 1;
#X connect 12 0 5 0;
#X connect 13 0 0 0;
#X connect 14 0 4 0;
#X connect 17 0 2 0;
