#N canvas 0 0 414 276 10;
#X obj 60 208 +~;
#X obj 119 210 +~;
#X obj 84 182 *~ 0.6;
#X obj 32 53 inlet~;
#X obj 60 229 outlet~;
#X obj 164 53 inlet feedback;
#X obj 83 53 inlet time;
#X obj 164 78 clip 0 0.9;
#X obj 279 229 outlet~;
#X obj 84 128 hip~ 20;
#X obj 84 151 lop~ 2000;
#X obj 83 104 delread~ \$0-zzzz 250;
#X obj 121 230 delwrite~ \$0-zzzz 5000;
#X text 172 139 filter in feedback loop;
#X text 160 204 center then left only;
#X text 81 15 cl delay;
#X connect 0 0 4 0;
#X connect 1 0 12 0;
#X connect 2 0 0 1;
#X connect 2 0 1 0;
#X connect 3 0 1 1;
#X connect 3 0 0 0;
#X connect 3 0 8 0;
#X connect 5 0 7 0;
#X connect 6 0 11 0;
#X connect 7 0 2 1;
#X connect 9 0 10 0;
#X connect 10 0 2 0;
#X connect 11 0 9 0;
