#N canvas 0 0 599 560 10;
#X obj 171 354 random 2;
#X obj 134 375 spigot;
#X obj 170 204 f;
#X obj 197 204 f;
#X obj 115 205 f;
#X obj 142 205 f;
#X obj 10 145 unpack 1 2 3 4 5 6 7 8 9 10 11 12;
#X obj 173 81 mod 16;
#X obj 173 106 select 0 1 2 3 4 5 6 7 12;
#X obj 134 526 outlet~;
#X obj 166 452 r \$0-period;
#X obj 216 430 loadbang;
#X obj 166 476 * 5;
#X msg 228 474 4;
#X obj 134 236 - 12;
#X obj 135 423 hip~ 300;
#X obj 228 523 outlet~;
#X msg 197 476 0.2;
#X obj 350 197 * 0.02;
#X obj 350 220 + 0.69;
#X obj 273 157 random 100;
#X obj 273 176 / 100;
#X obj 273 221 + 0.369;
#X obj 273 198 * 0.001;
#X obj 350 157 random 100;
#X obj 350 176 / 100;
#X obj 434 157 random 100;
#X obj 434 176 / 100;
#X obj 434 197 * 100;
#X obj 434 220 + 50;
#X obj 511 156 random 100;
#X obj 511 175 / 100;
#X obj 173 56 t f b b b b b;
#X obj 134 295 pack f f f f f;
#X obj 511 196 * 800;
#X obj 511 219 + 120;
#X msg 134 320 \$1 0.298 0.2 0.2 \$2 \$3 \$4 \$5 0.6;
#X text 166 5 stringy resonances;
#X obj 10 121 r chords;
#X obj 173 33 r synthtime;
#X obj 134 399 z-3cosynth;
#X obj 135 498 I4-filterdelay;
#X text 272 246 random parameters for synth;
#X text 266 300 fixed synth parameters;
#X connect 0 0 1 1;
#X connect 1 0 40 0;
#X connect 2 0 14 0;
#X connect 3 0 14 0;
#X connect 4 0 14 0;
#X connect 5 0 14 0;
#X connect 6 6 4 1;
#X connect 6 7 5 1;
#X connect 6 8 2 1;
#X connect 6 9 3 1;
#X connect 7 0 8 0;
#X connect 8 0 5 0;
#X connect 8 1 2 0;
#X connect 8 2 5 0;
#X connect 8 3 2 0;
#X connect 8 5 3 0;
#X connect 8 7 3 0;
#X connect 8 8 4 0;
#X connect 10 0 12 0;
#X connect 11 0 13 0;
#X connect 11 0 17 0;
#X connect 12 0 41 1;
#X connect 13 0 41 3;
#X connect 14 0 33 0;
#X connect 15 0 41 0;
#X connect 17 0 41 2;
#X connect 18 0 19 0;
#X connect 19 0 33 2;
#X connect 20 0 21 0;
#X connect 21 0 23 0;
#X connect 22 0 33 1;
#X connect 23 0 22 0;
#X connect 24 0 25 0;
#X connect 25 0 18 0;
#X connect 26 0 27 0;
#X connect 27 0 28 0;
#X connect 28 0 29 0;
#X connect 29 0 33 3;
#X connect 30 0 31 0;
#X connect 31 0 34 0;
#X connect 32 0 7 0;
#X connect 32 1 0 0;
#X connect 32 2 20 0;
#X connect 32 3 24 0;
#X connect 32 4 26 0;
#X connect 32 5 30 0;
#X connect 33 0 36 0;
#X connect 34 0 35 0;
#X connect 35 0 33 4;
#X connect 36 0 1 0;
#X connect 38 0 6 0;
#X connect 39 0 32 0;
#X connect 40 0 15 0;
#X connect 41 0 9 0;
#X connect 41 1 16 0;
