#N canvas 0 0 358 419 10;
#X obj 136 185 osc~;
#X obj 135 210 *~ 0.09;
#X obj 192 185 osc~;
#X obj 255 185 osc~;
#X obj 192 210 *~ 0.05;
#X obj 256 212 *~ 0.02;
#X obj 192 160 *;
#X obj 255 161 *;
#X obj 208 131 * 4;
#X obj 271 131 * 8;
#X obj 191 249 clip~ -0.1 0.1;
#X obj 83 338 *~;
#X obj 36 111 mtof;
#X obj 83 307 line;
#X obj 83 386 outlet~;
#X obj 36 218 pack 1 1;
#X obj 83 279 pack 0 1;
#X obj 83 252 del 1;
#X obj 83 360 *~;
#X obj 36 74 unpack 1 2 3 4 5 6 7 8 9;
#X obj 87 186 t f f;
#X obj 36 166 t b b;
#X obj 36 41 inlet parameters;
#X text 30 10 3 oscillator and clip synth;
#X connect 0 0 1 0;
#X connect 1 0 10 0;
#X connect 2 0 4 0;
#X connect 3 0 5 0;
#X connect 4 0 10 0;
#X connect 5 0 10 0;
#X connect 6 0 2 0;
#X connect 7 0 3 0;
#X connect 8 0 6 1;
#X connect 9 0 7 1;
#X connect 10 0 11 1;
#X connect 11 0 18 0;
#X connect 12 0 0 0;
#X connect 12 0 6 0;
#X connect 12 0 7 0;
#X connect 12 0 21 0;
#X connect 13 0 11 0;
#X connect 15 0 13 0;
#X connect 16 0 13 0;
#X connect 17 0 16 0;
#X connect 18 0 14 0;
#X connect 19 0 12 0;
#X connect 19 1 1 1;
#X connect 19 2 4 1;
#X connect 19 3 5 1;
#X connect 19 4 8 0;
#X connect 19 5 9 0;
#X connect 19 6 20 0;
#X connect 19 7 16 1;
#X connect 19 8 18 1;
#X connect 20 0 15 1;
#X connect 20 1 17 1;
#X connect 21 0 15 0;
#X connect 21 1 17 0;
#X connect 22 0 19 0;
