#N canvas 110 100 787 222 10;
#X text 120 148 thanks to Andy J Farnell;
#N canvas 257 109 1053 602 sound 0;
#X obj 290 242 *~;
#X obj 883 506 dac~;
#X obj 636 193 +~ 1000;
#X obj 636 173 *~ 1000;
#X msg 665 217 60;
#X obj 3 3 noise~;
#X obj 585 261 *~;
#X obj 586 237 vcf~ 1000 60;
#X obj 601 193 *~;
#X obj 585 282 *~ 2;
#X obj 881 339 catch~ l;
#X obj 961 339 catch~ r;
#X msg 523 168 60;
#X obj 429 260 *~;
#X obj 430 190 vcf~ 1000 60;
#X obj 446 238 *~;
#X obj 523 148 loadbang;
#X obj 469 148 *~ 400;
#X obj 469 168 +~ 600;
#X obj 3 25 s~ white;
#X obj 586 125 r~ white;
#X obj 429 100 r~ white;
#X obj 429 282 *~ 1.2;
#X obj 445 212 +~ 0.12;
#X obj 624 570 throw~ l;
#X obj 643 550 throw~ r;
#X obj 713 126 r~ white;
#X obj 713 154 max~;
#X obj 713 175 -~;
#X obj 713 197 *~;
#X obj 779 102 sig~ 1;
#X obj 779 126 -~;
#X obj 714 263 *~;
#X obj 797 33 +~ 0.3;
#X obj 844 81 -~ 0.2;
#X obj 796 81 *~ 0.4;
#X obj 713 219 hip~ 200;
#X obj 714 241 lop~ 4000;
#X obj 290 198 r~ white;
#X obj 368 133 cos~;
#X obj 368 67 -~ 0.25;
#X obj 368 45 clip~ 0.25 0.5;
#X obj 368 111 -~ 0.25;
#X obj 368 89 *~ 2;
#X obj 290 220 bp~ 200 40;
#X obj 290 286 *~;
#X obj 368 221 osc~;
#X obj 368 177 *~ 100;
#X obj 368 199 +~ 20;
#X obj 368 155 lop~ 0.1;
#X obj 158 242 *~;
#X obj 158 198 r~ white;
#X obj 236 133 cos~;
#X obj 236 111 -~ 0.25;
#X obj 236 89 *~ 2;
#X obj 158 286 *~;
#X obj 236 221 osc~;
#X obj 236 45 clip~ 0.35 0.6;
#X obj 236 67 -~ 0.35;
#X obj 236 155 lop~ 0.5;
#X obj 158 220 bp~ 400 40;
#X obj 236 177 *~ 200;
#X obj 236 199 +~ 30;
#X obj 158 264 *~ 2;
#X obj 290 264 *~ 2;
#X obj 236 23 vd~ a 100;
#X obj 368 23 vd~ a 300;
#X obj 445 121 vd~ a 500;
#X obj 602 146 vd~ a 900;
#X obj 1 128 vd~ a 0;
#X obj 18 171 r~ white;
#X obj 1 217 *~;
#X obj 63 235 clip~ 0 0.99;
#X obj 25 263 rzero~;
#X obj 1 150 +~ 0.2;
#X obj 62 213 *~ 0.6;
#X obj 18 192 bp~ 800 1;
#X obj 797 11 vd~ a 3000;
#X obj 797 55 lop~ 0.07;
#X obj 25 285 *~ 0.2;
#X text 151 444 buildings;
#X text 282 444 doorways;
#X text 456 444 branches/wires;
#X text 618 443 tree leaves;
#X obj 962 361 *~ 0.45;
#X obj 882 361 *~ 0.45;
#X obj 525 570 throw~ l;
#X obj 544 550 throw~ r;
#X obj 429 570 throw~ l;
#X obj 448 550 throw~ r;
#X obj 330 570 throw~ l;
#X obj 349 550 throw~ r;
#X obj 238 570 throw~ l;
#X obj 256 550 throw~ r;
#X obj 145 570 throw~ l;
#X obj 165 550 throw~ r;
#X obj 145 343 pan-level-1;
#X obj 624 343 pan-level-1;
#X obj 525 343 pan-level-1;
#X obj 429 343 pan-level-1;
#X obj 330 343 pan-level-1;
#X obj 238 343 pan-level-1;
#X obj 113 419 tgl 15 0 cut empty empty 17 7 0 10 -258113 -1 -1 0 1
;
#X obj 33 545 loadbang;
#X msg 33 567 1;
#X obj 882 413 hip~ 5;
#X obj 882 435 clip~ -1 1;
#X obj 962 413 hip~ 5;
#X obj 962 435 clip~ -1 1;
#X connect 0 0 64 0;
#X connect 2 0 7 1;
#X connect 3 0 2 0;
#X connect 4 0 7 2;
#X connect 5 0 19 0;
#X connect 6 0 9 0;
#X connect 7 0 6 0;
#X connect 8 0 6 1;
#X connect 9 0 98 0;
#X connect 10 0 85 0;
#X connect 11 0 84 0;
#X connect 12 0 14 2;
#X connect 13 0 22 0;
#X connect 14 0 13 0;
#X connect 15 0 13 1;
#X connect 16 0 12 0;
#X connect 16 0 4 0;
#X connect 17 0 18 0;
#X connect 18 0 14 1;
#X connect 20 0 7 0;
#X connect 21 0 14 0;
#X connect 22 0 99 0;
#X connect 23 0 15 0;
#X connect 23 0 15 1;
#X connect 26 0 27 0;
#X connect 27 0 28 0;
#X connect 28 0 29 0;
#X connect 29 0 36 0;
#X connect 30 0 31 0;
#X connect 31 0 27 1;
#X connect 31 0 28 1;
#X connect 31 0 29 1;
#X connect 32 0 97 0;
#X connect 33 0 78 0;
#X connect 34 0 32 1;
#X connect 35 0 31 1;
#X connect 36 0 37 0;
#X connect 37 0 32 0;
#X connect 38 0 44 0;
#X connect 39 0 49 0;
#X connect 40 0 43 0;
#X connect 41 0 40 0;
#X connect 42 0 39 0;
#X connect 43 0 42 0;
#X connect 44 0 0 0;
#X connect 45 0 100 0;
#X connect 46 0 45 1;
#X connect 47 0 48 0;
#X connect 48 0 46 0;
#X connect 49 0 0 1;
#X connect 49 0 47 0;
#X connect 50 0 63 0;
#X connect 51 0 60 0;
#X connect 52 0 59 0;
#X connect 53 0 52 0;
#X connect 54 0 53 0;
#X connect 55 0 101 0;
#X connect 56 0 55 1;
#X connect 57 0 58 0;
#X connect 58 0 54 0;
#X connect 59 0 50 1;
#X connect 59 0 61 0;
#X connect 60 0 50 0;
#X connect 61 0 62 0;
#X connect 62 0 56 0;
#X connect 63 0 55 0;
#X connect 64 0 45 0;
#X connect 65 0 57 0;
#X connect 66 0 41 0;
#X connect 67 0 17 0;
#X connect 67 0 23 0;
#X connect 68 0 3 0;
#X connect 68 0 8 0;
#X connect 68 0 8 1;
#X connect 69 0 74 0;
#X connect 70 0 76 0;
#X connect 71 0 73 0;
#X connect 72 0 73 1;
#X connect 73 0 79 0;
#X connect 74 0 71 0;
#X connect 74 0 75 0;
#X connect 75 0 72 0;
#X connect 76 0 71 1;
#X connect 77 0 33 0;
#X connect 78 0 34 0;
#X connect 78 0 35 0;
#X connect 79 0 96 0;
#X connect 84 0 107 0;
#X connect 85 0 105 0;
#X connect 96 0 94 0;
#X connect 96 1 95 0;
#X connect 97 0 24 0;
#X connect 97 1 25 0;
#X connect 98 0 86 0;
#X connect 98 1 87 0;
#X connect 99 0 88 0;
#X connect 99 1 89 0;
#X connect 100 0 90 0;
#X connect 100 1 91 0;
#X connect 101 0 92 0;
#X connect 101 1 93 0;
#X connect 103 0 104 0;
#X connect 104 0 102 0;
#X connect 105 0 106 0;
#X connect 106 0 1 0;
#X connect 107 0 108 0;
#X connect 108 0 1 1;
#X coords 0 -1 1 1 600 125 2 100 340;
#X restore 122 14 pd sound;
#N canvas 316 178 862 562 ctrl 0;
#N canvas 1 186 175 257 windspeed 0;
#X obj 13 41 +~ 1;
#X obj 12 151 +~;
#X obj 13 64 *~ 0.25;
#X obj 28 129 +~;
#X obj 13 203 clip~ 0 1;
#N canvas 0 50 184 221 squall 0;
#X obj 78 41 noise~;
#X obj 77 108 hip~ 0;
#X obj 78 64 lop~ 3;
#X obj 78 85 lop~ 3;
#X obj 17 112 *~;
#X obj 38 160 *~;
#X obj 16 42 max~ 0.4;
#X obj 16 64 -~ 0.4;
#X obj 16 87 *~ 8;
#X obj 78 129 *~ 20;
#X obj 16 14 inlet~;
#X obj 40 184 outlet~;
#X connect 0 0 2 0;
#X connect 1 0 9 0;
#X connect 2 0 3 0;
#X connect 3 0 1 0;
#X connect 4 0 5 0;
#X connect 5 0 11 0;
#X connect 6 0 7 0;
#X connect 7 0 8 0;
#X connect 8 0 4 0;
#X connect 8 0 4 1;
#X connect 9 0 5 1;
#X connect 10 0 6 0;
#X restore 83 98 pd squall;
#N canvas 1 132 190 244 gust 0;
#X obj 9 15 noise~;
#X obj 8 82 hip~ 0;
#X obj 8 157 *~;
#X obj 76 72 *~;
#X obj 75 49 +~ 0.5;
#X obj 76 96 -~ 0.125;
#X obj 9 59 lop~ 0.5;
#X obj 9 38 lop~ 0.5;
#X obj 9 103 *~ 50;
#X obj 75 9 inlet~;
#X obj 8 182 outlet~;
#X connect 0 0 7 0;
#X connect 1 0 8 0;
#X connect 2 0 10 0;
#X connect 3 0 5 0;
#X connect 4 0 3 0;
#X connect 4 0 3 1;
#X connect 5 0 2 1;
#X connect 6 0 1 0;
#X connect 7 0 6 0;
#X connect 8 0 2 0;
#X connect 9 0 4 0;
#X restore 27 98 pd gust;
#X obj 13 229 outlet~;
#X obj 13 19 osc~ 0.1;
#X obj 101 18 inlet~;
#X connect 0 0 2 0;
#X connect 1 0 4 0;
#X connect 3 0 1 1;
#X connect 4 0 7 0;
#X connect 5 0 3 1;
#X connect 6 0 3 0;
#X connect 8 0 0 0;
#X connect 9 0 6 0;
#X connect 9 0 5 0;
#X connect 9 0 1 0;
#X restore 32 579 pd windspeed;
#X obj 444 593 delwrite~ a 3000;
#X obj 177 115 tgl 15 0 empty empty empty 17 7 0 10 -260097 -1 -1 1
1;
#X msg 177 65 \; pd dsp \$1;
#X obj 32 191 adc~ 1;
#N canvas 1 186 175 257 windspeed 0;
#X obj 13 41 +~ 1;
#X obj 12 151 +~;
#X obj 13 64 *~ 0.25;
#X obj 28 129 +~;
#X obj 13 173 clip~ 0 1;
#N canvas 0 50 184 221 squall 0;
#X obj 78 41 noise~;
#X obj 77 108 hip~ 0;
#X obj 78 64 lop~ 3;
#X obj 78 85 lop~ 3;
#X obj 17 112 *~;
#X obj 38 160 *~;
#X obj 16 42 max~ 0.4;
#X obj 16 64 -~ 0.4;
#X obj 16 87 *~ 8;
#X obj 78 129 *~ 20;
#X obj 16 14 inlet~;
#X obj 40 184 outlet~;
#X connect 0 0 2 0;
#X connect 1 0 9 0;
#X connect 2 0 3 0;
#X connect 3 0 1 0;
#X connect 4 0 5 0;
#X connect 5 0 11 0;
#X connect 6 0 7 0;
#X connect 7 0 8 0;
#X connect 8 0 4 0;
#X connect 8 0 4 1;
#X connect 9 0 5 1;
#X connect 10 0 6 0;
#X restore 83 98 pd squall;
#N canvas 1 159 190 244 gust 0;
#X obj 9 15 noise~;
#X obj 8 82 hip~ 0;
#X obj 8 157 *~;
#X obj 76 72 *~;
#X obj 75 49 +~ 0.5;
#X obj 76 96 -~ 0.125;
#X obj 9 59 lop~ 0.5;
#X obj 9 38 lop~ 0.5;
#X obj 9 103 *~ 50;
#X obj 75 9 inlet~;
#X obj 8 182 outlet~;
#X connect 0 0 7 0;
#X connect 1 0 8 0;
#X connect 2 0 10 0;
#X connect 3 0 5 0;
#X connect 4 0 3 0;
#X connect 4 0 3 1;
#X connect 5 0 2 1;
#X connect 6 0 1 0;
#X connect 7 0 6 0;
#X connect 8 0 2 0;
#X connect 9 0 4 0;
#X restore 27 98 pd gust;
#X obj 13 199 outlet~;
#X obj 13 19 osc~ 0.1;
#X connect 0 0 2 0;
#X connect 1 0 4 0;
#X connect 2 0 5 0;
#X connect 2 0 1 0;
#X connect 2 0 6 0;
#X connect 3 0 1 1;
#X connect 4 0 7 0;
#X connect 5 0 3 1;
#X connect 6 0 3 0;
#X connect 8 0 0 0;
#X restore 534 436 pd windspeed;
#X obj 32 254 env~;
#X floatatom 32 276 5 0 0 0 - - -, f 5;
#X obj 32 483 sig~;
#X obj 32 459 * 0.5;
#X obj 32 553 clip~ 0 1;
#X obj 32 390 - 40;
#X obj 32 358 clip 40 80;
#X obj 32 413 / 40;
#X obj 107 117 vsl 15 100 0 100 0 0 empty empty LO 0 -9 0 10 -204786
-1 -1 4455 1;
#X obj 131 117 vsl 15 100 0 100 0 0 empty empty HI 0 -9 0 10 -204786
-1 -1 8910 1;
#X obj 190 285 t f f;
#X obj 139 377 -;
#X floatatom 139 399 5 0 0 0 - - -, f 5;
#X floatatom 107 225 5 0 0 0 - - -, f 5;
#X floatatom 151 225 5 0 0 0 - - -, f 5;
#X obj 32 505 lop~ 1;
#X obj 32 527 lop~ 1;
#X obj 155 117 vsl 15 100 0 1 0 0 empty empty empty 0 -9 0 10 -204800
-1 -1 0 1;
#X obj 107 7 loadbang;
#X obj 177 158 vradio 15 1 0 2 empty empty empty 0 -8 0 10 -262144
-1 -1 0;
#X text 179 142 m;
#X text 179 188 a;
#X msg 460 316 \$1 20;
#X obj 460 338 line~;
#X obj 443 465 *~;
#X msg 550 316 \$1 20;
#X obj 550 338 line~;
#X obj 533 465 *~;
#X obj 356 188 sel 0;
#X msg 460 291 0;
#X msg 500 291 1;
#X msg 550 291 0;
#X msg 590 291 1;
#X obj 443 507 +~;
#X obj 257 430 spigot;
#X obj 296 407 tgl 15 0 empty empty empty 17 7 0 10 -262144 -1 -1 1
1;
#X floatatom 257 452 5 0 0 0 - - -, f 5;
#X msg 296 383 1;
#X msg 336 383 0;
#X obj 308 87 loadbang;
#X msg 308 109 0;
#X obj 111 285 t b f f f;
#X msg 142 61 90;
#X msg 107 61 45;
#X obj 107 29 t b b;
#X text 168 100 DSP;
#X connect 0 0 30 0;
#X connect 2 0 3 0;
#X connect 4 0 6 0;
#X connect 5 0 33 0;
#X connect 6 0 7 0;
#X connect 7 0 12 0;
#X connect 8 0 21 0;
#X connect 9 0 8 0;
#X connect 10 0 0 0;
#X connect 11 0 13 0;
#X connect 12 0 11 0;
#X connect 13 0 9 0;
#X connect 13 0 40 0;
#X connect 14 0 19 0;
#X connect 14 0 47 0;
#X connect 15 0 16 0;
#X connect 15 0 20 0;
#X connect 16 0 12 2;
#X connect 16 1 17 0;
#X connect 17 0 18 0;
#X connect 18 0 13 1;
#X connect 21 0 22 0;
#X connect 22 0 10 0;
#X connect 24 0 50 0;
#X connect 25 0 34 0;
#X connect 28 0 29 0;
#X connect 29 0 30 1;
#X connect 30 0 39 0;
#X connect 31 0 32 0;
#X connect 32 0 33 1;
#X connect 33 0 39 1;
#X connect 34 0 36 0;
#X connect 34 0 37 0;
#X connect 34 0 43 0;
#X connect 34 1 35 0;
#X connect 34 1 38 0;
#X connect 34 1 44 0;
#X connect 35 0 28 0;
#X connect 36 0 28 0;
#X connect 37 0 31 0;
#X connect 38 0 31 0;
#X connect 39 0 1 0;
#X connect 40 0 42 0;
#X connect 41 0 40 1;
#X connect 42 0 23 0;
#X connect 43 0 41 0;
#X connect 44 0 41 0;
#X connect 45 0 46 0;
#X connect 46 0 25 0;
#X connect 47 1 12 1;
#X connect 47 2 11 1;
#X connect 47 3 17 1;
#X connect 48 0 15 0;
#X connect 49 0 14 0;
#X connect 50 0 48 0;
#X connect 50 1 49 0;
#X coords 0 -1 1 1 95 150 2 100 100;
#X restore 19 14 pd ctrl;
