#N canvas 214 144 938 623 10;
#X obj 161 157 *~;
#X obj 93 157 *~;
#X obj 177 111 cos~;
#X obj 177 74 -~ 0.25;
#X obj 177 52 *~ 0.25;
#X obj 109 135 cos~;
#X obj 109 111 -~ 0.25;
#X obj 93 180 outlet~ l;
#X obj 161 180 outlet~ r;
#X obj 93 30 inlet~;
#X msg 177 5 \$1 50;
#X obj 177 27 line~;
#X obj 17 28 vsl 8 70 0 1 0 0 empty empty empty 0 -9 0 10 -262130 -1
-1 6900 1;
#X obj 93 54 *~ 0.5;
#X obj 93 78 *~;
#X obj 31 86 tgl 15 0 empty cut cut 0 -8 0 10 -258113 -1 -1 1 1;
#X obj 31 118 swap 1;
#X obj 31 143 -;
#X obj 234 180 outlet~ mono;
#X obj 20 14 hsl 30 8 0 1 0 0 empty empty empty -2 -8 0 10 -262144
-1 -1 1450 1;
#X obj 301 78 loadbang;
#X msg 301 100 0.5;
#X floatatom 17 175 5 0 0 0 - - -, f 5;
#X msg 330 125 1;
#X msg 373 125 1;
#X connect 0 0 8 0;
#X connect 1 0 7 0;
#X connect 2 0 0 1;
#X connect 3 0 2 0;
#X connect 3 0 6 0;
#X connect 4 0 3 0;
#X connect 5 0 1 1;
#X connect 6 0 5 0;
#X connect 9 0 13 0;
#X connect 10 0 11 0;
#X connect 11 0 4 0;
#X connect 12 0 13 1;
#X connect 12 0 22 0;
#X connect 13 0 14 0;
#X connect 14 0 1 0;
#X connect 14 0 0 0;
#X connect 14 0 18 0;
#X connect 15 0 16 0;
#X connect 16 0 17 0;
#X connect 16 1 17 1;
#X connect 17 0 14 1;
#X connect 19 0 10 0;
#X connect 20 0 21 0;
#X connect 20 0 23 0;
#X connect 20 0 24 0;
#X connect 21 0 19 0;
#X connect 23 0 15 0;
#X connect 24 0 12 0;
#X coords 0 -1 1 1 45 95 2 10 10;
