#N canvas 1 108 1349 445 10;
#X obj 18 250 f;
#X obj 48 7 r GO;
#X obj 36 228 r preswingTime;
#X obj 220 207 r setUp;
#X text 203 188 Start at 0 speed;
#X obj 235 228 r presweepAzim;
#X obj 220 251 f;
#X msg 220 274 \$1;
#X obj 344 152 t f b;
#X obj 345 180 delay;
#X obj 362 107 r preswingTime;
#X obj 370 229 r postswingTime;
#X obj 344 8 r GO;
#X obj 344 129 f;
#X obj 345 207 f;
#X obj 345 252 pack;
#X obj 387 181 r postsweepAzim;
#X msg 345 278 \$1 \$2;
#X obj 158 207 r myEnd;
#X obj 824 219 f;
#X obj 824 7 r GO;
#X obj 849 241 r preswingTime;
#X obj 1015 241 r setUp;
#X text 998 222 Start at 0 speed;
#X obj 1015 285 f;
#X msg 1015 308 \$1;
#X obj 1150 185 t f b;
#X obj 1151 213 delay;
#X obj 1168 140 r preswingTime;
#X obj 1176 262 r postswingTime;
#X obj 1150 7 r GO;
#X obj 1150 162 f;
#X obj 1151 240 f;
#X obj 1151 285 pack;
#X msg 1151 311 \$1 \$2;
#X obj 1033 262 r presweepElev;
#X obj 1220 208 r postsweepElev;
#X obj 824 266 pack;
#X obj 842 198 r midElev;
#X msg 824 300 \$1 \$2;
#X obj 650 184 +;
#X obj 632 211 /;
#X obj 600 153 t f f;
#X obj 650 234 r presweepElev;
#X obj 668 256 r postsweepElev;
#X obj 600 130 r postswingTime;
#X obj 668 162 r preswingTime;
#X obj 632 309 *;
#X obj 632 377 s midElev;
#X text 523 83 Calculate the angles with respect to the centre of the
swing circle;
#X obj 957 241 r myEnd;
#X obj 650 285 -;
#X obj 632 352 +;
#X obj 650 329 r postsweepElev;
#X msg 18 273 180 \$1;
#X obj 220 332 outlet~;
#X obj 1015 368 outlet~;
#X obj 220 308 line~;
#X obj 1015 342 line~;
#X text 283 327 Current Sword Azimuth angle;
#X text 1081 361 Current Sword Elevation angle;
#X obj 1220 239 s strike;
#X obj 106 332 s~ currentAzim;
#X obj 900 368 s~ currentElev;
#X obj 1150 29 bng 15 250 50 0 empty empty empty 17 7 0 10 -4034 -1
-1;
#X obj 824 29 bng 15 250 50 0 empty empty empty 17 7 0 10 -4034 -1
-1;
#X obj 48 29 bng 15 250 50 0 empty empty empty 17 7 0 10 -4034 -1 -1
;
#X obj 344 29 bng 15 250 50 0 empty empty empty 17 7 0 10 -4034 -1
-1;
#X obj 18 14 bng 15 250 50 0 empty empty empty 17 7 0 10 -4034 -1 -1
;
#X connect 0 0 54 0;
#X connect 1 0 66 0;
#X connect 2 0 0 1;
#X connect 3 0 6 0;
#X connect 5 0 6 1;
#X connect 6 0 7 0;
#X connect 7 0 57 0;
#X connect 8 0 9 1;
#X connect 8 1 9 0;
#X connect 9 0 14 0;
#X connect 10 0 13 1;
#X connect 11 0 15 1;
#X connect 12 0 67 0;
#X connect 13 0 8 0;
#X connect 14 0 15 0;
#X connect 15 0 17 0;
#X connect 16 0 14 1;
#X connect 17 0 57 0;
#X connect 18 0 6 0;
#X connect 19 0 37 0;
#X connect 20 0 65 0;
#X connect 21 0 37 1;
#X connect 22 0 24 0;
#X connect 24 0 25 0;
#X connect 25 0 58 0;
#X connect 26 0 27 1;
#X connect 26 1 27 0;
#X connect 27 0 32 0;
#X connect 27 0 61 0;
#X connect 28 0 31 1;
#X connect 29 0 33 1;
#X connect 30 0 64 0;
#X connect 31 0 26 0;
#X connect 32 0 33 0;
#X connect 33 0 34 0;
#X connect 34 0 58 0;
#X connect 35 0 24 1;
#X connect 36 0 32 1;
#X connect 37 0 39 0;
#X connect 38 0 19 1;
#X connect 39 0 58 0;
#X connect 40 0 41 1;
#X connect 41 0 47 0;
#X connect 42 0 40 0;
#X connect 42 1 41 0;
#X connect 43 0 51 0;
#X connect 44 0 51 1;
#X connect 45 0 42 0;
#X connect 46 0 40 1;
#X connect 47 0 52 0;
#X connect 50 0 24 0;
#X connect 51 0 47 1;
#X connect 52 0 48 0;
#X connect 53 0 52 1;
#X connect 54 0 57 0;
#X connect 57 0 55 0;
#X connect 57 0 62 0;
#X connect 58 0 56 0;
#X connect 58 0 63 0;
#X connect 64 0 31 0;
#X connect 65 0 19 0;
#X connect 66 0 0 0;
#X connect 67 0 13 0;
#X connect 68 0 66 0;
#X connect 68 0 67 0;
#X connect 68 0 65 0;
#X connect 68 0 64 0;
