#N canvas 105 343 928 556 10;
#X obj 100 105 cnv 15 80 190 empty empty out 5 12 0 14 -233017 -66577
0;
#X obj 108 150 vsl 15 120 0 1 0 0 empty empty vol 0 -9 0 10 -262130
-1 -1 6500 1;
#X obj 108 318 pack 0 20;
#X obj 108 340 line~;
#X obj 352 356 *~;
#X obj 409 117 catch~ out;
#X obj 352 487 dac~;
#X obj 139 120 tgl 15 0 empty empty DSP 17 7 0 10 -24198 -1 -1 1 1
;
#X msg 222 135 \; pd dsp \$1;
#X obj 298 135 env~;
#X floatatom 298 157 5 0 0 0 - - -, f 5;
#X obj 132 150 vu 15 120 empty empty -1 -8 0 10 -66577 -1 1 0;
#X obj 298 176 - 100;
#X obj 108 280 tgl 15 0 empty empty Mute 17 7 0 10 -262144 -1 -1 0
1;
#X obj 191 318 swap 1;
#X obj 191 340 -;
#X obj 191 362 pack 0 20;
#X obj 191 384 line~;
#X obj 352 402 *~;
#X obj 18 241 loadbang;
#X msg 18 263 0;
#X obj 139 70 module-colorizer;
#X obj 354 64 inlet~ mono;
#X obj 410 486 outlet~ 2recorder-mono;
#X obj 522 356 *~;
#X obj 522 402 *~;
#X obj 692 356 *~;
#X obj 692 402 *~;
#X obj 579 117 catch~ Left;
#X obj 749 117 catch~ Right;
#X obj 524 64 inlet~ Left;
#X obj 694 64 inlet~ Right;
#X obj 580 486 outlet~ 2recorder-L;
#X obj 750 486 outlet~ 2recorder-R;
#X connect 1 0 2 0;
#X connect 2 0 3 0;
#X connect 3 0 4 1;
#X connect 3 0 24 1;
#X connect 3 0 26 1;
#X connect 4 0 18 0;
#X connect 5 0 9 0;
#X connect 5 0 4 0;
#X connect 5 0 23 0;
#X connect 7 0 8 0;
#X connect 7 0 21 0;
#X connect 9 0 10 0;
#X connect 10 0 12 0;
#X connect 12 0 11 0;
#X connect 13 0 14 0;
#X connect 14 0 15 0;
#X connect 14 1 15 1;
#X connect 15 0 16 0;
#X connect 16 0 17 0;
#X connect 17 0 18 1;
#X connect 17 0 25 1;
#X connect 17 0 27 1;
#X connect 18 0 6 0;
#X connect 18 0 6 1;
#X connect 19 0 20 0;
#X connect 20 0 13 0;
#X connect 21 0 7 0;
#X connect 22 0 4 0;
#X connect 22 0 9 0;
#X connect 24 0 25 0;
#X connect 25 0 6 0;
#X connect 26 0 27 0;
#X connect 27 0 6 1;
#X connect 28 0 24 0;
#X connect 28 0 32 0;
#X connect 28 0 9 0;
#X connect 29 0 26 0;
#X connect 29 0 33 0;
#X connect 30 0 24 0;
#X connect 30 0 9 0;
#X connect 31 0 26 0;
#X coords 0 -1 1 1 80 200 2 100 100;
