#N canvas 134 228 697 489 10;
#X obj 509 35 abs-out;
#X obj 78 40 bng 15 250 50 0 empty empty marimba 17 7 0 10 -262144
-1 -1;
#N canvas 713 180 579 480 bell-partials 0;
#X obj 149 75 abs-bell-partial 1 1 1;
#X obj 32 331 *~ 0.25;
#X obj 32 353 throw~ out;
#X obj 148 105 abs-bell-partial 2 0.044 0.205;
#X obj 148 135 abs-bell-partial 2.803 0.891 1;
#X obj 148 165 abs-bell-partial 3.871 0.0891 0.196;
#X obj 148 195 abs-bell-partial 5.074 0.794 0.339;
#X obj 148 225 abs-bell-partial 7.81 0.1 0.047;
#X obj 148 255 abs-bell-partial 10.948 0.281 0.058;
#X obj 148 285 abs-bell-partial 14.421 0.079 0.047;
#X obj 18 36 inlet;
#X connect 0 0 1 0;
#X connect 1 0 2 0;
#X connect 3 0 1 0;
#X connect 4 0 1 0;
#X connect 5 0 1 0;
#X connect 6 0 1 0;
#X connect 7 0 1 0;
#X connect 8 0 1 0;
#X connect 9 0 1 0;
#X connect 10 0 0 0;
#X connect 10 0 3 0;
#X connect 10 0 4 0;
#X connect 10 0 5 0;
#X connect 10 0 6 0;
#X connect 10 0 7 0;
#X connect 10 0 8 0;
#X connect 10 0 9 0;
#X restore 78 226 pd bell-partials;
#X msg 78 125 \$1 \$1;
#X obj 78 60 random 300;
#X obj 78 82 + 100, f 7;
#X obj 198 40 bng 15 250 50 0 empty empty xilophone 17 7 0 10 -262144
-1 -1;
#X obj 198 60 random 300;
#X obj 328 40 bng 15 250 50 0 empty empty tubular_bells 17 7 0 10 -262144
-1 -1;
#X obj 198 82 + 600, f 7;
#X msg 328 104 \$1 5000;
#X obj 328 82 + 60, f 7;
#X obj 328 60 random 100;
#X text 406 149 tibetan bell;
#X msg 328 148 344 9177;
#X connect 1 0 4 0;
#X connect 3 0 2 0;
#X connect 4 0 5 0;
#X connect 5 0 3 0;
#X connect 6 0 7 0;
#X connect 7 0 9 0;
#X connect 8 0 12 0;
#X connect 9 0 3 0;
#X connect 10 0 2 0;
#X connect 11 0 10 0;
#X connect 12 0 11 0;
#X connect 14 0 2 0;
