#N canvas 0 0 321 233 10;
#X obj 16 134 mtof;
#X obj 16 160 osc~;
#X obj 15 192 dac~;
#X text 33 28 sine wave synth;
#X obj 16 73 nbx 5 14 38 50 0 1 empty empty empty 0 -6 0 10 -262131
-1 -1 44 256;
#X text 66 134 note number to Hz;
#X text 65 160 oscillator;
#X text 85 72 number box;
#X msg 25 99 50;
#X msg 56 99 55;
#X msg 88 99 57;
#X msg 119 99 60;
#X text 152 99 message melody;
#X connect 0 0 1 0;
#X connect 1 0 2 0;
#X connect 1 0 2 1;
#X connect 4 0 0 0;
#X connect 8 0 0 0;
#X connect 9 0 0 0;
#X connect 10 0 0 0;
#X connect 11 0 0 0;
