#N canvas 572 283 547 315 10;
#X declare -path abs;
#X text 7 268 a patch by Andy J Farnell;
#N canvas 1 78 684 629 sounds 0;
#X obj 73 221 motorenv;
#X obj 89 308 phasor~;
#X obj 72 556 *~;
#X obj 73 513 *~;
#X obj 145 221 r max-speed;
#X obj 89 286 *~;
#X obj 90 534 r volume;
#X obj 73 200 f;
#X obj 91 156 r runtime;
#X obj 73 135 r go;
#X obj 91 178 * 20000;
#X obj 145 244 * -2000;
#N canvas 1 105 689 538 rotor 0;
#N canvas 0 50 450 300 grapha 0;
#X obj 100 100 cnv 15 100 100 empty empty empty 20 12 0 14 -262144
-66577 0;
#N canvas 0 50 450 300 (subpatch) 0;
#X array A 100 float 0;
#X coords 0 1 99 -1 100 100 1;
#X restore 100 100 graph;
#X obj 289 155 inlet~;
#X obj 210 182 tabwrite~ A;
#X obj 222 110 metro 200;
#X obj 230 148 s b;
#X obj 221 86 tgl 15 0 empty empty empty 0 -6 0 8 -262144 -1 -1 0 1
;
#X connect 2 0 3 0;
#X connect 4 0 3 0;
#X connect 4 0 5 0;
#X connect 6 0 4 0;
#X coords 0 -1 1 1 100 100 1 100 100;
#X restore 4 260 pd grapha;
#X obj 117 227 *~;
#X obj 117 67 *~;
#X obj 117 135 +~;
#X obj 134 182 *~;
#X obj 133 110 sig~ 0.2;
#X obj 117 0 noise~;
#X obj 117 22 bp~ 4000 1;
#X obj 133 204 *~;
#X obj 134 157 inlet~ drive;
#X obj 117 272 outlet~;
#N canvas 0 50 450 300 grapha 0;
#X obj 100 100 cnv 15 100 100 empty empty empty 20 12 0 14 -262144
-66577 0;
#N canvas 0 50 450 300 (subpatch) 0;
#X array B 100 float 0;
#X coords 0 1 99 -1 100 100 1;
#X restore 100 100 graph;
#X obj 289 155 inlet~;
#X obj 210 182 tabwrite~ B;
#X obj 210 156 r b;
#X connect 2 0 3 0;
#X connect 4 0 3 0;
#X coords 0 -1 1 1 100 100 1 100 100;
#X restore 189 259 pd grapha;
#X obj 500 16 inlet rotor-level;
#X obj 360 16 inlet brush-level;
#X connect 1 0 10 0;
#X connect 1 0 11 0;
#X connect 2 0 3 0;
#X connect 3 0 1 0;
#X connect 3 0 0 0;
#X connect 4 0 8 0;
#X connect 4 0 8 1;
#X connect 5 0 3 1;
#X connect 6 0 7 0;
#X connect 7 0 2 0;
#X connect 8 0 1 1;
#X connect 9 0 4 0;
#X connect 9 0 4 1;
#X connect 12 0 5 0;
#X connect 13 0 2 1;
#X restore 89 405 pd rotor;
#N canvas 537 78 461 523 stator 0;
#X obj 39 136 sig~ 1;
#X obj 71 190 /~;
#X obj 87 163 +~ 1;
#X obj 87 136 *~;
#X obj 87 108 cos~;
#N canvas 0 50 450 300 grapha 0;
#X obj 100 100 cnv 15 100 100 empty empty empty 20 12 0 14 -262144
-66577 0;
#N canvas 0 50 450 300 (subpatch) 0;
#X array C 100 float 0;
#X coords 0 1 99 -1 100 100 1;
#X restore 100 100 graph;
#X obj 289 155 inlet~;
#X obj 210 156 r b;
#X obj 210 182 tabwrite~ C;
#X connect 2 0 4 0;
#X connect 3 0 4 0;
#X coords 0 -1 1 1 100 100 1 100 100;
#X restore 138 279 pd grapha;
#X obj 87 86 wrap~;
#X obj 70 212 -~ 0.5;
#X obj 87 62 *~ 2;
#X obj 88 38 inlet~ drive;
#X obj 71 289 outlet~;
#X obj 71 262 *~;
#X obj 255 35 inlet stator-level;
#X connect 0 0 1 0;
#X connect 1 0 7 0;
#X connect 2 0 1 1;
#X connect 3 0 2 0;
#X connect 4 0 3 0;
#X connect 4 0 3 1;
#X connect 6 0 4 0;
#X connect 7 0 5 0;
#X connect 7 0 11 0;
#X connect 8 0 6 0;
#X connect 9 0 8 0;
#X connect 11 0 10 0;
#X connect 12 0 11 1;
#X restore 155 405 pd stator;
#X obj 90 439 +~;
#X obj 411 185 hsl 100 15 0 1 0 0 brush-level empty brush-level 5 6
1 8 -262144 -1 -1 2100 1;
#X obj 411 204 hsl 100 15 0 1 0 0 rotor-level empty rotor-level 5 6
1 8 -262144 -1 -1 4500 1;
#X obj 411 223 hsl 100 15 0 1 0 0 max-speed empty max-speed 5 6 1 8
-262144 -1 -1 4700 1;
#X obj 411 242 hsl 100 15 0 1 0 0 tube-res empty tube-res 10 6 1 8
-262144 -1 -1 800 1;
#X obj 411 146 hsl 100 15 0 1 0 0 runtime empty runtime 12 6 1 8 -262144
-1 -1 3200 1;
#X obj 72 113 bng 15 250 50 0 go empty go 20 6 1 8 -262144 -1 -1;
#X obj 411 165 hsl 100 15 0 1 0 0 stator-level empty stator-level 4
6 1 8 -262144 -1 -1 4000 1;
#X obj 411 261 hsl 100 15 0 1 0 0 volume empty volume 10 6 1 8 -262144
-1 -1 1500 1;
#X obj 215 299 r brush-level;
#X obj 215 322 r rotor-level;
#X obj 215 346 r stator-level;
#X obj 72 584 throw~ mono;
#X obj 408 32 catch~ mono;
#X obj 408 104 dac~;
#X obj 408 11 declare -path abs;
#X obj 408 54 hip~ 5;
#X obj 408 76 clip~ -1 1;
#N canvas 84 78 188 182 tube 0;
#X obj 0 98 cos~;
#X obj 0 76 +~;
#X obj 0 46 *~;
#X obj 100 0 inlet~ drive;
#X obj 0 164 outlet~;
#X obj 0 0 inlet~ amount;
#X obj 17 20 osc~ 178;
#X obj 0 120 hip~ 180;
#X obj 0 142 hip~ 180;
#X connect 0 0 7 0;
#X connect 1 0 0 0;
#X connect 2 0 1 0;
#X connect 3 0 1 1;
#X connect 5 0 2 0;
#X connect 6 0 2 1;
#X connect 7 0 8 0;
#X connect 8 0 4 0;
#X restore 232 405 pd tube;
#X obj 250 427 r tube-res;
#X obj 232 451 *~;
#X obj 90 481 +~;
#X msg 408 452 \; runtime 0.507 \; stator-level 0.825 \; brush-level
0.253 \; rotor-level 0.301 \; max-speed 0.587 \; tube-res 0 \; volume
0.238 \;;
#X floatatom 517 161 5 0 0 0 - - -, f 5;
#X floatatom 518 180 5 0 0 0 - - -, f 5;
#X floatatom 517 200 5 0 0 0 - - -, f 5;
#X floatatom 517 219 5 0 0 0 - - -, f 5;
#X floatatom 517 257 5 0 0 0 - - -, f 5;
#X floatatom 517 276 5 0 0 0 - - -, f 5;
#X floatatom 517 238 5 0 0 0 - - -, f 5;
#X msg 408 309 \; runtime 0.507 \; stator-level 0.634 \; brush-level
0.333 \; rotor-level 0.714 \; max-speed 0.746 \; tube-res 0.126 \;
volume 0.238 \;;
#X obj 408 428 loadbang;
#X obj 552 10 loadbang;
#X msg 552 32 \; pd dsp 1;
#X connect 0 0 5 0;
#X connect 0 0 3 0;
#X connect 0 0 32 1;
#X connect 1 0 12 0;
#X connect 1 0 13 0;
#X connect 1 0 32 0;
#X connect 2 0 26 0;
#X connect 3 0 2 0;
#X connect 4 0 11 0;
#X connect 5 0 1 0;
#X connect 6 0 2 1;
#X connect 7 0 0 0;
#X connect 8 0 10 0;
#X connect 9 0 7 0;
#X connect 10 0 7 1;
#X connect 11 0 5 1;
#X connect 12 0 14 0;
#X connect 13 0 14 1;
#X connect 14 0 35 0;
#X connect 15 0 39 0;
#X connect 16 0 40 0;
#X connect 17 0 43 0;
#X connect 18 0 41 0;
#X connect 19 0 37 0;
#X connect 21 0 38 0;
#X connect 22 0 42 0;
#X connect 23 0 12 1;
#X connect 24 0 12 2;
#X connect 25 0 13 1;
#X connect 27 0 30 0;
#X connect 30 0 31 0;
#X connect 31 0 28 0;
#X connect 31 0 28 1;
#X connect 32 0 34 0;
#X connect 33 0 34 1;
#X connect 34 0 35 1;
#X connect 35 0 3 1;
#X connect 45 0 36 0;
#X connect 46 0 47 0;
#X restore 447 268 pd sounds;
#X obj 256 135 image drill.gif;
#X obj 146 116 bng 15 250 50 0 go empty empty 20 6 1 8 -258113 -1 -1
;
