#N canvas 1 78 1351 689 10;
#X declare -path abs;
#X obj 311 614 tabwrite~ c;
#N canvas 0 50 450 300 (subpatch) 0;
#X array c 4096 float 2;
#X coords 0 1 4096 -1 400 140 1 0 0;
#X restore 583 528 graph;
#X obj 200 45 bng 15 250 50 0 empty \$0-one-shot oneshot 0 -6 1 8 -261234
-1 -1;
#X obj 200 278 +~;
#X obj 434 160 del 12;
#X obj 247 44 tgl 15 0 empty \$0-auto-trig auto 0 -6 1 8 -261234 -1
-1 0 1;
#X floatatom 471 143 5 0 0 2 noise #0-noise-dly -, f 5;
#X obj 434 180 f 100;
#X floatatom 513 143 5 0 0 0 - #0-noise-amt -, f 5;
#X obj 810 283 hip~ 100;
#X obj 247 63 metro 80;
#X obj 810 261 delread~ a 100;
#X obj 292 157 del 12;
#X floatatom 329 140 5 0 0 2 barrel #0-barrel-dly -, f 5;
#X obj 582 454 bp-programmer;
#X floatatom 396 354 5 0 0 1 Q #0-formant-reso -, f 5;
#X obj 582 414 bng 15 250 50 0 empty \$0-random empty 0 -6 0 8 -204786
-1 -1;
#N canvas 27 95 348 399 random 0;
#X obj 3 189 outlet;
#X obj 3 165 list append;
#X obj 176 147 t l;
#X obj 75 141 list prepend;
#X obj 75 76 until;
#X msg 74 53 8;
#X obj 76 97 random 3000;
#X obj 75 117 + 100;
#X obj 52 1 inlet;
#X obj 52 26 t b b b;
#X connect 1 0 0 0;
#X connect 2 0 3 1;
#X connect 3 0 2 0;
#X connect 3 0 1 1;
#X connect 4 0 6 0;
#X connect 5 0 4 0;
#X connect 6 0 7 0;
#X connect 7 0 3 0;
#X connect 8 0 9 0;
#X connect 9 0 1 0;
#X connect 9 1 5 0;
#X connect 9 2 3 1;
#X restore 582 433 pd random 800 to 5k;
#X obj 202 414 *~;
#X floatatom 461 354 5 0 100 1 amp #0-formant-gain -, f 5;
#X floatatom 369 140 5 0 0 0 - #0-barrel-amt -, f 5;
#X obj 292 177 f 20;
#X floatatom 223 133 5 0 0 2 chirptime #0-chirptime-amt -, f 5;
#N canvas 1 122 255 390 barrel 0;
#X obj 96 71 vline~;
#X obj 39 209 cos~;
#X obj 39 187 -~ 0.25;
#X obj 39 165 wrap~;
#X obj 39 143 pow~;
#X obj 78 247 *~;
#X obj 63 122 sig~ 2;
#X msg 96 51 0 \, 1 0 0 \, 0 \$1 0;
#X obj 39 102 *~ 2;
#X obj 96 30 inlet;
#X obj 78 270 outlet~;
#X connect 0 0 8 0;
#X connect 0 0 5 1;
#X connect 1 0 5 0;
#X connect 2 0 1 0;
#X connect 3 0 2 0;
#X connect 4 0 3 0;
#X connect 5 0 10 0;
#X connect 6 0 4 1;
#X connect 7 0 0 0;
#X connect 8 0 4 0;
#X connect 9 0 7 0;
#X restore 292 198 pd barrel;
#N canvas 599 271 320 268 shell 0;
#X obj 23 182 cos~;
#X obj 23 60 vline~;
#X obj 23 161 -~ 0.25;
#X obj 23 141 wrap~;
#X obj 23 121 pow~;
#X obj 23 80 *~ 1.05;
#X obj 45 101 sig~ 64;
#X obj 23 18 inlet;
#X obj 23 205 outlet~;
#X msg 23 39 0 \, 1 0 0 \, 0 \$1;
#X connect 0 0 8 0;
#X connect 1 0 5 0;
#X connect 2 0 0 0;
#X connect 3 0 2 0;
#X connect 4 0 3 0;
#X connect 5 0 4 0;
#X connect 6 0 4 1;
#X connect 7 0 9 0;
#X connect 9 0 1 0;
#X restore 200 198 pd shell;
#N canvas 495 140 272 361 noiseburst 0;
#X obj 54 79 vline~;
#X obj 54 180 *~;
#X obj 54 104 *~;
#X obj 54 129 *~;
#X obj 54 154 *~;
#X obj 54 217 outlet~;
#X obj 54 28 inlet;
#N canvas 518 256 450 300 nwavenoise 0;
#X obj 131 200 max~;
#X obj 131 167 -~ 1;
#X obj 186 166 *~ -1;
#X obj 131 250 +~ 0.5;
#X obj 131 225 *~ 2;
#X obj 128 20 noise~;
#X obj 130 129 phasor~;
#X obj 131 281 outlet~;
#X obj 128 65 hip~ 40;
#X obj 130 108 +~ 100;
#X obj 128 87 *~ 5000;
#X obj 127 43 bp~ 3000 2;
#X connect 0 0 4 0;
#X connect 1 0 0 0;
#X connect 2 0 0 1;
#X connect 3 0 7 0;
#X connect 4 0 3 0;
#X connect 5 0 11 0;
#X connect 6 0 1 0;
#X connect 6 0 2 0;
#X connect 8 0 10 0;
#X connect 9 0 6 0;
#X connect 10 0 9 0;
#X connect 11 0 8 0;
#X restore 91 155 pd nwavenoise;
#X msg 54 56 0 \, 1 0 7 \, 0 \$1 7;
#X connect 0 0 2 0;
#X connect 0 0 2 1;
#X connect 1 0 5 0;
#X connect 2 0 3 0;
#X connect 2 0 3 1;
#X connect 3 0 4 0;
#X connect 3 0 4 1;
#X connect 4 0 1 0;
#X connect 6 0 8 0;
#X connect 7 0 1 1;
#X connect 8 0 0 0;
#X restore 434 198 pd noiseburst;
#X obj 301 43 hsl 128 15 30 700 0 1 empty empty automatic-fire 20 7
1 8 -262144 -1 -1 1100 1;
#X obj 201 302 +~;
#X obj 202 572 *~ 0.8;
#X obj 200 150 f 60;
#X floatatom 809 232 5 20 400 0 - #0-environment-size -, f 5;
#X obj 202 383 bpar8~ 3;
#X obj 247 616 *~ 0.85;
#X obj 247 640 delwrite~ a 400;
#X obj 751 329 combsweep;
#N canvas 115 95 480 507 nwave 0;
#X obj 0 143 vline~;
#X obj 21 48 t a a;
#X obj 0 100 pack f f;
#X obj 51 75 + 1;
#X msg 0 122 1 1 0 \, -1 \$1 1 \, 0 1 \$2;
#X obj 21 0 inlet;
#X obj 10 168 delwrite~ i 40;
#X obj 116 167 delread~ i 40;
#X obj 0 233 outlet~;
#X obj 116 187 lop~ 100;
#X obj 116 0 inlet weaponheight;
#X msg 21 24 2;
#X connect 0 0 6 0;
#X connect 0 0 8 0;
#X connect 1 0 2 0;
#X connect 1 1 3 0;
#X connect 2 0 4 0;
#X connect 3 0 2 1;
#X connect 4 0 0 0;
#X connect 5 0 11 0;
#X connect 7 0 9 0;
#X connect 9 0 8 0;
#X connect 10 0 7 0;
#X connect 11 0 1 0;
#X restore 396 487 pd nwave;
#X obj 384 109 s trig;
#X obj 200 89 trigger bang bang bang bang;
#X obj 311 586 r trig;
#X obj 751 283 r trig;
#X text 794 211 optional environment;
#X obj 751 353 rev3~ 100 60 5000 10;
#X obj 751 306 del 100;
#X obj 396 434 r trig;
#X floatatom 471 442 5 0 0 2 dly #0-shockwave-dly -, f 5;
#X obj 228 354 r body formant;
#X obj 582 492 s body formant;
#X floatatom 471 473 5 10 100 2 height #0-shockwave-height -, f 5
;
#X obj 396 456 del 44;
#X obj 218 333 r~ body;
#X obj 131 65 reload;
#X obj 131 88 s~ body;
#X obj 131 45 bng 15 250 50 0 empty \$0-reload reload 0 -8 1 8 -261234
-1 -1;
#N canvas 1 95 450 300 mux 0;
#X obj 243 185 *~;
#X obj 273 185 *~;
#X obj 207 102 inlet~;
#X obj 262 102 inlet~;
#X obj 231 237 outlet~;
#X obj 287 147 == 0;
#X obj 112 119 tgl 15 0 empty empty empty 0 -6 0 8 -262144 -1 -1 0
1;
#X obj 112 51 loadbang;
#X msg 112 73 0;
#X connect 0 0 4 0;
#X connect 1 0 4 0;
#X connect 2 0 0 0;
#X connect 3 0 1 0;
#X connect 5 0 0 1;
#X connect 6 0 5 0;
#X connect 6 0 1 1;
#X connect 7 0 8 0;
#X connect 8 0 6 0;
#X coords 0 -1 1 1 40 40 1 100 100;
#X restore 202 481 pd mux;
#N canvas 90 183 733 584 tanh 0;
#X obj 241 65 inlet~;
#X obj 240 148 *~;
#X obj 165 265 /~;
#X obj 165 350 /~;
#X obj 165 288 /~;
#X obj 165 321 /~;
#X obj 240 206 +~ 1;
#X obj 165 436 outlet~;
#X obj 287 205 +~ 3;
#X obj 337 206 +~ 5;
#X obj 384 205 +~ 7;
#X obj 433 205 +~ 9;
#X obj 165 372 /~;
#X text 276 114 2/pi;
#X obj 166 399 *~ 2700;
#X obj 241 89 *~ 0.6;
#X connect 0 0 15 0;
#X connect 1 0 6 0;
#X connect 1 0 8 0;
#X connect 1 0 9 0;
#X connect 1 0 10 0;
#X connect 1 0 11 0;
#X connect 2 0 4 0;
#X connect 3 0 12 0;
#X connect 4 0 5 0;
#X connect 5 0 3 0;
#X connect 6 0 2 1;
#X connect 8 0 4 1;
#X connect 9 0 5 1;
#X connect 10 0 3 1;
#X connect 11 0 12 1;
#X connect 12 0 14 0;
#X connect 14 0 7 0;
#X connect 15 0 1 1;
#X connect 15 0 1 0;
#X connect 15 0 2 0;
#X restore 203 440 pd tanh tgrill;
#N canvas 1 78 713 460 tanh 0;
#X obj 241 65 inlet~;
#X text 493 89 __;
#X text 575 89 __;
#X text 527 89 __;
#X text 626 89 __;
#X text 493 106 1 +;
#X text 529 106 3 +;
#X text 577 106 5 +;
#X text 627 106 7 +;
#X text 443 32 As a continued fraction;
#X obj 240 148 *~;
#X obj 165 265 /~;
#X obj 165 350 /~;
#X obj 165 288 /~;
#X obj 165 321 /~;
#X text 427 78 tanh(z) = z z^2 4z^2 9z^2 ...;
#X obj 292 175 *~ 4;
#X obj 291 206 +~ 3;
#X obj 335 174 *~ 9;
#X obj 334 205 +~ 5;
#X obj 375 175 *~ 16;
#X obj 374 205 +~ 7;
#X obj 240 206 +~ 1;
#X obj 165 401 outlet~;
#X obj 165 372 *~ 576;
#X text 276 114 1/pi;
#X obj 241 89 *~ 0.30831;
#X connect 0 0 26 0;
#X connect 10 0 16 0;
#X connect 10 0 18 0;
#X connect 10 0 20 0;
#X connect 10 0 22 0;
#X connect 11 0 13 0;
#X connect 12 0 24 0;
#X connect 13 0 14 0;
#X connect 14 0 12 0;
#X connect 16 0 17 0;
#X connect 17 0 13 1;
#X connect 18 0 19 0;
#X connect 19 0 14 1;
#X connect 20 0 21 0;
#X connect 21 0 12 1;
#X connect 22 0 11 1;
#X connect 24 0 23 0;
#X connect 26 0 10 1;
#X connect 26 0 10 0;
#X connect 26 0 11 0;
#X restore 240 460 pd tanh afarnell;
#X obj 461 373 / 100;
#X obj 579 380 hsl 128 15 0 40 0 0 \$0-shockwave-height ctrl-shockwave-height
shockwave-height -2 7 0 10 -262130 -1 -1 2900 1;
#X obj 579 365 hsl 128 15 0 100 0 0 \$0-shockwave-dly ctrl-shockwave-dly
shockwave-dly -2 7 0 10 -262130 -1 -1 3899 1;
#X obj 579 345 hsl 128 15 1 200 0 0 \$0-formant-gain ctrl-formant-gain
formant-gain -2 7 0 10 -204786 -1 -1 893 1;
#X obj 579 330 hsl 128 15 0 50 0 0 \$0-formant-reso ctrl-formant-reso
formant-resonance -2 7 0 10 -204786 -1 -1 2697 1;
#X obj 434 284 *~;
#X obj 452 220 tgl 15 0 empty comp-noiseburst empty 17 7 0 10 -261682
-1 -1 1 1;
#X obj 292 261 *~;
#X obj 310 220 tgl 15 0 empty comp-barrell empty 17 7 0 10 -261682
-1 -1 1 1;
#X obj 200 239 *~;
#X obj 218 220 tgl 15 0 empty comp-shell empty 17 7 0 10 -261682 -1
-1 1 1;
#X obj 579 270 hsl 128 15 0 25 0 0 \$0-barrel-amt ctrl-barrel-amt barrel-amt
-2 7 0 10 -204800 -1 -1 3099 1;
#X obj 579 255 hsl 128 15 0 50 0 0 \$0-barrel-dly ctrl-barrel-dly barrel-dly
-2 7 0 10 -204800 -1 -1 1524 1;
#X obj 579 305 hsl 128 15 0 25 0 0 \$0-noise-amt ctrl-noise-amt noise-amt
-2 7 0 10 -228856 -1 -1 3900 1;
#X obj 579 290 hsl 128 15 0 50 0 0 \$0-noise-dly ctrl-noise-dly noise-dly
-2 7 0 10 -228856 -1 -1 3099 1;
#X obj 579 230 hsl 128 15 0 50 0 0 \$0-chirptime-amt ctrl-chirptime-amt
chirptime-amt -2 7 0 10 -261234 -1 -1 9898 1;
#X obj 396 514 *~;
#X obj 522 476 tgl 15 0 empty comp-shockwave empty 17 7 0 10 -261682
-1 -1 1 1;
#X obj 733 387 *~;
#X obj 733 353 tgl 15 0 empty comp-ambience empty 17 7 0 10 -261682
-1 -1 1 1;
#X obj 579 190 hsl 128 15 20 400 0 0 \$0-environment-size ctrl-env-size
env-size -2 7 0 10 -203904 -1 -1 2200 1;
#X text 574 10 a patch by Andy J Farnell;
#X obj 202 664 throw~ out;
#N canvas 170 186 977 521 output 0;
#X obj 304 469 dac~;
#X obj 305 338 *~;
#X obj 155 108 vsl 15 70 0 1 0 0 empty empty empty 0 -9 0 10 -257985
-1 -1 4830 1;
#X msg 155 329 \$1 20;
#X obj 155 351 line~;
#X msg 107 277 \$1 20;
#X obj 107 299 line~;
#X obj 107 128 tgl 15 0 empty empty mute 17 7 0 10 -262144 -1 -1 0
1;
#X obj 107 235 swap 1;
#X obj 107 257 -;
#X obj 305 368 *~;
#X obj 305 390 hip~ 5;
#X obj 305 412 clip~ -1 1;
#X obj 321 310 catch~ out;
#X obj 107 106 tgl 15 0 empty empty DSP 17 7 0 10 -262144 -1 -1 0 1
;
#X msg 107 381 \; pd dsp \$1;
#X obj 103 188 abs-hid;
#X obj 521 218 tgl 15 0 \$0-auto-trig empty empty 17 7 0 10 -262144
-1 -1 0 1;
#X obj 491 218 tgl 15 0 empty empty empty 17 7 0 10 -262144 -1 -1 0
1;
#X obj 461 218 tgl 15 0 empty empty empty 17 7 0 10 -262144 -1 -1 0
1;
#X obj 431 218 tgl 15 0 empty empty empty 17 7 0 10 -262144 -1 -1 0
1;
#X obj 401 218 tgl 15 0 empty empty empty 17 7 0 10 -262144 -1 -1 0
1;
#X obj 371 218 tgl 15 0 empty empty empty 17 7 0 10 -262144 -1 -1 0
1;
#X obj 491 238 sel 1;
#X obj 491 260 bng 15 250 50 0 \$0-one-shot empty empty 17 7 0 10 -262144
-1 -1;
#X obj 431 238 sel 1;
#X obj 431 260 bng 15 250 50 0 \$0-reload empty empty 17 7 0 10 -262144
-1 -1;
#X obj 461 288 sel 1;
#X obj 461 310 bng 15 250 50 0 \$0-random empty empty 17 7 0 10 -262144
-1 -1;
#X msg 586 184 \; ctrl-chirptime-amt 38.97 \; ctrl-barrel-dly 6 \;
ctrl-barrel-amt 6.1 \; ctrl-noise-dly 12.2 \; ctrl-noise-amt 7.677
\; ctrl-formant-reso 10.62 \; ctrl-formant-gain 15 \; ctrl-shockwave-dly
30.7 \; ctrl-shockwave-height 9.133 \; ctrl-env-size 85.82 \; ctrl-env-amt
0.976 \;;
#X obj 107 169 bng 15 250 50 0 empty empty prst 17 7 0 10 -262144 -258113
-1;
#X obj 107 149 tgl 15 0 empty empty ALL 17 7 0 10 -260097 -1 -1 1 1
;
#X msg 107 12 \; comp-shell \$1 \; comp-barrell \$1 \; comp-noiseburst
\$1 \; comp-ambience \$1 \; comp-shockwave \$1 \;;
#X obj 31 14 loadbang;
#X msg 31 132 1;
#X msg 31 152 1;
#X msg 31 56 0;
#X msg 31 36 0.7;
#X msg 31 172 1;
#X connect 1 0 10 1;
#X connect 2 0 3 0;
#X connect 3 0 4 0;
#X connect 4 0 10 0;
#X connect 5 0 6 0;
#X connect 6 0 1 0;
#X connect 7 0 8 0;
#X connect 8 0 9 0;
#X connect 8 1 9 1;
#X connect 9 0 5 0;
#X connect 10 0 11 0;
#X connect 11 0 12 0;
#X connect 12 0 0 0;
#X connect 12 0 0 1;
#X connect 13 0 1 1;
#X connect 14 0 15 0;
#X connect 16 0 22 0;
#X connect 16 1 21 0;
#X connect 16 2 20 0;
#X connect 16 3 19 0;
#X connect 16 4 18 0;
#X connect 16 5 17 0;
#X connect 18 0 23 0;
#X connect 19 0 27 0;
#X connect 20 0 25 0;
#X connect 23 0 24 0;
#X connect 25 0 26 0;
#X connect 27 0 28 0;
#X connect 30 0 29 0;
#X connect 31 0 32 0;
#X connect 33 0 34 0;
#X connect 33 0 35 0;
#X connect 33 0 36 0;
#X connect 33 0 37 0;
#X connect 33 0 28 0;
#X connect 33 0 38 0;
#X connect 34 0 31 0;
#X connect 35 0 30 0;
#X connect 36 0 14 0;
#X connect 36 0 7 0;
#X connect 37 0 2 0;
#X connect 38 0 16 0;
#X coords 0 -1 1 1 77 120 2 100 100;
#X restore 1024 82 pd output;
#X obj 733 431 throw~ out;
#X obj 579 205 hsl 128 15 0 1 0 0 \$0-environment-amt ctrl-env-amt
env-amt -2 7 0 10 -203904 -1 -1 12395 1;
#X floatatom 922 231 5 20 400 0 - #0-environment-amt -, f 5;
#X obj 922 370 line~;
#X obj 733 409 *~;
#X msg 922 348 \$1 20;
#X text 1022 22 X to reload;
#X text 1022 33 Y for a new body;
#X text 393 414 shockwave;
#X text 1022 43 RT automatic fire;
#X text 1022 53 LT oneshot;
#X obj 772 101 image ak47.gif;
#X obj 1026 210 declare -path abs;
#X connect 2 0 37 0;
#X connect 3 0 27 0;
#X connect 4 0 7 0;
#X connect 5 0 10 0;
#X connect 6 0 4 1;
#X connect 7 0 25 0;
#X connect 8 0 7 1;
#X connect 9 0 34 1;
#X connect 10 0 37 0;
#X connect 11 0 9 0;
#X connect 12 0 21 0;
#X connect 13 0 12 1;
#X connect 14 0 46 0;
#X connect 15 0 31 2;
#X connect 16 0 17 0;
#X connect 17 0 14 0;
#X connect 18 0 54 0;
#X connect 18 0 55 0;
#X connect 19 0 56 0;
#X connect 20 0 21 1;
#X connect 21 0 23 0;
#X connect 22 0 29 1;
#X connect 23 0 63 0;
#X connect 24 0 65 0;
#X connect 25 0 61 0;
#X connect 26 0 10 1;
#X connect 27 0 31 0;
#X connect 28 0 0 0;
#X connect 28 0 32 0;
#X connect 28 0 78 0;
#X connect 29 0 24 0;
#X connect 30 0 11 0;
#X connect 30 0 42 1;
#X connect 31 0 18 0;
#X connect 32 0 33 0;
#X connect 34 0 41 0;
#X connect 35 0 72 0;
#X connect 37 0 29 0;
#X connect 37 1 12 0;
#X connect 37 2 4 0;
#X connect 37 3 36 0;
#X connect 38 0 0 0;
#X connect 39 0 42 0;
#X connect 41 0 74 1;
#X connect 42 0 34 0;
#X connect 43 0 48 0;
#X connect 44 0 48 1;
#X connect 45 0 31 1;
#X connect 47 0 35 1;
#X connect 48 0 35 0;
#X connect 49 0 31 0;
#X connect 50 0 51 0;
#X connect 52 0 50 0;
#X connect 53 0 28 0;
#X connect 54 0 53 0;
#X connect 55 0 53 1;
#X connect 56 0 18 1;
#X connect 61 0 27 1;
#X connect 62 0 61 1;
#X connect 63 0 3 1;
#X connect 64 0 63 1;
#X connect 65 0 3 0;
#X connect 66 0 65 1;
#X connect 72 0 28 0;
#X connect 73 0 72 1;
#X connect 74 0 84 0;
#X connect 75 0 74 0;
#X connect 82 0 85 0;
#X connect 83 0 84 1;
#X connect 84 0 80 0;
#X connect 85 0 83 0;
