#N canvas 556 288 670 275 10;
#X obj 30 91 hsl 128 15 0.001 0.9 0 0 empty \$0-dynamics empty -2 -8
0 10 -262144 -1 -1 12700 1;
#X obj 27 116 s dynamics;
#N canvas 56 95 544 408 automation 0;
#X obj 77 27 snapshot~;
#X obj 11 0 metro 10;
#X obj 155 27 snapshot~;
#X obj 77 108 +;
#X obj 77 81 + 0.125;
#X obj 77 54 * 0.125;
#X obj 155 54 * 0.25;
#X obj 155 81 + 0.25;
#X obj 155 0 osc~ 0.3;
#X obj 77 135 spigot;
#X obj 110 110 tgl 15 1 empty empty automation 17 7 0 10 -262144 -1
-1 0 1;
#X obj 77 162 outlet;
#X obj 77 0 osc~ 0.04;
#X obj 11 42 loadbang;
#X msg 11 64 0;
#X connect 0 0 5 0;
#X connect 1 0 0 0;
#X connect 1 0 2 0;
#X connect 2 0 6 0;
#X connect 3 0 9 0;
#X connect 4 0 3 0;
#X connect 5 0 4 0;
#X connect 6 0 7 0;
#X connect 7 0 3 1;
#X connect 8 0 2 0;
#X connect 9 0 11 0;
#X connect 10 0 9 1;
#X connect 12 0 0 0;
#X connect 13 0 1 0;
#X connect 13 0 14 0;
#X connect 14 0 10 0;
#X coords 0 -1 1 1 95 36 2 100 100;
#X restore 27 45 pd automation;
#N canvas 239 517 226 142 water_sound_generator 0;
#X obj 22 22 noise~;
#X obj 22 49 s~ noise;
#N canvas 1 78 1351 689 water 0;
#X obj 24 2 water;
#X obj 156 1 water;
#X obj 332 55 water;
#X obj 288 244 water;
#X obj 332 298 water;
#X obj 464 109 water;
#X obj 552 271 water;
#X obj 508 298 water;
#X obj 244 217 water;
#X obj 552 163 water;
#X obj 464 244 water;
#X obj 24 28 water;
#X obj 68 1 water;
#X obj 68 28 water;
#X obj 112 1 water;
#X obj 112 28 water;
#X obj 156 28 water;
#X obj 200 1 water;
#X obj 200 28 water;
#X obj 244 1 water;
#X obj 244 28 water;
#X obj 288 1 water;
#X obj 288 28 water;
#X obj 332 1 water;
#X obj 332 28 water;
#X obj 376 1 water;
#X obj 376 28 water;
#X obj 420 1 water;
#X obj 420 28 water;
#X obj 464 1 water;
#X obj 464 28 water;
#X obj 508 1 water;
#X obj 508 28 water;
#X obj 552 1 water;
#X obj 552 28 water;
#X obj 596 1 water;
#X obj 596 28 water;
#X obj 640 1 water;
#X obj 640 28 water;
#X obj 684 1 water;
#X obj 684 28 water;
#X obj 24 55 water;
#X obj 24 82 water;
#X obj 68 55 water;
#X obj 68 82 water;
#X obj 112 55 water;
#X obj 112 82 water;
#X obj 156 55 water;
#X obj 156 82 water;
#X obj 200 55 water;
#X obj 200 82 water;
#X obj 244 55 water;
#X obj 244 82 water;
#X obj 288 55 water;
#X obj 288 82 water;
#X obj 332 82 water;
#X obj 376 55 water;
#X obj 376 82 water;
#X obj 420 55 water;
#X obj 420 82 water;
#X obj 464 55 water;
#X obj 464 82 water;
#X obj 508 55 water;
#X obj 508 82 water;
#X obj 552 55 water;
#X obj 552 82 water;
#X obj 596 55 water;
#X obj 596 82 water;
#X obj 640 55 water;
#X obj 640 82 water;
#X obj 684 55 water;
#X obj 684 82 water;
#X obj 244 163 water;
#X obj 24 109 water;
#X obj 24 136 water;
#X obj 68 109 water;
#X obj 68 136 water;
#X obj 112 109 water;
#X obj 112 136 water;
#X obj 156 109 water;
#X obj 156 136 water;
#X obj 24 163 water;
#X obj 24 190 water;
#X obj 68 163 water;
#X obj 68 190 water;
#X obj 112 163 water;
#X obj 112 190 water;
#X obj 156 163 water;
#X obj 156 190 water;
#X obj 200 109 water;
#X obj 200 136 water;
#X obj 244 109 water;
#X obj 244 136 water;
#X obj 288 109 water;
#X obj 288 136 water;
#X obj 332 109 water;
#X obj 332 136 water;
#X obj 200 163 water;
#X obj 200 190 water;
#X obj 244 190 water;
#X obj 288 163 water;
#X obj 288 190 water;
#X obj 332 163 water;
#X obj 332 190 water;
#X obj 376 109 water;
#X obj 376 136 water;
#X obj 420 109 water;
#X obj 420 136 water;
#X obj 464 136 water;
#X obj 507 108 water;
#X obj 508 136 water;
#X obj 376 163 water;
#X obj 376 190 water;
#X obj 420 163 water;
#X obj 420 190 water;
#X obj 464 163 water;
#X obj 464 190 water;
#X obj 508 163 water;
#X obj 508 190 water;
#X obj 552 109 water;
#X obj 552 136 water;
#X obj 596 109 water;
#X obj 596 136 water;
#X obj 640 109 water;
#X obj 640 136 water;
#X obj 684 109 water;
#X obj 684 136 water;
#X obj 552 190 water;
#X obj 596 163 water;
#X obj 596 190 water;
#X obj 640 163 water;
#X obj 640 190 water;
#X obj 684 163 water;
#X obj 684 190 water;
#X obj 288 325 water;
#X obj 24 217 water;
#X obj 24 244 water;
#X obj 68 217 water;
#X obj 68 244 water;
#X obj 112 217 water;
#X obj 112 244 water;
#X obj 156 217 water;
#X obj 156 244 water;
#X obj 24 271 water;
#X obj 24 298 water;
#X obj 68 271 water;
#X obj 68 298 water;
#X obj 112 271 water;
#X obj 112 298 water;
#X obj 156 271 water;
#X obj 156 298 water;
#X obj 24 325 water;
#X obj 24 352 water;
#X obj 68 325 water;
#X obj 68 352 water;
#X obj 112 325 water;
#X obj 112 352 water;
#X obj 156 325 water;
#X obj 156 352 water;
#X obj 24 379 water;
#X obj 24 406 water;
#X obj 68 379 water;
#X obj 68 406 water;
#X obj 112 379 water;
#X obj 112 406 water;
#X obj 156 379 water;
#X obj 156 406 water;
#X obj 200 217 water;
#X obj 200 244 water;
#X obj 244 244 water;
#X obj 288 217 water;
#X obj 332 217 water;
#X obj 332 244 water;
#X obj 200 271 water;
#X obj 200 298 water;
#X obj 244 271 water;
#X obj 244 298 water;
#X obj 288 271 water;
#X obj 288 298 water;
#X obj 332 271 water;
#X obj 200 325 water;
#X obj 200 352 water;
#X obj 244 325 water;
#X obj 244 352 water;
#X obj 288 352 water;
#X obj 332 325 water;
#X obj 332 352 water;
#X obj 200 379 water;
#X obj 200 406 water;
#X obj 244 379 water;
#X obj 244 406 water;
#X obj 288 379 water;
#X obj 288 406 water;
#X obj 332 379 water;
#X obj 332 406 water;
#X obj 376 217 water;
#X obj 376 244 water;
#X obj 420 217 water;
#X obj 420 244 water;
#X obj 464 217 water;
#X obj 508 217 water;
#X obj 508 244 water;
#X obj 376 271 water;
#X obj 376 298 water;
#X obj 420 271 water;
#X obj 420 298 water;
#X obj 464 271 water;
#X obj 464 298 water;
#X obj 508 271 water;
#X obj 376 325 water;
#X obj 376 352 water;
#X obj 420 325 water;
#X obj 420 352 water;
#X obj 464 325 water;
#X obj 464 352 water;
#X obj 508 325 water;
#X obj 508 352 water;
#X obj 376 379 water;
#X obj 376 406 water;
#X obj 420 379 water;
#X obj 420 406 water;
#X obj 464 379 water;
#X obj 464 406 water;
#X obj 508 379 water;
#X obj 508 406 water;
#X obj 552 217 water;
#X obj 552 244 water;
#X obj 596 217 water;
#X obj 596 244 water;
#X obj 640 217 water;
#X obj 640 244 water;
#X obj 684 217 water;
#X obj 684 244 water;
#X obj 552 298 water;
#X obj 596 271 water;
#X obj 596 298 water;
#X obj 640 271 water;
#X obj 640 298 water;
#X obj 684 271 water;
#X obj 684 298 water;
#X obj 552 325 water;
#X obj 552 352 water;
#X obj 596 325 water;
#X obj 596 352 water;
#X obj 640 325 water;
#X obj 640 352 water;
#X obj 684 325 water;
#X obj 684 352 water;
#X obj 552 379 water;
#X obj 552 406 water;
#X obj 596 379 water;
#X obj 596 406 water;
#X obj 640 379 water;
#X obj 640 406 water;
#X obj 684 379 water;
#X obj 684 406 water;
#X obj 24 433 water;
#X obj 24 460 water;
#X obj 68 433 water;
#X obj 68 460 water;
#X obj 112 433 water;
#X obj 112 460 water;
#X obj 156 433 water;
#X obj 156 460 water;
#X obj 24 487 water;
#X obj 24 514 water;
#X obj 68 487 water;
#X obj 68 514 water;
#X obj 112 487 water;
#X obj 112 514 water;
#X obj 156 487 water;
#X obj 156 514 water;
#X obj 24 541 water;
#X obj 24 568 water;
#X obj 68 541 water;
#X obj 68 568 water;
#X obj 112 541 water;
#X obj 112 568 water;
#X obj 156 541 water;
#X obj 156 568 water;
#X obj 24 595 water;
#X obj 24 622 water;
#X obj 68 595 water;
#X obj 68 622 water;
#X obj 112 595 water;
#X obj 112 622 water;
#X obj 156 595 water;
#X obj 156 622 water;
#X obj 200 433 water;
#X obj 200 460 water;
#X obj 244 433 water;
#X obj 244 460 water;
#X obj 288 433 water;
#X obj 288 460 water;
#X obj 332 433 water;
#X obj 332 460 water;
#X obj 200 487 water;
#X obj 200 514 water;
#X obj 244 487 water;
#X obj 244 514 water;
#X obj 288 487 water;
#X obj 288 514 water;
#X obj 332 487 water;
#X obj 332 514 water;
#X obj 200 541 water;
#X obj 200 568 water;
#X obj 244 541 water;
#X obj 244 568 water;
#X obj 288 541 water;
#X obj 288 568 water;
#X obj 332 541 water;
#X obj 332 568 water;
#X obj 200 595 water;
#X obj 200 622 water;
#X obj 244 595 water;
#X obj 244 622 water;
#X obj 288 595 water;
#X obj 288 622 water;
#X obj 332 595 water;
#X obj 332 622 water;
#X obj 24 649 water;
#X obj 68 649 water;
#X obj 112 649 water;
#X obj 156 649 water;
#X obj 200 649 water;
#X obj 244 649 water;
#X obj 288 649 water;
#X obj 332 649 water;
#X obj 376 433 water;
#X obj 376 460 water;
#X obj 420 433 water;
#X obj 420 460 water;
#X obj 464 433 water;
#X obj 464 460 water;
#X obj 508 433 water;
#X obj 508 460 water;
#X obj 376 487 water;
#X obj 376 514 water;
#X obj 420 487 water;
#X obj 420 514 water;
#X obj 464 487 water;
#X obj 464 514 water;
#X obj 508 487 water;
#X obj 508 514 water;
#X obj 376 541 water;
#X obj 376 568 water;
#X obj 420 541 water;
#X obj 420 568 water;
#X obj 464 541 water;
#X obj 464 568 water;
#X obj 508 541 water;
#X obj 508 568 water;
#X obj 376 595 water;
#X obj 376 622 water;
#X obj 420 595 water;
#X obj 420 622 water;
#X obj 464 595 water;
#X obj 464 622 water;
#X obj 508 595 water;
#X obj 508 622 water;
#X obj 552 433 water;
#X obj 552 460 water;
#X obj 596 433 water;
#X obj 596 460 water;
#X obj 640 433 water;
#X obj 640 460 water;
#X obj 684 433 water;
#X obj 684 460 water;
#X obj 552 487 water;
#X obj 552 514 water;
#X obj 596 487 water;
#X obj 596 514 water;
#X obj 640 487 water;
#X obj 640 514 water;
#X obj 684 487 water;
#X obj 684 514 water;
#X obj 552 541 water;
#X obj 552 568 water;
#X obj 596 541 water;
#X obj 596 568 water;
#X obj 640 541 water;
#X obj 640 568 water;
#X obj 684 541 water;
#X obj 684 568 water;
#X obj 552 595 water;
#X obj 552 622 water;
#X obj 596 595 water;
#X obj 596 622 water;
#X obj 640 595 water;
#X obj 640 622 water;
#X obj 684 595 water;
#X obj 684 622 water;
#X obj 376 649 water;
#X obj 420 649 water;
#X obj 464 649 water;
#X obj 508 649 water;
#X obj 552 649 water;
#X obj 596 649 water;
#X obj 640 649 water;
#X obj 684 649 water;
#X restore 22 76 pd water;
#X connect 0 0 1 0;
#X restore 26 142 pd water_sound_generator;
#X text 25 247 Author: Alexey Reshetnikov (freezemode) \, Izhevsk \,
Russia.;
#X obj 27 170 catch~ stream_left;
#X obj 52 193 catch~ stream_right;
#X text 26 25 Switch automation off to play with this slider manually.
;
#X obj 28 220 dac~;
#X obj 448 30 loadbang;
#X msg 448 52 0.9;
#X obj 511 30 abs-hid;
#X obj 511 145 swap 1;
#X obj 511 167 -;
#X obj 511 189 s \$0-dynamics;
#X obj 511 124 line;
#X msg 511 102 \$1 500;
#X connect 0 0 1 0;
#X connect 2 0 0 0;
#X connect 5 0 8 0;
#X connect 6 0 8 1;
#X connect 9 0 10 0;
#X connect 10 0 14 0;
#X connect 11 0 16 0;
#X connect 11 1 16 0;
#X connect 12 0 13 0;
#X connect 12 1 13 1;
#X connect 13 0 14 0;
#X connect 15 0 12 0;
#X connect 16 0 15 0;
#X coords 0 275 1 274 85 60 0;
