#N canvas 148 93 713 561 10;
#X obj 10 9 loadbang;
#X msg 10 31 \; pd dsp 1;
#X msg 9 65 \; pd dsp 0;
#X obj 100 61 A-timebase;
#X obj 29 169 B-synth1;
#X obj 29 146 C-bassline-seq;
#X obj 100 30 tgl 15 0 empty empty empty 17 7 0 10 -262144 -1 -1 1
1;
#X floatatom 157 35 5 0 0 0 - - -, f 5;
#X msg 157 10 125;
#X obj 29 278 throw~;
#X obj 409 132 catch~;
#X obj 409 188 hip~ 4;
#X obj 409 212 clip~ -1 1;
#X obj 409 239 dac~;
#X obj 476 23 vsl 15 100 0 0.9 0 0 empty empty master_volume 0 -9 0
10 -257985 -1 -1 3500 1;
#X msg 476 139 \$1 20;
#X obj 476 161 line~;
#X obj 409 164 *~;
#X obj 157 89 s time;
#X obj 29 121 r time;
#X obj 500 523 throw~;
#X obj 500 415 D-synth2;
#X obj 566 389 hsl 100 15 0 0.9 0 0 empty empty decay -2 -8 0 10 -262144
-1 -1 5700 1;
#X obj 565 425 hsl 100 15 0 1 0 0 empty empty vol -2 -8 0 10 -260097
-1 -1 2500 1;
#X msg 562 452 \$1 20;
#X obj 562 474 line~;
#X obj 500 500 *~;
#X obj 104 179 hsl 100 15 0 1 0 0 empty empty vol -2 -8 0 10 -260097
-1 -1 5300 1;
#X msg 101 205 \$1 20;
#X obj 101 227 line~;
#X obj 29 253 *~;
#X obj 500 286 r time;
#X obj 550 286 loadbang;
#X msg 550 308 38 40 52 44;
#X floatatom 588 333 5 0 0 0 - - -, f 5;
#X obj 500 354 E-arpeggiator;
#X obj 28 489 throw~;
#X obj 130 389 hsl 100 15 0 1 0 0 empty empty vol -2 -8 0 10 -260097
-1 -1 5500 1;
#X msg 127 416 \$1 20;
#X obj 127 438 line~;
#X obj 28 464 *~;
#X obj 28 353 G-drum_seq;
#X obj 28 377 F-drum-synth;
#X obj 28 329 r time;
#X obj 256 495 throw~;
#X obj 338 395 hsl 100 15 0 1 0 0 empty empty vol -2 -8 0 10 -260097
-1 -1 7700 1;
#X msg 335 422 \$1 20;
#X obj 335 444 line~;
#X obj 256 470 *~;
#X obj 256 364 H-chord-synth;
#X obj 256 338 I-chords-seq;
#X obj 256 309 r time;
#X connect 0 0 1 0;
#X connect 3 1 18 0;
#X connect 4 0 30 0;
#X connect 5 0 4 0;
#X connect 6 0 3 0;
#X connect 7 0 3 1;
#X connect 8 0 7 0;
#X connect 10 0 17 0;
#X connect 11 0 12 0;
#X connect 12 0 13 0;
#X connect 12 0 13 1;
#X connect 14 0 15 0;
#X connect 15 0 16 0;
#X connect 16 0 17 1;
#X connect 17 0 11 0;
#X connect 19 0 5 0;
#X connect 21 0 26 0;
#X connect 22 0 21 1;
#X connect 23 0 24 0;
#X connect 24 0 25 0;
#X connect 25 0 26 1;
#X connect 26 0 20 0;
#X connect 27 0 28 0;
#X connect 28 0 29 0;
#X connect 29 0 30 1;
#X connect 30 0 9 0;
#X connect 31 0 35 0;
#X connect 32 0 33 0;
#X connect 33 0 35 1;
#X connect 34 0 35 2;
#X connect 35 0 21 0;
#X connect 37 0 38 0;
#X connect 38 0 39 0;
#X connect 39 0 40 1;
#X connect 40 0 36 0;
#X connect 41 0 42 0;
#X connect 42 0 40 0;
#X connect 43 0 41 0;
#X connect 45 0 46 0;
#X connect 46 0 47 0;
#X connect 47 0 48 1;
#X connect 48 0 44 0;
#X connect 49 0 48 0;
#X connect 50 0 49 0;
#X connect 51 0 50 0;
