#N canvas 797 344 450 300 10;
#X obj 154 17 inlet notesequence;
#X obj 21 18 inlet time;
#X obj 21 40 mod 4;
#X obj 21 62 select 0 1 2 3;
#X obj 21 134 f;
#X obj 21 206 + 24;
#X obj 21 258 outlet notes;
#X obj 154 39 unpack f f f f;
#X obj 49 134 f;
#X obj 79 134 f;
#X obj 109 134 f;
#X obj 218 135 inlet transpose;
#X connect 0 0 7 0;
#X connect 1 0 2 0;
#X connect 2 0 3 0;
#X connect 3 0 4 0;
#X connect 3 1 8 0;
#X connect 3 2 9 0;
#X connect 3 3 10 0;
#X connect 4 0 5 0;
#X connect 5 0 6 0;
#X connect 7 0 4 1;
#X connect 7 1 8 1;
#X connect 7 2 9 1;
#X connect 7 3 10 1;
#X connect 8 0 5 0;
#X connect 9 0 5 0;
#X connect 10 0 5 0;
#X connect 11 0 5 1;
