#N canvas 751 377 170 213 10;
#X obj 16 12 inlet time;
#X obj 16 34 mod 32;
#X obj 16 56 moses 16;
#X obj 67 99 - 16;
#X obj 16 154 outlet notes;
#N canvas 316 380 450 300 bar1 0;
#X obj 21 96 select 0 1 2 3 4 5 6 7 8 9 10 11 12 13 14 15;
#X msg 88 141 119;
#X msg 121 141 76;
#X msg 54 141 112;
#X msg 21 141 32;
#X obj 72 173 outlet notes;
#X obj 21 69 inlet;
#X connect 0 0 4 0;
#X connect 0 1 1 0;
#X connect 0 2 3 0;
#X connect 0 4 2 0;
#X connect 0 6 1 0;
#X connect 0 9 4 0;
#X connect 0 10 1 0;
#X connect 0 12 2 0;
#X connect 0 14 1 0;
#X connect 1 0 5 0;
#X connect 2 0 5 0;
#X connect 3 0 5 0;
#X connect 4 0 5 0;
#X connect 6 0 0 0;
#X restore 16 80 pd bar1;
#N canvas 0 22 450 300 bar2 0;
#X obj 21 96 select 0 1 2 3 4 5 6 7 8 9 10 11 12 13 14 15;
#X msg 153 142 119;
#X msg 186 142 76;
#X msg 119 142 112;
#X msg 86 142 32;
#X obj 137 174 outlet notes;
#X obj 21 69 inlet;
#X connect 0 0 4 0;
#X connect 0 2 3 0;
#X connect 0 3 1 0;
#X connect 0 4 2 0;
#X connect 0 6 1 0;
#X connect 0 9 3 0;
#X connect 0 10 1 0;
#X connect 0 11 1 0;
#X connect 0 12 2 0;
#X connect 0 14 1 0;
#X connect 1 0 5 0;
#X connect 2 0 5 0;
#X connect 3 0 5 0;
#X connect 4 0 5 0;
#X connect 6 0 0 0;
#X restore 67 122 pd bar2;
#X connect 0 0 1 0;
#X connect 1 0 2 0;
#X connect 2 0 5 0;
#X connect 2 1 3 0;
#X connect 3 0 6 0;
#X connect 5 0 4 0;
#X connect 6 0 4 0;
