#N canvas 0 0 501 281 10;
#X obj 5 251 outlet notes;
#X obj 5 49 inlet time;
#X obj 134 94 unpack f f f f;
#X obj 5 167 f;
#X obj 36 167 f;
#X obj 67 167 f;
#X obj 98 167 f;
#X obj 5 94 select 0 1 2 3;
#X obj 5 72 mod 4;
#X text 104 4 float box arpeggiator;
#X obj 134 71 inlet note sequence;
#X text 88 49 cycle over 4 notes;
#X text 244 94 distribute list over 4 float boxes;
#X text 156 170 each value stored until selected;
#X text 102 250 notes out;
#X obj 210 134 inlet transpose;
#X text 52 219 transpose;
#X obj 5 218 + 24;
#X connect 1 0 8 0;
#X connect 2 0 3 1;
#X connect 2 1 4 1;
#X connect 2 2 5 1;
#X connect 2 3 6 1;
#X connect 3 0 17 0;
#X connect 4 0 17 0;
#X connect 5 0 17 0;
#X connect 6 0 17 0;
#X connect 7 0 3 0;
#X connect 7 1 4 0;
#X connect 7 2 5 0;
#X connect 7 3 6 0;
#X connect 8 0 7 0;
#X connect 10 0 2 0;
#X connect 15 0 17 1;
#X connect 17 0 0 0;
