#N canvas 276 119 346 280 10;
#X obj 50 197 tgl 15 0 empty empty empty 0 -6 0 8 -262144 -1 -1 1 1
;
#X obj 172 241 dac~;
#X obj 173 217 *~ 0.35;
#X obj 174 142 *~;
#X obj 193 120 hsl 128 15 0 1 0 1 empty empty synth3-volume 20 7 1
8 -262144 -1 -1 4900 1;
#X obj 50 216 A-timebase;
#X obj 115 241 s time;
#X obj 174 163 throw~ mix;
#X obj 174 184 catch~ mix;
#X obj 175 69 r synth3;
#X obj 20 69 r time;
#X obj 20 111 s synth3;
#X text 20 50 drum sequencer;
#X text 175 50 drum synth;
#X text 80 12 playing the drums;
#X obj 50 176 loadbang;
#X obj 175 90 F-synth3;
#X obj 20 90 G-drum-seq;
#X connect 0 0 5 0;
#X connect 2 0 1 0;
#X connect 2 0 1 1;
#X connect 3 0 7 0;
#X connect 4 0 3 1;
#X connect 5 1 6 0;
#X connect 8 0 2 0;
#X connect 9 0 16 0;
#X connect 10 0 17 0;
#X connect 15 0 0 0;
#X connect 16 0 3 0;
#X connect 17 0 11 0;
