#N canvas 177 186 443 430 10;
#X obj 162 73 inlet~;
#X obj 162 108 *~;
#X obj 197 107 +~ 1;
#X obj 147 136 -~;
#X obj 113 109 sig~ 1;
#X obj 147 163 sqrt~;
#X obj 182 193 /~;
#X obj 182 221 atan~;
#X obj 182 248 *~ 2;
#X obj 69 303 snapshot~;
#X floatatom 69 327 0 0 0 0 - - -;
#X obj 182 339 outlet~;
#X obj 182 272 *~ 360;
#X obj 182 294 /~ 3.14159;
#X obj 182 315 /~ 2;
#X obj 69 280 r myMet;
#X obj 255 99 snapshot~;
#X floatatom 255 123 0 0 0 0 - - -;
#X obj 255 76 r myMet;
#X connect 0 0 1 0;
#X connect 0 0 1 1;
#X connect 0 0 2 0;
#X connect 0 0 16 0;
#X connect 1 0 3 1;
#X connect 2 0 6 1;
#X connect 3 0 5 0;
#X connect 4 0 3 0;
#X connect 5 0 6 0;
#X connect 6 0 7 0;
#X connect 7 0 8 0;
#X connect 8 0 12 0;
#X connect 9 0 10 0;
#X connect 12 0 13 0;
#X connect 13 0 14 0;
#X connect 14 0 11 0;
#X connect 14 0 9 0;
#X connect 15 0 9 0;
#X connect 16 0 17 0;
#X connect 18 0 16 0;
