#N canvas 419 260 674 466 12;
#X obj 75 33 inlet~;
#X obj 440 139 inlet;
#X obj 76 327 outlet~;
#X obj 300 159 t f f;
#X obj 277 33 inlet~;
#X obj 75 263 *~ 1;
#X obj 277 263 *~ 0;
#X obj 300 101 loadbang;
#X obj 300 126 \$1;
#X msg 337 210 \$1 5;
#X obj 337 243 line 0 1;
#X msg 130 210 \$1 5;
#X obj 130 243 line 1 1;
#X text 378 359 Mario Mey;
#X obj 130 179 expr $f1 * -1 + 1;
#X connect 0 0 5 0;
#X connect 1 0 3 0;
#X connect 3 0 14 0;
#X connect 3 1 9 0;
#X connect 4 0 6 0;
#X connect 5 0 2 0;
#X connect 6 0 2 0;
#X connect 7 0 8 0;
#X connect 8 0 3 0;
#X connect 9 0 10 0;
#X connect 10 0 6 1;
#X connect 11 0 12 0;
#X connect 12 0 5 1;
#X connect 14 0 11 0;
