#N canvas 83 122 1299 777 10;
#X obj 738 -89 r presweepElev;
#X obj 851 -89 r postsweepElev;
#X floatatom 738 -65 5 0 0 0 - - -, f 5;
#X floatatom 851 -66 5 0 0 0 - - -, f 5;
#X obj 198 -110 bng 50 250 50 0 empty empty empty 17 7 0 10 -4034 -1
-1;
#X obj 198 -57 s GO;
#X obj 138 -110 bng 50 250 50 0 empty empty empty 17 7 0 10 -257985
-1 -1;
#X obj 138 -57 s setUp;
#X obj 972 -89 r start_armLength;
#X floatatom 972 -68 5 0 0 0 - - -, f 5;
#X obj 1108 -89 r bladeLen;
#X floatatom 1108 -66 5 0 0 0 - - -, f 5;
#X text 328 -89 Start calculation with elevation = 0 \, arm length
is constant \, acceleration/deceleration is constant.;
#X obj 217 235 r topSpeed;
#X obj 217 260 / 2;
#X obj 199 343 /;
#X obj 199 367 * 1000;
#X floatatom 246 396 5 0 0 0 - - -, f 5;
#X obj 601 234 r topSpeed;
#X obj 601 259 / 2;
#X obj 583 325 /;
#X obj 583 369 * 1000;
#X text 653 374 Time from 0 azimuth to;
#X text 656 389 stationary at post sweep;
#X text 640 259 Assuming constant acceleration;
#X floatatom 605 396 5 0 0 0 - - -, f 5;
#X obj 199 429 s preswingTime;
#X obj 583 428 s postswingTime;
#X text 252 261 Assuming constant acceleration;
#X text 15 283 Time from pre-sweep azimuth;
#X text 16 296 to centre at top speed;
#X obj 1043 120 r preswingTime;
#X obj 1025 202 +;
#X obj 1009 333 delay;
#X obj 1007 250 t f b;
#X obj 1007 77 r GO;
#X obj 1007 225 f;
#X obj 1007 280 + 5;
#X obj 1025 98 r postswingTime;
#X obj 1009 356 s myEnd;
#X obj 1043 172 t f b;
#X floatatom 955 332 5 0 0 0 - - -, f 5;
#X obj 217 283 t f b;
#X obj 601 282 t f b;
#X text 315 430 Acceleration time ms;
#X text 692 429 Decceleration time ms;
#X text 944 382 Send a bang o signify the swing is over;
#X obj 187 6 r presweepAzim;
#X obj 199 179 /;
#X obj 288 58 inlet;
#X obj 199 208 *;
#X obj 381 143 +;
#X obj 583 169 /;
#X obj 583 197 *;
#X obj 583 55 r postsweepAzim;
#X obj 376 206 +;
#X floatatom 376 229 5 0 0 0 - - -, f 5;
#X floatatom 158 231 5 0 0 0 - - -, f 5;
#X floatatom 632 197 5 0 0 0 - - -, f 5;
#X floatatom 632 169 5 0 0 0 - - -, f 5;
#X msg 219 58 180;
#X obj 199 95 -;
#X obj 187 31 t f b;
#X obj 583 83 - 180;
#X floatatom 153 130 5 0 0 0 - - -, f 5;
#X floatatom 612 109 5 0 0 0 - - -, f 5;
#X obj 399 111 t f b;
#X floatatom 381 171 5 0 0 0 - - -, f 5;
#X floatatom 288 107 5 0 0 0 - - -, f 5;
#X text 299 40 Length of tip sweep;
#X connect 0 0 2 0;
#X connect 1 0 3 0;
#X connect 4 0 5 0;
#X connect 6 0 7 0;
#X connect 8 0 9 0;
#X connect 10 0 11 0;
#X connect 13 0 14 0;
#X connect 14 0 42 0;
#X connect 15 0 16 0;
#X connect 16 0 17 0;
#X connect 16 0 26 0;
#X connect 18 0 19 0;
#X connect 19 0 43 0;
#X connect 20 0 21 0;
#X connect 21 0 25 0;
#X connect 21 0 27 0;
#X connect 31 0 40 0;
#X connect 32 0 36 1;
#X connect 33 0 39 0;
#X connect 34 0 37 0;
#X connect 34 1 33 0;
#X connect 35 0 36 0;
#X connect 36 0 34 0;
#X connect 37 0 33 1;
#X connect 37 0 41 0;
#X connect 38 0 32 0;
#X connect 40 0 32 1;
#X connect 40 1 32 0;
#X connect 42 0 15 1;
#X connect 42 1 15 0;
#X connect 43 0 20 1;
#X connect 43 1 20 0;
#X connect 47 0 62 0;
#X connect 48 0 50 0;
#X connect 48 0 55 0;
#X connect 49 0 50 1;
#X connect 49 0 53 1;
#X connect 49 0 68 0;
#X connect 50 0 57 0;
#X connect 50 0 15 0;
#X connect 51 0 52 1;
#X connect 51 0 48 1;
#X connect 51 0 67 0;
#X connect 52 0 53 0;
#X connect 52 0 55 1;
#X connect 52 0 59 0;
#X connect 53 0 58 0;
#X connect 53 0 20 0;
#X connect 54 0 63 0;
#X connect 55 0 56 0;
#X connect 60 0 61 0;
#X connect 61 0 48 0;
#X connect 61 0 64 0;
#X connect 61 0 51 0;
#X connect 62 0 61 1;
#X connect 62 1 60 0;
#X connect 63 0 52 0;
#X connect 63 0 65 0;
#X connect 63 0 66 0;
#X connect 66 0 51 1;
#X connect 66 1 51 0;
