#N canvas 270 154 511 522 10;
#X obj 40 31 hsl 64 12 0 1 0 0 empty empty door 20 6 1 8 -262144 -1
-1 600 1;
#N canvas 102 50 470 102 wood 0;
#X obj 232 1 inlet~;
#X obj 423 42 *~ 0.2;
#X obj 232 83 outlet~;
#X obj 144 42 bp~ 250 2;
#X obj 212 42 bp~ 395 2;
#X obj 76 42 bp~ 125 1;
#X obj 1 42 bp~ 62.5 1;
#X obj 282 42 bp~ 560 3;
#X obj 351 42 bp~ 790 3;
#X connect 0 0 1 0;
#X connect 0 0 3 0;
#X connect 0 0 4 0;
#X connect 0 0 5 0;
#X connect 0 0 6 0;
#X connect 0 0 7 0;
#X connect 0 0 8 0;
#X connect 1 0 2 0;
#X connect 3 0 2 0;
#X connect 4 0 2 0;
#X connect 5 0 2 0;
#X connect 6 0 2 0;
#X connect 7 0 2 0;
#X connect 8 0 2 0;
#X restore 37 73 pd wood;
#N canvas 1 132 156 602 stickslip 0;
#X obj 8 344 timer;
#X obj 8 537 vline~;
#X obj 8 268 metro;
#X obj 83 92 swap 1;
#X obj 84 115 -;
#X obj 8 64 t f f;
#X obj 8 105 change;
#X obj 8 43 line;
#X msg 8 22 \$1 100;
#X obj 8 320 t b b;
#X obj 8 496 pack f f;
#X obj 8 561 *~;
#X obj 8 367 min 100;
#X obj 8 389 / 100;
#X obj 114 255 * 60;
#X obj 114 277 + 3;
#X obj 68 191 random 1000;
#X obj 68 212 / 1000;
#X obj 68 276 *;
#X obj 84 138 t f f;
#X obj 68 299 +;
#X obj 8 410 sqrt;
#X msg 8 516 \$1 \, 0 \$2;
#X obj 8 297 t b b;
#X obj 84 254 * 6;
#X obj 8 474 sqrt;
#X obj 8 453 + 0.1;
#X obj 8 431 t f f;
#X obj 8 85 > 0.3;
#X obj 8 1 inlet force;
#X obj 8 582 outlet~ pulse;
#X connect 0 0 12 0;
#X connect 1 0 11 0;
#X connect 1 0 11 1;
#X connect 2 0 23 0;
#X connect 3 0 4 0;
#X connect 3 1 4 1;
#X connect 4 0 19 0;
#X connect 5 0 28 0;
#X connect 5 1 3 0;
#X connect 6 0 2 0;
#X connect 7 0 5 0;
#X connect 8 0 7 0;
#X connect 9 0 0 0;
#X connect 9 1 0 1;
#X connect 10 0 22 0;
#X connect 11 0 30 0;
#X connect 12 0 13 0;
#X connect 13 0 21 0;
#X connect 14 0 15 0;
#X connect 15 0 20 1;
#X connect 16 0 17 0;
#X connect 17 0 18 0;
#X connect 18 0 20 0;
#X connect 19 0 24 0;
#X connect 19 1 14 0;
#X connect 20 0 2 1;
#X connect 21 0 27 0;
#X connect 22 0 1 0;
#X connect 23 0 9 0;
#X connect 23 1 16 0;
#X connect 24 0 18 1;
#X connect 25 0 10 0;
#X connect 26 0 25 0;
#X connect 27 0 26 0;
#X connect 27 1 10 1;
#X connect 28 0 6 0;
#X connect 29 0 8 0;
#X restore 37 51 pd stickslip;
#N canvas 32 50 176 325 squarepanel 0;
#X obj 54 212 dfbef 16 0.05;
#X obj 54 189 dfbef 10.12 0.05;
#X obj 54 166 dfbef 7.14 0.05;
#X obj 54 143 dfbef 5.48 0.05;
#X obj 54 120 dfbef 8 0.05;
#X obj 54 97 dfbef 6.27 0.05;
#X obj 54 74 dfbef 5.06 0.05;
#X obj 54 51 dfbef 4.52 0.05;
#X obj 2 280 hip~ 125;
#X obj 3 1 inlet~;
#X obj 2 303 outlet~;
#X connect 0 0 8 0;
#X connect 1 0 8 0;
#X connect 2 0 8 0;
#X connect 3 0 8 0;
#X connect 4 0 8 0;
#X connect 5 0 8 0;
#X connect 6 0 8 0;
#X connect 7 0 8 0;
#X connect 8 0 10 0;
#X connect 9 0 7 0;
#X connect 9 0 6 0;
#X connect 9 0 5 0;
#X connect 9 0 4 0;
#X connect 9 0 3 0;
#X connect 9 0 2 0;
#X connect 9 0 1 0;
#X connect 9 0 0 0;
#X restore 37 95 pd squarepanel;
#X obj 37 117 *~ 0.2;
#N canvas 170 107 740 632 output 0;
#X obj 161 104 vsl 15 55 0 1 0 0 empty empty empty 0 -9 0 10 -262130
-1 -1 3780 1;
#X obj 106 147 tgl 15 0 empty empty cut 17 7 0 10 -261234 -1 -1 0 1
;
#X msg 331 205 \$1 20;
#X msg 283 208 \$1 20;
#X obj 331 227 line~;
#X obj 283 230 line~;
#X obj 331 162 swap 1;
#X obj 331 184 -;
#X obj 284 260 *~;
#X obj 106 167 abs-hid;
#X floatatom 137 202 5 0 0 0 - - -, f 5;
#X floatatom 200 206 5 0 0 0 - - -, f 5;
#X obj 200 224 * 0.01;
#X obj 137 269 s \$0-ctrl-speed;
#X obj 137 249 line;
#X msg 137 226 \$1 500;
#X obj 107 106 tgl 15 0 empty empty DSP 17 7 0 10 -262144 -1 -1 1 1
;
#X msg 107 54 \; pd dsp \$1;
#X obj 285 489 dac~;
#X obj 284 315 *~;
#X obj 284 287 catch~ out;
#X obj 38 52 loadbang;
#X msg 38 127 0;
#X msg 38 157 1;
#X obj 284 417 hip~ 5;
#X obj 284 439 clip~ -1 1;
#X obj 106 430 clip 0 1;
#X obj 106 364 t b f;
#X obj 106 407 +;
#X obj 106 385 f 0;
#X obj 204 408 f;
#X obj 19 290 metro 100;
#X obj 19 266 tgl 15 0 empty empty empty 17 7 0 10 -262144 -1 -1 0
1;
#X obj 106 316 f;
#X floatatom 106 452 5 0 0 0 - - -, f 5;
#X obj 204 452 line;
#X obj 106 340 * -0.1;
#X msg 204 430 \$1 100;
#X obj 618 91 t f f;
#X msg 618 69 0.7;
#X connect 0 0 3 0;
#X connect 1 0 6 0;
#X connect 2 0 4 0;
#X connect 3 0 5 0;
#X connect 4 0 8 1;
#X connect 5 0 8 0;
#X connect 6 0 7 0;
#X connect 6 1 7 1;
#X connect 7 0 2 0;
#X connect 8 0 19 1;
#X connect 9 0 33 1;
#X connect 9 1 10 0;
#X connect 9 2 11 0;
#X connect 10 0 15 0;
#X connect 11 0 12 0;
#X connect 14 0 13 0;
#X connect 15 0 14 0;
#X connect 16 0 17 0;
#X connect 19 0 24 0;
#X connect 20 0 19 0;
#X connect 21 0 39 0;
#X connect 21 0 22 0;
#X connect 21 0 23 0;
#X connect 22 0 16 0;
#X connect 22 0 1 0;
#X connect 23 0 9 0;
#X connect 24 0 25 0;
#X connect 25 0 18 0;
#X connect 25 0 18 1;
#X connect 26 0 30 0;
#X connect 26 0 34 0;
#X connect 27 0 29 0;
#X connect 27 1 28 1;
#X connect 28 0 26 0;
#X connect 29 0 28 0;
#X connect 30 0 29 1;
#X connect 30 0 37 0;
#X connect 31 0 33 0;
#X connect 32 0 31 0;
#X connect 33 0 36 0;
#X connect 35 0 0 0;
#X connect 36 0 27 0;
#X connect 37 0 35 0;
#X connect 38 1 0 0;
#X connect 39 0 38 0;
#X coords 0 -1 1 1 85 100 2 100 100;
#X restore 191 29 pd output;
#X obj 37 139 throw~ out;
#X obj 247 183 tgl 15 0 empty empty empty 17 7 0 10 -262144 -1 -1 0
1;
#X obj 247 386 clip 0 1;
#X obj 247 323 v speed;
#X obj 247 433 v speed;
#X obj 422 136 loadbang;
#X msg 422 158 0;
#X obj 422 180 v speed;
#X obj 247 297 t b f;
#X obj 247 345 +;
#X floatatom 247 264 5 0 0 1 accel - -, f 5;
#X obj 247 203 * 0.01;
#X floatatom 257 408 5 0 0 0 - - -, f 5;
#X obj 75 225 tgl 15 0 empty empty empty 17 7 0 10 -262144 -1 -1 1
1;
#X obj 75 245 metro 100;
#X obj 247 245 f;
#X connect 0 0 2 0;
#X connect 1 0 3 0;
#X connect 2 0 1 0;
#X connect 3 0 4 0;
#X connect 4 0 6 0;
#X connect 7 0 17 0;
#X connect 8 0 10 0;
#X connect 8 0 18 0;
#X connect 9 0 15 0;
#X connect 11 0 12 0;
#X connect 12 0 13 0;
#X connect 14 0 9 0;
#X connect 14 1 15 1;
#X connect 15 0 8 0;
#X connect 16 0 14 0;
#X connect 17 0 21 1;
#X connect 19 0 20 0;
#X connect 20 0 21 0;
#X connect 21 0 16 0;
