#N canvas 127 436 300 153 10;
#X obj 30 85 dac~;
#X obj 30 18 tgl 15 1 empty empty empty 0 -6 0 8 -260818 -1 -1 0 1
;
#N canvas 0 50 662 770 verb 0;
#X obj 8 525 +~;
#X obj 50 525 +~;
#X obj -7 575 +~;
#X obj 97 576 +~;
#X obj 35 575 -~;
#X obj 137 575 -~;
#X obj -8 631 +~;
#X obj 36 632 +~;
#X obj 80 633 -~;
#X obj 119 633 -~;
#X obj 118 799 delwrite~ D 1000;
#X obj 79 823 delwrite~ C 1000;
#X obj 37 846 delwrite~ B 1000;
#X obj -8 868 delwrite~ A 1000;
#N canvas 0 50 450 300 1dac 0;
#X obj 34 103 inlet~;
#X obj 76 240 dac~;
#X obj 146 101 inlet~;
#X obj 34 205 *~ 1;
#X obj 146 204 *~ 1;
#X connect 0 0 3 0;
#X connect 2 0 4 0;
#X connect 3 0 1 0;
#X connect 4 0 1 1;
#X restore -73 575 pd 1dac;
#X obj -7 660 *~ 0.4;
#X obj 37 686 *~ 0.37;
#X obj 78 715 *~ 0.333;
#X obj 117 743 *~ 0.3;
#X text 23 377 Reverb;
#X obj 16 404 inlet~;
#X obj 62 471 delread~ A 101;
#X obj 92 491 delread~ B 143;
#X obj 122 511 delread~ C 165;
#X obj 152 531 delread~ D 177;
#X obj 16 431 *~ 1;
#X obj 123 292 unpack f f f f f f f f f;
#X msg 170 223 0.6 59 143 195 255 0.395 0.395 0.295 0.295;
#X msg 146 178 0.5 101 143 165 177 0.485 0.485 0.485 0.485;
#X msg 192 249 1 17 121 133 147 0.2 0.2 0.2 0.2;
#X msg 159 200 0.53 101 143 165 177 0.455 0.445 0.435 0.425;
#X obj 113 132 hradio 15 1 1 4 empty empty empty 0 -6 0 8 -260818 -1
-1 1;
#X obj 113 151 sel 0 1 2 3;
#X connect 0 0 2 0;
#X connect 0 0 4 0;
#X connect 1 0 2 1;
#X connect 1 0 4 1;
#X connect 1 0 14 1;
#X connect 2 0 6 0;
#X connect 2 0 8 0;
#X connect 3 0 8 1;
#X connect 3 0 6 1;
#X connect 4 0 7 0;
#X connect 4 0 9 0;
#X connect 5 0 7 1;
#X connect 5 0 9 1;
#X connect 6 0 15 0;
#X connect 7 0 16 0;
#X connect 8 0 17 0;
#X connect 9 0 18 0;
#X connect 15 0 13 0;
#X connect 16 0 12 0;
#X connect 17 0 11 0;
#X connect 18 0 10 0;
#X connect 20 0 25 0;
#X connect 21 0 0 1;
#X connect 22 0 1 1;
#X connect 23 0 5 0;
#X connect 23 0 3 0;
#X connect 24 0 5 1;
#X connect 24 0 3 1;
#X connect 25 0 0 0;
#X connect 25 0 1 0;
#X connect 25 0 14 0;
#X connect 26 0 25 1;
#X connect 26 1 21 0;
#X connect 26 2 22 0;
#X connect 26 3 23 0;
#X connect 26 4 24 0;
#X connect 26 5 15 1;
#X connect 26 6 16 1;
#X connect 26 7 17 1;
#X connect 26 8 18 1;
#X connect 27 0 26 0;
#X connect 28 0 26 0;
#X connect 29 0 26 0;
#X connect 30 0 26 0;
#X connect 31 0 32 0;
#X connect 32 0 28 0;
#X connect 32 1 30 0;
#X connect 32 2 27 0;
#X connect 32 3 29 0;
#X coords 0 -1 1 1 85 60 1 100 100;
#X restore 115 61 pd verb;
#X text 129 36 less ugly mess inside;
#N canvas 73 324 910 554 pokesdown2 0;
#N canvas 542 109 720 658 pads 0;
#X obj 254 45 inlet;
#N canvas 0 50 450 300 4phasebloc 0;
#X obj 62 115 phasor~ 300;
#X obj 61 83 mtof;
#X obj 137 156 *~ 0.1;
#X obj 148 114 phasor~ 300;
#X obj 147 82 mtof;
#X obj 235 114 phasor~ 300;
#X obj 234 82 mtof;
#X obj 321 113 phasor~ 300;
#X obj 320 81 mtof;
#X obj 113 50 inlet;
#X obj 164 48 inlet;
#X obj 216 48 inlet;
#X obj 267 46 inlet;
#X obj 137 189 outlet~;
#X connect 0 0 2 0;
#X connect 1 0 0 0;
#X connect 2 0 13 0;
#X connect 3 0 2 0;
#X connect 4 0 3 0;
#X connect 5 0 2 0;
#X connect 6 0 5 0;
#X connect 7 0 2 0;
#X connect 8 0 7 0;
#X connect 9 0 1 0;
#X connect 10 0 4 0;
#X connect 11 0 6 0;
#X connect 12 0 8 0;
#X restore 297 262 pd 4phasebloc;
#N canvas 771 307 370 203 4phasebloc 0;
#X obj 19 82 phasor~ 300;
#X obj 19 50 mtof;
#X obj 105 125 *~ 0.1;
#X obj 105 81 phasor~ 300;
#X obj 105 49 mtof;
#X obj 192 81 phasor~ 300;
#X obj 192 49 mtof;
#X obj 278 80 phasor~ 300;
#X obj 278 48 mtof;
#X obj 19 17 inlet;
#X obj 105 15 inlet;
#X obj 192 15 inlet;
#X obj 278 13 inlet;
#X obj 105 158 outlet~;
#X connect 0 0 2 0;
#X connect 1 0 0 0;
#X connect 2 0 13 0;
#X connect 3 0 2 0;
#X connect 4 0 3 0;
#X connect 5 0 2 0;
#X connect 6 0 5 0;
#X connect 7 0 2 0;
#X connect 8 0 7 0;
#X connect 9 0 1 0;
#X connect 10 0 4 0;
#X connect 11 0 6 0;
#X connect 12 0 8 0;
#X restore 490 262 pd 4phasebloc;
#X obj 53 107 random 100;
#X obj 53 152 line;
#X obj 53 45 loadbang;
#X msg 53 65 1;
#X obj 53 86 metro 1000;
#X msg 53 127 \$1 1000;
#X obj 76 211 -;
#X msg 53 188 100;
#X obj 19 238 * 10;
#X obj 19 261 + 500;
#X obj 297 301 bp~ 500 3;
#X obj 93 237 * 10;
#X obj 490 300 bp~ 600 4;
#X obj 94 260 + 700;
#X obj 27 301 / 100;
#X obj 76 301 / 100;
#X obj 27 324 + 0.1;
#X obj 40 366 *~;
#X obj 80 324 + 0.1;
#X obj 94 366 *~;
#X obj 297 381 delwrite~ \$0-ffff 100;
#X obj 535 466 env~;
#X obj 297 357 *~ 0.7;
#X obj 40 589 outlet~;
#X obj 94 587 outlet~;
#X obj 254 129 unpack f f f f f f f f;
#X obj 254 198 mod 12;
#X obj 254 230 + 24;
#X obj 304 198 mod 12;
#X obj 304 230 + 24;
#X obj 354 198 mod 12;
#X obj 354 230 + 24;
#X obj 404 198 mod 12;
#X obj 404 230 + 24;
#X obj 454 198 mod 12;
#X obj 454 230 + 24;
#X obj 504 198 mod 12;
#X obj 504 230 + 24;
#X obj 554 198 mod 12;
#X obj 554 230 + 24;
#X obj 604 198 mod 12;
#X obj 604 230 + 24;
#X obj 625 107 60;
#X obj 625 45 loadbang;
#X obj 192 109 tgl 15 0 empty empty empty 0 -6 0 8 -260818 -1 -1 0
1;
#X obj 94 564 *~;
#X obj 40 565 *~;
#X obj 192 507 line~;
#X msg 192 485 \$1 3000;
#X obj 94 459 *~ 0.3;
#X obj 40 461 *~ 0.3;
#X obj 211 459 r \$0-pads-M;
#X floatatom 555 489 5 0 0 0 - - -, f 5;
#X obj 379 424 osc~ 0.04;
#X obj 379 574 vd~ \$0-ffff 100;
#X obj 379 528 *~ 100;
#X obj 379 550 abs~;
#X obj 535 512 delread~ \$0-ffff 100;
#X obj 379 480 *~;
#X obj 379 506 *~;
#X connect 0 0 28 0;
#X connect 1 0 13 0;
#X connect 2 0 15 0;
#X connect 3 0 8 0;
#X connect 4 0 9 1;
#X connect 4 0 10 0;
#X connect 4 0 11 0;
#X connect 4 0 17 0;
#X connect 5 0 6 0;
#X connect 6 0 7 0;
#X connect 7 0 3 0;
#X connect 8 0 4 0;
#X connect 9 0 14 0;
#X connect 9 0 18 0;
#X connect 10 0 9 0;
#X connect 11 0 12 0;
#X connect 12 0 13 1;
#X connect 13 0 25 0;
#X connect 14 0 16 0;
#X connect 15 0 20 0;
#X connect 15 0 22 0;
#X connect 16 0 15 1;
#X connect 17 0 19 0;
#X connect 18 0 21 0;
#X connect 19 0 20 1;
#X connect 20 0 53 0;
#X connect 21 0 22 1;
#X connect 22 0 52 0;
#X connect 24 0 55 0;
#X connect 24 0 60 0;
#X connect 25 0 23 0;
#X connect 25 0 53 0;
#X connect 28 0 29 0;
#X connect 28 1 31 0;
#X connect 28 2 33 0;
#X connect 28 3 35 0;
#X connect 28 4 37 0;
#X connect 28 5 39 0;
#X connect 28 6 41 0;
#X connect 28 7 43 0;
#X connect 29 0 30 0;
#X connect 30 0 1 0;
#X connect 31 0 32 0;
#X connect 32 0 1 1;
#X connect 33 0 34 0;
#X connect 34 0 1 2;
#X connect 35 0 36 0;
#X connect 36 0 1 3;
#X connect 37 0 38 0;
#X connect 38 0 2 0;
#X connect 39 0 40 0;
#X connect 40 0 2 1;
#X connect 41 0 42 0;
#X connect 42 0 2 2;
#X connect 43 0 44 0;
#X connect 44 0 2 3;
#X connect 45 0 44 1;
#X connect 45 0 42 1;
#X connect 45 0 40 1;
#X connect 45 0 38 1;
#X connect 45 0 36 1;
#X connect 45 0 34 1;
#X connect 45 0 32 1;
#X connect 45 0 30 1;
#X connect 46 0 45 0;
#X connect 47 0 51 0;
#X connect 48 0 27 0;
#X connect 49 0 26 0;
#X connect 50 0 48 1;
#X connect 50 0 49 1;
#X connect 51 0 50 0;
#X connect 52 0 48 0;
#X connect 53 0 49 0;
#X connect 54 0 51 0;
#X connect 56 0 24 0;
#X connect 56 0 61 1;
#X connect 56 0 61 0;
#X connect 58 0 59 0;
#X connect 59 0 57 0;
#X connect 60 0 52 0;
#X connect 61 0 62 0;
#X connect 61 0 62 1;
#X connect 62 0 58 0;
#X coords 0 -1 1 1 120 30 1 100 100;
#X restore 283 309 pd pads;
#X obj 17 505 outlet~;
#X obj 122 506 outlet~;
#N canvas 331 50 951 434 somedrums 0;
#N canvas 281 148 448 470 kicknsnr 0;
#X obj 91 19 inlet;
#X obj 115 364 outlet~;
#X obj 108 179 line~;
#X obj 107 203 *~;
#X obj 107 226 *~;
#X msg 91 138 1 2;
#X obj 124 96 del 2;
#X obj 115 319 *~;
#X obj 98 295 osc~;
#X obj 97 255 *~ 100;
#X obj 97 275 +~ 20;
#X obj 272 11 inlet;
#X obj 243 360 outlet~;
#X msg 239 123 1 2;
#X obj 243 317 *~;
#X obj 309 264 noise~;
#X obj 309 292 bp~ 400 2;
#X obj 258 150 line;
#X obj 258 177 *;
#X obj 258 200 *;
#X obj 344 237 * 100;
#X obj 374 266 + 600;
#X obj 272 52 unpack 1 2 3 4;
#X obj 243 339 *~;
#X obj 272 77 t;
#X obj 272 103 del 2;
#X obj 115 341 *~ 0.3;
#X obj 119 51 unpack 1 2;
#X obj 91 56 t;
#X obj 124 137 pack 1 2;
#X msg 124 116 0;
#X msg 272 123 0 400;
#X text 153 16 kick and snare;
#X connect 0 0 27 0;
#X connect 0 0 28 0;
#X connect 2 0 3 0;
#X connect 2 0 3 1;
#X connect 3 0 4 0;
#X connect 3 0 4 1;
#X connect 4 0 7 1;
#X connect 4 0 9 0;
#X connect 5 0 2 0;
#X connect 6 0 30 0;
#X connect 7 0 26 0;
#X connect 8 0 7 0;
#X connect 9 0 10 0;
#X connect 10 0 8 0;
#X connect 11 0 22 0;
#X connect 13 0 17 0;
#X connect 14 0 23 0;
#X connect 15 0 16 0;
#X connect 16 0 14 0;
#X connect 17 0 18 0;
#X connect 17 0 18 1;
#X connect 18 0 19 0;
#X connect 18 0 19 1;
#X connect 19 0 14 1;
#X connect 19 0 20 0;
#X connect 20 0 21 0;
#X connect 21 0 16 1;
#X connect 22 0 20 1;
#X connect 22 0 24 0;
#X connect 22 1 21 1;
#X connect 22 2 16 2;
#X connect 22 3 23 1;
#X connect 23 0 12 0;
#X connect 24 0 13 0;
#X connect 24 0 25 0;
#X connect 25 0 31 0;
#X connect 26 0 1 0;
#X connect 27 0 29 1;
#X connect 27 1 9 1;
#X connect 28 0 6 0;
#X connect 28 0 5 0;
#X connect 29 0 2 0;
#X connect 30 0 29 0;
#X connect 31 0 17 0;
#X restore 55 66 pd kicknsnr;
#X msg 148 42 50 300 4 0.9;
#X msg 64 16 600 100;
#X msg 70 38 1800 80;
#X msg 139 -7 500 600 1 0.2;
#X msg 144 17 200 600 1 0.25;
#X msg 55 -5 300 130;
#X obj 195 -139 r \$0-time;
#X obj 55 -58 mod 16;
#X obj 55 -35 select 1 3 7 14 15;
#X obj 103 113 tgl 15 1 empty empty empty 0 -6 0 8 -260818 -1 -1 0
1;
#X obj 88 154 *~;
#N canvas 394 146 475 486 clap 0;
#X obj 106 16 noise~;
#X obj 169 352 *~;
#X obj 91 305 *~;
#X obj 106 168 *~ 0.8;
#X obj 91 352 *~ 0.2;
#X obj 91 282 ead~ 1 800;
#X obj 315 156 del 30;
#X obj 315 182 del 20;
#X obj 315 208 del 15;
#X obj 315 233 del 10;
#X obj -6 118 *~ 0.1;
#X obj 30 84 bp~ 1300 10;
#X obj 176 84 bp~ 700 10;
#X obj 106 84 bp~ 2500 4;
#X obj 169 396 bp~ 2700 2;
#X obj 169 282 ead~ 3 50;
#X obj -6 51 lop~ 8000;
#X obj 106 41 hip~ 300;
#X obj 252 25 inlet;
#X obj 169 441 outlet~;
#X obj 315 23 inlet;
#X obj 315 84 t b b;
#X obj 252 84 t b b b;
#X obj 169 418 *~ 0.3;
#X text 251 7 single;
#X text 314 7 cluster;
#X obj 273 53 bng 15 250 50 0 empty empty empty 17 7 0 10 -262144 -1
-1;
#X obj 338 52 bng 15 250 50 0 empty empty empty 17 7 0 10 -262144 -1
-1;
#X connect 0 0 16 0;
#X connect 0 0 17 0;
#X connect 1 0 14 0;
#X connect 2 0 1 1;
#X connect 2 0 4 0;
#X connect 3 0 2 1;
#X connect 4 0 14 0;
#X connect 5 0 2 0;
#X connect 6 0 7 0;
#X connect 6 0 15 0;
#X connect 7 0 8 0;
#X connect 7 0 15 0;
#X connect 8 0 9 0;
#X connect 8 0 15 0;
#X connect 9 0 15 0;
#X connect 10 0 3 0;
#X connect 11 0 3 0;
#X connect 12 0 3 0;
#X connect 13 0 3 0;
#X connect 14 0 23 0;
#X connect 15 0 1 0;
#X connect 16 0 10 0;
#X connect 17 0 11 0;
#X connect 17 0 12 0;
#X connect 17 0 13 0;
#X connect 18 0 22 0;
#X connect 20 0 21 0;
#X connect 21 0 5 0;
#X connect 21 1 15 0;
#X connect 22 0 5 0;
#X connect 22 1 15 0;
#X connect 22 2 6 0;
#X connect 23 0 19 0;
#X connect 26 0 22 0;
#X connect 27 0 21 0;
#X restore 255 66 pd clap;
#X obj 255 -53 mod 16;
#X obj 255 -31 select 2 5 14;
#N canvas 0 50 587 370 noisehits 0;
#N canvas 0 50 239 236 eadenv 0;
#X obj 89 140 *~;
#X obj 60 60 inlet~;
#X obj 110 61 inlet;
#X obj 89 165 outlet~;
#X obj 110 111 ead~ 2 800;
#X connect 0 0 3 0;
#X connect 1 0 0 0;
#X connect 2 0 4 0;
#X connect 4 0 0 1;
#X coords 0 0 1 1 80 80 0;
#X restore 55 280 pd eadenv;
#X obj 54 227 r prog;
#N canvas 0 50 346 246 3bandnoise 0;
#X obj 119 21 noise~;
#X obj 33 62 bp~ 100 1;
#X obj 32 88 *~;
#X obj 118 61 bp~ 100 1;
#X obj 206 60 bp~ 100 1;
#X obj 119 92 *~;
#X obj 205 93 *~;
#X obj 119 129 *~ 2;
#X obj 118 158 outlet~;
#X obj 63 -1 unpack 1 2 3 4 5 6 7 8 9 10;
#X text 116 -22 program in;
#X obj 63 -22 inlet;
#X connect 0 0 1 0;
#X connect 0 0 3 0;
#X connect 0 0 4 0;
#X connect 1 0 2 0;
#X connect 2 0 7 0;
#X connect 3 0 5 0;
#X connect 4 0 6 0;
#X connect 5 0 7 0;
#X connect 6 0 7 0;
#X connect 7 0 8 0;
#X connect 9 0 7 1;
#X connect 9 1 1 1;
#X connect 9 2 1 2;
#X connect 9 3 2 1;
#X connect 9 4 3 1;
#X connect 9 5 3 2;
#X connect 9 6 5 1;
#X connect 9 7 4 1;
#X connect 9 8 4 2;
#X connect 9 9 6 1;
#X connect 11 0 9 0;
#X coords 0 0 1 1 200 140 0;
#X restore 55 253 pd 3bandnoise;
#X obj 54 206 t l b;
#X obj 56 327 outlet~;
#X obj 55 303 *~ 0.3;
#X msg 55 98 2.4 200 14 0.746 249 2.46 0.71 217 20.2 0.69;
#X msg 55 77 2.23 2229 64 0.761 3000 64 0.84 2503 64 0.88;
#X msg 54 54 1 3000 14 0.888 2591 20.2 1 1742 22.1 0.76;
#X msg 91 162 2.7 862 32 0.619 446 32 0.79 587 20.2 0.76 \;;
#X msg 101 181 3 5000 64 0.33 2500 64 0.8 3750 64 0.7;
#X msg 65 119 16 138 4.66 0.19 160 2.46 0.12 73.22 16.8 1;
#X msg 77 140 5.69 772 64 0.619 691 64 0.77 489 64 0.74;
#X obj 94 23 sel 0 1 2 3 4 5 6 7;
#X obj 95 1 inlet;
#N canvas 640 136 450 300 programmer 0;
#X obj 117 189 pack 1 2 3 4 5 6 7 8 9 10;
#X obj 117 212 outlet;
#X obj 155 156 t b;
#X obj 140 66 vsl 12 64 0 1 0 0 empty empty l1 0 -8 0 8 -261689 -1
-1 0 1;
#X obj 91 66 vsl 12 64 30 5000 1 0 empty empty f1 0 -8 0 8 -261681
-1 -1 0 1;
#X obj 114 66 vsl 12 64 0.1 64 1 0 empty empty q1 0 -8 0 8 -262131
-1 -1 0 1;
#X obj 175 65 vsl 12 64 30 3000 1 0 empty empty f2 0 -8 0 8 -261681
-1 -1 0 1;
#X obj 198 65 vsl 12 64 0.1 64 1 0 empty empty q2 0 -8 0 8 -262131
-1 -1 0 1;
#X obj 264 66 vsl 12 64 10 3000 1 0 empty empty f3 0 -8 0 8 -261681
-1 -1 0 1;
#X obj 289 66 vsl 12 64 0.1 64 1 0 empty empty q3 0 -8 0 8 -262131
-1 -1 0 1;
#X obj 220 65 vsl 12 64 0 1 0 0 empty empty l2 0 -8 0 8 -261689 -1
-1 0 1;
#X obj 313 66 vsl 12 64 0 1 0 0 empty empty l3 0 -8 0 8 -261689 -1
-1 0 1;
#X obj 53 65 vsl 12 64 0.04 16 1 0 empty empty amp 0 -8 0 8 -260818
-1 -1 0 1;
#X connect 0 0 1 0;
#X connect 2 0 0 0;
#X connect 3 0 2 0;
#X connect 3 0 0 3;
#X connect 4 0 2 0;
#X connect 4 0 0 1;
#X connect 5 0 2 0;
#X connect 5 0 0 2;
#X connect 6 0 2 0;
#X connect 6 0 0 4;
#X connect 7 0 2 0;
#X connect 7 0 0 5;
#X connect 8 0 2 0;
#X connect 8 0 0 7;
#X connect 9 0 2 0;
#X connect 9 0 0 8;
#X connect 10 0 2 0;
#X connect 10 0 0 6;
#X connect 11 0 2 0;
#X connect 11 0 0 9;
#X connect 12 0 0 0;
#X restore 420 46 pd programmer;
#X connect 0 0 5 0;
#X connect 1 0 2 0;
#X connect 2 0 0 0;
#X connect 3 0 2 0;
#X connect 3 1 0 1;
#X connect 5 0 4 0;
#X connect 6 0 3 0;
#X connect 7 0 3 0;
#X connect 8 0 3 0;
#X connect 9 0 3 0;
#X connect 10 0 3 0;
#X connect 11 0 3 0;
#X connect 12 0 3 0;
#X connect 13 0 8 0;
#X connect 13 1 7 0;
#X connect 13 2 6 0;
#X connect 13 3 11 0;
#X connect 13 4 12 0;
#X connect 13 5 9 0;
#X connect 13 6 10 0;
#X connect 14 0 13 0;
#X restore 345 68 pd noisehits;
#X obj 345 -53 mod 16;
#X msg 345 36 3;
#X msg 375 36 2;
#X msg 405 36 4;
#X obj 345 -31 select 1 4 7;
#N canvas 0 50 450 300 tamb 0;
#X msg 91 98 1700 3149 2330 1511 217 40 6300 1;
#X msg 83 76 1700 3149 2330 1511 300 20 6300 1;
#X msg 101 119 1700 3149 2330 1511 217 40 6300 10;
#N canvas 0 50 482 669 tambsyn 0;
#X obj 147 258 noise~;
#X obj 258 306 bp~ 100 30;
#X obj 31 351 *~;
#X obj 53 328 line~;
#X obj 142 392 *~ 1;
#X obj 182 306 bp~ 100 30;
#X obj 106 306 bp~ 100 30;
#X obj 30 306 bp~ 100 30;
#X obj 259 357 *~;
#X obj 281 334 line~;
#X obj 106 355 *~;
#X obj 128 332 line~;
#X obj 183 354 *~;
#X obj 205 331 line~;
#X obj 399 147 * 2;
#X obj 398 171 * 2;
#X obj 397 193 * 2;
#X msg 213 258 1 \, 0 \$1;
#X msg 273 257 1 \, 0 \$1;
#X msg 337 257 1 \, 0 \$1;
#X msg 397 256 1 \, 0 \$1;
#X obj 399 123 f;
#X obj 158 415 osc~ 5500;
#X obj 142 447 *~;
#X obj 399 65 del 8;
#X obj 399 89 del 13;
#X obj 95 -46 t b l;
#X obj 88 -5 unpack f f f f f f f f;
#X obj 436 41 * 2;
#X obj 399 15 t b b;
#X obj 95 -72 inlet;
#X text 35 263 metals 24;
#X obj 136 504 outlet~;
#X obj 141 471 *~ 0.6;
#X text 156 -69 tamb bells;
#X connect 0 0 1 0;
#X connect 0 0 5 0;
#X connect 0 0 6 0;
#X connect 0 0 7 0;
#X connect 1 0 8 0;
#X connect 2 0 4 0;
#X connect 3 0 2 1;
#X connect 4 0 23 0;
#X connect 5 0 12 0;
#X connect 6 0 10 0;
#X connect 7 0 2 0;
#X connect 8 0 4 0;
#X connect 9 0 8 1;
#X connect 10 0 4 0;
#X connect 11 0 10 1;
#X connect 12 0 4 0;
#X connect 13 0 12 1;
#X connect 14 0 15 0;
#X connect 14 0 18 0;
#X connect 15 0 16 0;
#X connect 15 0 19 0;
#X connect 16 0 20 0;
#X connect 17 0 3 0;
#X connect 18 0 11 0;
#X connect 19 0 13 0;
#X connect 20 0 9 0;
#X connect 21 0 17 0;
#X connect 21 0 14 0;
#X connect 22 0 23 1;
#X connect 23 0 33 0;
#X connect 24 0 25 0;
#X connect 25 0 21 0;
#X connect 26 0 29 0;
#X connect 26 1 27 0;
#X connect 27 0 7 1;
#X connect 27 1 6 1;
#X connect 27 2 5 1;
#X connect 27 3 1 1;
#X connect 27 4 7 2;
#X connect 27 4 6 2;
#X connect 27 4 5 2;
#X connect 27 4 1 2;
#X connect 27 5 21 1;
#X connect 27 6 22 0;
#X connect 27 7 28 0;
#X connect 27 7 24 1;
#X connect 28 0 25 1;
#X connect 29 0 24 0;
#X connect 29 1 21 0;
#X connect 30 0 26 0;
#X connect 33 0 32 0;
#X coords 0 0 1 1 85 60 0;
#X restore 68 144 pd tambsyn;
#X obj 97 23 inlet;
#X obj 98 45 sel 0 1 2;
#X obj 65 171 outlet~;
#X connect 0 0 3 0;
#X connect 1 0 3 0;
#X connect 2 0 3 0;
#X connect 3 0 6 0;
#X connect 4 0 5 0;
#X connect 5 0 1 0;
#X connect 5 1 0 0;
#X connect 5 2 2 0;
#X restore 451 70 pd tamb;
#X msg 481 35 2;
#X msg 514 35 1;
#X msg 451 35 0;
#N canvas 185 144 782 732 bongo 0;
#X msg 81 98 488.189 440.945 75.5906 195.276 66.1417 584.252 0.677165
;
#X msg 119 118 488.189 440.945 75.5906 195.276 66.1417 203.937 0.677165
;
#X msg 136 138 488.189 403.15 75.5906 195.276 66.1417 363.78 0.685039
;
#X msg 148 158 450.394 403.15 75.5906 195.276 126.772 363.78 0.685039
;
#X msg 179 178 492.913 403.15 166.929 195.276 121.26 192.913 0.685039
;
#X msg 200 201 880 200.15 166.929 195.276 121.26 182.913 0.685039;
#X obj 149 461 *~;
#X obj 136 413 osc~;
#X obj 181 413 osc~;
#X obj 239 461 *~;
#X obj 226 413 osc~;
#X obj 271 413 osc~;
#X obj 148 490 *~;
#X obj 239 491 *~;
#X obj 182 440 line~;
#X obj 271 438 line~;
#N canvas 38 420 450 300 nv 0;
#X msg 121 159 1 \$1;
#X msg 160 159 0 \$1;
#X obj 134 64 t b b;
#X obj 140 191 outlet;
#X obj 134 39 inlet;
#X obj 258 38 inlet;
#X obj 168 128 f;
#X obj 121 131 f;
#X obj 202 38 inlet;
#X obj 134 89 del 1;
#X connect 0 0 3 0;
#X connect 1 0 3 0;
#X connect 2 0 9 0;
#X connect 2 1 7 0;
#X connect 4 0 2 0;
#X connect 5 0 6 1;
#X connect 6 0 1 0;
#X connect 7 0 0 0;
#X connect 8 0 7 1;
#X connect 8 0 9 1;
#X connect 9 0 6 0;
#X restore 285 333 pd nv;
#X obj 136 385 *;
#X obj 181 386 *;
#X obj 226 388 *;
#X obj 271 388 *;
#X obj 137 360 t b f;
#X obj 181 360 t b f;
#X obj 226 360 t b f;
#X obj 271 361 t b f;
#X obj 211 516 *~;
#X msg 300 312 2;
#N canvas 38 420 450 300 nv 0;
#X msg 121 159 1 \$1;
#X msg 160 159 0 \$1;
#X obj 134 64 t b b;
#X obj 140 191 outlet;
#X obj 134 39 inlet;
#X obj 258 38 inlet;
#X obj 168 128 f;
#X obj 121 131 f;
#X obj 202 38 inlet;
#X obj 134 89 del 1;
#X connect 0 0 3 0;
#X connect 1 0 3 0;
#X connect 2 0 9 0;
#X connect 2 1 7 0;
#X connect 4 0 2 0;
#X connect 5 0 6 1;
#X connect 6 0 1 0;
#X connect 7 0 0 0;
#X connect 8 0 7 1;
#X connect 8 0 9 1;
#X connect 9 0 6 0;
#X restore 329 333 pd nv;
#X msg 344 312 2;
#X obj 183 461 *~;
#X obj 272 462 *~;
#X obj 136 259 unpack f f f f f f f;
#X obj 134 225 t b l;
#X obj 320 288 loadbang;
#X obj 240 617 hip~ 400;
#X obj 301 491 noise~;
#X obj 300 540 *~;
#X obj 273 491 *~;
#X obj 299 562 *~ 5;
#X obj 335 469 * 4;
#X obj 300 514 bp~ 6000 22;
#X obj 120 41 sel 0 1 2 3 4 5 6;
#X obj 123 12 inlet;
#X obj 240 643 outlet~;
#X obj 239 592 *~ 0.085;
#X text 180 15 hand drums;
#X connect 0 0 32 0;
#X connect 1 0 32 0;
#X connect 2 0 32 0;
#X connect 3 0 32 0;
#X connect 4 0 32 0;
#X connect 5 0 32 0;
#X connect 6 0 12 0;
#X connect 7 0 6 0;
#X connect 8 0 6 1;
#X connect 9 0 13 0;
#X connect 10 0 9 0;
#X connect 11 0 9 1;
#X connect 12 0 25 0;
#X connect 12 0 44 0;
#X connect 13 0 25 1;
#X connect 13 0 44 0;
#X connect 14 0 29 0;
#X connect 14 0 29 1;
#X connect 15 0 30 0;
#X connect 15 0 30 1;
#X connect 16 0 14 0;
#X connect 17 0 7 0;
#X connect 18 0 8 0;
#X connect 19 0 10 0;
#X connect 19 0 39 0;
#X connect 20 0 11 0;
#X connect 21 0 17 0;
#X connect 21 1 17 1;
#X connect 22 0 18 0;
#X connect 22 1 18 1;
#X connect 23 0 19 0;
#X connect 23 1 19 1;
#X connect 24 0 20 0;
#X connect 24 1 20 1;
#X connect 25 0 44 0;
#X connect 26 0 16 1;
#X connect 27 0 15 0;
#X connect 28 0 27 1;
#X connect 29 0 12 1;
#X connect 30 0 13 1;
#X connect 30 0 37 0;
#X connect 30 0 37 1;
#X connect 31 0 17 0;
#X connect 31 1 18 0;
#X connect 31 2 19 0;
#X connect 31 3 20 0;
#X connect 31 4 16 2;
#X connect 31 5 27 2;
#X connect 31 6 24 0;
#X connect 31 6 23 0;
#X connect 31 6 22 0;
#X connect 31 6 21 0;
#X connect 32 0 16 0;
#X connect 32 0 27 0;
#X connect 32 1 31 0;
#X connect 33 0 26 0;
#X connect 33 0 28 0;
#X connect 34 0 43 0;
#X connect 35 0 40 0;
#X connect 36 0 38 0;
#X connect 37 0 36 1;
#X connect 38 0 44 0;
#X connect 39 0 40 1;
#X connect 40 0 36 0;
#X connect 41 0 0 0;
#X connect 41 1 1 0;
#X connect 41 2 2 0;
#X connect 41 3 3 0;
#X connect 41 4 4 0;
#X connect 41 5 5 0;
#X connect 42 0 41 0;
#X connect 44 0 34 0;
#X restore 575 71 pd bongo;
#X msg 575 40 2;
#X msg 605 40 4;
#X obj 575 -53 mod 16;
#X obj 575 -31 select 6 11 13;
#X msg 636 40 5;
#X obj 451 -53 mod 8;
#X obj 451 -31 select 0 3 4 5 6 7;
#N canvas 259 162 323 328 disco-dave 0;
#N canvas 0 50 318 566 noisekick 0;
#X obj 99 2 inlet;
#X obj 120 491 outlet~;
#X obj 106 146 line~;
#X obj 105 170 *~;
#X obj 105 193 *~;
#X msg 106 119 1 2;
#X obj 45 79 del 2;
#X obj 113 286 *~;
#X obj 106 262 osc~;
#X obj 105 222 *~ 100;
#X obj 105 242 +~ 20;
#X obj 128 25 unpack 1 2;
#X obj 45 119 pack 1 2;
#X msg 45 99 0;
#X obj 172 288 osc~;
#X obj 171 246 *~ 100;
#X obj 172 267 +~ 22;
#X obj 140 343 *~;
#X obj 155 200 noise~;
#X obj 155 221 bp~ 100 2;
#X msg 17 177 0;
#X obj 17 202 switch~;
#X msg 53 177 1;
#X obj 17 152 del 200;
#X obj 121 412 clip~ -0.9 0.9;
#X obj 83 369 *~ 0.66;
#X obj 156 315 *~;
#X obj 208 196 * 0.77;
#X obj 140 368 *~ 1.6;
#X obj 122 464 lop~ 800;
#X obj 121 438 hip~ 20;
#X obj 49 26 t b b b b;
#X connect 0 0 11 0;
#X connect 0 0 31 0;
#X connect 2 0 3 0;
#X connect 2 0 3 1;
#X connect 2 0 15 0;
#X connect 3 0 4 0;
#X connect 3 0 4 1;
#X connect 4 0 7 1;
#X connect 4 0 9 0;
#X connect 5 0 2 0;
#X connect 6 0 13 0;
#X connect 7 0 17 0;
#X connect 7 0 25 0;
#X connect 8 0 7 0;
#X connect 9 0 10 0;
#X connect 10 0 8 0;
#X connect 11 0 12 1;
#X connect 11 0 23 1;
#X connect 11 1 9 1;
#X connect 11 1 19 1;
#X connect 11 1 27 0;
#X connect 12 0 2 0;
#X connect 13 0 12 0;
#X connect 14 0 26 1;
#X connect 15 0 16 0;
#X connect 16 0 14 0;
#X connect 17 0 28 0;
#X connect 18 0 19 0;
#X connect 19 0 26 0;
#X connect 20 0 21 0;
#X connect 22 0 21 0;
#X connect 23 0 20 0;
#X connect 24 0 30 0;
#X connect 25 0 24 0;
#X connect 26 0 17 1;
#X connect 27 0 15 1;
#X connect 28 0 24 0;
#X connect 29 0 1 0;
#X connect 30 0 29 0;
#X connect 31 0 6 0;
#X connect 31 1 23 0;
#X connect 31 2 5 0;
#X connect 31 3 22 0;
#X restore 18 145 pd noisekick;
#N canvas 571 250 500 420 fmcym 0;
#X obj 246 184 clip~ -0.1 0.1;
#N canvas 0 50 155 418 noizy 0;
#X obj 32 113 wrap~;
#X obj 16 84 -~ 0.5;
#X obj 32 135 -~ 0.5;
#X obj 16 160 -~;
#X obj 48 279 wrap~;
#X obj 31 259 -~ 0.5;
#X obj 48 305 -~ 0.5;
#X obj 31 333 -~;
#X obj 14 356 *~;
#X obj 31 237 phasor~;
#X obj 24 9 inlet;
#X obj 13 385 outlet~;
#X obj 24 31 unpack 1 2 3;
#X obj 17 62 phasor~;
#X obj 32 193 *~;
#X obj 32 214 +~;
#X connect 0 0 2 0;
#X connect 1 0 0 0;
#X connect 1 0 3 0;
#X connect 2 0 3 1;
#X connect 3 0 8 0;
#X connect 3 0 14 0;
#X connect 4 0 6 0;
#X connect 5 0 4 0;
#X connect 5 0 7 0;
#X connect 6 0 7 1;
#X connect 7 0 8 1;
#X connect 8 0 11 0;
#X connect 9 0 5 0;
#X connect 10 0 12 0;
#X connect 12 0 13 0;
#X connect 12 1 14 1;
#X connect 12 2 15 1;
#X connect 13 0 1 0;
#X connect 14 0 15 0;
#X connect 15 0 9 0;
#X restore 318 142 pd noizy;
#X obj 231 309 outlet~;
#X obj 276 75 loadbang;
#X obj 231 233 *~;
#X obj 126 143 line~;
#X obj 44 86 del 3;
#X obj 11 36 inlet;
#X obj 20 59 t;
#X msg 9 87 1 3;
#X obj 125 170 *~;
#X msg 318 119 1478 1765 1249;
#X msg 216 118 893 2348 3256;
#N canvas 0 50 161 470 noizy 0;
#X obj 38 108 wrap~;
#X obj 33 83 -~ 0.5;
#X obj 38 130 -~ 0.5;
#X obj 22 152 -~;
#X obj 54 279 wrap~;
#X obj 37 243 -~ 0.5;
#X obj 54 305 -~ 0.5;
#X obj 37 328 -~;
#X obj 22 382 *~;
#X obj 37 221 phasor~;
#X obj 34 12 inlet;
#X obj 21 411 outlet~;
#X obj 34 38 unpack 1 2 3;
#X obj 34 61 phasor~;
#X obj 38 177 *~;
#X obj 38 198 +~;
#X connect 0 0 2 0;
#X connect 1 0 0 0;
#X connect 1 0 3 0;
#X connect 2 0 3 1;
#X connect 3 0 8 0;
#X connect 3 0 14 0;
#X connect 4 0 6 0;
#X connect 5 0 4 0;
#X connect 5 0 7 0;
#X connect 6 0 7 1;
#X connect 7 0 8 1;
#X connect 8 0 11 0;
#X connect 9 0 5 0;
#X connect 10 0 12 0;
#X connect 12 0 13 0;
#X connect 12 1 14 1;
#X connect 12 2 15 1;
#X connect 13 0 1 0;
#X connect 14 0 15 0;
#X connect 15 0 9 0;
#X restore 216 142 pd noizy;
#X obj 231 286 *~ 0.55;
#X obj 134 84 del 3;
#X obj 101 34 inlet;
#X obj 110 57 t;
#X msg 99 84 1 3;
#X msg 134 109 0 700;
#X text 107 10 long;
#X text 12 14 short;
#X obj 230 265 hip~ 400;
#X msg 48 111 0 100;
#X connect 0 0 4 1;
#X connect 1 0 0 0;
#X connect 3 0 11 0;
#X connect 3 0 12 0;
#X connect 4 0 22 0;
#X connect 5 0 10 0;
#X connect 5 0 10 1;
#X connect 6 0 23 0;
#X connect 7 0 8 0;
#X connect 8 0 6 0;
#X connect 8 0 9 0;
#X connect 9 0 5 0;
#X connect 10 0 4 0;
#X connect 11 0 1 0;
#X connect 12 0 13 0;
#X connect 13 0 0 0;
#X connect 14 0 2 0;
#X connect 15 0 19 0;
#X connect 16 0 17 0;
#X connect 17 0 15 0;
#X connect 17 0 18 0;
#X connect 18 0 5 0;
#X connect 19 0 5 0;
#X connect 22 0 14 0;
#X connect 23 0 5 0;
#X restore 112 145 pd fmcym;
#X obj 114 196 *~ 0.6;
#X obj 18 173 *~ 0.8;
#X msg 19 96 220 80;
#X msg 99 96 bang;
#X msg 139 98 bang;
#N canvas 0 50 995 598 botsd 0;
#X obj 153 782 outlet~;
#X obj 320 442 noise~;
#X obj 121 616 *~;
#X obj 318 467 hip~ 1500;
#X obj 261 499 *~;
#X obj 273 362 -~;
#X obj 204 405 *~;
#X obj 179 303 clip~ -0.5 0.5;
#X obj 201 360 +~ 0.5;
#X obj 116 649 clip~ -0.99 0.99;
#X obj 216 445 *~ 0.2;
#X obj 115 477 osc~;
#X obj 225 542 *~ 3;
#X obj 99 26 inlet trigger;
#X obj 165 733 *~;
#X obj 179 209 *~ 50;
#X obj 224 232 +~ 70;
#X obj 171 233 +~ 50;
#X obj 229 266 osc~;
#X obj 155 265 osc~;
#X msg 311 221 0;
#X obj 289 686 *~;
#X obj 447 405 *~;
#X obj 407 433 *~ 0.8;
#X obj 712 39 inlet;
#X msg 644 511 1;
#X msg 723 521 0;
#X text 608 92 decay;
#X text 750 92 volume;
#X obj 370 391 *~;
#X obj 234 329 sig~ 1;
#X obj 768 620 outlet onoff;
#X obj 659 606 switch~ 0;
#X obj 290 80 t b b f;
#X obj 504 192 t3_bpe;
#X obj 500 217 t3_line~ 0;
#X obj 602 211 t3_delay;
#X msg 564 174 stop;
#X msg 423 144 0;
#X obj 472 129 pack 1 0.2 0 f;
#X obj 497 326 *~;
#X obj 114 448 +~ 80;
#X obj 114 416 *~ 130;
#X obj 395 311 *~ -1;
#X obj 367 344 +~ 1;
#X obj 145 529 *~ 0.7;
#X obj 227 594 bp~ 2500 1;
#X obj 661 113 unpack f f;
#X obj 651 141 * 130;
#X obj 651 169 + 40;
#X connect 1 0 3 0;
#X connect 2 0 9 0;
#X connect 3 0 4 1;
#X connect 4 0 12 0;
#X connect 5 0 6 1;
#X connect 6 0 10 0;
#X connect 7 0 8 0;
#X connect 8 0 6 0;
#X connect 9 0 21 0;
#X connect 10 0 4 0;
#X connect 11 0 45 0;
#X connect 12 0 46 0;
#X connect 13 0 33 0;
#X connect 14 0 0 0;
#X connect 15 0 17 0;
#X connect 15 0 16 0;
#X connect 16 0 18 0;
#X connect 17 0 19 0;
#X connect 18 0 7 0;
#X connect 19 0 7 0;
#X connect 20 0 18 1;
#X connect 20 0 19 1;
#X connect 21 0 14 0;
#X connect 22 0 23 0;
#X connect 23 0 2 0;
#X connect 24 0 47 0;
#X connect 25 0 32 0;
#X connect 25 0 31 0;
#X connect 26 0 31 0;
#X connect 26 0 32 0;
#X connect 30 0 5 0;
#X connect 33 0 38 0;
#X connect 33 1 37 0;
#X connect 33 1 39 0;
#X connect 33 1 25 0;
#X connect 33 1 20 0;
#X connect 33 2 14 1;
#X connect 34 0 35 0;
#X connect 34 1 35 1;
#X connect 34 2 36 0;
#X connect 35 0 40 0;
#X connect 35 0 40 1;
#X connect 35 0 15 0;
#X connect 35 0 43 0;
#X connect 36 0 26 0;
#X connect 37 0 36 0;
#X connect 38 0 34 0;
#X connect 39 0 34 0;
#X connect 40 0 42 0;
#X connect 40 0 22 0;
#X connect 40 0 22 1;
#X connect 41 0 11 0;
#X connect 42 0 41 0;
#X connect 43 0 44 0;
#X connect 44 0 5 0;
#X connect 44 0 4 0;
#X connect 45 0 2 1;
#X connect 46 0 2 1;
#X connect 47 0 48 0;
#X connect 47 1 21 1;
#X connect 48 0 49 0;
#X connect 49 0 39 3;
#X restore 174 145 pd botsd;
#X obj 173 193 *~ 0.05;
#X obj 174 122 list split 1;
#X msg 174 99 20 0.99 0.3;
#X obj 77 47 sel 0 1 2 3;
#X obj 77 25 inlet;
#X obj 115 264 outlet~;
#X obj 114 232 *~ 0.7;
#X text 123 22 analog drums;
#X connect 0 0 3 0;
#X connect 1 0 2 0;
#X connect 2 0 14 0;
#X connect 3 0 14 0;
#X connect 4 0 0 0;
#X connect 5 0 1 0;
#X connect 6 0 1 1;
#X connect 7 0 8 0;
#X connect 8 0 14 0;
#X connect 9 0 7 0;
#X connect 9 1 7 1;
#X connect 10 0 9 0;
#X connect 11 0 4 0;
#X connect 11 1 5 0;
#X connect 11 2 6 0;
#X connect 11 3 10 0;
#X connect 12 0 11 0;
#X connect 14 0 13 0;
#X restore 717 71 pd disco-dave;
#X obj 764 -39 mod 16;
#X msg 764 28 0;
#X msg 717 -67 1;
#X msg 748 -66 2;
#X msg 879 28 3;
#X obj 764 -11 select 0 2 5 6 10 13 14;
#X obj 717 -125 mod 8;
#X obj 717 -103 select 0 1 2 5;
#X obj 133 113 tgl 15 1 empty empty empty 0 -6 0 8 -260818 -1 -1 0
1;
#X obj 118 156 *~;
#X obj 162 113 tgl 15 1 empty empty empty 0 -6 0 8 -260818 -1 -1 1
1;
#X obj 147 155 *~;
#X obj 192 113 tgl 15 1 empty empty empty 0 -6 0 8 -260818 -1 -1 0
1;
#X obj 177 157 *~;
#X obj 223 113 tgl 15 1 empty empty empty 0 -6 0 8 -260818 -1 -1 0
1;
#X obj 208 156 *~;
#X obj 253 113 tgl 15 1 empty empty empty 0 -6 0 8 -260818 -1 -1 0
1;
#X obj 238 158 *~;
#X obj 282 113 tgl 15 1 empty empty empty 0 -6 0 8 -260818 -1 -1 0
1;
#X obj 267 158 *~;
#X obj 122 238 outlet~;
#X obj 179 238 outlet~;
#X obj 179 208 *~ 0.8;
#X obj 122 209 *~ 0.8;
#X text 297 -140 mellow electronica drumkit;
#N canvas 335 522 698 151 automate 0;
#X obj 17 40 r \$0-drum1-M;
#X obj 107 40 r \$0-drum2-M;
#X obj 197 40 r \$0-drum3-M;
#X obj 287 40 r \$0-drum4-M;
#X obj 377 40 r \$0-drum5-M;
#X obj 468 40 r \$0-drum6-M;
#X obj 557 40 r \$0-drum7-M;
#X obj 17 77 outlet;
#X obj 107 77 outlet;
#X obj 197 77 outlet;
#X obj 287 77 outlet;
#X obj 377 77 outlet;
#X obj 468 77 outlet;
#X obj 557 77 outlet;
#X connect 0 0 7 0;
#X connect 1 0 8 0;
#X connect 2 0 9 0;
#X connect 3 0 10 0;
#X connect 4 0 11 0;
#X connect 5 0 12 0;
#X connect 6 0 13 0;
#X restore 149 70 pd automate;
#X connect 0 0 11 0;
#X connect 0 1 43 0;
#X connect 1 0 0 1;
#X connect 2 0 0 0;
#X connect 3 0 0 0;
#X connect 4 0 0 1;
#X connect 5 0 0 1;
#X connect 6 0 0 0;
#X connect 7 0 8 0;
#X connect 7 0 13 0;
#X connect 7 0 16 0;
#X connect 7 0 28 0;
#X connect 7 0 31 0;
#X connect 7 0 34 0;
#X connect 7 0 40 0;
#X connect 8 0 9 0;
#X connect 9 0 6 0;
#X connect 9 0 1 0;
#X connect 9 1 5 0;
#X connect 9 2 6 0;
#X connect 9 3 6 0;
#X connect 9 4 4 0;
#X connect 10 0 11 1;
#X connect 11 0 56 0;
#X connect 11 0 57 0;
#X connect 12 0 45 0;
#X connect 13 0 14 0;
#X connect 14 0 12 1;
#X connect 14 1 12 1;
#X connect 14 2 12 0;
#X connect 15 0 47 0;
#X connect 16 0 20 0;
#X connect 17 0 15 0;
#X connect 18 0 15 0;
#X connect 19 0 15 0;
#X connect 20 0 17 0;
#X connect 20 1 18 0;
#X connect 20 2 19 0;
#X connect 21 0 49 0;
#X connect 22 0 21 0;
#X connect 23 0 21 0;
#X connect 24 0 21 0;
#X connect 25 0 51 0;
#X connect 26 0 25 0;
#X connect 27 0 25 0;
#X connect 28 0 29 0;
#X connect 29 0 26 0;
#X connect 29 1 27 0;
#X connect 29 2 30 0;
#X connect 30 0 25 0;
#X connect 31 0 32 0;
#X connect 32 0 22 0;
#X connect 32 1 24 0;
#X connect 32 2 24 0;
#X connect 32 4 23 0;
#X connect 32 5 22 0;
#X connect 33 0 53 0;
#X connect 34 0 39 0;
#X connect 35 0 33 0;
#X connect 36 0 33 0;
#X connect 37 0 33 0;
#X connect 38 0 33 0;
#X connect 39 0 35 0;
#X connect 39 1 38 0;
#X connect 39 2 35 0;
#X connect 39 3 38 0;
#X connect 39 4 38 0;
#X connect 39 5 35 0;
#X connect 39 6 38 0;
#X connect 40 0 41 0;
#X connect 41 0 36 0;
#X connect 41 1 36 0;
#X connect 41 2 36 0;
#X connect 41 3 37 0;
#X connect 42 0 43 1;
#X connect 43 0 56 0;
#X connect 43 0 57 0;
#X connect 44 0 45 1;
#X connect 45 0 56 0;
#X connect 45 0 57 0;
#X connect 46 0 47 1;
#X connect 47 0 56 0;
#X connect 47 0 57 0;
#X connect 48 0 49 1;
#X connect 49 0 56 0;
#X connect 49 0 57 0;
#X connect 50 0 51 1;
#X connect 51 0 56 0;
#X connect 51 0 57 0;
#X connect 52 0 53 1;
#X connect 53 0 56 0;
#X connect 53 0 57 0;
#X connect 56 0 55 0;
#X connect 57 0 54 0;
#X connect 59 0 10 0;
#X connect 59 1 42 0;
#X connect 59 2 44 0;
#X connect 59 3 46 0;
#X connect 59 4 48 0;
#X connect 59 5 50 0;
#X connect 59 6 52 0;
#X coords 0 -1 1 1 200 30 1 100 100;
#X restore 202 68 pd somedrums;
#X obj 283 267 r \$0-padchords;
#X obj 564 26 r \$0-time;
#X obj 630 26 r \$0-stplks;
#X obj 138 267 r \$0-time;
#N canvas 750 434 455 397 slider 0;
#N canvas 0 50 446 440 sawsyn 0;
#X obj 132 314 *~;
#X obj 73 103 mtof;
#X obj 69 38 inlet;
#X obj 211 188 line;
#X obj 130 402 outlet~;
#X obj 193 123 pack 1 1;
#X obj 218 164 pack 0 1;
#X obj 216 144 del 1;
#X obj 120 43 unpack 1 2 3 4 5 6 7 8 9;
#X obj 176 83 t b f;
#X obj 148 290 clip~ -0.9 0.9;
#X obj 66 197 phasor~;
#X obj 64 176 line;
#X obj 116 252 bp~ 100 1;
#X obj 140 214 phasor~;
#X obj 140 175 line;
#X obj 210 252 * -1;
#X obj 64 154 pack 1 1;
#X obj 136 151 pack 1 1;
#X text 86 6 (note \, bpf \, bpq \, clip \, slide1 \, slide2 \, A \,
D \, Amp);
#X text 1 8 sawslide;
#X obj 132 360 hip~ 50;
#X obj 141 194 + 1;
#X floatatom 25 224 5 0 0 0 - - -, f 5;
#X obj 246 252 * 1;
#X obj 132 336 *~ 0.5;
#X obj 103 176 +;
#X obj 131 381 *~;
#X connect 0 0 25 0;
#X connect 1 0 17 0;
#X connect 1 0 18 0;
#X connect 1 0 26 1;
#X connect 2 0 8 0;
#X connect 3 0 0 0;
#X connect 5 0 3 0;
#X connect 6 0 3 0;
#X connect 7 0 6 0;
#X connect 8 0 9 0;
#X connect 8 0 1 0;
#X connect 8 1 26 0;
#X connect 8 2 13 2;
#X connect 8 3 16 0;
#X connect 8 3 24 0;
#X connect 8 4 17 1;
#X connect 8 5 18 1;
#X connect 8 6 5 1;
#X connect 8 6 7 1;
#X connect 8 7 6 1;
#X connect 8 8 27 1;
#X connect 9 0 5 0;
#X connect 9 0 7 0;
#X connect 10 0 0 1;
#X connect 11 0 13 0;
#X connect 12 0 11 0;
#X connect 12 0 23 0;
#X connect 13 0 10 0;
#X connect 14 0 13 0;
#X connect 15 0 22 0;
#X connect 16 0 10 1;
#X connect 17 0 12 0;
#X connect 18 0 15 0;
#X connect 21 0 27 0;
#X connect 22 0 14 0;
#X connect 24 0 10 2;
#X connect 25 0 21 0;
#X connect 26 0 13 1;
#X connect 27 0 4 0;
#X restore -10 220 pd sawsyn;
#X obj 15 83 select 0 1 2 3 4 5 6 7;
#X obj 15 58 random 8;
#X msg -1 184 \$1 1 23 0.6 450 250 400 6000 0.3;
#X msg -11 159 \$1 1 23 0.6 250 200 100 4000 0.3;
#X text 66 223 slider;
#X text 71 -4 Moon over Pokesdown Station 2005;
#X obj 59 109 f;
#X obj 86 109 f;
#X obj 4 110 f;
#X obj 31 110 f;
#X obj 60 134 f;
#X obj 87 134 f;
#X obj 5 135 f;
#X obj 32 135 f;
#X obj 100 34 unpack f f f f f f f f;
#X obj 100 14 inlet;
#X obj 2 -21 inlet;
#X obj -10 315 outlet~;
#X obj 1 1 mod 16;
#X obj 1 21 sel 5 9 15;
#X obj -9 295 *~;
#X obj 195 106 tgl 15 0 empty empty empty 0 -6 0 8 -260818 -1 -1 0
0.5;
#X obj 113 220 r \$0-slider-M;
#X obj 5 276 line~;
#X msg 4 254 \$1 30;
#X connect 0 0 21 0;
#X connect 1 0 9 0;
#X connect 1 1 10 0;
#X connect 1 2 7 0;
#X connect 1 3 8 0;
#X connect 1 4 13 0;
#X connect 1 5 14 0;
#X connect 1 6 11 0;
#X connect 1 7 12 0;
#X connect 2 0 1 0;
#X connect 3 0 0 0;
#X connect 4 0 0 0;
#X connect 7 0 4 0;
#X connect 8 0 4 0;
#X connect 9 0 4 0;
#X connect 10 0 4 0;
#X connect 11 0 3 0;
#X connect 12 0 3 0;
#X connect 13 0 3 0;
#X connect 14 0 3 0;
#X connect 15 0 9 1;
#X connect 15 1 10 1;
#X connect 15 2 7 1;
#X connect 15 3 8 1;
#X connect 15 4 13 1;
#X connect 15 5 14 1;
#X connect 15 6 11 1;
#X connect 15 7 12 1;
#X connect 16 0 15 0;
#X connect 17 0 19 0;
#X connect 19 0 20 0;
#X connect 20 0 2 0;
#X connect 20 1 2 0;
#X connect 20 2 2 0;
#X connect 21 0 18 0;
#X connect 22 0 25 0;
#X connect 23 0 25 0;
#X connect 24 0 21 1;
#X connect 25 0 24 0;
#X coords 0 -1 1 1 120 30 1 100 100;
#X restore 138 309 pd slider;
#X obj 206 267 r \$0-slider;
#X obj 634 266 r \$0-sawbas;
#X obj 572 266 r \$0-time;
#N canvas 787 343 354 480 stplucks 0;
#N canvas 0 50 588 523 3cosynth 0;
#X obj 94 226 osc~;
#X obj 95 253 *~ 0.09;
#X obj 138 222 osc~;
#X obj 190 223 osc~;
#X obj 154 253 *~ 0.05;
#X obj 216 255 *~ 0.02;
#X obj 141 170 *;
#X obj 192 172 *;
#X obj 154 141 * 4;
#X obj 206 142 * 8;
#X obj 151 292 clip~ -0.1 0.1;
#X msg 10 193 0;
#X obj 132 314 *~;
#X msg 6 253 1 10;
#X obj 18 78 mtof;
#X obj 69 38 inlet;
#X obj 26 300 line;
#X obj 132 362 outlet~;
#X obj 3 163 t;
#X obj 1 215 pack 1 1;
#X obj 48 276 pack 0 1;
#X obj 27 235 del 1;
#X obj 132 336 *~;
#X obj 67 59 unpack 1 2 3 4 5 6 7 8 9;
#X text 65 8 (note \, l0 \, l1 \, l2 \, f1 \, f2 \, A \, D \, Amp)
;
#X connect 0 0 1 0;
#X connect 1 0 10 0;
#X connect 2 0 4 0;
#X connect 3 0 5 0;
#X connect 4 0 10 0;
#X connect 5 0 10 0;
#X connect 6 0 2 0;
#X connect 7 0 3 0;
#X connect 8 0 6 1;
#X connect 9 0 7 1;
#X connect 10 0 12 1;
#X connect 12 0 22 0;
#X connect 13 0 16 0;
#X connect 14 0 0 0;
#X connect 14 0 6 0;
#X connect 14 0 7 0;
#X connect 14 0 18 0;
#X connect 15 0 23 0;
#X connect 16 0 12 0;
#X connect 18 0 11 0;
#X connect 18 0 19 0;
#X connect 18 0 21 0;
#X connect 19 0 16 0;
#X connect 20 0 16 0;
#X connect 21 0 20 0;
#X connect 22 0 17 0;
#X connect 23 0 14 0;
#X connect 23 1 1 1;
#X connect 23 2 4 1;
#X connect 23 3 5 1;
#X connect 23 4 8 0;
#X connect 23 5 9 0;
#X connect 23 6 19 1;
#X connect 23 6 21 1;
#X connect 23 7 20 1;
#X connect 23 8 22 1;
#X restore 9 211 pd 3cosynth;
#X msg 77 236 250;
#N canvas 0 50 450 300 deldeld 0;
#X obj 70 59 delwrite~ \$0-ddd 500;
#X obj 55 136 +~;
#X obj 68 39 +~;
#X obj 79 110 *~ 0.6;
#X obj 95 88 delread~ \$0-ddd 250;
#X obj 54 16 inlet~;
#X obj 55 157 outlet~;
#X obj 120 16 inlet;
#X connect 1 0 6 0;
#X connect 2 0 0 0;
#X connect 3 0 1 1;
#X connect 3 0 2 0;
#X connect 4 0 3 0;
#X connect 5 0 2 1;
#X connect 5 0 1 0;
#X connect 7 0 4 0;
#X restore 10 256 pd deldeld;
#X msg 100 320 0.7;
#X obj 51 279 phasor~ 0.333;
#X obj 11 343 vcf~ 100 0.7;
#X obj 109 211 loadbang;
#X obj 64 135 f;
#X obj 91 135 f;
#X obj 9 136 f;
#X obj 36 136 f;
#X obj 3 100 select 0 1 2 3 4 5 6 7;
#X obj 3 69 mod 8;
#X obj 3 44 inlet;
#X obj 69 69 unpack f f f f;
#X obj 69 46 inlet;
#X obj 11 395 outlet~;
#X obj 51 320 +~ 200;
#X obj 51 300 *~ 2000;
#X obj 193 107 tgl 15 0 empty empty empty 0 -6 0 8 -260818 -1 -1 0
1.2;
#X msg 9 182 \$1 0.298 0.353 0.172 0.122 0.502 4 80 0.5;
#X obj 8 158 - 0;
#X obj 179 259 line~;
#X msg 179 237 \$1 100;
#X obj 11 369 *~;
#X obj 189 214 r \$0-stplks-M;
#X connect 0 0 2 0;
#X connect 1 0 2 1;
#X connect 2 0 5 0;
#X connect 3 0 5 2;
#X connect 4 0 18 0;
#X connect 5 0 24 0;
#X connect 6 0 3 0;
#X connect 6 0 1 0;
#X connect 7 0 21 0;
#X connect 8 0 21 0;
#X connect 9 0 21 0;
#X connect 10 0 21 0;
#X connect 11 0 9 0;
#X connect 11 1 8 0;
#X connect 11 3 10 0;
#X connect 11 6 7 0;
#X connect 12 0 11 0;
#X connect 13 0 12 0;
#X connect 14 0 9 1;
#X connect 14 1 10 1;
#X connect 14 2 7 1;
#X connect 14 3 8 1;
#X connect 15 0 14 0;
#X connect 17 0 5 1;
#X connect 18 0 17 0;
#X connect 19 0 23 0;
#X connect 20 0 0 0;
#X connect 21 0 20 0;
#X connect 22 0 24 1;
#X connect 23 0 22 0;
#X connect 24 0 16 0;
#X connect 25 0 23 0;
#X coords 0 -1 1 1 120 30 1 100 100;
#X restore 564 68 pd stplucks;
#X obj 492 266 r \$0-lowstr;
#X text 10 4 ajf2006;
#X text 9 18 remix of pokesdown to make a second section;
#X obj 424 26 r \$0-slider;
#N canvas 436 176 508 478 score 0;
#X msg 184 147 52 48 64 67 76 79 81 83 88 93 95;
#X msg 157 126 50 48 64 67 76 79 81 86 88 93 95;
#X msg 130 105 50 52 66 69 76 79 83 86 91 93 95;
#X obj 10 272 s \$0-padchords;
#X obj 130 226 list;
#X obj 197 420 s \$0-stplks;
#X obj 404 420 s \$0-slider;
#X obj 130 -23 r \$0-time;
#X obj 302 420 s \$0-sawbas;
#X obj 98 420 s \$0-lowstr;
#X obj 197 390 list trim;
#X obj 163 362 list split 9;
#X obj 98 391 list trim;
#X obj 64 364 list split 9;
#X obj 302 390 list trim;
#X obj 268 362 list split 9;
#X obj 404 390 list trim;
#X obj 370 362 list split 9;
#X obj 281 240 sel 0;
#X obj 133 310 random 4;
#X obj 133 333 + 1;
#X obj 232 335 + 3;
#X obj 337 311 random 6;
#X obj 337 334 + 5;
#X obj 439 308 random 6;
#X obj 439 331 + 7;
#X obj 232 312 random 5;
#X obj 281 261 t b b b b;
#X obj 130 182 t l b;
#X obj 281 219 mod 16;
#X obj 130 -1 mod 72;
#X obj 130 27 select 0 24 48;
#X text 252 79 original matrix;
#X text 350 235 pick some random ranges;
#X connect 0 0 28 0;
#X connect 1 0 28 0;
#X connect 2 0 28 0;
#X connect 4 0 3 0;
#X connect 4 0 11 0;
#X connect 4 0 13 0;
#X connect 4 0 15 0;
#X connect 4 0 17 0;
#X connect 7 0 30 0;
#X connect 10 0 5 0;
#X connect 11 1 10 0;
#X connect 12 0 9 0;
#X connect 13 1 12 0;
#X connect 14 0 8 0;
#X connect 15 1 14 0;
#X connect 16 0 6 0;
#X connect 17 1 16 0;
#X connect 18 0 27 0;
#X connect 19 0 20 0;
#X connect 20 0 13 1;
#X connect 21 0 11 1;
#X connect 22 0 23 0;
#X connect 23 0 15 1;
#X connect 24 0 25 0;
#X connect 25 0 17 1;
#X connect 26 0 21 0;
#X connect 27 0 19 0;
#X connect 27 1 26 0;
#X connect 27 2 22 0;
#X connect 27 3 24 0;
#X connect 28 0 4 0;
#X connect 29 0 18 0;
#X connect 30 0 29 0;
#X connect 30 0 31 0;
#X connect 31 0 2 0;
#X connect 31 1 1 0;
#X connect 31 2 0 0;
#X restore 11 190 pd score listgen;
#N canvas 544 50 446 738 oboe 0;
#N canvas 493 82 456 361 tube 0;
#N canvas 107 87 647 382 body 0;
#X obj 203 326 hip~ 200;
#X obj 204 305 lop~ 6000;
#X obj 10 238 bp~ 1 1;
#X obj 75 237 bp~ 1 1;
#X obj 139 237 bp~ 1 1;
#X obj 213 239 bp~ 1 1;
#X obj 278 237 bp~ 1 1;
#X obj 352 239 bp~ 1 1;
#X obj 275 69 unpack f f f f f f f;
#X obj 211 10 inlet~;
#X obj 203 351 outlet~;
#X obj 410 101 clip 0.01 200;
#X obj 213 69 *~ 0.1;
#X obj 212 37 hip~ 6;
#X obj 275 11 loadbang;
#X obj 370 11 inlet;
#X text 425 239 Here they are!;
#X msg 275 40 2141.73 1858.27 1700.79 1007.87 850.394 566.929 6;
#X obj 203 282 *~ 3;
#X text 432 72 wooden tube \, ajf 2005;
#X connect 0 0 10 0;
#X connect 1 0 0 0;
#X connect 2 0 18 0;
#X connect 3 0 18 0;
#X connect 4 0 18 0;
#X connect 5 0 18 0;
#X connect 6 0 18 0;
#X connect 7 0 18 0;
#X connect 8 0 2 1;
#X connect 8 1 3 1;
#X connect 8 2 4 1;
#X connect 8 3 5 1;
#X connect 8 4 6 1;
#X connect 8 5 7 1;
#X connect 8 6 11 0;
#X connect 9 0 13 0;
#X connect 11 0 2 2;
#X connect 11 0 3 2;
#X connect 11 0 4 2;
#X connect 11 0 5 2;
#X connect 11 0 6 2;
#X connect 11 0 7 2;
#X connect 12 0 2 0;
#X connect 12 0 3 0;
#X connect 12 0 4 0;
#X connect 12 0 5 0;
#X connect 12 0 6 0;
#X connect 12 0 7 0;
#X connect 13 0 12 0;
#X connect 14 0 17 0;
#X connect 15 0 8 0;
#X connect 17 0 8 0;
#X connect 18 0 1 0;
#X restore -10 292 pd body resonance;
#X obj -9 246 inlet~;
#X obj -9 329 outlet~;
#X obj 104 128 vsl 15 64 100 1000 0 1 empty empty empty 0 -8 0 8 -262144
-1 -1 600 1;
#X obj 124 128 vsl 15 64 100 1000 0 1 empty empty empty 0 -8 0 8 -262144
-1 -1 2100 1;
#X obj 144 128 vsl 15 64 100 1000 0 1 empty empty empty 0 -8 0 8 -262144
-1 -1 2900 1;
#X obj 164 128 vsl 15 64 100 1000 0 1 empty empty empty 0 -8 0 8 -262144
-1 -1 3500 1;
#X obj 184 128 vsl 15 64 100 1000 0 1 empty empty empty 0 -8 0 8 -262144
-1 -1 4600 1;
#X obj 204 128 vsl 15 64 100 1000 0 1 empty empty empty 0 -8 0 8 -262144
-1 -1 5700 1;
#X obj 118 235 t b;
#X obj 225 128 vsl 15 64 2 60 0 1 empty empty Q 5 5 0 8 -241291 -1
-1 2800 1;
#X obj 104 261 pack f f f f f f f;
#X floatatom 268 204 5 0 0 0 - - -, f 5;
#X floatatom 268 223 5 0 0 0 - - -, f 5;
#X floatatom 268 242 5 0 0 0 - - -, f 5;
#X floatatom 268 261 5 0 0 0 - - -, f 5;
#X floatatom 268 281 5 0 0 0 - - -, f 5;
#X floatatom 268 300 5 0 0 0 - - -, f 5;
#X floatatom 268 185 5 0 0 0 - - -, f 5;
#X connect 0 0 2 0;
#X connect 1 0 0 0;
#X connect 3 0 11 0;
#X connect 3 0 12 0;
#X connect 4 0 9 0;
#X connect 4 0 11 1;
#X connect 4 0 13 0;
#X connect 5 0 9 0;
#X connect 5 0 11 2;
#X connect 5 0 14 0;
#X connect 6 0 9 0;
#X connect 6 0 11 3;
#X connect 6 0 15 0;
#X connect 7 0 9 0;
#X connect 7 0 11 4;
#X connect 7 0 16 0;
#X connect 8 0 9 0;
#X connect 8 0 11 5;
#X connect 8 0 17 0;
#X connect 9 0 11 0;
#X connect 10 0 11 6;
#X connect 10 0 9 0;
#X connect 10 0 18 0;
#X connect 11 0 0 1;
#X coords 0 -1 1 1 150 100 1 100 100;
#X restore 57 465 pd tube;
#N canvas 0 50 364 664 reedpulse 0;
#X obj 101 359 *~;
#X obj 117 126 vsl 12 48 1 32 1 1 empty empty width 0 -8 1 8 -241291
-1 -1 1100 1;
#X obj 155 512 *~;
#X obj 170 157 tgl 15 1 empty empty empty 0 -6 0 8 -260818 -1 -1 1
1;
#X obj 20 267 osc~ 323;
#X obj 86 437 /~;
#X obj 49 385 sig~ 1;
#X obj 101 409 +~ 1;
#X obj 101 385 *~;
#X obj 155 534 outlet~;
#X obj 20 74 mtof;
#X obj 20 50 inlet;
#X obj 286 51 inlet~;
#X obj 85 472 *~;
#X obj 85 329 *~;
#X obj 147 125 vsl 12 48 0.01 1 1 1 empty empty mod 0 -8 1 8 -24198
-1 -1 2000 1;
#X obj 147 193 *~ 32;
#X obj 130 282 *~;
#X obj 20 245 +~;
#X obj 20 184 sig~;
#X obj 54 183 osc~ 4;
#X obj 54 205 *~ 1;
#X connect 0 0 8 0;
#X connect 0 0 8 1;
#X connect 1 0 0 1;
#X connect 2 0 9 0;
#X connect 3 0 2 1;
#X connect 4 0 14 0;
#X connect 5 0 13 0;
#X connect 6 0 5 0;
#X connect 7 0 5 1;
#X connect 8 0 7 0;
#X connect 10 0 19 0;
#X connect 11 0 10 0;
#X connect 12 0 13 1;
#X connect 12 0 17 0;
#X connect 13 0 2 0;
#X connect 14 0 0 0;
#X connect 15 0 16 0;
#X connect 16 0 17 1;
#X connect 17 0 14 1;
#X connect 18 0 4 0;
#X connect 19 0 18 0;
#X connect 20 0 21 0;
#X connect 21 0 18 1;
#X coords 0 -1 1 1 100 80 1 100 100;
#X restore 57 378 pd reedpulse;
#X obj 149 347 ead~ 400 5000;
#X obj -73 169 inlet;
#X obj 57 589 outlet~;
#X obj -21 -105 r \$0-time;
#X obj -37 224 unpack f f f f f f f f;
#X obj -38 269 f;
#X obj -8 269 f;
#X obj 22 269 f;
#X obj 49 270 f;
#X obj 79 270 f;
#X obj 109 270 f;
#X obj 17 203 sel 0 1 2 3 4 5;
#X obj 17 181 mod 6;
#X obj 55 313 t b f;
#X obj 52 350 - 24;
#X obj -21 -37 sel 0;
#X obj -21 -82 t b;
#X obj -21 5 sel 0;
#X obj -21 -16 random 2;
#X msg 9 26 1;
#X msg -21 26 -1;
#X obj 17 67 +;
#X obj -13 46 t b f;
#X obj -13 68 f 0;
#X obj -21 -58 random 3;
#X obj 189 107 tgl 15 0 empty empty empty 0 -6 0 8 -260818 -1 -1 0
0.4;
#X obj 191 158 line~;
#X msg 192 137 \$1 330;
#X obj 56 568 *~;
#X obj 228 106 r \$0-oboe-M;
#N canvas 969 100 255 278 scan 0;
#X obj -36 16 inlet;
#X obj -36 42 t b b b;
#X obj 23 150 metro 80;
#X obj 68 16 r \$0-period;
#X msg 37 121 1;
#X msg -4 99 0;
#X obj -4 121 t f f;
#X obj -19 196 f 0;
#X obj 23 196 + 1;
#X obj -36 66 sel 3;
#X obj -19 224 outlet;
#X floatatom 119 198 5 0 0 0 - - -, f 5;
#X obj 121 224 bng 15 250 50 0 empty empty empty 17 7 0 10 -262144
-1 -1;
#X connect 0 0 1 0;
#X connect 1 2 4 0;
#X connect 2 0 7 0;
#X connect 3 0 2 1;
#X connect 4 0 2 0;
#X connect 5 0 6 0;
#X connect 6 0 7 1;
#X connect 6 1 2 0;
#X connect 7 0 8 0;
#X connect 7 0 9 0;
#X connect 7 0 10 0;
#X connect 7 0 11 0;
#X connect 7 0 12 0;
#X connect 8 0 7 1;
#X connect 9 0 5 0;
#X restore 17 114 pd scan 4;
#X obj 17 94 bng 15 250 50 0 empty empty empty 0 -6 0 8 -262144 -1
-1;
#X obj 17 158 +;
#X obj 17 136 t b f;
#X obj 49 6 sel 0;
#X obj 49 -16 random 20;
#X text 122 -16 trill;
#X text 51 66 wander;
#X text 67 -102 wandertrill reed;
#X connect 0 0 30 0;
#X connect 1 0 0 0;
#X connect 2 0 1 1;
#X connect 3 0 6 0;
#X connect 5 0 18 0;
#X connect 6 0 7 1;
#X connect 6 1 8 1;
#X connect 6 2 9 1;
#X connect 6 3 10 1;
#X connect 6 4 11 1;
#X connect 6 5 12 1;
#X connect 7 0 15 0;
#X connect 8 0 15 0;
#X connect 9 0 15 0;
#X connect 10 0 15 0;
#X connect 11 0 15 0;
#X connect 12 0 15 0;
#X connect 13 0 7 0;
#X connect 13 1 8 0;
#X connect 13 2 9 0;
#X connect 13 3 10 0;
#X connect 13 4 11 0;
#X connect 13 5 12 0;
#X connect 14 0 13 0;
#X connect 15 0 2 0;
#X connect 15 1 16 0;
#X connect 16 0 1 0;
#X connect 17 0 20 0;
#X connect 17 0 37 0;
#X connect 18 0 26 0;
#X connect 19 0 22 0;
#X connect 19 1 21 0;
#X connect 20 0 19 0;
#X connect 21 0 24 0;
#X connect 22 0 24 0;
#X connect 23 0 25 1;
#X connect 24 0 25 0;
#X connect 24 1 23 1;
#X connect 25 0 23 0;
#X connect 25 0 34 0;
#X connect 26 0 17 0;
#X connect 27 0 29 0;
#X connect 28 0 30 1;
#X connect 29 0 28 0;
#X connect 30 0 4 0;
#X connect 31 0 29 0;
#X connect 32 0 35 0;
#X connect 33 0 32 0;
#X connect 34 0 14 0;
#X connect 35 0 34 0;
#X connect 35 1 34 1;
#X connect 36 0 33 0;
#X connect 37 0 36 0;
#X coords 0 -1 1 1 120 30 1 100 100;
#X restore 714 68 pd oboe;
#X obj 714 26 r \$0-stplks;
#X obj 568 512 outlet~ verb;
#X obj 430 482 *~ 2;
#X obj 519 478 *~ 1;
#X obj 605 478 *~ 1;
#X obj 714 266 r \$0-stplks;
#X obj 798 264 vsl 10 32 0.87 0.9999 1 1 empty empty empty 0 -8 0 8
-24198 -1 -1 3100 1;
#X obj 572 396 s~ swvb;
#X obj 695 477 *~ 0.4;
#N canvas 1 78 342 310 time 0;
#X obj 13 9 inlet;
#X obj 54 162 f 0;
#X obj 90 162 + 1;
#X msg 54 97 1;
#X msg 13 80 stop;
#X msg 13 127 0;
#X text 97 79 timebase;
#X obj 13 271 s \$0-time;
#X obj 13 34 sel 0 1;
#X obj 13 227 int;
#X obj 13 248 change;
#X obj 80 271 s \$0-dtime;
#X obj 13 206 / 4;
#X obj 54 127 metro 62;
#X obj 154 271 s \$0-period;
#X text 67 34 a 120 BPM la biscroma dura 62 millisecodi;
#X msg 154 79 62;
#X connect 0 0 8 0;
#X connect 1 0 2 0;
#X connect 1 0 11 0;
#X connect 1 0 12 0;
#X connect 2 0 1 1;
#X connect 3 0 13 0;
#X connect 4 0 5 0;
#X connect 4 0 13 0;
#X connect 5 0 1 0;
#X connect 8 0 4 0;
#X connect 8 1 3 0;
#X connect 8 1 16 0;
#X connect 9 0 10 0;
#X connect 10 0 7 0;
#X connect 12 0 9 0;
#X connect 13 0 1 0;
#X connect 16 0 13 1;
#X connect 16 0 14 0;
#X restore 11 149 pd time;
#X obj 128 68 inlet;
#X obj 421 267 r \$0-time;
#X obj 812 264 vsl 10 32 0 8 0 1 empty empty empty 0 -8 0 8 -62784
-1 -1 1500 1;
#X obj 827 264 vsl 10 32 0 1 0 1 empty empty v 0 -8 1 8 -260818 -1
-1 2700 1;
#N canvas 0 50 429 493 bazor 0;
#N canvas 0 50 554 680 arper 0;
#X obj 200 32 inlet;
#X obj 78 173 unpack 1 2 3 4 5 6 7 8 9 10 11;
#X obj 66 410 random 100;
#X obj 66 452 line;
#X obj 66 345 loadbang;
#X msg 66 365 1;
#X obj 66 389 metro 1000;
#X msg 66 430 \$1 1000;
#X obj 72 504 -;
#X msg 67 481 100;
#X obj 64 526 / 100;
#X obj 106 525 / 100;
#X obj 64 549 + 0.1;
#X obj 91 580 *~;
#X obj 110 548 + 0.1;
#X obj 121 580 *~;
#X obj 61 638 outlet~;
#X obj 126 638 outlet~;
#X obj 75 33 inlet;
#X obj 169 316 osc~;
#X obj 160 583 delread~ \$0-gggg 100;
#X obj 154 423 *~ 0.5;
#X obj 157 508 delread~ \$0-gggg 100;
#X obj 111 658 delwrite~ \$0-gggg 200;
#N canvas 0 50 450 300 lagfo 0;
#X obj 66 127 env~;
#X obj 74 58 cos~;
#X obj 71 81 sqrt~;
#X obj 68 105 sqrt~;
#X obj 75 37 phasor~ 0.03;
#X obj 77 7 inlet;
#X obj 65 197 outlet;
#X obj 65 168 line;
#X msg 65 148 \$1 3002;
#X connect 0 0 8 0;
#X connect 1 0 2 0;
#X connect 2 0 3 0;
#X connect 3 0 0 0;
#X connect 4 0 1 0;
#X connect 5 0 4 0;
#X connect 7 0 6 0;
#X connect 8 0 7 0;
#X restore 160 559 pd lagfo;
#X msg 158 465 0.2;
#X msg 160 537 0.13;
#N canvas 0 50 450 300 lagfo 0;
#X obj 66 127 env~;
#X obj 74 58 cos~;
#X obj 71 81 sqrt~;
#X obj 68 105 sqrt~;
#X obj 75 37 phasor~ 0.03;
#X obj 77 7 inlet;
#X obj 65 197 outlet;
#X obj 65 168 line;
#X msg 65 148 \$1 3002;
#X connect 0 0 8 0;
#X connect 1 0 2 0;
#X connect 2 0 3 0;
#X connect 3 0 0 0;
#X connect 4 0 1 0;
#X connect 5 0 4 0;
#X connect 7 0 6 0;
#X connect 8 0 7 0;
#X restore 158 486 pd lagfo;
#X obj 154 402 *~;
#N canvas 0 50 450 300 enver 0;
#X obj 79 137 line~;
#X msg 66 38 bang;
#X obj 77 160 *~;
#X obj 78 181 *~;
#X obj 66 13 inlet;
#X obj 78 205 outlet~;
#X obj 109 115 pack 1 2;
#X msg 105 92 0;
#X obj 159 11 inlet;
#X msg 66 92 1 1;
#X obj 105 71 del 2;
#X connect 0 0 2 0;
#X connect 0 0 2 1;
#X connect 1 0 9 0;
#X connect 1 0 10 0;
#X connect 2 0 3 0;
#X connect 2 0 3 1;
#X connect 3 0 5 0;
#X connect 4 0 1 0;
#X connect 6 0 0 0;
#X connect 7 0 6 0;
#X connect 8 0 6 1;
#X connect 9 0 0 0;
#X connect 10 0 7 0;
#X restore 153 341 pd enver;
#X obj 41 201 f;
#X obj 70 201 f;
#X obj 99 201 f;
#X obj 128 201 f;
#X obj 156 200 f;
#X obj 185 200 f;
#X obj 214 200 f;
#X obj 243 200 f;
#X obj 273 200 f;
#X obj 302 200 f;
#X obj 331 200 f;
#X obj 123 122 random 12;
#X obj 121 143 select 0 1 2 3 4 5 6 7 8 9 10;
#X obj 169 244 mtof;
#X obj 253 264 + 3;
#X obj 134 611 *~ 0.063;
#X obj 72 610 *~ 0.063;
#X obj 75 54 t b b b b;
#X obj 170 223 mod 12;
#X obj 169 289 *~ 8;
#X msg 205 274 6000;
#X obj 153 367 *~;
#X connect 0 0 1 0;
#X connect 1 0 30 1;
#X connect 1 1 31 1;
#X connect 1 2 32 1;
#X connect 1 3 33 1;
#X connect 1 4 34 1;
#X connect 1 5 35 1;
#X connect 1 6 36 1;
#X connect 1 7 37 1;
#X connect 1 8 38 1;
#X connect 1 9 39 1;
#X connect 1 10 40 1;
#X connect 2 0 7 0;
#X connect 3 0 8 1;
#X connect 3 0 9 0;
#X connect 3 0 10 0;
#X connect 4 0 5 0;
#X connect 4 0 26 0;
#X connect 4 0 25 0;
#X connect 5 0 6 0;
#X connect 6 0 2 0;
#X connect 7 0 3 0;
#X connect 8 0 11 0;
#X connect 9 0 8 0;
#X connect 10 0 12 0;
#X connect 11 0 14 0;
#X connect 12 0 13 1;
#X connect 13 0 23 0;
#X connect 13 0 46 0;
#X connect 14 0 15 1;
#X connect 15 0 23 0;
#X connect 15 0 45 0;
#X connect 18 0 47 0;
#X connect 19 0 28 1;
#X connect 20 0 45 0;
#X connect 21 0 13 0;
#X connect 21 0 15 0;
#X connect 22 0 46 0;
#X connect 24 0 20 0;
#X connect 25 0 27 0;
#X connect 26 0 24 0;
#X connect 27 0 22 0;
#X connect 28 0 21 0;
#X connect 29 0 51 0;
#X connect 29 0 51 1;
#X connect 30 0 48 0;
#X connect 31 0 48 0;
#X connect 32 0 48 0;
#X connect 33 0 48 0;
#X connect 34 0 48 0;
#X connect 35 0 48 0;
#X connect 36 0 48 0;
#X connect 37 0 48 0;
#X connect 38 0 48 0;
#X connect 39 0 48 0;
#X connect 40 0 48 0;
#X connect 41 0 42 0;
#X connect 42 0 30 0;
#X connect 42 1 31 0;
#X connect 42 2 32 0;
#X connect 42 3 33 0;
#X connect 42 4 34 0;
#X connect 42 5 35 0;
#X connect 42 6 36 0;
#X connect 42 7 37 0;
#X connect 42 8 38 0;
#X connect 42 9 39 0;
#X connect 42 10 40 0;
#X connect 43 0 49 0;
#X connect 45 0 17 0;
#X connect 46 0 16 0;
#X connect 47 1 29 0;
#X connect 47 2 50 0;
#X connect 47 3 41 0;
#X connect 48 0 43 0;
#X connect 49 0 19 0;
#X connect 50 0 29 1;
#X connect 51 0 28 0;
#X restore 72 241 pd arper;
#X obj 550 647 vcf~ 100 0.7;
#X obj 671 582 phasor~ 0.456;
#X obj 669 623 +~ 300;
#N canvas 0 50 450 300 deldele 0;
#X obj 55 136 +~;
#X obj 68 39 +~;
#X obj 79 110 *~ 0.6;
#X obj 54 16 inlet~;
#X obj 55 157 outlet~;
#X obj 120 16 inlet;
#X obj 70 59 delwrite~ \$0-eeee 500;
#X obj 95 88 delread~ \$0-eeee 250;
#X connect 0 0 4 0;
#X connect 1 0 6 0;
#X connect 2 0 0 1;
#X connect 2 0 1 0;
#X connect 3 0 1 1;
#X connect 3 0 0 0;
#X connect 5 0 7 0;
#X connect 7 0 2 0;
#X restore 550 610 pd deldele;
#X msg 617 585 375;
#X obj 672 603 *~ 5000;
#X msg 635 622 0.9;
#X obj 550 681 *~ 0.73;
#X text 583 519 drums;
#X text 493 667 pitch sweepers;
#X obj 627 553 loadbang;
#X obj 71 432 outlet~;
#X obj 124 433 outlet~;
#X obj 123 219 inlet;
#X obj 72 48 r \$0-time;
#X obj 72 288 cos~;
#X obj 72 266 *~ 8;
#X obj 71 310 hip~ 12;
#X obj 72 332 clip~ -1 1;
#X obj 72 355 *~ 0.3;
#X obj 123 285 *~ 6;
#X obj 72 160 mod 2;
#X obj 72 180 sel 1;
#X obj 72 201 random 2;
#X obj 72 221 sel 0;
#X obj 102 113 > 2;
#X obj 102 135 + 1;
#X obj 72 71 t f b f;
#X obj 133 135 sel 1;
#X obj 102 92 random 5;
#X obj 133 112 == 4;
#X obj 192 107 tgl 15 0 empty empty empty 0 -6 0 8 -260818 -1 -1 0
0.6;
#X obj 72 399 *~;
#X obj 124 399 *~;
#X obj 198 181 line~;
#X msg 198 159 \$1 200;
#X obj 198 135 r \$0-bass-M;
#X connect 0 0 17 0;
#X connect 0 1 21 0;
#X connect 1 0 8 0;
#X connect 2 0 6 0;
#X connect 3 0 1 1;
#X connect 4 0 1 0;
#X connect 5 0 4 1;
#X connect 6 0 3 0;
#X connect 7 0 1 2;
#X connect 11 0 5 0;
#X connect 11 0 7 0;
#X connect 14 0 0 1;
#X connect 15 0 28 0;
#X connect 16 0 18 0;
#X connect 17 0 16 0;
#X connect 18 0 19 0;
#X connect 19 0 20 0;
#X connect 20 0 33 0;
#X connect 21 0 33 0;
#X connect 21 0 34 0;
#X connect 22 0 23 0;
#X connect 23 0 24 0;
#X connect 24 0 25 0;
#X connect 25 0 0 0;
#X connect 26 0 27 0;
#X connect 27 0 22 1;
#X connect 28 0 22 0;
#X connect 28 1 30 0;
#X connect 29 0 24 0;
#X connect 30 0 26 0;
#X connect 30 0 31 0;
#X connect 31 0 29 0;
#X connect 32 0 36 0;
#X connect 33 0 12 0;
#X connect 34 0 13 0;
#X connect 35 0 34 1;
#X connect 35 0 33 1;
#X connect 36 0 35 0;
#X connect 37 0 36 0;
#X coords 0 -1 1 1 120 30 1 100 100;
#X restore 424 68 pd bazor;
#N canvas 255 50 423 702 pchime 0;
#N canvas 647 50 461 535 3cosynth 0;
#X obj 129 318 osc~;
#X obj 129 345 *~ 0.09;
#X obj 228 318 osc~;
#X obj 350 318 osc~;
#X obj 228 345 *~ 0.05;
#X obj 350 347 *~ 0.02;
#X obj 228 294 *;
#X obj 350 294 *;
#X obj 243 264 * 4;
#X obj 364 264 * 8;
#X obj 129 394 clip~ -0.1 0.1;
#X msg 5 152 0;
#X obj 114 426 *~;
#X msg 20 252 1 10;
#X obj 49 100 mtof;
#X obj 49 11 inlet;
#X obj -15 282 line;
#X obj 176 494 outlet~;
#X obj -15 126 t;
#X obj 0 228 pack 0 1;
#X obj 0 204 del 1;
#X obj 176 468 *~;
#X obj 49 41 unpack 1 2 3 4 5 6 7 8 9;
#X text 92 9 (note \, l0 \, l1 \, l2 \, f1 \, f2 \, A \, D \, Amp)
;
#X obj -15 177 pack 1 1;
#X connect 0 0 1 0;
#X connect 1 0 10 0;
#X connect 2 0 4 0;
#X connect 3 0 5 0;
#X connect 4 0 10 0;
#X connect 5 0 10 0;
#X connect 6 0 2 0;
#X connect 7 0 3 0;
#X connect 8 0 6 1;
#X connect 9 0 7 1;
#X connect 10 0 12 1;
#X connect 12 0 21 0;
#X connect 13 0 16 0;
#X connect 14 0 0 0;
#X connect 14 0 6 0;
#X connect 14 0 7 0;
#X connect 14 0 18 0;
#X connect 15 0 22 0;
#X connect 16 0 12 0;
#X connect 18 0 11 0;
#X connect 18 0 20 0;
#X connect 18 0 24 0;
#X connect 19 0 16 0;
#X connect 20 0 19 0;
#X connect 21 0 17 0;
#X connect 22 0 14 0;
#X connect 22 1 1 1;
#X connect 22 2 4 1;
#X connect 22 3 5 1;
#X connect 22 4 8 0;
#X connect 22 5 9 0;
#X connect 22 6 20 1;
#X connect 22 6 24 1;
#X connect 22 7 19 1;
#X connect 22 8 21 1;
#X connect 24 0 16 0;
#X restore 32 542 pd 3cosynth;
#N canvas 946 283 314 270 deldelb 0;
#X obj 14 216 +~;
#X obj 28 59 +~;
#X obj 14 16 inlet~;
#X obj 14 242 outlet~;
#X obj 170 16 inlet;
#X obj 170 89 delread~ \$0-bbbb 250;
#X obj 28 89 delwrite~ \$0-bbbb 1500;
#X obj 158 170 *~ 0.6;
#X connect 0 0 3 0;
#X connect 1 0 6 0;
#X connect 2 0 1 1;
#X connect 2 0 0 0;
#X connect 4 0 5 0;
#X connect 5 0 7 0;
#X connect 7 0 1 0;
#X connect 7 0 0 1;
#X restore 32 596 pd deldelb;
#X obj 47 197 f;
#X obj 74 197 f;
#X obj -8 198 f;
#X obj 19 198 f;
#X obj 162 145 unpack f f f f;
#X obj 162 52 inlet;
#X obj -8 52 inlet;
#X obj 32 666 outlet~;
#X obj 195 106 tgl 15 0 empty empty empty 0 -6 0 8 -260818 -1 -1 0
1;
#X obj 140 259 r \$0-period;
#X obj -8 78 mod 8;
#X obj 32 234 mod 12;
#X obj 59 446 *;
#X obj 87 446 *;
#X obj 86 371 swap 1;
#X obj 140 373 t f f f;
#X obj 59 305 random 100;
#X obj 59 326 / 100;
#X obj 32 279 t f b;
#X obj 59 348 t f f;
#X obj 87 396 -;
#X obj 140 350 * 4;
#X obj 140 564 * 2;
#X obj 32 476 pack f 10 600 1 800;
#X text 34 51 prophet chime;
#N canvas 642 398 127 153 1in2 0;
#X obj 55 59 random 2;
#X obj 22 82 spigot;
#X obj 22 36 t f b;
#X obj 22 13 inlet;
#X obj 22 105 outlet;
#X connect 0 0 1 1;
#X connect 1 0 4 0;
#X connect 2 0 1 0;
#X connect 2 1 0 0;
#X connect 3 0 2 0;
#X restore 47 145 pd 1in2;
#X obj -8 104 select 0 3 5 7;
#N canvas 770 398 267 189 1in3 0;
#X obj 21 86 spigot;
#X obj 21 40 t f b;
#X obj 21 17 inlet;
#X obj 21 110 outlet;
#X obj 54 63 random 3;
#X connect 0 0 3 0;
#X connect 1 0 0 0;
#X connect 1 1 4 0;
#X connect 2 0 1 0;
#X connect 4 0 0 1;
#X restore 102 145 pd 1in3;
#X obj 32 257 + 48;
#X msg 32 508 \$1 \$2 0.353 0.172 0.9 \$3 \$4 \$5 0.17;
#X obj 195 596 line~;
#X msg 195 574 \$1 600;
#X obj 32 639 *~;
#X obj 208 542 r \$0-pchime-M;
#X connect 0 0 1 0;
#X connect 1 0 34 0;
#X connect 2 0 13 0;
#X connect 3 0 13 0;
#X connect 4 0 13 0;
#X connect 5 0 13 0;
#X connect 6 0 4 1;
#X connect 6 1 5 1;
#X connect 6 2 2 1;
#X connect 6 3 3 1;
#X connect 7 0 6 0;
#X connect 8 0 12 0;
#X connect 10 0 33 0;
#X connect 11 0 23 0;
#X connect 12 0 28 0;
#X connect 13 0 30 0;
#X connect 14 0 25 1;
#X connect 15 0 25 2;
#X connect 16 0 22 0;
#X connect 16 1 22 1;
#X connect 17 0 24 0;
#X connect 17 1 14 1;
#X connect 17 2 15 1;
#X connect 18 0 19 0;
#X connect 19 0 21 0;
#X connect 20 0 25 0;
#X connect 20 1 18 0;
#X connect 21 0 14 0;
#X connect 21 1 16 0;
#X connect 22 0 15 0;
#X connect 23 0 17 0;
#X connect 24 0 1 1;
#X connect 25 0 31 0;
#X connect 27 0 2 0;
#X connect 28 0 4 0;
#X connect 28 1 5 0;
#X connect 28 2 27 0;
#X connect 28 3 29 0;
#X connect 29 0 3 0;
#X connect 30 0 20 0;
#X connect 31 0 0 0;
#X connect 32 0 34 1;
#X connect 33 0 32 0;
#X connect 34 0 9 0;
#X connect 35 0 33 0;
#X coords 0 -1 1 1 120 30 1 100 100;
#X restore 421 309 pd pchime;
#N canvas 0 50 767 915 guitar 0;
#N canvas 0 50 454 348 delement1 0;
#X obj 142 242 +~;
#X obj 189 133 hip~ 10;
#X obj 141 88 inlet~;
#X obj 248 230 outlet~;
#X obj 236 87 inlet;
#X obj 142 314 delwrite~ aa1 100;
#X obj 189 87 inlet;
#X obj 189 110 delread~ aa1 50;
#X obj 189 154 *~ 0.3;
#X obj 277 88 inlet;
#X obj 261 140 * 2;
#X obj 143 275 clip~ -0.99 0.99;
#X connect 0 0 11 0;
#X connect 1 0 3 0;
#X connect 1 0 8 0;
#X connect 2 0 0 0;
#X connect 4 0 8 1;
#X connect 6 0 7 0;
#X connect 7 0 1 0;
#X connect 8 0 0 1;
#X connect 9 0 10 0;
#X connect 11 0 5 0;
#X coords 0 0 1 1 85 60 0;
#X restore 65 473 pd delement1;
#N canvas 0 50 450 300 mtoms 0;
#X obj 174 123 mtof;
#X obj 174 188 * 1000;
#X obj 174 165 * 0.25;
#X obj 174 144 pow -1;
#X obj 174 101 inlet;
#X obj 174 253 outlet;
#X connect 0 0 3 0;
#X connect 1 0 5 0;
#X connect 2 0 1 0;
#X connect 3 0 2 0;
#X connect 4 0 0 0;
#X restore 181 364 pd mtoms;
#X obj 162 330 t b f f f;
#X obj 44 754 outlet~;
#X obj 8 -60 inlet;
#X obj 187 110 tgl 15 0 empty empty empty 0 -6 0 8 -260818 -1 -1 0
0.2;
#X obj 162 296 - 60;
#X obj 247 363 mtof;
#X obj 65 605 cos~;
#X obj 66 521 hip~ 2;
#X obj 66 543 clip~ -1 1;
#X obj 66 586 +~ 0.25;
#X obj 66 564 *~ 0.25;
#X obj 66 641 vcf~;
#X obj 68 348 *~;
#X obj 67 372 *~;
#X obj 65 394 *~;
#X obj 64 418 *~;
#X obj 176 504 +~;
#X obj 175 480 *~;
#X obj 23 351 sqrt~;
#X obj 49 668 *~;
#X obj 67 318 ead~ 1 2000;
#X obj 327 252 swap 1;
#X obj 329 276 -;
#X obj 301 227 * 2000;
#X obj 284 179 inlet;
#X obj 284 203 t f f f;
#X obj 227 72 unpack f f f f f f f f;
#X obj 226 117 f;
#X obj 256 117 f;
#X obj 286 117 f;
#X obj 313 118 f;
#X obj 343 118 f;
#X obj 373 118 f;
#X obj 314 153 t b f;
#X obj 250 -203 r \$0-dtime;
#X obj 48 689 clip~ -1 1;
#X obj 278 44 sel 0 1 2 3 4 5;
#X obj 279 -119 * 6.242;
#X obj 279 -99 cos;
#X obj 279 -78 + 1;
#X obj 279 -38 int;
#X obj 278 -17 change;
#X obj 262 7 f;
#X obj 279 -58 * 3;
#X obj 250 -181 t b f f;
#X obj 330 -139 sel 0;
#X floatatom 143 114 5 0 0 0 - - -, f 5;
#X obj 65 446 *~;
#X obj 416 46 inlet;
#X obj 150 578 *~;
#X obj 178 555 line~;
#X msg 178 534 \$1 1000;
#X obj 282 308 * 0.3;
#X obj 282 330 + 0.7;
#X msg 107 622 2;
#X obj 46 711 hip~ 50;
#X obj 459 46 inlet volume;
#X obj 44 733 *~;
#X obj 96 409 noise~;
#X obj 230 569 loadbang;
#X obj 329 299 * 2000;
#X obj 329 321 + 0;
#X obj 279 -159 mod 64;
#X obj 330 -160 mod 6;
#X floatatom 103 114 5 0 0 0 - - -, f 5;
#X obj 279 -139 / 32;
#X obj 52 243 line~;
#X msg 52 220 \$1 120;
#X obj 52 195 r \$0-guitar-M;
#X obj 66 498 *~;
#X obj 15 73 r \$0-guitar-s1;
#X obj 120 72 r \$0-guitar-s2;
#X connect 0 0 71 0;
#X connect 1 0 0 1;
#X connect 2 0 22 0;
#X connect 2 1 1 0;
#X connect 2 2 7 0;
#X connect 4 0 28 0;
#X connect 5 0 69 0;
#X connect 6 0 2 0;
#X connect 7 0 0 3;
#X connect 7 0 18 1;
#X connect 8 0 13 0;
#X connect 9 0 10 0;
#X connect 10 0 12 0;
#X connect 11 0 8 0;
#X connect 12 0 11 0;
#X connect 13 0 21 1;
#X connect 14 0 15 0;
#X connect 14 0 15 1;
#X connect 15 0 16 0;
#X connect 15 0 16 1;
#X connect 16 0 17 0;
#X connect 17 0 49 0;
#X connect 18 0 51 0;
#X connect 19 0 18 0;
#X connect 20 0 21 0;
#X connect 21 0 37 0;
#X connect 22 0 14 0;
#X connect 22 0 14 1;
#X connect 22 0 19 0;
#X connect 22 0 20 0;
#X connect 23 0 24 0;
#X connect 23 1 24 1;
#X connect 24 0 54 0;
#X connect 24 0 62 0;
#X connect 25 0 22 2;
#X connect 26 0 27 0;
#X connect 27 0 0 2;
#X connect 27 1 25 0;
#X connect 27 2 23 0;
#X connect 28 0 29 1;
#X connect 28 1 30 1;
#X connect 28 2 31 1;
#X connect 28 3 32 1;
#X connect 28 4 33 1;
#X connect 28 5 34 1;
#X connect 29 0 35 0;
#X connect 30 0 35 0;
#X connect 31 0 35 0;
#X connect 32 0 35 0;
#X connect 33 0 35 0;
#X connect 34 0 35 0;
#X connect 35 1 6 0;
#X connect 36 0 46 0;
#X connect 37 0 57 0;
#X connect 38 0 29 0;
#X connect 38 1 30 0;
#X connect 38 2 31 0;
#X connect 38 3 32 0;
#X connect 38 4 33 0;
#X connect 38 5 34 0;
#X connect 39 0 40 0;
#X connect 40 0 41 0;
#X connect 41 0 45 0;
#X connect 42 0 43 0;
#X connect 43 0 44 1;
#X connect 44 0 38 0;
#X connect 45 0 42 0;
#X connect 46 1 64 0;
#X connect 46 2 65 0;
#X connect 47 0 44 0;
#X connect 48 0 64 1;
#X connect 48 0 67 1;
#X connect 49 0 0 0;
#X connect 50 0 53 0;
#X connect 51 0 13 1;
#X connect 52 0 51 1;
#X connect 53 0 52 0;
#X connect 54 0 55 0;
#X connect 55 0 49 1;
#X connect 56 0 13 2;
#X connect 57 0 59 0;
#X connect 58 0 59 1;
#X connect 59 0 3 0;
#X connect 60 0 17 1;
#X connect 61 0 56 0;
#X connect 62 0 63 0;
#X connect 63 0 19 1;
#X connect 64 0 67 0;
#X connect 65 0 47 0;
#X connect 66 0 65 1;
#X connect 67 0 39 0;
#X connect 68 0 71 1;
#X connect 69 0 68 0;
#X connect 70 0 69 0;
#X connect 71 0 9 0;
#X connect 72 0 66 0;
#X connect 73 0 48 0;
#X coords 0 -1 1 1 120 30 1 100 100;
#X restore 714 308 pd guitar;
#N canvas 0 50 375 513 saw 0;
#N canvas 0 50 588 523 3cosynth 0;
#X obj 94 226 osc~;
#X obj 95 253 *~ 0.09;
#X obj 138 222 osc~;
#X obj 190 223 osc~;
#X obj 154 253 *~ 0.05;
#X obj 216 255 *~ 0.02;
#X obj 141 170 *;
#X obj 192 172 *;
#X obj 154 141 * 4;
#X obj 206 142 * 8;
#X obj 151 292 clip~ -0.1 0.1;
#X msg 10 193 0;
#X obj 132 314 *~;
#X msg 6 253 1 10;
#X obj 18 78 mtof;
#X obj 69 38 inlet;
#X obj 26 300 line;
#X obj 132 362 outlet~;
#X obj 3 163 t;
#X obj 1 215 pack 1 1;
#X obj 48 276 pack 0 1;
#X obj 27 235 del 1;
#X obj 132 336 *~;
#X obj 67 59 unpack 1 2 3 4 5 6 7 8 9;
#X text 65 8 (note \, l0 \, l1 \, l2 \, f1 \, f2 \, A \, D \, Amp)
;
#X connect 0 0 1 0;
#X connect 1 0 10 0;
#X connect 2 0 4 0;
#X connect 3 0 5 0;
#X connect 4 0 10 0;
#X connect 5 0 10 0;
#X connect 6 0 2 0;
#X connect 7 0 3 0;
#X connect 8 0 6 1;
#X connect 9 0 7 1;
#X connect 10 0 12 1;
#X connect 12 0 22 0;
#X connect 13 0 16 0;
#X connect 14 0 0 0;
#X connect 14 0 6 0;
#X connect 14 0 7 0;
#X connect 14 0 18 0;
#X connect 15 0 23 0;
#X connect 16 0 12 0;
#X connect 18 0 11 0;
#X connect 18 0 19 0;
#X connect 18 0 21 0;
#X connect 19 0 16 0;
#X connect 20 0 16 0;
#X connect 21 0 20 0;
#X connect 22 0 17 0;
#X connect 23 0 14 0;
#X connect 23 1 1 1;
#X connect 23 2 4 1;
#X connect 23 3 5 1;
#X connect 23 4 8 0;
#X connect 23 5 9 0;
#X connect 23 6 19 1;
#X connect 23 6 21 1;
#X connect 23 7 20 1;
#X connect 23 8 22 1;
#X restore 66 280 pd 3cosynth;
#N canvas 0 50 450 300 deldela 0;
#X obj 55 136 +~;
#X obj 68 39 +~;
#X obj 54 16 inlet~;
#X obj 55 157 outlet~;
#X obj 120 16 inlet;
#X obj 95 88 delread~ \$0-aaaa 250;
#X obj 70 59 delwrite~ \$0-aaaa 1200;
#X obj 79 110 *~ 0.75;
#X connect 0 0 3 0;
#X connect 1 0 6 0;
#X connect 2 0 1 1;
#X connect 2 0 0 0;
#X connect 4 0 5 0;
#X connect 5 0 7 0;
#X connect 7 0 0 1;
#X connect 7 0 1 0;
#X restore 64 416 pd deldela;
#X obj 106 332 *~ 1000;
#X obj 104 352 +~ 100;
#X obj 65 375 vcf~ 100 0.7;
#X obj 106 312 phasor~ 0.212;
#X msg 150 352 0.3;
#X obj 26 185 f;
#X obj 65 185 f;
#X obj 148 281 loadbang;
#X obj 64 473 outlet~;
#X obj 42 133 unpack f f f;
#X obj 106 162 f;
#X obj 42 101 inlet;
#X obj 26 15 inlet;
#X obj 26 44 mod 8;
#X obj 106 184 + 12;
#X obj 26 78 sel 0 1 2 3 4 5 6 7;
#X msg 65 257 \$1 0.398 0.5 0.5 0.25 0.251 4 350 0.9;
#X msg 130 395 875;
#X obj 195 108 tgl 15 0 empty empty empty 0 -6 0 8 -260818 -1 -1 0
0.4;
#X obj 65 224 - 12;
#X obj 196 164 line~;
#X msg 197 142 \$1 2000;
#X obj 64 438 *~;
#X obj 227 120 r \$0-sawpno-M;
#X connect 0 0 4 0;
#X connect 1 0 24 0;
#X connect 2 0 3 0;
#X connect 3 0 4 1;
#X connect 4 0 1 0;
#X connect 5 0 2 0;
#X connect 6 0 4 2;
#X connect 7 0 21 0;
#X connect 8 0 21 0;
#X connect 9 0 6 0;
#X connect 9 0 19 0;
#X connect 11 0 7 1;
#X connect 11 1 8 1;
#X connect 11 2 12 1;
#X connect 12 0 16 0;
#X connect 13 0 11 0;
#X connect 14 0 15 0;
#X connect 15 0 17 0;
#X connect 16 0 21 0;
#X connect 17 0 7 0;
#X connect 17 5 8 0;
#X connect 17 6 12 0;
#X connect 18 0 0 0;
#X connect 19 0 1 1;
#X connect 20 0 23 0;
#X connect 21 0 18 0;
#X connect 22 0 24 1;
#X connect 23 0 22 0;
#X connect 24 0 10 0;
#X connect 25 0 23 0;
#X coords 0 -1 1 1 120 30 1 100 100;
#X restore 572 309 pd saw piano;
#N canvas 62 52 898 722 score 0;
#X obj 8 -66 r \$0-time;
#N canvas 712 465 559 300 route 0;
#X obj 284 212 s \$0-stplks-M;
#X obj 329 256 s \$0-slider-M;
#X obj 306 234 s \$0-sawpno-M;
#X obj 193 127 s \$0-oboe-M;
#X obj 216 148 s \$0-guitar-M;
#X obj 239 169 s \$0-pads-M;
#X obj 261 190 s \$0-pchime-M;
#X obj 171 105 s \$0-bass-M;
#X obj 13 105 s \$0-drum1-M;
#X obj 35 130 s \$0-drum2-M;
#X obj 58 154 s \$0-drum3-M;
#X obj 80 181 s \$0-drum4-M;
#X obj 103 205 s \$0-drum5-M;
#X obj 126 232 s \$0-drum6-M;
#X obj 148 257 s \$0-drum7-M;
#X obj 13 34 route drum1 drum2 drum3 drum4 drum5 drum6 drum7 bass oboe
guitar pads pchime plucks piano slider;
#X obj 13 9 inlet;
#X obj 352 90 route guitarspeed1 guitarspeed2;
#X obj 352 120 s \$0-guitar-s1;
#X obj 443 120 s \$0-guitar-s2;
#X connect 15 0 8 0;
#X connect 15 1 9 0;
#X connect 15 2 10 0;
#X connect 15 3 11 0;
#X connect 15 4 12 0;
#X connect 15 5 13 0;
#X connect 15 6 14 0;
#X connect 15 7 7 0;
#X connect 15 8 3 0;
#X connect 15 9 4 0;
#X connect 15 10 5 0;
#X connect 15 11 6 0;
#X connect 15 12 0 0;
#X connect 15 13 2 0;
#X connect 15 14 1 0;
#X connect 15 15 17 0;
#X connect 16 0 15 0;
#X connect 17 0 18 0;
#X connect 17 1 19 0;
#X restore 435 -44 pd route parameters;
#X text 385 91 all off;
#X obj 435 -66 r mixtab;
#X msg 9 140 \; mixtab oboe 0.5;
#X msg 137 132 \; mixtab oboe 0;
#X msg 137 172 \; mixtab guitar 0;
#X msg 9 173 \; mixtab guitar 0.3;
#X msg 139 215 \; mixtab pads 0;
#X msg 8 214 \; mixtab pads 1;
#X msg 10 257 \; mixtab pchime 0.9;
#X msg 147 256 \; mixtab pchime 0;
#X msg 10 299 \; mixtab plucks 0.7;
#X msg 147 301 \; mixtab plucks 0;
#X msg 145 339 \; mixtab piano 0;
#X msg 10 337 \; mixtab piano 0.5;
#X msg 148 376 \; mixtab slider 0;
#X msg 10 414 \; mixtab drum1 1 \, drum2 0 \, drum3 0 \, drum4 0 \,
drum5 0 \, drum6 0 \, drum7 0;
#X msg 10 474 \; mixtab drum1 1 \, drum2 0 \, drum3 1 \, drum4 0 \,
drum5 0 \, drum6 0 \, drum7 0;
#X msg 11 528 \; mixtab drum1 1 \, drum2 0 \, drum3 1 \, drum4 1 \,
drum5 0 \, drum6 0 \, drum7 0;
#X msg 11 578 \; mixtab drum1 1 \, drum2 0 \, drum3 1 \, drum4 1 \,
drum5 0 \, drum6 1 \, drum7 0;
#X msg 431 417 \; mixtab drum1 0 \, drum2 1 \, drum3 0 \, drum4 0 \,
drum5 1 \, drum6 1 \, drum7 0;
#X msg 432 477 \; mixtab drum1 1 \, drum2 1 \, drum3 1 \, drum4 1 \,
drum5 1 \, drum6 1 \, drum7 1;
#X msg 431 532 \; mixtab drum1 0 \, drum2 1 \, drum3 0 \, drum4 0 \,
drum5 1 \, drum6 1 \, drum7 1;
#X obj 8 -5 mod 2048;
#X floatatom 94 -5 5 0 0 0 - - -, f 5;
#X msg 264 171 \; mixtab guitarspeed1 4 \, guitarspeed2 5;
#X msg 10 70 \; mixtab drum1 0 \, drum2 0 \, drum3 0 \, drum4 0 \,
drum5 0 \, drum6 0 \, drum7 0 \, bass 0 \, oboe 0 \, guitar 0 \, pads
0 \, pchime 0 \, plucks 0 \, piano 0 \, slider 0 \, guitarspeed1 12
\, guitarspeed2 3;
#X msg 276 254 \; mixtab bass 1;
#X msg 11 376 \; mixtab slider 0.7;
#X obj 8 30 select 0 64 128 144 160 224 280 300 320 384 400 432 464
480 502 512 640 672 720 864 880 1024 1060 1080 1200 1256;
#X msg 537 169 \; mixtab guitarspeed1 4 \, guitarspeed2 8;
#X obj 8 -33 spigot;
#X obj 74 -60 tgl 15 1 empty empty manual_override 0 -6 0 8 -260818
-1 -1 0 1;
#X msg 537 109 \; mixtab guitarspeed1 2;
#X msg 567 73 \; mixtab guitarspeed1 3;
#X msg 711 73 \; mixtab guitarspeed1 4;
#X msg 711 36 \; mixtab guitarspeed1 8;
#X obj 537 26 select 96 100 112 120;
#X text 536 4 guitar decel;
#X text 500 -67 all dispatched from here;
#X text 220 -51 rough new arrangement nove 2006;
#X connect 0 0 32 0;
#X connect 3 0 1 0;
#X connect 24 0 30 0;
#X connect 24 0 38 0;
#X connect 24 0 25 0;
#X connect 30 0 27 0;
#X connect 30 0 4 0;
#X connect 30 0 9 0;
#X connect 30 1 7 0;
#X connect 30 1 8 0;
#X connect 30 2 9 0;
#X connect 30 3 8 0;
#X connect 30 4 5 0;
#X connect 30 4 10 0;
#X connect 30 4 17 0;
#X connect 30 5 12 0;
#X connect 30 5 26 0;
#X connect 30 6 9 0;
#X connect 30 6 18 0;
#X connect 30 7 8 0;
#X connect 30 8 13 0;
#X connect 30 8 6 0;
#X connect 30 8 4 0;
#X connect 30 8 19 0;
#X connect 30 9 11 0;
#X connect 30 10 13 0;
#X connect 30 10 5 0;
#X connect 30 10 15 0;
#X connect 30 11 14 0;
#X connect 30 11 20 0;
#X connect 30 11 9 0;
#X connect 30 12 29 0;
#X connect 30 13 22 0;
#X connect 30 13 28 0;
#X connect 30 13 31 0;
#X connect 30 14 15 0;
#X connect 30 15 4 0;
#X connect 30 15 12 0;
#X connect 30 16 23 0;
#X connect 30 17 14 0;
#X connect 30 17 7 0;
#X connect 30 18 5 0;
#X connect 30 19 15 0;
#X connect 30 20 14 0;
#X connect 30 20 4 0;
#X connect 30 21 21 0;
#X connect 30 21 11 0;
#X connect 30 21 14 0;
#X connect 30 21 16 0;
#X connect 30 21 8 0;
#X connect 30 22 16 0;
#X connect 30 22 14 0;
#X connect 30 22 13 0;
#X connect 30 22 11 0;
#X connect 30 22 6 0;
#X connect 30 22 9 0;
#X connect 30 22 4 0;
#X connect 30 23 18 0;
#X connect 30 24 17 0;
#X connect 30 25 27 0;
#X connect 32 0 24 0;
#X connect 33 0 32 1;
#X connect 38 0 34 0;
#X connect 38 1 35 0;
#X connect 38 2 36 0;
#X connect 38 3 37 0;
#X restore 11 214 pd score mix;
#X obj 424 132 throw~ \$0-left;
#X obj 434 110 throw~ \$0-right;
#X obj 213 132 throw~ \$0-left;
#X obj 229 110 throw~ \$0-right;
#X obj 202 155 s~ \$0-drvb;
#X obj 283 374 throw~ \$0-left;
#X obj 309 352 throw~ \$0-right;
#X obj 148 351 throw~ \$0-left;
#X obj 138 374 throw~ \$0-right;
#X obj 593 352 throw~ \$0-left;
#X obj 582 374 throw~ \$0-right;
#X obj 577 132 throw~ \$0-left;
#X obj 586 110 throw~ \$0-right;
#X obj 564 155 s~ \$0-strvb;
#X obj 714 398 s~ \$0-cartvb;
#X obj 735 352 throw~ \$0-left;
#X obj 725 375 throw~ \$0-right;
#X obj 733 112 throw~ \$0-left;
#X obj 724 133 throw~ \$0-right;
#X obj 714 155 s~ \$0-oboevb;
#X obj 429 456 r~ \$0-oboevb;
#X obj 520 455 r~ \$0-strvb;
#X obj 605 454 r~ \$0-cartvb;
#X obj 696 453 r~ \$0-drvb;
#X obj 17 472 catch~ \$0-left;
#X obj 122 472 catch~ \$0-right;
#X obj 432 353 throw~ \$0-left;
#X obj 421 374 throw~ \$0-right;
#X msg 11 98 0;
#X obj 11 43 loadbang;
#X msg 44 99 1;
#X obj 11 68 del 500;
#X obj 65 68 del 500;
#X connect 0 0 43 0;
#X connect 0 1 44 0;
#X connect 3 0 40 0;
#X connect 3 0 42 0;
#X connect 3 1 41 0;
#X connect 3 1 42 0;
#X connect 4 0 0 0;
#X connect 5 0 12 0;
#X connect 6 0 12 1;
#X connect 7 0 8 0;
#X connect 8 0 45 0;
#X connect 8 0 46 0;
#X connect 9 0 8 1;
#X connect 10 0 36 1;
#X connect 11 0 36 0;
#X connect 12 0 49 0;
#X connect 12 0 50 0;
#X connect 12 0 51 0;
#X connect 13 0 34 1;
#X connect 16 0 33 0;
#X connect 18 0 55 0;
#X connect 18 0 56 0;
#X connect 18 0 57 0;
#X connect 19 0 18 0;
#X connect 21 0 20 0;
#X connect 22 0 20 0;
#X connect 23 0 20 0;
#X connect 24 0 35 0;
#X connect 25 0 35 1;
#X connect 27 0 20 0;
#X connect 29 0 28 0;
#X connect 30 0 34 0;
#X connect 31 0 35 2;
#X connect 32 0 35 3;
#X connect 33 0 38 0;
#X connect 33 1 39 0;
#X connect 34 0 64 0;
#X connect 34 0 65 0;
#X connect 35 0 52 0;
#X connect 35 0 53 0;
#X connect 35 0 54 0;
#X connect 36 0 26 0;
#X connect 36 0 47 0;
#X connect 36 0 48 0;
#X connect 58 0 21 0;
#X connect 59 0 22 0;
#X connect 60 0 23 0;
#X connect 61 0 27 0;
#X connect 62 0 1 0;
#X connect 63 0 2 0;
#X connect 66 0 28 0;
#X connect 67 0 69 0;
#X connect 68 0 28 0;
#X connect 69 0 66 0;
#X connect 69 0 70 0;
#X connect 70 0 68 0;
#X restore 30 38 pd pokesdown2;
#X connect 1 0 4 0;
#X connect 4 0 0 0;
#X connect 4 1 0 1;
#X connect 4 2 2 0;
