#N canvas 2 4 291 133 10;
#X obj 134 78 dac~;
#X msg 130 15 stop;
#X obj 16 15 loadbang;
#X msg 16 36 \; pd dsp 1;
#N canvas 0 0 997 661 warning_ugly_mess_inside 0;
#X obj 363 1 inlet;
#X obj 397 151 f 0;
#X obj 397 175 + 1;
#X obj 399 211 mod 8;
#X obj 399 233 select 0 1 2 3 4 5 6 7;
#X obj 185 268 select 0 1 2 3 4 5 6 7;
#X obj 185 242 mod 16;
#X obj 132 299 select 8 9 10 11 12 13 14 15;
#N canvas 0 0 588 523 3cosynth 0;
#X obj 94 226 osc~;
#X obj 95 253 *~ 0.09;
#X obj 138 222 osc~;
#X obj 190 223 osc~;
#X obj 154 253 *~ 0.05;
#X obj 216 255 *~ 0.02;
#X obj 141 170 *;
#X obj 192 172 *;
#X obj 154 141 * 4;
#X obj 206 142 * 8;
#X obj 151 292 clip~ -0.1 0.1;
#X msg 10 193 0;
#X obj 132 314 *~;
#X msg 6 253 1 10;
#X obj 18 78 mtof;
#X obj 69 38 inlet;
#X obj 26 300 line;
#X obj 132 362 outlet~;
#X obj 3 163 t;
#X obj 1 215 pack 1 1;
#X obj 48 276 pack 0 1;
#X obj 27 235 del 1;
#X obj 132 336 *~;
#X obj 67 59 unpack 1 2 3 4 5 6 7 8 9;
#X text 65 8 (note \, l0 \, l1 \, l2 \, f1 \, f2 \, A \, D \, Amp)
;
#X connect 0 0 1 0;
#X connect 1 0 10 0;
#X connect 2 0 4 0;
#X connect 3 0 5 0;
#X connect 4 0 10 0;
#X connect 5 0 10 0;
#X connect 6 0 2 0;
#X connect 7 0 3 0;
#X connect 8 0 6 1;
#X connect 9 0 7 1;
#X connect 10 0 12 1;
#X connect 12 0 22 0;
#X connect 13 0 16 0;
#X connect 14 0 0 0;
#X connect 14 0 6 0;
#X connect 14 0 7 0;
#X connect 14 0 18 0;
#X connect 15 0 23 0;
#X connect 16 0 12 0;
#X connect 18 0 11 0;
#X connect 18 0 19 0;
#X connect 18 0 21 0;
#X connect 19 0 16 0;
#X connect 20 0 16 0;
#X connect 21 0 20 0;
#X connect 22 0 17 0;
#X connect 23 0 14 0;
#X connect 23 1 1 1;
#X connect 23 2 4 1;
#X connect 23 3 5 1;
#X connect 23 4 8 0;
#X connect 23 5 9 0;
#X connect 23 6 19 1;
#X connect 23 6 21 1;
#X connect 23 7 20 1;
#X connect 23 8 22 1;
#X restore 118 502 pd 3cosynth;
#X obj 112 413 - 12;
#N canvas 0 0 588 523 3cosynth 0;
#X obj 94 226 osc~;
#X obj 95 253 *~ 0.09;
#X obj 138 222 osc~;
#X obj 190 223 osc~;
#X obj 154 253 *~ 0.05;
#X obj 216 255 *~ 0.02;
#X obj 141 170 *;
#X obj 192 172 *;
#X obj 154 141 * 4;
#X obj 206 142 * 8;
#X obj 151 292 clip~ -0.1 0.1;
#X msg 10 193 0;
#X obj 132 314 *~;
#X msg 6 253 1 10;
#X obj 18 78 mtof;
#X obj 69 38 inlet;
#X obj 26 300 line;
#X obj 132 362 outlet~;
#X obj 3 163 t;
#X obj 1 215 pack 1 1;
#X obj 48 276 pack 0 1;
#X obj 27 235 del 1;
#X obj 132 336 *~;
#X obj 67 59 unpack 1 2 3 4 5 6 7 8 9;
#X text 65 8 (note \, l0 \, l1 \, l2 \, f1 \, f2 \, A \, D \, Amp)
;
#X connect 0 0 1 0;
#X connect 1 0 10 0;
#X connect 2 0 4 0;
#X connect 3 0 5 0;
#X connect 4 0 10 0;
#X connect 5 0 10 0;
#X connect 6 0 2 0;
#X connect 7 0 3 0;
#X connect 8 0 6 1;
#X connect 9 0 7 1;
#X connect 10 0 12 1;
#X connect 12 0 22 0;
#X connect 13 0 16 0;
#X connect 14 0 0 0;
#X connect 14 0 6 0;
#X connect 14 0 7 0;
#X connect 14 0 18 0;
#X connect 15 0 23 0;
#X connect 16 0 12 0;
#X connect 18 0 11 0;
#X connect 18 0 19 0;
#X connect 18 0 21 0;
#X connect 19 0 16 0;
#X connect 20 0 16 0;
#X connect 21 0 20 0;
#X connect 22 0 17 0;
#X connect 23 0 14 0;
#X connect 23 1 1 1;
#X connect 23 2 4 1;
#X connect 23 3 5 1;
#X connect 23 4 8 0;
#X connect 23 5 9 0;
#X connect 23 6 19 1;
#X connect 23 6 21 1;
#X connect 23 7 20 1;
#X connect 23 8 22 1;
#X restore 222 479 pd 3cosynth;
#N canvas 0 0 588 523 3cosynth 0;
#X obj 94 226 osc~;
#X obj 95 253 *~ 0.09;
#X obj 138 222 osc~;
#X obj 190 223 osc~;
#X obj 154 253 *~ 0.05;
#X obj 216 255 *~ 0.02;
#X obj 141 170 *;
#X obj 192 172 *;
#X obj 154 141 * 4;
#X obj 206 142 * 8;
#X obj 151 292 clip~ -0.1 0.1;
#X msg 10 193 0;
#X obj 132 314 *~;
#X msg 6 253 1 10;
#X obj 18 78 mtof;
#X obj 69 38 inlet;
#X obj 26 300 line;
#X obj 132 362 outlet~;
#X obj 3 163 t;
#X obj 1 215 pack 1 1;
#X obj 48 276 pack 0 1;
#X obj 27 235 del 1;
#X obj 132 336 *~;
#X obj 67 59 unpack 1 2 3 4 5 6 7 8 9;
#X text 65 8 (note \, l0 \, l1 \, l2 \, f1 \, f2 \, A \, D \, Amp)
;
#X connect 0 0 1 0;
#X connect 1 0 10 0;
#X connect 2 0 4 0;
#X connect 3 0 5 0;
#X connect 4 0 10 0;
#X connect 5 0 10 0;
#X connect 6 0 2 0;
#X connect 7 0 3 0;
#X connect 8 0 6 1;
#X connect 9 0 7 1;
#X connect 10 0 12 1;
#X connect 12 0 22 0;
#X connect 13 0 16 0;
#X connect 14 0 0 0;
#X connect 14 0 6 0;
#X connect 14 0 7 0;
#X connect 14 0 18 0;
#X connect 15 0 23 0;
#X connect 16 0 12 0;
#X connect 18 0 11 0;
#X connect 18 0 19 0;
#X connect 18 0 21 0;
#X connect 19 0 16 0;
#X connect 20 0 16 0;
#X connect 21 0 20 0;
#X connect 22 0 17 0;
#X connect 23 0 14 0;
#X connect 23 1 1 1;
#X connect 23 2 4 1;
#X connect 23 3 5 1;
#X connect 23 4 8 0;
#X connect 23 5 9 0;
#X connect 23 6 19 1;
#X connect 23 6 21 1;
#X connect 23 7 20 1;
#X connect 23 8 22 1;
#X restore 318 478 pd 3cosynth;
#X msg 225 403 \$1 0.298 0.353 0.172 0.122 0.251 20 1000 0.9;
#X msg 323 380 \$1 0.298 0.353 0.172 0.122 0.502 10 100 0.4;
#X msg 445 497 250;
#X msg 305 590 500;
#N canvas 0 0 450 300 deldela 0;
#X obj 55 136 +~;
#X obj 68 39 +~;
#X obj 79 110 *~ 0.6;
#X obj 54 16 inlet~;
#X obj 55 157 outlet~;
#X obj 120 16 inlet;
#X obj 95 88 delread~ \$0-aaaa 250;
#X obj 70 59 delwrite~ \$0-aaaa 500;
#X connect 0 0 4 0;
#X connect 1 0 7 0;
#X connect 2 0 0 1;
#X connect 2 0 1 0;
#X connect 3 0 1 1;
#X connect 3 0 0 0;
#X connect 5 0 6 0;
#X connect 6 0 2 0;
#X restore 209 608 pd deldela;
#N canvas 0 0 450 300 deldeld 0;
#X obj 70 59 delwrite~ \$0-ddd 500;
#X obj 55 136 +~;
#X obj 68 39 +~;
#X obj 79 110 *~ 0.6;
#X obj 95 88 delread~ \$0-ddd 250;
#X obj 54 16 inlet~;
#X obj 55 157 outlet~;
#X obj 120 16 inlet;
#X connect 1 0 6 0;
#X connect 2 0 0 0;
#X connect 3 0 1 1;
#X connect 3 0 2 0;
#X connect 4 0 3 0;
#X connect 5 0 2 1;
#X connect 5 0 1 0;
#X connect 7 0 4 0;
#X restore 378 522 pd deldeld;
#N canvas 0 0 450 300 deldelb 0;
#X obj 55 136 +~;
#X obj 68 39 +~;
#X obj 54 16 inlet~;
#X obj 55 157 outlet~;
#X obj 120 16 inlet;
#X obj 96 88 delread~ \$0-bbbb 250;
#X obj 70 59 delwrite~ \$0-bbbb 1500;
#X obj 79 110 *~ 0.8;
#X connect 0 0 3 0;
#X connect 1 0 6 0;
#X connect 2 0 1 1;
#X connect 2 0 0 0;
#X connect 4 0 5 0;
#X connect 5 0 7 0;
#X connect 7 0 0 1;
#X connect 7 0 1 0;
#X restore 144 545 pd deldelb;
#X msg 209 507 750;
#X obj 500 515 *~ 1000;
#X msg 463 534 0.7;
#X obj 514 490 phasor~ 0.333;
#X obj 497 535 +~ 100;
#X obj 378 559 vcf~ 100 0.7;
#X obj 482 460 loadbang;
#X msg 241 512 250;
#X obj 289 542 *~ 1000;
#X obj 287 562 +~ 100;
#X obj 211 586 vcf~ 100 0.7;
#X obj 287 522 phasor~ 0.212;
#X msg 342 564 0.3;
#X obj 399 91 loadbang;
#X msg 398 111 1;
#X msg 356 74 stop;
#N canvas 0 0 588 523 sawsyn 0;
#X obj 132 314 *~;
#X obj 73 103 mtof;
#X obj 69 38 inlet;
#X obj 211 188 line;
#X obj 130 402 outlet~;
#X obj 193 123 pack 1 1;
#X obj 218 164 pack 0 1;
#X obj 216 144 del 1;
#X obj 120 43 unpack 1 2 3 4 5 6 7 8 9;
#X obj 176 83 t b f;
#X obj 148 290 clip~ -0.9 0.9;
#X obj 66 197 phasor~;
#X obj 64 176 line;
#X obj 116 252 bp~ 100 1;
#X obj 140 214 phasor~;
#X obj 140 175 line;
#X obj 210 252 * -1;
#X obj 64 154 pack 1 1;
#X obj 136 151 pack 1 1;
#X text 86 6 (note \, bpf \, bpq \, clip \, slide1 \, slide2 \, A \,
D \, Amp);
#X text 1 8 sawslide;
#X obj 132 360 hip~ 50;
#X obj 141 194 + 1;
#X floatatom 25 224 5 0 0 0 - - -;
#X obj 246 252 * 1;
#X obj 132 336 *~ 0.5;
#X obj 103 176 +;
#X obj 131 381 *~;
#X connect 0 0 25 0;
#X connect 1 0 17 0;
#X connect 1 0 18 0;
#X connect 1 0 26 1;
#X connect 2 0 8 0;
#X connect 3 0 0 0;
#X connect 5 0 3 0;
#X connect 6 0 3 0;
#X connect 7 0 6 0;
#X connect 8 0 9 0;
#X connect 8 0 1 0;
#X connect 8 1 26 0;
#X connect 8 2 13 2;
#X connect 8 3 16 0;
#X connect 8 3 24 0;
#X connect 8 4 17 1;
#X connect 8 5 18 1;
#X connect 8 6 5 1;
#X connect 8 6 7 1;
#X connect 8 7 6 1;
#X connect 8 8 27 1;
#X connect 9 0 5 0;
#X connect 9 0 7 0;
#X connect 10 0 0 1;
#X connect 11 0 13 0;
#X connect 12 0 11 0;
#X connect 12 0 23 0;
#X connect 13 0 10 0;
#X connect 14 0 13 0;
#X connect 15 0 22 0;
#X connect 16 0 10 1;
#X connect 17 0 12 0;
#X connect 18 0 15 0;
#X connect 21 0 27 0;
#X connect 22 0 14 0;
#X connect 24 0 10 2;
#X connect 25 0 21 0;
#X connect 26 0 13 1;
#X connect 27 0 4 0;
#X restore 39 476 pd sawsyn;
#X obj 67 100 select 0 1 2 3 4 5 6 7;
#X obj 67 75 random 8;
#X obj 64 16 mod 64;
#X msg 51 201 \$1 1 23 0.6 450 250 400 6000 0.3;
#X msg 41 176 \$1 1 23 0.6 250 200 100 4000 0.3;
#X obj 53 38 sel 56 60 63;
#X obj 153 446 random 2;
#X obj 115 467 spigot;
#N canvas 0 0 450 300 kicknsnr 0;
#X obj 155 2 inlet;
#X obj 169 285 outlet~;
#X obj 163 102 line~;
#X obj 162 126 *~;
#X obj 162 149 *~;
#X msg 146 71 1 2;
#X obj 74 63 del 2;
#X obj 170 242 *~;
#X obj 163 218 osc~;
#X obj 162 178 *~ 100;
#X obj 162 198 +~ 20;
#X obj 279 -1 inlet;
#X obj 267 283 outlet~;
#X msg 244 69 1 2;
#X obj 268 240 *~;
#X obj 234 185 noise~;
#X obj 268 215 bp~ 400 2;
#X obj 261 97 line;
#X obj 259 124 *;
#X obj 259 147 *;
#X obj 315 162 * 100;
#X obj 320 182 + 600;
#X obj 311 19 unpack 1 2 3 4;
#X obj 267 262 *~;
#X obj 275 29 t;
#X obj 277 49 del 2;
#X obj 169 264 *~ 0.3;
#X obj 185 25 unpack 1 2;
#X obj 157 30 t;
#X obj 77 103 pack 1 2;
#X msg 73 82 0;
#X msg 277 69 0 400;
#X connect 0 0 27 0;
#X connect 0 0 28 0;
#X connect 2 0 3 0;
#X connect 2 0 3 1;
#X connect 3 0 4 0;
#X connect 3 0 4 1;
#X connect 4 0 7 1;
#X connect 4 0 9 0;
#X connect 5 0 2 0;
#X connect 6 0 30 0;
#X connect 7 0 26 0;
#X connect 8 0 7 0;
#X connect 9 0 10 0;
#X connect 10 0 8 0;
#X connect 11 0 22 0;
#X connect 13 0 17 0;
#X connect 14 0 23 0;
#X connect 15 0 16 0;
#X connect 16 0 14 0;
#X connect 17 0 18 0;
#X connect 17 0 18 1;
#X connect 18 0 19 0;
#X connect 18 0 19 1;
#X connect 19 0 14 1;
#X connect 19 0 20 0;
#X connect 20 0 21 0;
#X connect 21 0 16 1;
#X connect 22 0 20 1;
#X connect 22 0 24 0;
#X connect 22 1 21 1;
#X connect 22 2 16 2;
#X connect 22 3 23 1;
#X connect 23 0 12 0;
#X connect 24 0 13 0;
#X connect 24 0 25 0;
#X connect 25 0 31 0;
#X connect 26 0 1 0;
#X connect 27 0 29 1;
#X connect 27 1 9 1;
#X connect 28 0 6 0;
#X connect 28 0 5 0;
#X connect 29 0 2 0;
#X connect 30 0 29 0;
#X connect 31 0 17 0;
#X restore 663 456 pd kicknsnr;
#X msg 719 427 50 300 4 0.9;
#X msg 719 405 100 400 1 0.3;
#X msg 654 381 600 100;
#X msg 655 403 1800 80;
#X msg 716 358 500 600 1 0.2;
#X msg 718 380 200 600 1 0.25;
#X msg 653 360 300 130;
#X obj 398 193 / 2;
#X obj 397 132 metro 250;
#X obj 644 321 select 0 1 2;
#X obj 643 297 random 4;
#X msg 645 275 bang;
#X msg 741 274 bang;
#X obj 739 296 random 6;
#X obj 740 320 select 0 1 2 3;
#X obj 738 226 mod 16;
#X obj 701 252 select 2 3 4 5 10 11 12;
#X obj 586 572 vcf~ 100 0.7;
#X obj 722 503 phasor~ 0.456;
#X obj 705 548 +~ 300;
#N canvas 0 0 450 300 deldele 0;
#X obj 55 136 +~;
#X obj 68 39 +~;
#X obj 79 110 *~ 0.6;
#X obj 54 16 inlet~;
#X obj 55 157 outlet~;
#X obj 120 16 inlet;
#X obj 70 59 delwrite~ \$0-eeee 500;
#X obj 95 88 delread~ \$0-eeee 250;
#X connect 0 0 4 0;
#X connect 1 0 6 0;
#X connect 2 0 0 1;
#X connect 2 0 1 0;
#X connect 3 0 1 1;
#X connect 3 0 0 0;
#X connect 5 0 7 0;
#X connect 7 0 2 0;
#X restore 586 535 pd deldele;
#X msg 653 510 375;
#X obj 708 528 *~ 5000;
#X msg 671 547 0.9;
#X obj 360 603 *~ 0.73;
#X text 34 508 slider;
#X text 156 484 string;
#X text 253 462 bass;
#X text 344 458 pluck;
#X text 619 444 drums;
#X text 123 13 Moon over Pokesdown Station 2005;
#X text 733 654 ajf2005;
#X text 464 31 this reminds me of some early human league \, wit the
x-mod bass synth \, realy simple old 80s pre-digital timbres.;
#X obj 389 353 f;
#X obj 416 353 f;
#X obj 334 354 f;
#X obj 361 354 f;
#X obj 225 380 f;
#X obj 252 381 f;
#X msg 579 176 52 48 64 67 76 79 81 83 88 93 95;
#X obj 127 377 f;
#X obj 154 377 f;
#X obj 72 378 f;
#X obj 99 378 f;
#X obj 577 195 unpack 1 2 3 4 5 6 7 8 9 10 11 12;
#X msg 147 267 bang;
#X obj 333 629 +~ 0;
#X obj 111 126 f;
#X obj 138 126 f;
#X obj 56 127 f;
#X obj 83 127 f;
#X obj 112 151 f;
#X obj 139 151 f;
#X obj 57 152 f;
#X obj 84 152 f;
#X msg 592 153 50 48 64 67 76 79 81 86 88 93 95;
#X msg 613 131 50 52 66 69 76 79 83 86 91 93 95;
#X msg 357 97 0;
#X obj 573 109 bng 15 250 50 0 empty empty empty 0 -6 0 8 -262144 -1
-1;
#X obj 593 109 bng 15 250 50 0 empty empty empty 0 -6 0 8 -262144 -1
-1;
#X obj 612 108 bng 15 250 50 0 empty empty empty 0 -6 0 8 -262144 -1
-1;
#X obj 571 69 mod 512;
#X obj 298 357 f;
#X obj 298 336 spigot;
#X obj 284 381 - 12;
#X obj 334 316 random 2;
#N canvas 0 0 471 390 pads 0;
#X obj 129 6 inlet;
#X obj 130 183 unpack 1 2 3 4 5 6 7 8 9 10 11;
#N canvas 0 0 450 300 4phasebloc 0;
#X obj 62 115 phasor~ 300;
#X obj 61 83 mtof;
#X obj 137 156 *~ 0.1;
#X obj 148 114 phasor~ 300;
#X obj 147 82 mtof;
#X obj 235 114 phasor~ 300;
#X obj 234 82 mtof;
#X obj 321 113 phasor~ 300;
#X obj 320 81 mtof;
#X obj 113 50 inlet;
#X obj 164 48 inlet;
#X obj 216 48 inlet;
#X obj 267 46 inlet;
#X obj 137 189 outlet~;
#X connect 0 0 2 0;
#X connect 1 0 0 0;
#X connect 2 0 13 0;
#X connect 3 0 2 0;
#X connect 4 0 3 0;
#X connect 5 0 2 0;
#X connect 6 0 5 0;
#X connect 7 0 2 0;
#X connect 8 0 7 0;
#X connect 9 0 1 0;
#X connect 10 0 4 0;
#X connect 11 0 6 0;
#X connect 12 0 8 0;
#X restore 118 210 pd 4phasebloc;
#N canvas 0 0 450 300 4phasebloc 0;
#X obj 62 115 phasor~ 300;
#X obj 61 83 mtof;
#X obj 137 156 *~ 0.1;
#X obj 148 114 phasor~ 300;
#X obj 147 82 mtof;
#X obj 235 114 phasor~ 300;
#X obj 234 82 mtof;
#X obj 321 113 phasor~ 300;
#X obj 320 81 mtof;
#X obj 113 50 inlet;
#X obj 164 48 inlet;
#X obj 216 48 inlet;
#X obj 267 46 inlet;
#X obj 137 189 outlet~;
#X connect 0 0 2 0;
#X connect 1 0 0 0;
#X connect 2 0 13 0;
#X connect 3 0 2 0;
#X connect 4 0 3 0;
#X connect 5 0 2 0;
#X connect 6 0 5 0;
#X connect 7 0 2 0;
#X connect 8 0 7 0;
#X connect 9 0 1 0;
#X connect 10 0 4 0;
#X connect 11 0 6 0;
#X connect 12 0 8 0;
#X restore 221 210 pd 4phasebloc;
#X obj 44 69 random 100;
#X obj 44 111 line;
#X obj 44 7 loadbang;
#X msg 44 27 1;
#X obj 44 48 metro 1000;
#X msg 44 89 \$1 1000;
#X obj 50 163 -;
#X msg 45 140 100;
#X obj 26 188 * 10;
#X obj 27 211 + 500;
#X obj 118 249 bp~ 500 3;
#X obj 67 187 * 10;
#X obj 214 248 bp~ 600 4;
#X obj 68 210 + 700;
#X obj 25 250 / 100;
#X obj 67 249 / 100;
#X obj 25 273 + 0.1;
#X obj 52 304 *~;
#X obj 71 272 + 0.1;
#X obj 82 304 *~;
#X obj 173 290 delwrite~ \$0-ffff 100;
#X obj 174 313 delread~ \$0-ffff 100;
#X obj 325 251 env~;
#X obj 325 228 osc~ 0.04;
#X obj 117 272 *~ 0.7;
#X obj 22 362 outlet~;
#X obj 87 362 outlet~;
#X obj 33 334 *~ 0.4;
#X obj 87 332 *~ 0.4;
#X connect 0 0 1 0;
#X connect 1 0 2 0;
#X connect 1 1 2 1;
#X connect 1 2 2 2;
#X connect 1 3 2 3;
#X connect 1 4 3 0;
#X connect 1 5 3 1;
#X connect 1 6 3 2;
#X connect 1 7 3 3;
#X connect 2 0 14 0;
#X connect 3 0 16 0;
#X connect 4 0 9 0;
#X connect 5 0 10 1;
#X connect 5 0 11 0;
#X connect 5 0 12 0;
#X connect 5 0 18 0;
#X connect 6 0 7 0;
#X connect 7 0 8 0;
#X connect 8 0 4 0;
#X connect 9 0 5 0;
#X connect 10 0 15 0;
#X connect 10 0 19 0;
#X connect 11 0 10 0;
#X connect 12 0 13 0;
#X connect 13 0 14 1;
#X connect 14 0 28 0;
#X connect 15 0 17 0;
#X connect 16 0 21 0;
#X connect 16 0 23 0;
#X connect 17 0 16 1;
#X connect 18 0 20 0;
#X connect 19 0 22 0;
#X connect 20 0 21 1;
#X connect 21 0 31 0;
#X connect 22 0 23 1;
#X connect 23 0 32 0;
#X connect 25 0 32 0;
#X connect 26 0 25 0;
#X connect 27 0 26 0;
#X connect 28 0 24 0;
#X connect 28 0 31 0;
#X connect 31 0 29 0;
#X connect 32 0 30 0;
#X restore 436 605 pd pads;
#X text 449 576 stereopads;
#X obj 371 669 outlet~;
#X obj 431 669 outlet~;
#X obj 571 88 select 0 128 256 511;
#N canvas 0 0 471 390 arper 0;
#X obj 129 6 inlet;
#X obj 164 59 unpack 1 2 3 4 5 6 7 8 9 10 11;
#X obj 44 69 random 100;
#X obj 44 111 line;
#X obj 44 7 loadbang;
#X msg 44 27 1;
#X obj 44 48 metro 1000;
#X msg 44 89 \$1 1000;
#X obj 50 163 -;
#X msg 45 140 100;
#X obj 26 188 * 10;
#X obj 27 211 + 500;
#X obj 67 187 * 10;
#X obj 68 210 + 700;
#X obj 25 250 / 100;
#X obj 67 249 / 100;
#X obj 25 273 + 0.1;
#X obj 52 304 *~;
#X obj 71 272 + 0.1;
#X obj 82 304 *~;
#X obj 22 362 outlet~;
#X obj 87 362 outlet~;
#X obj -1 5 inlet;
#X obj 169 202 osc~;
#X obj 121 307 delread~ \$0-gggg 100;
#X obj 116 209 *~ 0.5;
#X obj 118 232 delread~ \$0-gggg 100;
#X obj 72 382 delwrite~ \$0-gggg 200;
#N canvas 0 0 450 300 lagfo 0;
#X obj 66 127 env~;
#X obj 74 58 cos~;
#X obj 71 81 sqrt~;
#X obj 68 105 sqrt~;
#X obj 75 37 phasor~ 0.03;
#X obj 77 7 inlet;
#X obj 65 197 outlet;
#X obj 65 168 line;
#X msg 65 148 \$1 3002;
#X connect 0 0 8 0;
#X connect 1 0 2 0;
#X connect 2 0 3 0;
#X connect 3 0 0 0;
#X connect 4 0 1 0;
#X connect 5 0 4 0;
#X connect 7 0 6 0;
#X connect 8 0 7 0;
#X restore 240 184 pd lagfo;
#X msg 290 159 0.2;
#X msg 249 159 0.13;
#N canvas 0 0 450 300 lagfo 0;
#X obj 66 127 env~;
#X obj 74 58 cos~;
#X obj 71 81 sqrt~;
#X obj 68 105 sqrt~;
#X obj 75 37 phasor~ 0.03;
#X obj 77 7 inlet;
#X obj 65 197 outlet;
#X obj 65 168 line;
#X msg 65 148 \$1 3002;
#X connect 0 0 8 0;
#X connect 1 0 2 0;
#X connect 2 0 3 0;
#X connect 3 0 0 0;
#X connect 4 0 1 0;
#X connect 5 0 4 0;
#X connect 7 0 6 0;
#X connect 8 0 7 0;
#X restore 312 181 pd lagfo;
#X obj 116 188 *~;
#N canvas 0 0 450 300 enver 0;
#X obj 79 137 line~;
#X obj 105 71 del 12;
#X msg 69 47 bang;
#X obj 77 160 *~;
#X obj 78 181 *~;
#X obj 66 13 inlet;
#X obj 78 205 outlet~;
#X obj 109 115 pack 1 2;
#X msg 106 93 0;
#X obj 172 16 inlet;
#X msg 65 92 1 2;
#X connect 0 0 3 0;
#X connect 0 0 3 1;
#X connect 1 0 8 0;
#X connect 2 0 1 0;
#X connect 2 0 10 0;
#X connect 3 0 4 0;
#X connect 3 0 4 1;
#X connect 4 0 6 0;
#X connect 5 0 2 0;
#X connect 7 0 0 0;
#X connect 8 0 7 0;
#X connect 9 0 7 1;
#X connect 10 0 0 0;
#X restore 91 159 pd enver;
#X obj 127 87 f;
#X obj 156 87 f;
#X obj 185 87 f;
#X obj 214 87 f;
#X obj 242 86 f;
#X obj 271 86 f;
#X obj 300 86 f;
#X obj 329 86 f;
#X obj 359 86 f;
#X obj 388 86 f;
#X obj 417 86 f;
#X obj 209 8 random 12;
#X obj 207 29 select 0 1 2 3 4 5 6 7 8 9 10;
#X obj 256 109 * 1;
#X obj 5 76 bng 15 50 10 0 empty empty empty 0 -6 0 8 -62784 -1 -1
;
#X obj 255 130 mtof;
#X obj 170 182 line~;
#X obj 171 161 pack 1 2;
#X obj 171 143 + 3;
#X obj 172 124 random 50;
#X obj 122 136 * 10;
#X obj 95 335 *~ 0.063;
#X obj 33 334 *~ 0.063;
#X connect 0 0 1 0;
#X connect 1 0 34 1;
#X connect 1 1 35 1;
#X connect 1 2 36 1;
#X connect 1 3 37 1;
#X connect 1 4 38 1;
#X connect 1 5 39 1;
#X connect 1 6 40 1;
#X connect 1 7 41 1;
#X connect 1 8 42 1;
#X connect 1 9 43 1;
#X connect 1 10 44 1;
#X connect 2 0 7 0;
#X connect 3 0 8 1;
#X connect 3 0 9 0;
#X connect 3 0 10 0;
#X connect 3 0 14 0;
#X connect 4 0 5 0;
#X connect 4 0 30 0;
#X connect 4 0 29 0;
#X connect 5 0 6 0;
#X connect 6 0 2 0;
#X connect 7 0 3 0;
#X connect 8 0 12 0;
#X connect 8 0 15 0;
#X connect 9 0 8 0;
#X connect 10 0 11 0;
#X connect 12 0 13 0;
#X connect 14 0 16 0;
#X connect 15 0 18 0;
#X connect 16 0 17 1;
#X connect 17 0 27 0;
#X connect 17 0 56 0;
#X connect 18 0 19 1;
#X connect 19 0 27 0;
#X connect 19 0 55 0;
#X connect 22 0 33 0;
#X connect 22 0 45 0;
#X connect 22 0 48 0;
#X connect 22 0 53 0;
#X connect 23 0 32 1;
#X connect 24 0 55 0;
#X connect 25 0 17 0;
#X connect 25 0 19 0;
#X connect 26 0 56 0;
#X connect 28 0 24 0;
#X connect 29 0 31 0;
#X connect 30 0 28 0;
#X connect 31 0 26 0;
#X connect 32 0 25 0;
#X connect 33 0 32 0;
#X connect 34 0 47 0;
#X connect 35 0 47 0;
#X connect 36 0 47 0;
#X connect 37 0 47 0;
#X connect 38 0 47 0;
#X connect 39 0 47 0;
#X connect 40 0 47 0;
#X connect 41 0 47 0;
#X connect 42 0 47 0;
#X connect 43 0 47 0;
#X connect 44 0 47 0;
#X connect 45 0 46 0;
#X connect 46 0 34 0;
#X connect 46 1 35 0;
#X connect 46 2 36 0;
#X connect 46 3 37 0;
#X connect 46 4 38 0;
#X connect 46 5 39 0;
#X connect 46 6 40 0;
#X connect 46 7 41 0;
#X connect 46 8 42 0;
#X connect 46 9 43 0;
#X connect 46 10 44 0;
#X connect 47 0 49 0;
#X connect 49 0 51 0;
#X connect 50 0 23 0;
#X connect 51 0 50 0;
#X connect 52 0 51 1;
#X connect 53 0 52 0;
#X connect 53 0 54 0;
#X connect 54 0 33 1;
#X connect 55 0 21 0;
#X connect 56 0 20 0;
#X restore 499 608 pd arper;
#X text 529 592 pitch sweepers;
#X msg 112 434 \$1 0.298 0.353 0.172 0.37 0.7 100 400 0.17;
#X text 756 449 autechre + midge ure style;
#X text 145 420 same cheapo 3 cosine nonlinear for 3 parts;
#X obj 452 160 s times;
#N canvas 0 0 997 661 consoleout 0;
#X obj 65 190 print;
#X obj 166 109 print;
#X msg 166 90 This just goes on forever like this..;
#X obj 167 66 sel 1;
#X obj 63 147 sel 1;
#X obj 239 -128 r times;
#X obj 116 151 print;
#X obj 114 108 sel 1;
#X obj 114 85 == 64;
#X obj 63 124 == 32;
#X msg 65 171 Now playing live by PureData...;
#X msg 116 132 "Moon over Pokesdown station" \, by Andy Farnell;
#X obj 218 68 print;
#X obj 219 25 sel 1;
#X msg 218 49 Each time it's a little different version of the same
thing.;
#X obj 277 22 print;
#X obj 278 -21 sel 1;
#X msg 277 3 This is Creative Commons Code. Share \, enjoy.;
#X obj 504 184 print;
#X obj 503 111 sel 1;
#X obj 503 88 == 675;
#X floatatom 167 -89 5 0 0 0 - - -;
#X obj 167 43 == 400;
#X obj 219 2 == 480;
#X obj 278 -44 == 560;
#X msg 502 135 Use the Source Luke!;
#X connect 2 0 1 0;
#X connect 3 0 2 0;
#X connect 4 0 10 0;
#X connect 5 0 9 0;
#X connect 5 0 20 0;
#X connect 5 0 21 0;
#X connect 5 0 8 0;
#X connect 5 0 22 0;
#X connect 5 0 23 0;
#X connect 5 0 24 0;
#X connect 7 0 11 0;
#X connect 8 0 7 0;
#X connect 9 0 4 0;
#X connect 10 0 0 0;
#X connect 11 0 6 0;
#X connect 13 0 14 0;
#X connect 14 0 12 0;
#X connect 16 0 17 0;
#X connect 17 0 15 0;
#X connect 19 0 25 0;
#X connect 20 0 19 0;
#X connect 22 0 3 0;
#X connect 23 0 13 0;
#X connect 24 0 16 0;
#X connect 25 0 18 0;
#X restore 775 105 pd consoleout;
#X text 400 66 timebase;
#X text 772 86 messages;
#X text 473 141 for messgs;
#X connect 0 0 34 0;
#X connect 0 0 53 0;
#X connect 1 0 2 0;
#X connect 1 0 106 0;
#X connect 1 0 121 0;
#X connect 2 0 1 1;
#X connect 2 0 52 0;
#X connect 2 0 60 0;
#X connect 2 0 38 0;
#X connect 3 0 4 0;
#X connect 4 0 80 0;
#X connect 4 1 81 0;
#X connect 4 2 80 0;
#X connect 4 3 78 0;
#X connect 4 6 79 0;
#X connect 5 0 37 0;
#X connect 5 0 83 0;
#X connect 5 0 88 0;
#X connect 5 1 85 0;
#X connect 5 2 88 0;
#X connect 5 2 108 0;
#X connect 5 3 85 0;
#X connect 5 5 86 0;
#X connect 5 6 83 0;
#X connect 5 7 86 0;
#X connect 6 0 5 0;
#X connect 6 0 7 0;
#X connect 6 0 90 0;
#X connect 7 2 108 0;
#X connect 7 4 82 0;
#X connect 7 5 87 0;
#X connect 8 0 18 0;
#X connect 9 0 118 0;
#X connect 10 0 29 0;
#X connect 11 0 17 0;
#X connect 12 0 10 0;
#X connect 12 0 56 0;
#X connect 13 0 11 0;
#X connect 14 0 17 1;
#X connect 15 0 16 1;
#X connect 16 0 91 0;
#X connect 17 0 24 0;
#X connect 18 0 91 0;
#X connect 19 0 18 1;
#X connect 20 0 23 0;
#X connect 21 0 24 2;
#X connect 22 0 20 0;
#X connect 23 0 24 1;
#X connect 24 0 91 0;
#X connect 25 0 21 0;
#X connect 25 0 14 0;
#X connect 25 0 15 0;
#X connect 25 0 19 0;
#X connect 25 0 31 0;
#X connect 25 0 68 0;
#X connect 25 0 66 0;
#X connect 27 0 28 0;
#X connect 28 0 29 1;
#X connect 29 0 16 0;
#X connect 30 0 27 0;
#X connect 31 0 29 2;
#X connect 32 0 33 0;
#X connect 33 0 53 0;
#X connect 34 0 53 0;
#X connect 34 0 102 0;
#X connect 35 0 18 0;
#X connect 36 0 94 0;
#X connect 36 1 95 0;
#X connect 36 2 92 0;
#X connect 36 3 93 0;
#X connect 36 4 98 0;
#X connect 36 5 99 0;
#X connect 36 6 96 0;
#X connect 36 7 97 0;
#X connect 37 0 36 0;
#X connect 38 0 41 0;
#X connect 39 0 35 0;
#X connect 40 0 35 0;
#X connect 41 0 37 0;
#X connect 41 1 37 0;
#X connect 41 2 37 0;
#X connect 42 0 43 1;
#X connect 43 0 8 0;
#X connect 44 0 114 0;
#X connect 44 0 113 0;
#X connect 44 1 65 0;
#X connect 45 0 44 1;
#X connect 46 0 44 1;
#X connect 47 0 44 0;
#X connect 48 0 44 0;
#X connect 49 0 44 1;
#X connect 50 0 44 1;
#X connect 51 0 44 0;
#X connect 52 0 3 0;
#X connect 52 0 6 0;
#X connect 53 0 1 0;
#X connect 53 0 116 0;
#X connect 54 0 51 0;
#X connect 54 1 47 0;
#X connect 54 2 48 0;
#X connect 55 0 54 0;
#X connect 56 0 55 0;
#X connect 57 0 58 0;
#X connect 58 0 59 0;
#X connect 59 0 49 0;
#X connect 59 1 50 0;
#X connect 59 2 46 0;
#X connect 59 3 45 0;
#X connect 60 0 61 0;
#X connect 61 0 57 0;
#X connect 61 1 57 0;
#X connect 61 2 57 0;
#X connect 61 3 57 0;
#X connect 61 4 57 0;
#X connect 61 5 57 0;
#X connect 61 6 57 0;
#X connect 62 0 69 0;
#X connect 63 0 67 0;
#X connect 64 0 62 1;
#X connect 65 0 62 0;
#X connect 66 0 65 1;
#X connect 67 0 64 0;
#X connect 68 0 62 2;
#X connect 69 0 91 0;
#X connect 78 0 13 0;
#X connect 79 0 13 0;
#X connect 80 0 13 0;
#X connect 81 0 13 0;
#X connect 82 0 12 0;
#X connect 83 0 12 0;
#X connect 84 0 89 0;
#X connect 84 0 111 0;
#X connect 84 0 116 1;
#X connect 85 0 9 0;
#X connect 86 0 9 0;
#X connect 87 0 9 0;
#X connect 88 0 9 0;
#X connect 89 0 82 1;
#X connect 89 1 83 1;
#X connect 89 1 107 1;
#X connect 89 2 94 1;
#X connect 89 3 95 1;
#X connect 89 4 80 1;
#X connect 89 4 92 1;
#X connect 89 5 81 1;
#X connect 89 5 93 1;
#X connect 89 6 78 1;
#X connect 89 6 87 1;
#X connect 89 6 98 1;
#X connect 89 7 79 1;
#X connect 89 7 88 1;
#X connect 89 7 99 1;
#X connect 89 8 85 1;
#X connect 89 8 96 1;
#X connect 89 9 86 1;
#X connect 89 9 97 1;
#X connect 90 0 110 0;
#X connect 90 0 42 0;
#X connect 91 0 113 0;
#X connect 91 0 114 0;
#X connect 92 0 40 0;
#X connect 93 0 40 0;
#X connect 94 0 40 0;
#X connect 95 0 40 0;
#X connect 96 0 39 0;
#X connect 97 0 39 0;
#X connect 98 0 39 0;
#X connect 99 0 39 0;
#X connect 100 0 89 0;
#X connect 100 0 111 0;
#X connect 100 0 116 1;
#X connect 101 0 89 0;
#X connect 101 0 111 0;
#X connect 101 0 116 1;
#X connect 102 0 1 0;
#X connect 103 0 84 0;
#X connect 104 0 100 0;
#X connect 105 0 101 0;
#X connect 106 0 115 0;
#X connect 107 0 109 0;
#X connect 108 0 107 0;
#X connect 109 0 12 0;
#X connect 110 0 108 1;
#X connect 111 0 113 0;
#X connect 111 0 114 0;
#X connect 115 0 103 0;
#X connect 115 1 104 0;
#X connect 115 2 105 0;
#X connect 116 0 113 0;
#X connect 116 1 114 0;
#X connect 118 0 43 0;
#X restore 81 43 pd warning_ugly_mess_inside;
#X msg 81 15 1;
#X msg 16 68 \; pd dsp 0;
#X connect 1 0 4 0;
#X connect 2 0 3 0;
#X connect 4 0 0 0;
#X connect 4 1 0 1;
#X connect 5 0 4 0;
