#N canvas 0 0 459 250 10;
#X obj 21 73 mod 16;
#X text 91 72 sequencer using select;
#X obj 21 96 select 0 3 4 5 6 7 8 11 12 13 14;
#X msg 160 136 43;
#X msg 60 136 42;
#X msg 21 136 40;
#X msg 120 136 44;
#X msg 200 136 38;
#X obj 21 187 outlet notes;
#X obj 21 50 inlet time;
#X text 111 8 bassline sequencer;
#X text 125 186 notes outlet;
#X text 237 135 note value in message boxes;
#X connect 0 0 2 0;
#X connect 2 0 5 0;
#X connect 2 1 5 0;
#X connect 2 2 4 0;
#X connect 2 5 6 0;
#X connect 2 7 3 0;
#X connect 2 9 7 0;
#X connect 3 0 8 0;
#X connect 4 0 8 0;
#X connect 5 0 8 0;
#X connect 6 0 8 0;
#X connect 7 0 8 0;
#X connect 9 0 0 0;
