#N canvas 0 0 460 404 10;
#X obj 92 41 inlet note;
#X obj 74 111 mtof;
#X obj 38 294 *~;
#X obj 122 241 line~;
#X obj 38 372 outlet~;
#X text 70 293 amplitude envelope;
#X text 186 216 attack and decay;
#X obj 37 85 noise~;
#X text 169 188 use note as decay time;
#X obj 122 85 / 127;
#X obj 122 267 *~;
#X obj 122 111 swap 1;
#X obj 122 137 -;
#X msg 122 215 1 \, 0 \$1;
#X obj 38 139 bp~ 100 0.5;
#X obj 122 189 * 400;
#X obj 122 163 t f f;
#X obj 92 67 t f f;
#X text 175 107 invert amplitude range;
#X text 175 84 scale to 0 - 1;
#X obj 38 320 lop~ 3000;
#X obj 38 346 *~ 4;
#X text 131 2 synth 3;
#X text 6 257 filtered noise;
#X connect 0 0 17 0;
#X connect 1 0 14 1;
#X connect 2 0 20 0;
#X connect 3 0 10 0;
#X connect 7 0 14 0;
#X connect 9 0 11 0;
#X connect 10 0 2 1;
#X connect 11 0 12 0;
#X connect 11 1 12 1;
#X connect 12 0 16 0;
#X connect 13 0 3 0;
#X connect 14 0 2 0;
#X connect 15 0 13 0;
#X connect 16 0 15 0;
#X connect 16 1 10 1;
#X connect 17 0 1 0;
#X connect 17 1 9 0;
#X connect 20 0 21 0;
#X connect 21 0 4 0;
