#N canvas 323 151 607 534 10;
#X obj 63 51 tgl 15 0 empty empty empty 0 -6 0 8 -262144 -1 -1 1 1
;
#X obj 269 95 dac~;
#X obj 196 230 *~;
#X obj 215 209 hsl 128 15 0 1 0 1 empty empty synth1-volume 20 7 1
8 -262144 -1 -1 11700 1;
#X obj 363 250 *~;
#X obj 382 229 hsl 128 15 0 1 0 1 empty empty synth2-volume 20 7 1
8 -262144 -1 -1 3800 1;
#X obj 270 70 *~ 0.35;
#X obj 196 411 *~;
#X obj 215 390 hsl 128 15 0 1 0 1 empty empty synth3-volume 20 7 1
8 -262144 -1 -1 5700 1;
#X text 359 46 mixer;
#X obj 363 411 *~;
#X obj 382 390 hsl 128 15 0 1 0 1 empty empty synth4-volume 20 7 1
8 -262144 -1 -1 11200 1;
#X obj 63 71 A-timebase;
#X obj 128 95 s time;
#X obj 196 251 throw~ mix;
#X obj 363 271 throw~ mix;
#X obj 196 432 throw~ mix;
#X obj 363 432 throw~ mix;
#X obj 270 47 catch~ mix;
#X obj 196 165 r synth1;
#X obj 363 165 r synth2;
#X obj 196 346 r synth3;
#X obj 363 346 r synth4;
#X obj 10 200 s synth1;
#X obj 10 324 s synth2;
#X obj 10 245 r time;
#X obj 10 158 r time;
#X obj 10 368 r time;
#X obj 10 410 s synth3;
#X obj 10 434 r time;
#X obj 10 476 s synth4;
#X text 97 50 counter timebase;
#X text 12 128 4 sequencers;
#X text 184 129 4 synths with volume controls;
#X floatatom 89 285 5 -12 24 0 - - -, f 5;
#X obj 417 185 hsl 128 15 0 1 0 1 empty empty synth2-decay 20 7 1 8
-262144 -1 -1 2000 1;
#X msg 49 264 38 40 52 44;
#X obj 63 29 loadbang;
#X obj 10 179 C-bassline-seq;
#X obj 196 186 B-synth1;
#X obj 10 303 E-melody-seq;
#X obj 363 206 D-synth2;
#X obj 196 367 F-synth3;
#X obj 10 389 G-drum-seq;
#X obj 363 367 H-synth4;
#X obj 10 455 I-chord-seq;
#X obj 59 242 loadbang;
#X obj 520 68 tgl 15 0 empty empty empty 17 7 0 10 -262144 -1 -1 1
1;
#X msg 520 88 \; pd dsp \$1;
#X text 9 2 composition 1 By Andy J. Farnell;
#X obj 520 22 loadbang;
#X msg 520 44 1;
#X connect 0 0 12 0;
#X connect 2 0 14 0;
#X connect 3 0 2 1;
#X connect 4 0 15 0;
#X connect 5 0 4 1;
#X connect 6 0 1 0;
#X connect 6 0 1 1;
#X connect 7 0 16 0;
#X connect 8 0 7 1;
#X connect 10 0 17 0;
#X connect 11 0 10 1;
#X connect 12 1 13 0;
#X connect 18 0 6 0;
#X connect 19 0 39 0;
#X connect 20 0 41 0;
#X connect 21 0 42 0;
#X connect 22 0 44 0;
#X connect 25 0 40 0;
#X connect 26 0 38 0;
#X connect 27 0 43 0;
#X connect 29 0 45 0;
#X connect 34 0 40 2;
#X connect 35 0 41 1;
#X connect 36 0 40 1;
#X connect 37 0 0 0;
#X connect 38 0 23 0;
#X connect 39 0 2 0;
#X connect 40 0 24 0;
#X connect 41 0 4 0;
#X connect 42 0 7 0;
#X connect 43 0 28 0;
#X connect 44 0 10 0;
#X connect 45 0 30 0;
#X connect 46 0 36 0;
#X connect 47 0 48 0;
#X connect 50 0 51 0;
#X connect 51 0 47 0;
