#N canvas 46 105 598 382 10;
#N canvas 1 78 534 525 sound 1;
#X obj 130 416 dac~;
#X obj 20 97 osc~;
#X obj 84 98 osc~;
#X obj 84 78 +~ 1390;
#X obj 162 97 osc~;
#X obj 162 78 +~ 2446;
#X obj 222 98 osc~;
#X obj 222 78 +~ 2586;
#X obj 20 77 +~ 1360;
#X obj 162 38 osc~ 47;
#X obj 84 37 osc~ 28;
#X obj 20 37 osc~ 32;
#X obj 51 127 *~ 0.3;
#X obj 190 127 *~ 0.7;
#X obj 158 262 bp~ 2600 7;
#X obj 80 262 bp~ 1300 7;
#X obj 381 241 tgl 15 0 empty empty kill 0 -6 0 8 -262144 -1 -1 0 1
;
#X obj 130 338 *~;
#X obj 338 261 * 0.2;
#X obj 381 261 * 0.4;
#X obj 338 241 tgl 15 0 empty empty stun 0 -6 0 8 -262144 -1 -1 0 1
;
#X obj 130 311 hip~ 1200;
#X obj 84 57 *~ 200;
#X obj 20 57 *~ 80;
#X obj 221 39 osc~ 36;
#X obj 162 58 *~ 443;
#X obj 222 58 *~ 346;
#X obj 133 181 noise~;
#X obj 133 201 hip~ 2000;
#X obj 117 160 +~;
#X obj 129 289 clip~ -1 1;
#X obj 118 221 +~;
#X obj 338 38 inlet stun;
#X obj 418 38 inlet kill;
#X obj 130 360 hip~ 5;
#X obj 130 382 clip~ -1 1;
#X obj 455 141 loadbang;
#X obj 455 193 tgl 15 0 empty empty empty 17 7 0 10 -262144 -1 -1 1
1;
#X msg 455 215 \; pd dsp \$1;
#X msg 455 163 1;
#X connect 1 0 12 0;
#X connect 2 0 12 0;
#X connect 3 0 2 0;
#X connect 4 0 13 0;
#X connect 5 0 4 0;
#X connect 6 0 13 0;
#X connect 7 0 6 0;
#X connect 8 0 1 0;
#X connect 9 0 25 0;
#X connect 10 0 22 0;
#X connect 11 0 23 0;
#X connect 12 0 29 0;
#X connect 13 0 29 1;
#X connect 14 0 30 0;
#X connect 15 0 30 0;
#X connect 16 0 19 0;
#X connect 17 0 34 0;
#X connect 18 0 17 1;
#X connect 19 0 17 1;
#X connect 20 0 18 0;
#X connect 21 0 17 0;
#X connect 22 0 3 0;
#X connect 23 0 8 0;
#X connect 24 0 26 0;
#X connect 25 0 5 0;
#X connect 26 0 7 0;
#X connect 27 0 28 0;
#X connect 28 0 31 1;
#X connect 29 0 31 0;
#X connect 30 0 21 0;
#X connect 31 0 15 0;
#X connect 31 0 14 0;
#X connect 32 0 20 0;
#X connect 33 0 16 0;
#X connect 34 0 35 0;
#X connect 35 0 0 0;
#X connect 35 0 0 1;
#X connect 36 0 39 0;
#X connect 37 0 38 0;
#X connect 39 0 37 0;
#X restore 514 351 pd sound;
#X obj 567 324 tgl 15 0 empty empty kill 0 -6 0 8 -262144 -1 -1 0 1
;
#X obj 514 324 tgl 15 0 empty empty stun 0 -6 0 8 -262144 -1 -1 0 1
;
#X obj 258 187 image phaser.gif;
#X connect 1 0 0 1;
#X connect 2 0 0 0;
