#N canvas 0 0 245 110 10;
#N canvas 801 290 161 108 kick 0;
#N canvas 0 0 92 177 kickdrum2 0;
#X obj 5 27 vline~;
#X obj 5 104 *~;
#X obj 21 80 cos~;
#X msg 5 5 1 \, 0 70 0;
#X obj 5 129 *~ 0.7;
#X obj 4 155 dac~;
#X obj 21 60 *~ 4;
#X connect 0 0 1 0;
#X connect 0 0 6 0;
#X connect 1 0 4 0;
#X connect 2 0 1 1;
#X connect 3 0 0 0;
#X connect 4 0 5 0;
#X connect 4 0 5 1;
#X connect 6 0 2 0;
#X restore 18 60 pd kickdrum2;
#N canvas 321 558 165 192 kickdrum1 0;
#X obj 35 43 vline~;
#X obj 35 101 *~;
#X msg 35 18 1 \, 0 70 0;
#X obj 35 152 dac~;
#X obj 35 126 *~ 0.7;
#X obj 51 70 osc~ 80;
#X connect 0 0 1 0;
#X connect 1 0 4 0;
#X connect 2 0 0 0;
#X connect 4 0 3 0;
#X connect 4 0 3 1;
#X connect 5 0 1 1;
#X restore 17 33 pd kickdrum1;
#X restore 13 30 pd kick drum development;
