#N canvas 0 0 433 191 10;
#X obj 307 40 phasor~ 100;
#X obj 307 111 *~;
#X obj 306 136 *~ 0.3;
#X obj 306 157 s~ tb1;
#X obj 35 127 sig~;
#X obj 180 134 sig~;
#X obj 180 111 mtof;
#X obj 180 90 + 40;
#X obj 5 25 r time16;
#X msg 5 93 1;
#X msg 70 93 0;
#X msg 207 55 24;
#X msg 173 56 0;
#X obj 35 155 s~ tb1gate;
#X obj 324 72 r~ tb1gate;
#X obj 180 156 s~ tb1f;
#X obj 306 19 r~ tb1f;
#X obj 5 49 == 0;
#X obj 5 72 sel 1;
#X obj 70 25 r time16;
#X obj 70 72 sel 1;
#X obj 324 91 lop~ 100;
#X obj 70 49 == 2;
#X connect 0 0 1 0;
#X connect 1 0 2 0;
#X connect 2 0 3 0;
#X connect 4 0 13 0;
#X connect 5 0 15 0;
#X connect 6 0 5 0;
#X connect 7 0 6 0;
#X connect 8 0 17 0;
#X connect 9 0 4 0;
#X connect 10 0 4 0;
#X connect 11 0 7 0;
#X connect 12 0 7 0;
#X connect 14 0 21 0;
#X connect 16 0 0 0;
#X connect 17 0 18 0;
#X connect 18 0 9 0;
#X connect 19 0 22 0;
#X connect 20 0 10 0;
#X connect 21 0 1 1;
#X connect 22 0 20 0;
