#N canvas 255 278 888 559 10;
#N canvas 0 0 758 608 ps-bass 0;
#X obj 74 -61 *~;
#X obj 74 42 cos~;
#X obj 116 87 hip~ 5;
#X obj 72 -126 *~;
#X obj 75 22 *~;
#X obj 74 -40 +~;
#X obj 172 -64 *~;
#X obj 171 19 *~;
#X obj 171 -43 +~;
#X obj 170 39 cos~;
#X obj 170 62 *~ 0.5;
#X obj 73 -171 *~;
#X obj 73 -148 +~ 0.1;
#X obj 116 168 dac~;
#X obj 132 127 tgl 15 1 empty \$0-psbass-inout-r empty 0 -6 0 8 -260818
-1 -1 0 1;
#X obj 116 145 *~;
#X obj 71 -262 wrap~;
#X obj 186 -3 *~ 0.85;
#X obj 91 1 *~ 0.15;
#X obj 73 62 *~ 2;
#X obj 90 -83 osc~;
#X obj 187 -83 osc~;
#X obj 185 -24 osc~;
#X obj 91 -20 osc~;
#X obj 71 -402 inlet~;
#X obj 131 -403 inlet~;
#X obj 131 -172 *~;
#X obj 71 -286 *~ 4;
#X obj 146 -217 *~ -0.01;
#X obj 138 -285 *~ 8;
#X obj 138 -262 wrap~;
#X obj 132 -114 *~;
#X obj 138 -241 *~;
#X obj 185 -312 +~ 0.5;
#X obj 184 -290 *~ 0.2;
#X obj 185 -268 +~ 0.17;
#X obj 132 -311 mtof~;
#X obj 186 -333 osc~ 0.1;
#X obj 71 -220 lop~ 60;
#X obj 72 -339 clip~ -1 1;
#X obj 72 -363 *~ 2;
#X obj 72 -198 +~ 0.06;
#X obj 146 -193 +~ 2.001;
#X obj 116 108 *~ 0.12;
#X connect 0 0 5 0;
#X connect 1 0 19 0;
#X connect 2 0 43 0;
#X connect 3 0 5 1;
#X connect 4 0 1 0;
#X connect 5 0 4 0;
#X connect 6 0 8 0;
#X connect 7 0 9 0;
#X connect 8 0 7 0;
#X connect 9 0 10 0;
#X connect 10 0 2 0;
#X connect 11 0 12 0;
#X connect 12 0 3 0;
#X connect 12 0 3 1;
#X connect 12 0 8 1;
#X connect 14 0 15 1;
#X connect 15 0 13 0;
#X connect 15 0 13 1;
#X connect 16 0 28 0;
#X connect 16 0 38 0;
#X connect 17 0 7 1;
#X connect 18 0 4 1;
#X connect 19 0 2 0;
#X connect 20 0 0 1;
#X connect 21 0 6 1;
#X connect 22 0 17 0;
#X connect 23 0 18 0;
#X connect 24 0 40 0;
#X connect 25 0 36 0;
#X connect 26 0 21 0;
#X connect 26 0 22 0;
#X connect 26 0 23 0;
#X connect 26 0 31 0;
#X connect 27 0 16 0;
#X connect 28 0 42 0;
#X connect 29 0 30 0;
#X connect 30 0 32 0;
#X connect 31 0 20 0;
#X connect 32 0 31 1;
#X connect 32 0 38 0;
#X connect 33 0 34 0;
#X connect 34 0 35 0;
#X connect 35 0 32 1;
#X connect 36 0 26 0;
#X connect 37 0 33 0;
#X connect 38 0 41 0;
#X connect 39 0 27 0;
#X connect 39 0 29 0;
#X connect 40 0 39 0;
#X connect 41 0 11 0;
#X connect 41 0 11 1;
#X connect 41 0 6 0;
#X connect 41 0 0 0;
#X connect 42 0 26 1;
#X connect 43 0 15 0;
#X coords 0 -1 1 1 85 60 1 100 100;
#X restore 327 -10 pd ps-bass;
#X obj 405 -32 r note;
#X obj 618 -49 r note;
#X obj 618 -29 + 24;
#N canvas 0 0 598 510 blip 0;
#X obj 188 221 osc~;
#X obj 213 265 *~ 0.1;
#X obj 186 56 wrap~ 1;
#X obj 187 82 *~;
#X obj 187 109 *~;
#X obj 188 132 *~;
#X obj 188 159 *~;
#X obj 185 32 *~ -32;
#X obj 188 180 *~ 7000;
#X obj 240 31 *~ -8;
#X obj 241 54 wrap~ 1;
#X obj 258 220 osc~;
#X obj 213 244 *~;
#X obj 242 76 *~;
#X obj 242 103 *~;
#X obj 243 126 *~;
#X obj 243 153 *~;
#X obj 258 199 +~ 10;
#X obj 259 179 *~ 700;
#X obj 188 200 +~ 0;
#X obj 239 0 inlet~;
#X obj 174 148 tgl 10 1 empty \$0-blip-inout-r empty 0 -6 0 8 -260818
-1 -1 0 1;
#X obj 215 340 dac~;
#X text 236 325 ajf;
#X obj 214 288 hip~ 50;
#X obj 215 312 *~;
#X obj 300 54 +~ 1;
#X obj 300 33 *~ -1;
#X obj 301 78 *~;
#X obj 106 148 hsl 64 10 0 1 0 1 empty \$0-blip-vol-r vol 15 5 1 8
-260818 -1 -1 0 1;
#X obj 97 -49 swap 2;
#X obj 97 -24 pow;
#X obj 97 -93 r \$0-blipfrq1;
#X obj 97 -2 * -1;
#X obj 97 -70 + 1;
#X obj 195 -50 swap 2;
#X obj 195 -25 pow;
#X obj 195 -3 * -1;
#X obj 195 -71 + 1;
#X obj 195 -94 r \$0-blipfrq2;
#X obj 103 123 hradio 10 1 1 6 \$0-blipfrq1 \$0-blip-frq1-r empty 0
-6 0 8 -260818 -1 -1 0;
#X obj 103 136 hradio 10 1 1 6 \$0-blipfrq2 \$0-blip-frq2-r empty 0
-6 0 8 -260818 -1 -1 0;
#X obj 135 189 t b f;
#X obj 135 212 *;
#X connect 0 0 12 0;
#X connect 1 0 24 0;
#X connect 2 0 3 0;
#X connect 2 0 3 1;
#X connect 3 0 4 0;
#X connect 3 0 4 1;
#X connect 4 0 5 0;
#X connect 4 0 5 1;
#X connect 5 0 6 0;
#X connect 5 0 6 1;
#X connect 6 0 8 0;
#X connect 7 0 2 0;
#X connect 8 0 19 0;
#X connect 9 0 10 0;
#X connect 10 0 13 0;
#X connect 10 0 13 1;
#X connect 11 0 12 1;
#X connect 12 0 1 0;
#X connect 13 0 14 0;
#X connect 13 0 14 1;
#X connect 14 0 15 0;
#X connect 14 0 15 1;
#X connect 15 0 16 0;
#X connect 15 0 16 1;
#X connect 16 0 18 0;
#X connect 17 0 11 0;
#X connect 18 0 17 0;
#X connect 19 0 0 0;
#X connect 20 0 7 0;
#X connect 20 0 9 0;
#X connect 20 0 27 0;
#X connect 21 0 42 0;
#X connect 24 0 25 0;
#X connect 25 0 22 0;
#X connect 25 0 22 1;
#X connect 26 0 28 0;
#X connect 26 0 28 1;
#X connect 27 0 26 0;
#X connect 28 0 25 1;
#X connect 29 0 43 0;
#X connect 30 0 31 0;
#X connect 30 1 31 1;
#X connect 31 0 33 0;
#X connect 32 0 34 0;
#X connect 33 0 7 1;
#X connect 34 0 30 0;
#X connect 35 0 36 0;
#X connect 35 1 36 1;
#X connect 36 0 37 0;
#X connect 37 0 9 1;
#X connect 38 0 35 0;
#X connect 39 0 38 0;
#X connect 42 0 43 0;
#X connect 42 1 43 1;
#X connect 43 0 1 1;
#X coords 0 -1 1 1 85 60 1 100 100;
#X restore 238 -10 pd blip;
#N canvas 0 0 1021 637 loopzor 0;
#N canvas 0 0 450 300 graph1 0;
#X array drums1 61205 float 0;
#X coords 0 0 61204 1 200 130 0;
#X restore 156 -251 graph;
#X obj 69 -252 soundfiler;
#X obj 153 -320 list;
#X obj 153 -370 loadbang;
#X msg 69 -274 read -resize \$1 drums1;
#X obj 52 -97 tabread4~ drums1;
#X obj 52 52 *~ 0.5;
#X obj 51 76 *~;
#X obj 168 137 tgl 12 1 empty \$0-lpzr-inout-r empty 0 -6 0 8 -260818
-1 -1 0 1;
#X obj 52 -360 inlet~;
#X obj 53 -120 *~;
#X text 334 -313 amen.wav anizts.wav bigj.wav lofi.wav neck.wav skipper.wav
;
#X msg 153 -341 ./sounds/bigj.wav;
#X msg 282 -342 ./sounds/amen.wav;
#X msg 413 -343 ./sounds/anizts.wav;
#X msg 556 -345 ./sounds/lofi.wav;
#X msg 687 -347 ./sounds/neck.wav;
#X msg 816 -347 ./sounds/skipper.wav;
#X obj 107 152 hradio 12 1 0 6 empty \$0-lpzr-brksel-r empty 0 -6 0
8 -260818 -1 -1 0;
#X obj 485 -403 r \$0-breakselector;
#X obj 108 216 s \$0-breakselector;
#X obj 485 -379 sel 0 1 2 3 4 5;
#X obj 51 -54 *~;
#X obj 175 -117 cos~;
#X obj 174 -97 abs~;
#X obj 175 -139 *~;
#X obj 107 166 hradio 12 1 0 6 empty \$0-lpzr-cutf-r empty 0 -6 0 8
-260818 -1 -1 0;
#X obj 191 -203 swap 2;
#X obj 191 -178 pow;
#X obj 191 -158 * 0.125;
#X obj 191 -227 r \$0-cutterfreq;
#X obj 114 190 s \$0-cutterfreq;
#X obj 174 -77 sqrt~;
#X obj 101 51 line~;
#X obj 107 -36 r \$0-loopzorinout;
#X obj 225 190 s \$0-loopzorinout;
#X obj 50 153 dac~;
#X text 50 176 ajf;
#X obj 107 -15 t b f;
#X obj 101 8 *;
#X obj 101 -55 r \$0-loopzorvol;
#X obj 114 123 hsl 64 10 0 1 0 1 empty \$0-lpzr-vol-r vol 18 5 1 8
-260818 -1 -1 0 1;
#X obj 224 168 s \$0-loopzorvol;
#X obj 51 97 hip~ 10;
#X obj 53 -332 *~ 2;
#X obj 52 -312 wrap~;
#X msg 101 30 \$1 5;
#X connect 1 0 10 1;
#X connect 2 0 4 0;
#X connect 3 0 12 0;
#X connect 4 0 1 0;
#X connect 5 0 22 0;
#X connect 6 0 7 0;
#X connect 7 0 43 0;
#X connect 8 0 35 0;
#X connect 9 0 44 0;
#X connect 10 0 5 0;
#X connect 12 0 2 0;
#X connect 13 0 2 0;
#X connect 14 0 2 0;
#X connect 15 0 2 0;
#X connect 16 0 2 0;
#X connect 17 0 2 0;
#X connect 18 0 20 0;
#X connect 19 0 21 0;
#X connect 21 0 12 0;
#X connect 21 1 13 0;
#X connect 21 2 14 0;
#X connect 21 3 15 0;
#X connect 21 4 16 0;
#X connect 21 5 17 0;
#X connect 22 0 6 0;
#X connect 23 0 24 0;
#X connect 24 0 32 0;
#X connect 25 0 23 0;
#X connect 26 0 31 0;
#X connect 27 0 28 0;
#X connect 27 1 28 1;
#X connect 28 0 29 0;
#X connect 29 0 25 1;
#X connect 30 0 27 0;
#X connect 32 0 22 1;
#X connect 33 0 7 1;
#X connect 34 0 38 0;
#X connect 38 0 39 0;
#X connect 38 1 39 1;
#X connect 39 0 46 0;
#X connect 40 0 39 0;
#X connect 41 0 42 0;
#X connect 43 0 36 0;
#X connect 43 0 36 1;
#X connect 44 0 45 0;
#X connect 45 0 25 0;
#X connect 45 0 10 0;
#X connect 46 0 33 0;
#X coords 0 -1 1 1 85 80 1 100 100;
#X restore 31 -9 pd loopzor;
#N canvas 787 343 425 494 eat-tachyons 0;
#N canvas 0 0 588 523 3cosynth 0;
#X obj 94 226 osc~;
#X obj 155 227 osc~;
#X obj 215 229 osc~;
#X obj 155 286 clip~ -0.1 0.1;
#X obj 139 310 *~;
#X obj 67 38 inlet;
#X obj 139 358 outlet~;
#X text 65 8 (note \, l0 \, l1 \, l2 \, f1 \, f2 \, A \, D \, Amp)
;
#X obj -23 38 inlet~ phase;
#X obj 139 332 *~ 2;
#X obj 67 96 mtof~;
#X obj 139 179 *~;
#X obj 192 172 *~;
#X obj 339 37 osc~ 0.5;
#X obj 340 61 +~ 1;
#X obj 340 109 +~ 4;
#X obj 340 85 *~ 4;
#X obj 262 63 +~ 1;
#X obj 261 39 osc~ 0.25;
#X obj 262 111 +~ 0.5;
#X obj 262 87 *~ 0.25;
#X obj 95 253 *~ 0.298;
#X obj 154 253 *~ 0.353;
#X obj 216 255 *~ 0.175;
#X connect 0 0 21 0;
#X connect 1 0 22 0;
#X connect 2 0 23 0;
#X connect 3 0 4 1;
#X connect 4 0 9 0;
#X connect 5 0 10 0;
#X connect 8 0 4 0;
#X connect 9 0 6 0;
#X connect 10 0 0 0;
#X connect 10 0 11 0;
#X connect 10 0 12 0;
#X connect 11 0 1 0;
#X connect 12 0 2 0;
#X connect 13 0 14 0;
#X connect 14 0 16 0;
#X connect 15 0 12 1;
#X connect 16 0 15 0;
#X connect 17 0 20 0;
#X connect 18 0 17 0;
#X connect 19 0 11 1;
#X connect 20 0 19 0;
#X connect 21 0 3 0;
#X connect 22 0 3 0;
#X connect 23 0 3 0;
#X restore 9 211 pd 3cosynth;
#X msg 77 236 250;
#N canvas 0 0 450 300 deldeld 0;
#X obj 70 59 delwrite~ \$0-ddd 500;
#X obj 55 136 +~;
#X obj 68 39 +~;
#X obj 79 110 *~ 0.6;
#X obj 95 88 delread~ \$0-ddd 250;
#X obj 54 16 inlet~;
#X obj 55 157 outlet~;
#X obj 120 16 inlet;
#X connect 1 0 6 0;
#X connect 2 0 0 0;
#X connect 3 0 1 1;
#X connect 3 0 2 0;
#X connect 4 0 3 0;
#X connect 5 0 2 1;
#X connect 5 0 1 0;
#X connect 7 0 4 0;
#X restore 10 256 pd deldeld;
#X msg 100 320 0.7;
#X obj 51 279 phasor~ 0.333;
#X obj 11 343 vcf~ 100 0.7;
#X obj 109 211 loadbang;
#X obj 51 320 +~ 200;
#X obj 51 300 *~ 2000;
#X obj 179 145 tgl 12 0 empty \$0-eat-inout-r empty 0 -6 0 8 -260818
-1 -1 0 1;
#X obj 179 259 line~;
#X msg 179 237 \$1 100;
#X obj 11 369 *~;
#X obj 189 214 r \$0-stplks-M;
#X obj 64 -49 inlet~ phase;
#X obj 66 44 *~;
#X obj 67 70 *~;
#X obj 168 20 inlet note;
#X obj 12 392 *~;
#X obj 250 73 *~ 2;
#X obj 251 94 clip~ 1 2;
#X obj 251 115 wrap~;
#X obj 252 136 cos~;
#X obj 252 180 clip~ 0 1;
#X obj 252 201 lop~ 60;
#X obj 252 158 *~ 100;
#X obj 10 234 hip~ 30;
#X obj 11 464 dac~;
#X obj 12 432 *~ 0.5;
#X text 41 451 ajf;
#X obj 141 124 vsl 10 32 0.01 1 1 1 empty \$0-eat-vol-r volume 0 -8
1 8 -260818 -1 -1 0 1;
#X obj 65 -26 *~ -1;
#X obj 65 -2 wrap~;
#X connect 0 0 26 0;
#X connect 1 0 2 1;
#X connect 2 0 5 0;
#X connect 3 0 5 2;
#X connect 4 0 8 0;
#X connect 5 0 12 0;
#X connect 6 0 3 0;
#X connect 6 0 1 0;
#X connect 7 0 5 1;
#X connect 8 0 7 0;
#X connect 9 0 11 0;
#X connect 10 0 12 1;
#X connect 11 0 10 0;
#X connect 12 0 18 0;
#X connect 13 0 11 0;
#X connect 14 0 31 0;
#X connect 15 0 16 0;
#X connect 15 0 16 1;
#X connect 16 0 0 0;
#X connect 17 0 0 1;
#X connect 18 0 28 0;
#X connect 19 0 20 0;
#X connect 20 0 21 0;
#X connect 21 0 22 0;
#X connect 22 0 25 0;
#X connect 23 0 24 0;
#X connect 24 0 18 1;
#X connect 25 0 23 0;
#X connect 26 0 2 0;
#X connect 28 0 27 0;
#X connect 28 0 27 1;
#X connect 30 0 28 1;
#X connect 31 0 32 0;
#X connect 32 0 19 0;
#X connect 32 0 15 0;
#X connect 32 0 15 1;
#X coords 0 -1 1 1 100 60 1 100 100;
#X restore 518 -9 pd eat-tachyons;
#N canvas 0 0 756 824 terrorizor 0;
#X obj 104 346 +~;
#X obj 104 323 *~ 0.5;
#X obj 156 322 *~ 0.5;
#N canvas 0 0 450 300 coshape 0;
#X obj 117 14 inlet~;
#X obj 115 204 outlet~;
#X obj 169 86 sig~;
#X obj 169 14 inlet;
#X obj 116 152 cos~;
#X obj 116 116 +~;
#X obj 169 63 * 0.25;
#X obj 115 177 hip~ 10;
#X connect 0 0 5 0;
#X connect 2 0 5 1;
#X connect 3 0 6 0;
#X connect 4 0 7 0;
#X connect 5 0 4 0;
#X connect 6 0 2 0;
#X connect 7 0 1 0;
#X restore 4 559 pd coshape;
#N canvas 0 0 450 300 powshape 0;
#X obj 116 42 inlet~;
#X obj 117 195 outlet~;
#X obj 194 43 inlet;
#X text 130 128 defunct;
#X connect 0 0 1 0;
#X restore 4 508 pd powshape;
#X obj 4 485 +~;
#N canvas 0 0 450 300 powshape 0;
#X obj 116 42 inlet~;
#X obj 117 195 outlet~;
#X obj 194 43 inlet;
#X text 136 104 defunct;
#X connect 0 0 1 0;
#X restore 65 592 pd powshape;
#N canvas 0 0 450 300 powshape 0;
#X obj 116 42 inlet~;
#X obj 117 195 outlet~;
#X obj 194 43 inlet;
#X text 131 118 defunct;
#X connect 0 0 1 0;
#X restore 158 577 pd powshape;
#N canvas 0 0 450 300 coshape 0;
#X obj 117 14 inlet~;
#X obj 115 204 outlet~;
#X obj 169 86 sig~;
#X obj 169 14 inlet;
#X obj 116 152 cos~;
#X obj 116 116 +~;
#X obj 169 63 * 0.25;
#X obj 115 177 hip~ 10;
#X connect 0 0 5 0;
#X connect 2 0 5 1;
#X connect 3 0 6 0;
#X connect 4 0 7 0;
#X connect 5 0 4 0;
#X connect 6 0 2 0;
#X connect 7 0 1 0;
#X restore 158 620 pd coshape;
#X obj 109 671 hip~ 5;
#X obj 159 670 hip~ 5;
#X obj 91 623 /~;
#X obj 4 530 /~;
#X obj 158 598 /~;
#X obj 158 534 +~;
#X obj 104 396 lop~ 8000;
#X obj 105 423 hip~ 12;
#X msg 76 485 2.3;
#X msg 217 554 1.8;
#X msg 137 557 1.8;
#X msg 223 599 0.4;
#X msg 69 536 0.5;
#X obj 137 450 loadbang;
#X obj 119 75 inlet note;
#X obj 5 84 inlet~ phase;
#X obj 104 300 cos~;
#X obj 156 300 cos~;
#X obj 103 276 *~;
#X obj 156 277 *~;
#X obj 42 115 *~;
#X obj 14 115 *~;
#X obj 44 60 sig~;
#X obj 4 274 cos~;
#X obj 5 302 +~ 1;
#X obj 119 229 mtof;
#X obj 104 368 sqrt~;
#X obj 108 645 *~ 0.12;
#X obj 158 643 *~ 0.12;
#X obj 355 312 line~;
#X obj 137 124 vsl 10 32 0 1 0 1 empty \$0-psthb-mv-r move 0 -8 1 8
-260818 -1 -1 0 1;
#X msg 355 290 \$1 20;
#X obj 320 347 +~;
#X text 276 273 amp ctl;
#X obj 241 297 wrap~;
#X obj 108 698 *~;
#X obj 158 718 *~;
#X obj 134 748 dac~;
#X obj 320 368 cos~;
#X text 120 14 phase synchronous terrorist hoover bass;
#X text 156 469 mellow jungle preset;
#X text 161 485 left-right buzzy;
#X obj 321 389 lop~ 50;
#X obj 215 670 *~;
#X obj 116 138 tgl 12 1 empty \$0-psthb-inout-r empty 0 -6 2 8 -260818
-1 -1 0 1;
#X obj 241 274 *~ 4;
#X obj 169 124 vsl 10 32 0 16 0 1 empty \$0-psthb-fc-r f0 0 -8 1 8
-260818 -1 -1 0 1;
#X obj 44 37 r \$0-scalecurve;
#X text 162 39 scale compensate for tempo ( f of period);
#X connect 0 0 35 0;
#X connect 1 0 0 0;
#X connect 2 0 0 1;
#X connect 3 0 6 0;
#X connect 4 0 12 0;
#X connect 5 0 4 0;
#X connect 6 0 11 0;
#X connect 7 0 13 0;
#X connect 8 0 37 0;
#X connect 9 0 44 0;
#X connect 10 0 45 0;
#X connect 11 0 36 0;
#X connect 12 0 3 0;
#X connect 13 0 8 0;
#X connect 14 0 7 0;
#X connect 15 0 16 0;
#X connect 16 0 5 1;
#X connect 16 0 14 1;
#X connect 17 0 12 1;
#X connect 17 0 4 1;
#X connect 18 0 13 1;
#X connect 18 0 7 1;
#X connect 19 0 11 1;
#X connect 19 0 6 1;
#X connect 20 0 8 1;
#X connect 21 0 3 1;
#X connect 22 0 17 0;
#X connect 22 0 21 0;
#X connect 22 0 19 0;
#X connect 22 0 18 0;
#X connect 22 0 20 0;
#X connect 23 0 34 0;
#X connect 24 0 29 0;
#X connect 24 0 30 0;
#X connect 24 0 32 0;
#X connect 24 0 54 0;
#X connect 25 0 1 0;
#X connect 26 0 2 0;
#X connect 27 0 25 0;
#X connect 28 0 26 0;
#X connect 29 0 28 0;
#X connect 30 0 27 0;
#X connect 31 0 29 1;
#X connect 31 0 30 1;
#X connect 32 0 33 0;
#X connect 33 0 14 0;
#X connect 33 0 5 0;
#X connect 34 0 27 1;
#X connect 34 0 28 1;
#X connect 35 0 15 0;
#X connect 36 0 9 0;
#X connect 37 0 10 0;
#X connect 38 0 41 1;
#X connect 39 0 40 0;
#X connect 40 0 38 0;
#X connect 41 0 47 0;
#X connect 43 0 41 0;
#X connect 44 0 46 0;
#X connect 45 0 46 1;
#X connect 47 0 51 0;
#X connect 51 0 52 0;
#X connect 52 0 45 1;
#X connect 52 0 44 1;
#X connect 53 0 52 1;
#X connect 54 0 43 0;
#X connect 55 0 54 1;
#X connect 56 0 31 0;
#X coords 0 -1 1 1 85 60 1 100 100;
#X restore 417 -10 pd terrorizor;
#X obj 503 -51 r note;
#X obj 503 -31 + 36;
#X obj 290 -167 -~;
#N canvas 0 0 450 300 spinback 0;
#X obj 51 174 r \$0-period;
#X obj 109 145 hsl 64 10 0 1 0 0 empty empty amount 10 5 1 8 -260818
-1 -1 0 1;
#X obj 38 249 *~ 1;
#X obj 37 273 outlet~;
#X obj 109 130 bng 10 250 50 0 empty \$0-backspin-r empty 0 -6 0 8
-260818 -1 -1;
#X obj 37 226 ead~ 0 1;
#X obj 89 200 * 2;
#X connect 0 0 6 0;
#X connect 1 0 2 1;
#X connect 2 0 3 0;
#X connect 4 0 5 0;
#X connect 5 0 2 0;
#X connect 6 0 5 2;
#X coords 0 -1 1 1 85 60 1 100 100;
#X restore 305 -236 pd spinback;
#X text 305 -256 timeline trickery;
#N canvas 0 0 450 300 groove 0;
#X obj 56 172 cos~;
#X obj 57 194 +~ 0.5;
#X obj 42 238 +~;
#X text 103 174 groove;
#X obj 55 150 *~ 8;
#X obj 58 216 *~ 0.001;
#X obj 41 95 inlet~;
#X obj 41 261 outlet~;
#X obj 112 139 hsl 64 10 0 1 0 1 empty \$0-groove-r groove 14 5 1 8
-260818 -1 -1 630 1;
#X obj 109 153 * 0.01;
#X connect 0 0 1 0;
#X connect 1 0 5 0;
#X connect 2 0 7 0;
#X connect 4 0 0 0;
#X connect 5 0 2 1;
#X connect 6 0 4 0;
#X connect 6 0 2 0;
#X connect 8 0 9 0;
#X connect 9 0 5 1;
#X coords 0 -1 1 1 85 60 1 100 100;
#X restore 291 -145 pd groove;
#N canvas 0 0 307 458 phasync 0;
#X obj 6 405 dac~;
#X text 110 264 ajf;
#X obj 118 124 vsl 10 32 0.1 1 1 1 empty \$0-psdrums-tone-r tone 0
-8 1 8 -260818 -1 -1 0 1;
#X obj 118 207 line~;
#X obj 161 206 loadbang;
#X obj 118 163 * 5000;
#X msg 118 186 \$1 1000;
#X msg 159 226 1.3;
#N canvas 0 0 1257 553 phasesyncronousdrums 0;
#N canvas 0 0 455 351 psbd 0;
#X obj 167 30 wrap~;
#X obj 182 230 *~;
#X obj 168 55 *~;
#X obj 183 146 osc~;
#X obj 167 82 *~;
#X obj 168 5 inlet~;
#X obj 181 166 clip~ -0.9 0.9;
#X obj 182 189 *~ 2;
#X obj 181 295 outlet~;
#X obj 184 104 *~ 100;
#X obj 184 124 +~ 42;
#X obj 198 208 lop~ 80;
#X obj 181 261 *~ 0.7;
#X connect 0 0 2 0;
#X connect 0 0 2 1;
#X connect 1 0 12 0;
#X connect 2 0 4 0;
#X connect 2 0 4 1;
#X connect 2 0 9 0;
#X connect 3 0 6 0;
#X connect 4 0 11 0;
#X connect 5 0 0 0;
#X connect 6 0 7 0;
#X connect 7 0 1 0;
#X connect 9 0 10 0;
#X connect 10 0 3 0;
#X connect 11 0 1 1;
#X connect 12 0 8 0;
#X restore 419 384 pd psbd;
#N canvas 0 0 545 557 pssd 0;
#X obj 189 1 wrap~;
#X obj 352 121 noise~;
#X obj 198 343 *~;
#X obj 188 26 *~;
#X obj 187 53 *~;
#X obj 197 280 vcf~ 6000 3;
#X obj 269 238 loadbang;
#X obj 188 -41 inlet~;
#X obj 289 154 +~;
#X obj 288 123 osc~;
#X obj 200 84 *~;
#X obj 198 303 *~ 1;
#X obj 198 424 outlet~;
#X obj 288 177 clip~ -0.5 0.5;
#X obj 288 78 *~ 80;
#X obj 288 101 +~ 120;
#X obj 198 390 clip~ -0.7 0.7;
#X obj 198 364 *~ 2;
#X msg 269 259 1;
#X obj 232 205 *~ 3000;
#X obj 232 225 +~ 700;
#X connect 0 0 3 0;
#X connect 0 0 3 1;
#X connect 0 0 14 0;
#X connect 1 0 8 1;
#X connect 2 0 17 0;
#X connect 3 0 4 0;
#X connect 3 0 4 1;
#X connect 4 0 10 0;
#X connect 4 0 10 1;
#X connect 4 0 19 0;
#X connect 5 0 11 0;
#X connect 6 0 18 0;
#X connect 7 0 0 0;
#X connect 8 0 13 0;
#X connect 9 0 8 0;
#X connect 10 0 2 1;
#X connect 11 0 2 0;
#X connect 13 0 5 0;
#X connect 14 0 15 0;
#X connect 15 0 9 0;
#X connect 16 0 12 0;
#X connect 17 0 16 0;
#X connect 18 0 5 2;
#X connect 19 0 20 0;
#X connect 20 0 5 1;
#X restore 482 383 pd pssd;
#X obj 15 242 clip~ 0 1;
#X obj 91 242 clip~ 1 2;
#X obj 167 241 clip~ 2 3;
#X obj 247 242 clip~ 3 4;
#X obj 331 241 clip~ 4 5;
#X obj 407 241 clip~ 5 6;
#X obj 484 241 clip~ 6 7;
#X obj 560 241 clip~ 7 8;
#N canvas 0 0 660 566 pshh 0;
#X obj 230 101 wrap~;
#X obj 245 223 noise~;
#X obj 245 310 *~;
#X obj 229 126 *~;
#X obj 244 270 *~ 0.3;
#X obj 244 247 vcf~ 6000 3;
#X obj 316 205 loadbang;
#X obj 229 59 inlet~;
#X obj 245 175 *~ 1000;
#X obj 244 195 +~ 8000;
#X obj 206 168 *~;
#X obj 241 339 outlet~;
#X obj 205 197 *~;
#X msg 316 226 7;
#X connect 0 0 3 0;
#X connect 0 0 3 1;
#X connect 1 0 5 0;
#X connect 2 0 11 0;
#X connect 3 0 8 0;
#X connect 3 0 10 0;
#X connect 3 0 10 1;
#X connect 4 0 2 0;
#X connect 5 0 4 0;
#X connect 6 0 13 0;
#X connect 7 0 0 0;
#X connect 8 0 9 0;
#X connect 9 0 5 1;
#X connect 10 0 12 0;
#X connect 10 0 12 1;
#X connect 12 0 2 1;
#X connect 13 0 5 2;
#X restore 582 383 pd pshh;
#X text 647 387 drums;
#X text 593 185 subphase range select;
#X obj 481 446 outlet~ sigo;
#X obj 482 426 *~ 0.5;
#X obj 380 27 inlet~;
#X obj 379 72 *~ 16;
#X obj 628 241 clip~ 8 9;
#X obj 696 241 clip~ 9 10;
#X obj 771 241 clip~ 10 11;
#X obj 853 241 clip~ 11 12;
#X obj 935 241 clip~ 12 13;
#X obj 1016 241 clip~ 13 14;
#X obj 1098 241 clip~ 14 15;
#X obj 1180 242 clip~ 15 16;
#X connect 0 0 14 0;
#X connect 1 0 14 0;
#X connect 2 0 10 0;
#X connect 3 0 1 0;
#X connect 4 0 10 0;
#X connect 5 0 10 0;
#X connect 6 0 0 0;
#X connect 7 0 1 0;
#X connect 8 0 10 0;
#X connect 9 0 0 0;
#X connect 10 0 14 0;
#X connect 14 0 13 0;
#X connect 15 0 16 0;
#X connect 16 0 3 0;
#X connect 16 0 4 0;
#X connect 16 0 5 0;
#X connect 16 0 6 0;
#X connect 16 0 7 0;
#X connect 16 0 8 0;
#X connect 16 0 9 0;
#X connect 16 0 2 0;
#X connect 16 0 17 0;
#X connect 16 0 18 0;
#X connect 16 0 19 0;
#X connect 16 0 20 0;
#X connect 16 0 21 0;
#X connect 16 0 22 0;
#X connect 16 0 23 0;
#X connect 16 0 24 0;
#X connect 17 0 10 0;
#X connect 18 0 1 0;
#X connect 19 0 10 0;
#X connect 20 0 10 0;
#X connect 21 0 10 0;
#X connect 22 0 1 0;
#X connect 23 0 0 0;
#X connect 24 0 0 0;
#X restore 5 85 pd phasesyncronousdrums;
#X obj 7 374 *~;
#X obj 7 303 moog~ 100 3;
#X obj 142 143 tgl 15 1 empty \$0-psdrums-inout-r empty 0 -6 0 8 -260818
-1 -1 0 1;
#X obj 4 40 *~ -1;
#X obj 3 15 inlet~;
#X obj 39 344 line~;
#X msg 39 323 \$1 75;
#N canvas 0 0 450 300 glitch 0;
#X obj 25 131 sqrt~;
#X obj 27 203 cos~;
#X obj 26 179 *~ 0.85;
#X obj 26 157 -~ 0.16;
#X obj 25 107 inlet~;
#X obj 26 247 outlet~;
#X obj 26 225 *~ 0.7;
#X connect 0 0 3 0;
#X connect 1 0 6 0;
#X connect 2 0 1 0;
#X connect 3 0 2 0;
#X connect 4 0 0 0;
#X connect 6 0 5 0;
#X restore 6 162 pd glitch warp;
#X obj 174 186 r \$0-drumvol;
#X obj 141 248 t b f;
#X obj 142 270 *;
#X obj 4 61 +~ 1;
#X connect 2 0 5 0;
#X connect 3 0 10 1;
#X connect 4 0 7 0;
#X connect 5 0 6 0;
#X connect 6 0 3 0;
#X connect 7 0 10 2;
#X connect 8 0 16 0;
#X connect 9 0 0 0;
#X connect 9 0 0 1;
#X connect 10 0 9 0;
#X connect 11 0 18 0;
#X connect 12 0 20 0;
#X connect 13 0 12 0;
#X connect 14 0 9 1;
#X connect 15 0 14 0;
#X connect 16 0 10 0;
#X connect 17 0 19 0;
#X connect 18 0 19 0;
#X connect 18 1 19 1;
#X connect 19 0 15 0;
#X connect 20 0 8 0;
#X coords 0 -1 1 1 85 60 1 100 100;
#X restore 120 -9 pd phasync drums;
#N canvas 0 0 408 447 rootphasor 0;
#X obj 55 313 metro 800;
#X msg 55 416 0 \, 1 \$1;
#X obj 55 395 f;
#X obj 55 287 t b f f;
#X obj 55 440 vline~;
#N canvas 0 0 135 236 every4 0;
#X obj 15 48 f;
#X obj 46 48 + 1;
#X obj 15 69 mod 4;
#X obj 15 91 sel 0;
#X obj 15 26 inlet;
#X obj 15 112 outlet;
#X connect 0 0 1 0;
#X connect 0 0 2 0;
#X connect 1 0 0 1;
#X connect 2 0 3 0;
#X connect 3 0 5 0;
#X connect 4 0 0 0;
#X restore 55 354 pd every4;
#X obj 71 374 * 4;
#X obj 56 205 / 60;
#X obj 55 225 swap 1;
#X obj 55 246 /;
#X obj 55 266 * 2000;
#X obj 123 292 * 2;
#X obj 123 314 s \$0-scalecurve;
#X msg 147 392 1;
#X msg 179 391 -1;
#X obj -29 313 s \$0-period;
#X obj 54 465 *~ 1;
#X text 141 409 forward/back;
#X obj 147 370 sel 0 1;
#X obj 104 116 tgl 12 1 empty \$0-reverse-r fwd/back 16 8 1 8 -260818
-1 -1 0 1;
#X obj 107 132 hsl 64 10 50 190 0 1 empty empty tempo 18 5 1 8 -260818
-1 -1 5850 1;
#X obj 105 148 nbx 3 10 40 200 0 0 empty empty empty 0 -6 0 10 -260818
-1 -1 180 256;
#X obj 56 181 int;
#X obj 152 490 outlet bang;
#X obj 53 490 outlet~ phase;
#X obj 104 76 r \$0-temposel-r;
#X connect 0 0 5 0;
#X connect 0 0 23 0;
#X connect 1 0 4 0;
#X connect 2 0 1 0;
#X connect 3 0 0 0;
#X connect 3 1 6 0;
#X connect 3 2 0 1;
#X connect 4 0 16 0;
#X connect 5 0 2 0;
#X connect 6 0 2 1;
#X connect 7 0 8 0;
#X connect 8 0 9 0;
#X connect 8 1 9 1;
#X connect 9 0 10 0;
#X connect 9 0 11 0;
#X connect 10 0 3 0;
#X connect 10 0 15 0;
#X connect 11 0 12 0;
#X connect 13 0 16 1;
#X connect 14 0 16 1;
#X connect 16 0 24 0;
#X connect 18 0 13 0;
#X connect 18 1 14 0;
#X connect 19 0 18 0;
#X connect 20 0 22 0;
#X connect 22 0 21 0;
#X connect 22 0 7 0;
#X connect 25 0 20 0;
#X coords 0 -1 1 1 85 60 1 100 100;
#X restore 291 -343 pd rootphasor;
#N canvas 0 0 450 300 riff 0;
#X msg 153 49 20;
#X obj 183 77 s note;
#X msg 183 49 26;
#X msg 213 49 32;
#N canvas 0 0 135 236 count8 0;
#X obj 15 48 f;
#X obj 46 48 + 1;
#X obj 15 26 inlet;
#X obj 15 112 outlet;
#X obj 15 69 mod 8;
#X connect 0 0 1 0;
#X connect 0 0 4 0;
#X connect 1 0 0 1;
#X connect 2 0 0 0;
#X connect 4 0 3 0;
#X restore 167 -3 pd count8;
#X obj 167 21 sel 0 4 7;
#X obj 167 -27 inlet;
#X text 247 49 simple little riff for D&B;
#X connect 0 0 1 0;
#X connect 2 0 1 0;
#X connect 3 0 1 0;
#X connect 4 0 5 0;
#X connect 5 0 0 0;
#X connect 5 1 2 0;
#X connect 5 2 3 0;
#X connect 6 0 4 0;
#X restore 377 -278 pd riff;
#X text 80 -320 this drives everything -->;
#X text 78 -222 timeline warping effects -->;
#X text 78 -125 timeline groove warping -->;
#X text 189 81 instruments are all phase synchronous;
#N canvas 175 77 791 881 score 0;
#X obj 64 134 inlet;
#X obj 109 135 bng 15 250 50 0 empty empty reset 0 -6 1 8 -260818 -1
-1;
#X obj 64 188 f;
#X obj 93 188 + 1;
#X obj 142 136 nbx 3 12 0 512 0 0 empty empty bar 0 -6 1 10 -260818
-1 -1 1 256;
#X obj 64 230 int;
#X obj 64 250 change;
#N canvas 647 486 568 387 score 0;
#X obj -548 239 s \$0-psthb-mv-r;
#X obj -432 239 s \$0-psthb-fc-r;
#X obj -545 97 s \$0-lpzr-vol-r;
#X obj -433 96 s \$0-lpzr-inout-r;
#X obj -307 97 s \$0-lpzr-brksel-r;
#X obj -174 98 s \$0-lpzr-cutf-r;
#X obj -405 138 s \$0-psdrums-inout-r;
#X obj -546 137 s \$0-psdrums-tone-r;
#X obj -546 174 s \$0-blip-frq1-r;
#X obj -308 172 s \$0-blip-vol-r;
#X obj -195 172 s \$0-blip-inout-r;
#X obj -427 173 s \$0-blip-frq2-r;
#X obj -547 208 s \$0-psbass-inout-r;
#X obj -549 272 s \$0-eat-vol-r;
#X obj -438 272 s \$0-eat-inout-r;
#X obj -545 -12 r \$0-scorerouter;
#X obj -316 238 s \$0-psthb-inout-r;
#X obj -251 139 s \$0-drumvol;
#X obj -310 272 s \$0-backspin-r;
#X obj -197 272 s \$0-reverse-r;
#X obj -91 272 s \$0-groove-r;
#X obj -549 306 s \$0-acd-amp-r;
#X obj -439 307 s \$0-acd-hp-r;
#X obj -341 307 s \$0-acd-cf-r;
#X obj -241 307 s \$0-acd-q-r;
#X obj -148 307 s \$0-acd-lag-r;
#X obj -40 307 s \$0-acidinout-r;
#X obj -548 339 s \$0-temposel-r;
#X obj -545 14 route lpvol lponoff lpsel lpcut drumtone drumonoff blipf1
blipf2 blipvol bliponoff bassonoff stringpos stringfreq squarkvol squarkonoff
stringonoff drumvol backspin reverse groove acidvol acidhipass acidcutoff
acidreson acidlag acidonoff temposelect;
#X connect 15 0 28 0;
#X connect 28 0 2 0;
#X connect 28 1 3 0;
#X connect 28 2 4 0;
#X connect 28 3 5 0;
#X connect 28 4 7 0;
#X connect 28 5 6 0;
#X connect 28 6 8 0;
#X connect 28 7 11 0;
#X connect 28 8 9 0;
#X connect 28 9 10 0;
#X connect 28 10 12 0;
#X connect 28 11 0 0;
#X connect 28 12 1 0;
#X connect 28 13 13 0;
#X connect 28 14 14 0;
#X connect 28 15 16 0;
#X connect 28 16 17 0;
#X connect 28 17 18 0;
#X connect 28 18 19 0;
#X connect 28 19 20 0;
#X connect 28 20 21 0;
#X connect 28 21 22 0;
#X connect 28 22 23 0;
#X connect 28 23 24 0;
#X connect 28 24 25 0;
#X connect 28 25 26 0;
#X connect 28 26 27 0;
#X restore 62 930 pd score router;
#X obj 67 897 s \$0-scorerouter;
#X msg 106 442 drumvol 0.6 \, drumtone 0.7;
#X msg 131 491 stringpos 0.2 \, stringfreq 2;
#X obj 64 209 / 2;
#X msg 217 517 drumvol 0;
#X msg 95 421 stringpos 0.1 \, stringfreq 1 \, stringonoff 1;
#X msg 283 587 lpvol 0.6 \, lponoff 1 \, lpsel 3 \, lpcut 4 \, drumtone
0.4 \, blipf1 3 \, blipf2 3 \, blipvol 0.1 \, bliponoff 1 \, stringfreq
6 \, stringpos 0.4;
#X msg 296 640 lpvol 0 \, blipvol 0 \, stringonoff 0 \, drumvol 0;
#X msg 307 686 stringonoff 1 \, lpvol 0.55 \, lponoff 1 \, lpsel 0
\, lpcut 3 \, drumtone 0.8 \, blipf1 0 \, blipf2 1 \, blipvol 0.08
\, bliponoff 1 \, stringfreq 8 \, stringpos 0.37 \, drumvol 1 \, squarkonoff
1 \, squarkvol 0.9;
#X msg 304 662 backspin 1;
#X msg 109 155 0;
#X msg 134 516 backspin 1;
#X msg 212 541 reverse 1 \, blipvol 0.05;
#X msg 294 564 reverse 0 \, blipvol 0.09;
#X msg 306 749 lpcut 4 \, groove 0.3;
#X msg 307 774 reverse 1 \, backspin 1;
#X msg 463 774 reverse 0 \, backspin 1;
#X obj 64 332 sel 0 4 8 12 16 20 24 29 32 36 42 44 48 52 58 63 64 72
104 106 108 110 112;
#X msg 308 800 stringonoff 1 \, lpvol 0.45 \, lponoff 1 \, lpsel 4
\, lpcut 4 \, drumtone 1 \, blipf1 3 \, blipf2 3 \, blipvol 0.1 \,
bliponoff 1 \, stringfreq 16 \, stringpos 0.37 \, drumvol 1 \, squarkonoff
1 \, squarkvol 0.9 \, groove 0.25;
#X msg 82 400 drumvol 0.4 \, drumonoff 1;
#X msg 307 861 acidonoff 1 \, acidvol 0.2;
#X msg 124 466 drumvol 0.7 \, bassonoff 1;
#X msg 135 193 temposelect 180 \, lpvol 0 \, lponoff 0 \, lpsel 0 \,
lpcut 0 \, drumtone 0 \, drumonoff 0 \, blipf1 0 \, blipf2 0 \, blipvol
0 \, bliponoff 0 \, bassonoff 0 \, stringpos 0 \, stringfreq 0 \, stringonoff
0 \, squarkvol 0 \, squarkonoff 0 \, drumvol 0 \, acidvol 0 \, acidhipass
200 \, acidcutoff 1500 \, acidreson 1.4 \, acidlag 0.02 \, acidonoff
0;
#X msg 619 774 temposelect 60;
#X msg 721 774 temposelect 180;
#X msg 64 367 stringpos 0.1 \, stringfreq 0.5 \, stringonoff 1 \, groove
0.1;
#N canvas 0 0 450 300 halflifesamples 0;
#N canvas 197 153 599 248 hlsample 0;
#N canvas 0 0 450 300 graph1 0;
#X array hlsamp-01 91756 float 0;
#X coords 0 0 91755 1 100 100 0;
#X restore 93 36 graph;
#X obj 11 -36 loadbang;
#X obj 11 36 soundfiler;
#X obj 483 52 hip~ 5;
#X obj 483 -36 r phase;
#X obj 483 -6 vline~;
#X obj 433 -35 r snum;
#X obj 483 30 tabread4~;
#X obj 484 154 dac~;
#N canvas 0 0 450 300 graph1 0;
#X array hlsamp-02 57831 float 0;
#X coords 0 0 57830 1 100 100 0;
#X restore 135 36 graph;
#X msg 11 -12 read -resize ./sounds/hlsamps/c1a0_sci_dis15a.wav hlsamp-01
\, read -resize ./sounds/hlsamps/c1a1_sci_3scan.wav hlsamp-02;
#X obj 484 126 *~ 0.2;
#X obj 483 99 *~;
#X obj 498 79 r sampampamp;
#X connect 1 0 10 0;
#X connect 3 0 12 0;
#X connect 4 0 5 0;
#X connect 5 0 7 0;
#X connect 6 0 7 0;
#X connect 7 0 3 0;
#X connect 10 0 2 0;
#X connect 11 0 8 0;
#X connect 11 0 8 1;
#X connect 12 0 11 0;
#X connect 13 0 12 1;
#X restore 6 690 pd hlsample;
#X obj 4 527 sel 26;
#X msg 4 549 \; snum set hlsamp-01 \; phase 1 \, 1.12e+08 1e+07 \;
sampampamp 1;
#X obj 6 609 sel 60;
#X msg 6 629 \; snum set hlsamp-02 \; phase 1 \, 1.12e+08 1e+07 \;
sampampamp 1.5;
#X obj 38 446 inlet;
#X connect 1 0 2 0;
#X connect 3 0 4 0;
#X connect 5 0 1 0;
#X connect 5 0 3 0;
#X restore 79 309 pd halflifesamples;
#N canvas 595 541 513 347 console 0;
#X obj 97 32 inlet;
#X obj 89 327 print;
#X msg 89 96 now playing "Resonance cascade scenario \, AJ Farnell
2006;
#X msg 105 127 phase synchronous synthesiser arrangement;
#X msg 144 198 get out of there Gordon!;
#X msg 120 159 in a hardstep drum and bass style \, cue cheesy samples
in \, 3 \, 2 \, 1...;
#X msg 148 229 You can move the timeline backwards and forwards like
a tape;
#X msg 155 255 And you can warp the timeline with a cosine to get subtle
grooves \, listen carefully to the rythmn changes now;
#X obj 97 58 sel 1 10 20 30 46 69 100;
#X msg 164 293 Watch yer bass bins!;
#X connect 0 0 8 0;
#X connect 2 0 1 0;
#X connect 3 0 1 0;
#X connect 4 0 1 0;
#X connect 5 0 1 0;
#X connect 6 0 1 0;
#X connect 7 0 1 0;
#X connect 8 0 2 0;
#X connect 8 1 3 0;
#X connect 8 2 5 0;
#X connect 8 3 4 0;
#X connect 8 4 6 0;
#X connect 8 5 7 0;
#X connect 8 6 9 0;
#X connect 9 0 1 0;
#X restore 88 282 pd console spout crap;
#X connect 0 0 2 0;
#X connect 1 0 18 0;
#X connect 1 0 30 0;
#X connect 2 0 3 0;
#X connect 2 0 11 0;
#X connect 3 0 2 1;
#X connect 5 0 6 0;
#X connect 6 0 4 0;
#X connect 6 0 25 0;
#X connect 6 0 35 0;
#X connect 6 0 34 0;
#X connect 9 0 8 0;
#X connect 10 0 8 0;
#X connect 11 0 5 0;
#X connect 12 0 8 0;
#X connect 13 0 8 0;
#X connect 14 0 8 0;
#X connect 15 0 8 0;
#X connect 16 0 8 0;
#X connect 17 0 8 0;
#X connect 18 0 2 1;
#X connect 19 0 8 0;
#X connect 20 0 8 0;
#X connect 21 0 8 0;
#X connect 22 0 8 0;
#X connect 23 0 8 0;
#X connect 24 0 8 0;
#X connect 25 0 33 0;
#X connect 25 1 27 0;
#X connect 25 2 13 0;
#X connect 25 3 9 0;
#X connect 25 4 29 0;
#X connect 25 5 10 0;
#X connect 25 7 12 0;
#X connect 25 8 14 0;
#X connect 25 8 19 0;
#X connect 25 11 20 0;
#X connect 25 12 21 0;
#X connect 25 14 15 0;
#X connect 25 15 17 0;
#X connect 25 16 16 0;
#X connect 25 17 22 0;
#X connect 25 18 23 0;
#X connect 25 19 24 0;
#X connect 25 20 23 0;
#X connect 25 21 24 0;
#X connect 25 21 31 0;
#X connect 25 22 26 0;
#X connect 25 22 28 0;
#X connect 25 22 32 0;
#X connect 26 0 8 0;
#X connect 27 0 8 0;
#X connect 28 0 8 0;
#X connect 29 0 8 0;
#X connect 30 0 8 0;
#X connect 31 0 8 0;
#X connect 32 0 8 0;
#X connect 33 0 8 0;
#X coords 0 -1 1 1 85 60 1 100 100;
#X restore 434 -279 pd score;
#X text 137 -383 Resonance cascade scenario - a synchronous composition
using asymmetrical functions of time;
#N canvas 433 304 723 295 tabacid 0;
#X obj 103 124 vsl 10 32 0 1 0 1 \$0-amp \$0-acd-amp-r amp 0 -8 1 8
-260818 -1 -1 0 1;
#N canvas 0 0 1197 906 graph1 0;
#X array seq 16 float 3;
#A 0 44 44 0 0 0 0 0 0 0 0 0 50 0 68 0 0;
#X coords 0 0 1 1 64 64 0;
#X restore 202 29 graph;
#N canvas 0 0 450 300 graph1 0;
#X array env 103 float 1;
#A 0 1.00539 0.997576 0.989763 0.958513 0.950701 0.942888 0.927263
0.927263 0.927263 0.919451 0.911638 0.896013 0.888201 0.880388 0.864763
0.856951 0.849138 0.841326 0.833513 0.833513 0.825701 0.817888 0.797055
0.791847 0.786638 0.778826 0.771013 0.755388 0.747576 0.739763 0.724138
0.724138 0.724138 0.716326 0.708513 0.692888 0.685076 0.677263 0.661638
0.653826 0.646013 0.646013 0.646013 0.614763 0.608513 0.602263 0.596013
0.589763 0.583513 0.567888 0.560076 0.552263 0.544451 0.536638 0.526222
0.515805 0.505388 0.494972 0.484555 0.474138 0.466326 0.458513 0.442888
0.43396 0.425031 0.416103 0.407174 0.398246 0.389317 0.380388 0.364763
0.356951 0.349138 0.339373 0.329607 0.319842 0.310076 0.30031 0.290545
0.280779 0.271013 0.260597 0.25018 0.239763 0.229347 0.21893 0.208513
0.200701 0.192888 0.182472 0.172055 0.161638 0.151222 0.140805 0.130388
0.122576 0.114763 0.0887217 0.0783051 0.0678884 0.0574717 0.0470551
0.0366384;
#X coords 0 0 1 1 64 64 0;
#X restore 243 28 graph;
#N canvas 0 0 450 300 graph1 0;
#X array wform 259 float 1;
#A 0 -0.705685 -0.705685 -0.705685 -0.705685 -0.705685 -0.705685 -0.705685
-0.713498 -0.72131 -0.729123 -0.736935 -0.744748 -0.75256 -0.760373
-0.768185 -0.775998 -0.78381 -0.791623 -0.611935 -0.611935 -0.611935
-0.611935 -0.611935 -0.611935 -0.611935 -0.611935 -0.611935 -0.611935
-0.611935 -0.611935 -0.424435 -0.416623 -0.40881 -0.400998 -0.393185
-0.393185 -0.393185 -0.393185 -0.393185 -0.393185 -0.393185 -0.393185
-0.393185 -0.400998 -0.40881 -0.416623 -0.361935 -0.350217 -0.338498
-0.326779 -0.31506 -0.303342 -0.291623 -0.279904 -0.268185 -0.256467
-0.244748 -0.233029 -0.22131 -0.209592 -0.197873 -0.186154 -0.174435
-0.15881 -0.143185 -0.12756 -0.111935 -0.111935 -0.111935 -0.111935
-0.111935 -0.119748 -0.12756 -0.135373 -0.143185 -0.150998 -0.15881
-0.166623 -0.174435 -0.182248 -0.19006 -0.197873 -0.0181855 -0.0181855
-0.0181855 -0.0181855 -0.0181855 -0.0181855 -0.0181855 -0.0181855 -0.0181855
-0.0181855 -0.0181855 -0.0181855 -0.0181855 -0.0338105 -0.0338105 -0.0338105
-0.0338105 -0.0338105 -0.041623 -0.0494355 -0.057248 -0.0963105 0.169315
0.169315 0.161502 0.15369 0.145877 0.138065 0.12244 0.106815 0.0911895
0.0130645 0.005252 -0.0025605 -0.010373 -0.0494355 0.419315 0.411502
0.40369 0.395877 0.356814 0.350564 0.344314 0.338064 0.330252 0.322439
0.314627 0.0255645 0.0255645 0.0255645 0.0255645 0.0255645 0.37244
0.356815 0.349002 0.34119 0.333377 0.325565 0.24744 0.239627 0.231815
0.224002 0.12244 0.114627 0.106815 0.099002 0.0911895 0.638065 0.62244
0.606815 0.536502 0.52869 0.520877 0.513065 0.169315 0.169315 0.169315
0.169315 0.302127 0.30994 0.317752 0.325565 0.286502 0.27869 0.270877
0.263065 0.255252 0.24744 0.239627 0.231815 0.286502 0.27869 0.270877
0.263065 0.255252 0.24744 0.239627 0.231815 0.224002 0.21619 0.208377
0.200565 0.192752 0.18494 0.177127 0.169315 0.161502 0.15369 0.145877
0.138065 0.224002 0.21619 0.208377 0.200565 0.130252 0.12244 0.114627
0.106815 0.099002 0.0911895 0.083377 0.0755645 0.21619 0.200565 0.18494
0.169315 0.161502 0.15369 0.145877 0.138065 0.138065 0.138065 0.138065
0.138065 0.099002 0.0911895 0.083377 0.0755645 0.0599395 0.0443145
0.0286895 0.0130645 -0.025998 -0.0338105 -0.041623 -0.0494355 -0.057248
-0.0650605 -0.072873 -0.0806855 -0.0806855 -0.0806855 -0.0806855 -0.0806855
0.036502 0.0286895 0.020877 0.0130645 -0.0338105 -0.0494355 -0.0650605
-0.0806855 -0.088498 -0.0963105 -0.104123 -0.111935 0.005252 -0.0025605
-0.010373 -0.0181855 -0.0244355 -0.0306855 -0.0369355 -0.0431855 -0.0494355
-0.111935 -0.111935;
#X coords 0 0 1 1 64 64 0;
#X restore 284 28 graph;
#X obj 125 124 vsl 10 32 4 1000 0 1 \$0-highpass \$0-acd-hp-r hp 0
-8 1 8 -260818 -1 -1 610 1;
#X obj 141 124 vsl 10 32 4 5000 0 1 \$0-frequency \$0-acd-cf-r cf 0
-8 1 8 -260818 -1 -1 928 1;
#X obj 154 124 vsl 10 32 0.01 3.9 0 0 \$0-resonance \$0-acd-q-r q 0
-8 1 8 -260818 -1 -1 1108 1;
#X obj 167 124 vsl 10 32 1e-04 1 1 1 \$0-lag \$0-acd-lag-r lag 0 -8
1 8 -260818 -1 -1 1783 1;
#N canvas 0 0 450 300 routeparams 0;
#X obj 33 67 s \$0-amp;
#X obj 35 141 s \$0-frequency;
#X obj 35 166 s \$0-resonance;
#X obj 34 116 s \$0-highpass;
#X obj 35 191 s \$0-lag;
#X obj 33 11 inlet;
#X obj 33 38 route amp hipass freq res lag;
#X connect 5 0 6 0;
#X connect 6 0 0 0;
#X connect 6 1 3 0;
#X connect 6 2 1 0;
#X connect 6 3 2 0;
#X connect 6 4 4 0;
#X restore 265 234 pd routeparams;
#X obj 265 210 r tableseq303analog;
#N canvas 42 135 439 539 synthgubbins 0;
#X obj 81 332 *~;
#X obj 82 357 hip~ 5;
#X obj 141 138 wrap~;
#X obj 141 162 *~ 100;
#X obj 141 186 +~ 1;
#X obj 64 184 phasor~;
#X obj 64 208 -~ 0.5;
#X obj 65 234 cos~;
#X obj 115 233 *~;
#X obj 115 257 *~ 128;
#X obj 115 281 +~ 129;
#X obj 65 258 +~ 1;
#X obj 83 409 *~;
#X obj 141 210 tabread4~ env;
#X obj 115 305 tabread4~ wform;
#X obj 82 380 moog~;
#X obj 62 87 tabread~ seq;
#X obj 62 118 mtof~;
#X obj 63 144 lop~;
#X obj 102 55 +~ 0;
#X obj 189 88 r \$0-lag;
#X obj 189 111 pow -1;
#X obj 317 241 r \$0-resonance;
#X obj 316 188 r \$0-frequency;
#X obj 318 161 r \$0-highpass;
#X obj 253 113 r \$0-amp;
#X obj 58 505 outlet~;
#X obj 316 215 sig~;
#X obj 317 266 sig~;
#X obj 59 436 *~;
#X obj 6 117 >~ 0;
#X obj 103 33 *~ 16;
#X obj 5 355 lop~ 10;
#N canvas 294 490 450 300 delay 0;
#X obj 55 136 +~;
#X obj 68 34 +~;
#X obj 54 10 inlet~;
#X obj 55 157 outlet~;
#X obj 120 10 inlet;
#X obj 95 88 delread~ \$0-aaaa 250;
#X obj 70 59 delwrite~ \$0-aaaa 3000;
#X obj 79 110 *~ 0.44;
#X connect 0 0 3 0;
#X connect 1 0 6 0;
#X connect 2 0 1 1;
#X connect 2 0 0 0;
#X connect 4 0 5 0;
#X connect 5 0 7 0;
#X connect 7 0 0 1;
#X connect 7 0 1 0;
#X restore 114 478 pd delay;
#X obj 113 504 outlet~;
#X text 183 52 table wrapping + FM;
#X obj 103 10 inlet~ phase;
#X obj 253 134 * 2;
#X obj 165 429 r \$0-period;
#X obj 165 453 * 3;
#X obj 316 113 r \$0-acidinout;
#X obj 316 333 *;
#X obj 317 311 t b f;
#X obj 59 458 *~ 1;
#X obj 127 381 sig~;
#X floatatom 242 159 5 0 0 0 - - -;
#X floatatom 354 143 5 0 0 0 - - -;
#X connect 0 0 1 0;
#X connect 1 0 15 0;
#X connect 2 0 3 0;
#X connect 3 0 4 0;
#X connect 4 0 13 0;
#X connect 5 0 6 0;
#X connect 6 0 8 0;
#X connect 6 0 7 0;
#X connect 7 0 11 0;
#X connect 8 0 9 0;
#X connect 9 0 10 0;
#X connect 10 0 14 0;
#X connect 11 0 0 0;
#X connect 12 0 29 1;
#X connect 13 0 8 1;
#X connect 14 0 0 1;
#X connect 15 0 12 0;
#X connect 16 0 17 0;
#X connect 16 0 30 0;
#X connect 17 0 18 0;
#X connect 18 0 5 0;
#X connect 19 0 2 0;
#X connect 19 0 16 0;
#X connect 20 0 21 0;
#X connect 21 0 18 1;
#X connect 22 0 28 0;
#X connect 23 0 27 0;
#X connect 24 0 1 1;
#X connect 25 0 37 0;
#X connect 27 0 15 1;
#X connect 28 0 15 2;
#X connect 29 0 43 0;
#X connect 30 0 32 0;
#X connect 31 0 19 0;
#X connect 32 0 29 0;
#X connect 33 0 34 0;
#X connect 36 0 31 0;
#X connect 37 0 41 0;
#X connect 37 0 45 0;
#X connect 38 0 39 0;
#X connect 39 0 33 1;
#X connect 40 0 42 0;
#X connect 40 0 46 0;
#X connect 41 0 44 0;
#X connect 42 0 41 0;
#X connect 42 1 41 1;
#X connect 43 0 26 0;
#X connect 43 0 33 0;
#X connect 44 0 12 1;
#X restore 89 29 pd synthgubbins;
#X text 108 49 ajf 2006;
#X obj 89 4 inlet~ phase;
#X obj 119 76 dac~;
#X text 65 96 ajf;
#X text 215 9 data tables;
#X text 45 -26 A single acid synth that stores data in tables;
#X obj 341 3 inlet note;
#X obj 341 54 + 0;
#X obj 406 53 + 12;
#X obj 373 52 + 6;
#X obj 341 29 t f f f f;
#X obj 441 53 + 24;
#X obj 341 80 pack f f f f;
#X msg 361 126 \; seq 0 \$1 0 \$3 0 0 0 \$2 0 0 0 \$1 \$2 \$3 \$0 \$0
\$4;
#X obj 182 136 tgl 10 0 \$0-acidinout \$0-acidinout-r empty 0 -6 0
8 -260818 -1 -1 0 1;
#X msg 264 165 \; seq 0 \$1 \$1 0 0 0 0 0 0 0 0 0 \$2 0 \$4 \$0 0;
#X connect 9 0 8 0;
#X connect 10 0 13 0;
#X connect 10 1 13 1;
#X connect 12 0 10 0;
#X connect 17 0 21 0;
#X connect 18 0 23 0;
#X connect 19 0 23 2;
#X connect 20 0 23 1;
#X connect 21 0 18 0;
#X connect 21 1 20 0;
#X connect 21 2 19 0;
#X connect 21 3 22 0;
#X connect 22 0 23 3;
#X connect 23 0 26 0;
#X coords 0 -1 1 1 100 60 1 100 100;
#X restore 631 -9 pd tabacid;
#X obj 724 -49 r note;
#X obj 724 -29 + 24;
#X obj 599 -374 loadbang;
#X msg 599 -347 \; pd dsp 1;
#X connect 1 0 0 1;
#X connect 2 0 3 0;
#X connect 3 0 6 1;
#X connect 8 0 9 0;
#X connect 9 0 7 1;
#X connect 10 0 13 0;
#X connect 11 0 10 1;
#X connect 13 0 4 0;
#X connect 13 0 0 0;
#X connect 13 0 7 0;
#X connect 13 0 14 0;
#X connect 13 0 6 0;
#X connect 13 0 5 0;
#X connect 13 0 23 0;
#X connect 15 0 10 0;
#X connect 15 1 16 0;
#X connect 15 1 21 0;
#X connect 24 0 25 0;
#X connect 25 0 23 1;
#X connect 26 0 27 0;
