#N canvas 141 159 576 410 10;
#X obj -61 43 moses 16;
#X obj 158 60 - 16;
#X obj -61 259 outlet~ L;
#X obj 9 259 outlet~ R;
#X obj 79 259 outlet~ Mono;
#X obj 79 236 +~;
#X obj 9 236 +~;
#X obj -61 236 +~;
#X obj -61 19 inlet da_0_a_32;
#X obj -61 94 moses 8;
#X obj 49 111 - 8;
#X obj 36 171 +~;
#X obj -18 171 +~;
#X obj -61 171 +~;
#X obj 158 94 moses 8;
#X obj 268 111 - 8;
#X obj 255 171 +~;
#X obj 201 171 +~;
#X obj 158 171 +~;
#X obj -50 118 bng 15 250 50 0 empty empty empty 17 7 0 10 -262144
-1 -1;
#X obj -11 118 bng 15 250 50 0 empty empty empty 17 7 0 10 -262144
-1 -1;
#X obj 168 117 bng 15 250 50 0 empty empty empty 17 7 0 10 -262144
-1 -1;
#X obj 207 117 bng 15 250 50 0 empty empty empty 17 7 0 10 -262144
-1 -1;
#X obj -61 136 8-bubble-cluster;
#X obj 49 136 8-bubble-cluster;
#X obj 158 136 8-bubble-cluster;
#X obj 268 136 8-bubble-cluster;
#X connect 0 0 9 0;
#X connect 0 1 1 0;
#X connect 1 0 14 0;
#X connect 5 0 4 0;
#X connect 6 0 3 0;
#X connect 7 0 2 0;
#X connect 8 0 0 0;
#X connect 9 0 19 0;
#X connect 9 0 23 0;
#X connect 9 1 10 0;
#X connect 9 1 20 0;
#X connect 10 0 24 0;
#X connect 11 0 5 0;
#X connect 12 0 6 0;
#X connect 13 0 7 0;
#X connect 14 0 21 0;
#X connect 14 0 25 0;
#X connect 14 1 15 0;
#X connect 14 1 22 0;
#X connect 15 0 26 0;
#X connect 16 0 5 1;
#X connect 17 0 6 1;
#X connect 18 0 7 1;
#X connect 23 0 13 0;
#X connect 23 1 12 0;
#X connect 23 2 11 0;
#X connect 24 0 13 1;
#X connect 24 1 12 1;
#X connect 24 2 11 1;
#X connect 25 0 18 0;
#X connect 25 1 17 0;
#X connect 25 2 16 0;
#X connect 26 0 18 1;
#X connect 26 1 17 1;
#X connect 26 2 16 1;
