#N canvas 366 176 514 425 10;
#X obj 144 40 metro 1500;
#X obj 17 65 f;
#X obj 51 65 + 1;
#X msg 363 48 0;
#X obj 144 15 inlet on_off;
#X obj 363 15 loadbang;
#X obj 17 163 moses 32;
#X obj 132 180 - 32;
#X obj 17 261 +~;
#X obj 63 261 +~;
#X obj 115 261 +~;
#X obj 247 168 moses 32;
#X obj 364 185 - 32;
#X obj 247 261 +~;
#X obj 293 261 +~;
#X obj 350 261 +~;
#X obj 17 89 mod 128;
#X obj 17 129 moses 64;
#X obj 247 146 - 64;
#X obj 94 377 throw~ busR;
#X obj 16 377 throw~ busL;
#X obj 175 377 throw~ busMono;
#X obj 16 331 +~;
#X obj 63 331 +~;
#X obj 110 331 +~;
#X obj 28 188 bng 15 250 50 0 empty empty empty 17 7 0 10 -262144 -1
-1;
#X obj 67 188 bng 15 250 50 0 empty empty empty 17 7 0 10 -262144 -1
-1;
#X obj 258 188 bng 15 250 50 0 empty empty empty 17 7 0 10 -262144
-1 -1;
#X obj 297 188 bng 15 250 50 0 empty empty empty 17 7 0 10 -262144
-1 -1;
#X obj 225 15 inlet bubble_distance;
#X obj 17 15 inlet single-bubble;
#X obj 17 215 32-bubble-cluster;
#X obj 132 215 32-bubble-cluster;
#X obj 247 215 32-bubble-cluster;
#X obj 364 215 32-bubble-cluster;
#X connect 0 0 1 0;
#X connect 1 0 2 0;
#X connect 1 0 16 0;
#X connect 2 0 1 1;
#X connect 3 0 1 1;
#X connect 4 0 0 0;
#X connect 5 0 3 0;
#X connect 6 0 25 0;
#X connect 6 0 31 0;
#X connect 6 1 7 0;
#X connect 6 1 26 0;
#X connect 7 0 32 0;
#X connect 8 0 22 0;
#X connect 9 0 23 0;
#X connect 10 0 24 0;
#X connect 11 0 27 0;
#X connect 11 0 33 0;
#X connect 11 1 12 0;
#X connect 11 1 28 0;
#X connect 12 0 34 0;
#X connect 13 0 22 1;
#X connect 14 0 23 1;
#X connect 15 0 24 1;
#X connect 16 0 17 0;
#X connect 17 0 6 0;
#X connect 17 1 18 0;
#X connect 18 0 11 0;
#X connect 22 0 20 0;
#X connect 23 0 19 0;
#X connect 24 0 21 0;
#X connect 29 0 0 1;
#X connect 30 0 1 0;
#X connect 31 0 8 0;
#X connect 31 1 9 0;
#X connect 31 2 10 0;
#X connect 32 0 8 1;
#X connect 32 1 9 1;
#X connect 32 2 10 1;
#X connect 33 0 13 0;
#X connect 33 1 14 0;
#X connect 33 2 15 0;
#X connect 34 0 13 1;
#X connect 34 1 14 1;
#X connect 34 2 15 1;
