#N canvas 561 46 339 178 10;
#N canvas 197 130 390 426 master 0;
#X msg 18 194 \$1 50;
#X obj 18 272 line~;
#X msg 62 195 \$1 50;
#X obj 62 246 line~;
#X obj 99 135 swap 1;
#X obj 99 157 -;
#X obj 210 35 loadbang;
#X msg 210 137 1;
#X obj 10 10 cnv 15 75 170 empty empty Master 8 12 0 14 -228856 -66577
0;
#X obj 55 154 tgl 20 0 empty empty MUTE 0 -7 0 10 -258113 -1 -1 1 1
;
#X obj 18 38 tgl 20 0 empty empty DSP_ON 25 7 0 10 -4034 -1 -1 0 1
;
#X obj 18 71 vsl 15 100 0 1 0 0 empty empty Vol 25 7 0 10 -257985 -1
-1 0 1;
#X obj 246 71 key;
#X obj 246 93 sel 32;
#X obj 246 115 f;
#X obj 276 115 + 1;
#X obj 246 137 mod 2;
#X text 245 53 panic;
#X obj 159 289 *~;
#X obj 159 335 clip~ -1 1;
#X obj 159 367 dac~;
#X obj 159 313 hip~ 5;
#X obj 159 263 *~;
#X obj 139 222 catch~ mix;
#X msg 99 58 \; pd dsp \$1 \; heart_toggle \$1;
#X obj 216 263 s~ to_Oscilloscope;
#X obj 139 392 s~ toRecorder;
#X connect 0 0 1 0;
#X connect 1 0 18 1;
#X connect 2 0 3 0;
#X connect 3 0 22 1;
#X connect 4 0 5 0;
#X connect 4 1 5 1;
#X connect 5 0 2 0;
#X connect 6 0 7 0;
#X connect 7 0 9 0;
#X connect 9 0 4 0;
#X connect 10 0 24 0;
#X connect 11 0 0 0;
#X connect 12 0 13 0;
#X connect 13 0 14 0;
#X connect 14 0 15 0;
#X connect 14 0 16 0;
#X connect 15 0 14 1;
#X connect 16 0 9 0;
#X connect 18 0 21 0;
#X connect 19 0 20 0;
#X connect 19 0 20 1;
#X connect 21 0 19 0;
#X connect 22 0 18 0;
#X connect 23 0 22 0;
#X connect 23 0 25 0;
#X connect 23 0 26 0;
#X coords 0 -1 1 1 75 170 2 10 10;
#X restore 168 -3 pd master;
#N canvas 158 302 378 242 recording 0;
#N canvas 543 307 565 279 recording-util 0;
#X msg 513 185 stop;
#X obj 382 35 loadbang;
#X msg 369 57 0;
#X obj 269 93 f 0;
#X obj 300 93 + 1;
#X floatatom 269 114 5 0 0 0 - - -, f 5;
#X obj 269 47 t b b;
#X obj 269 13 r start;
#X obj 369 13 r reset;
#X obj 513 11 r stop;
#X obj 175 248 writesf~ 1;
#X obj 13 13 inlet~ mix;
#X obj 90 13 inlet~ beats;
#X obj 175 13 inlet~ murmur;
#X msg 269 141 open sounds/\$1_mix.wav \, start;
#X msg 269 165 open sounds/\$1_beats.wav \, start;
#X msg 269 189 open sounds/\$1_murmur.wav \, start;
#X obj 90 248 writesf~ 1;
#X obj 13 248 writesf~ 1;
#X connect 0 0 10 0;
#X connect 0 0 17 0;
#X connect 0 0 18 0;
#X connect 1 0 2 0;
#X connect 2 0 3 1;
#X connect 3 0 4 0;
#X connect 3 0 5 0;
#X connect 4 0 3 1;
#X connect 5 0 14 0;
#X connect 5 0 15 0;
#X connect 5 0 16 0;
#X connect 6 0 3 0;
#X connect 6 1 0 0;
#X connect 7 0 6 0;
#X connect 8 0 2 0;
#X connect 9 0 0 0;
#X connect 11 0 18 0;
#X connect 12 0 17 0;
#X connect 13 0 10 0;
#X connect 14 0 18 0;
#X connect 15 0 17 0;
#X connect 16 0 10 0;
#X restore 160 89 pd recording-util;
#X obj 95 115 s start;
#X obj 16 215 s reset;
#X obj 16 188 s stop;
#X obj 95 90 t b b;
#X obj 10 10 cnv 15 75 170 empty empty Record 8 12 0 14 -228856 -66577
0;
#X obj 17 70 bng 20 250 50 0 empty empty START 25 7 0 10 -4034 -1 -1
;
#X obj 16 107 bng 20 250 50 0 empty empty STOP 25 7 0 10 -258113 -1
-1;
#X obj 16 142 bng 20 250 50 0 empty empty RESET 25 7 0 10 -257985 -1
-1;
#X obj 209 37 catch~ beats;
#X obj 259 60 catch~ murmur;
#X obj 160 13 r~ toRecorder;
#X connect 4 0 1 0;
#X connect 4 1 7 0;
#X connect 6 0 4 0;
#X connect 7 0 3 0;
#X connect 8 0 2 0;
#X connect 9 0 0 1;
#X connect 10 0 0 2;
#X connect 11 0 0 0;
#X coords 0 -1 1 1 75 170 2 10 10;
#X restore 248 -3 pd recording;
#N canvas 315 134 831 269 main 0;
#X obj 633 16 r delay;
#X obj 369 71 onebeat 63 5 0 0.65;
#X obj 546 71 murmur 0.3 50 0.5;
#X obj 686 17 r trigger2;
#X obj 563 16 r trigger2;
#X obj 495 16 r trigger1;
#X obj 369 16 r trigger1;
#X obj 686 72 onebeat 42 3 0.5 1;
#X obj 456 145 throw~ mix;
#X obj 369 145 throw~ beats;
#X obj 546 145 throw~ murmur;
#X obj 189 173 tgl 15 0 empty heart_toggle empty 17 7 0 10 -262144
-1 -1 0 1;
#N canvas 46 400 304 331 master 0;
#X obj 13 206 bng 15 250 50 0 empty empty empty 17 7 0 10 -262144 -1
-1;
#X obj 13 226 t b b;
#X obj 83 243 delay 100;
#X floatatom 153 49 5 0 0 1 BPM - -, f 5;
#X obj 153 70 swap 60000;
#X obj 153 95 /;
#X obj 13 156 tgl 15 0 empty empty empty 17 7 0 10 -262144 -1 -1 0
1;
#X obj 13 178 metro;
#X floatatom 153 117 5 0 0 1 ms - -, f 5;
#X obj 153 183 / 100;
#X floatatom 153 227 5 0 0 1 35%_time_fraction - -, f 5;
#X obj 153 205 * 35;
#X obj 153 161 line;
#X msg 153 138 \$1 4000;
#X obj 153 14 inlet BPM;
#X obj 13 14 inlet toggle;
#X obj 153 306 outlet delay;
#X obj 13 306 s trigger1;
#X obj 83 306 s trigger2;
#X connect 0 0 1 0;
#X connect 1 0 17 0;
#X connect 1 1 2 0;
#X connect 2 0 18 0;
#X connect 3 0 4 0;
#X connect 4 0 5 0;
#X connect 4 1 5 1;
#X connect 5 0 8 0;
#X connect 6 0 7 0;
#X connect 7 0 0 0;
#X connect 8 0 13 0;
#X connect 9 0 11 0;
#X connect 10 0 2 1;
#X connect 10 0 16 0;
#X connect 11 0 10 0;
#X connect 12 0 7 1;
#X connect 12 0 9 0;
#X connect 13 0 12 0;
#X connect 14 0 3 0;
#X connect 15 0 6 0;
#X restore 211 171 pd master;
#X obj 211 194 s delay;
#X obj 211 116 loadbang;
#X msg 211 138 60;
#X obj 10 10 cnv 20 170 170 empty empty LovelyHeart 8 12 0 14 -261234
-66577 0;
#X obj 193 30 r~ to_Oscilloscope;
#X obj 29 47 oscilloscope;
#X obj 32 155 hsl 100 15 50 180 0 0 empty cBPM BPM -2 8 0 10 -228856
-1 -1 762 1;
#X floatatom 142 155 5 0 0 0 - - -, f 5;
#X text 132 14 v1.0;
#N canvas 648 30 417 521 LICENSE 0;
#X text 20 75 This program is free software: you can redistribute it
and/or modify it under the terms of the GNU General Public License
as published by the Free Software Foundation \, either version 3 of
the License \, or (at your option) any later version.;
#X text 20 158 This program is distributed in the hope that it will
be useful \, but WITHOUT ANY WARRANTY \; without even the implied warranty
of MERCHANTABILITY or FITNESS FOR A PARTICULAR PURPOSE. See the GNU
General Public License for more details.;
#X text 20 244 You should have received a copy of the GNU General Public
License along with this program. If not \, see <http://www.gnu.org/licenses/>.
;
#X obj 25 302 loadbang;
#X msg 56 417 This program comes with ABSOLUTELY NO WARRANTY \;;
#X msg 25 470 For details see "LICENSE" file.;
#X obj 25 329 bng 15 250 50 0 empty empty empty 17 7 0 10 -262144 -1
-1;
#X obj 25 492 print;
#X msg 40 437 This is free software \, and you are welcome to redistribute
it under certain conditions \;;
#X msg 72 396 Contact me: nicola@limulo.net \;;
#X obj 25 351 t b b b b b;
#X text 20 47 Copyright (C) 2016 Nicola Ariutti;
#X text 20 9 LovelyHeart: Heartbeat sound synthetizer;
#X msg 88 376 LovelyHeart Copyright (C) 2016 Nicola Ariutti \;;
#X connect 3 0 6 0;
#X connect 4 0 7 0;
#X connect 5 0 7 0;
#X connect 6 0 10 0;
#X connect 8 0 7 0;
#X connect 9 0 7 0;
#X connect 10 0 5 0;
#X connect 10 1 8 0;
#X connect 10 2 4 0;
#X connect 10 3 9 0;
#X connect 10 4 13 0;
#X connect 13 0 7 0;
#X restore 10 212 pd LICENSE;
#N canvas 746 318 178 219 MIDI 0;
#X obj 15 102 / 127;
#X floatatom 15 81 5 0 0 0 - - -, f 5;
#X text 14 8 MIDI controls;
#X obj 15 194 s cBPM;
#X text 14 36 BPM control;
#X obj 15 59 ctlin 1;
#X obj 15 171 + 50;
#X obj 15 150 * 130;
#X connect 0 0 7 0;
#X connect 1 0 0 0;
#X connect 5 0 1 0;
#X connect 6 0 3 0;
#X connect 7 0 6 0;
#X restore 10 188 pd MIDI;
#X connect 0 0 2 1;
#X connect 1 0 8 0;
#X connect 1 0 9 0;
#X connect 2 0 8 0;
#X connect 2 0 10 0;
#X connect 3 0 7 0;
#X connect 4 0 2 0;
#X connect 5 0 2 0;
#X connect 6 0 1 0;
#X connect 7 0 8 0;
#X connect 7 0 9 0;
#X connect 11 0 12 0;
#X connect 12 0 13 0;
#X connect 14 0 15 0;
#X connect 15 0 19 0;
#X connect 17 0 18 0;
#X connect 19 0 20 0;
#X connect 20 0 12 1;
#X coords 0 -1 1 1 170 170 1 10 10;
#X restore -8 -3 pd main;
