#N canvas 167 86 717 460 10;
#X floatatom 387 65 5 0 0 0 - - -;
#X obj 333 14 noise~;
#X obj 333 127 *~;
#X msg 554 134 \$1 20;
#X obj 554 156 line~;
#X obj 318 372 *~;
#X obj 40 15 inlet bang;
#X obj 387 14 inlet freq;
#X obj 318 343 *~;
#X obj 318 427 outlet~;
#X floatatom 554 89 5 0 0 0 - - -;
#X obj 640 14 loadbang;
#X obj 640 38 f \$3;
#X obj 106 148 / 100;
#X obj 106 124 f;
#X obj 106 181 * 30;
#X obj 215 60 hsl 100 15 0 1 0 0 empty empty % -2 8 0 10 -204800 -1
-1 0 1;
#X obj 212 79 * 100;
#X obj 212 121 swap 100;
#X obj 212 143 -;
#X floatatom 212 100 5 0 0 0 - - -;
#X floatatom 212 165 5 0 0 0 - - -;
#X obj 151 181 * 70;
#X floatatom 106 203 5 0 0 0 - - -;
#X floatatom 151 203 5 0 0 0 - - -;
#X obj 121 15 inlet delay;
#X floatatom 121 37 5 0 0 0 - - -;
#X msg 106 258 0 \, 1 \$1 0 \, 0 \$2 \$1;
#X obj 106 226 pack 1 2;
#X obj 106 281 vline~;
#X obj 554 111 * 250;
#X obj 318 400 lop~ 500;
#X obj 212 15 loadbang;
#X obj 212 38 f \$1;
#X obj 460 14 loadbang;
#X obj 460 38 f \$2;
#X obj 333 92 bp~ 50 5;
#X obj 106 326 *~;
#X obj 554 14 inlet volume;
#X connect 0 0 36 1;
#X connect 1 0 36 0;
#X connect 2 0 8 1;
#X connect 3 0 4 0;
#X connect 4 0 5 1;
#X connect 5 0 31 0;
#X connect 6 0 14 0;
#X connect 7 0 0 0;
#X connect 8 0 5 0;
#X connect 10 0 30 0;
#X connect 11 0 12 0;
#X connect 12 0 10 0;
#X connect 13 0 15 0;
#X connect 13 0 22 0;
#X connect 14 0 13 0;
#X connect 15 0 23 0;
#X connect 16 0 17 0;
#X connect 17 0 20 0;
#X connect 18 0 19 0;
#X connect 18 1 19 1;
#X connect 19 0 21 0;
#X connect 20 0 15 1;
#X connect 20 0 18 0;
#X connect 21 0 22 1;
#X connect 22 0 24 0;
#X connect 23 0 28 0;
#X connect 24 0 28 1;
#X connect 25 0 26 0;
#X connect 26 0 14 1;
#X connect 27 0 29 0;
#X connect 28 0 27 0;
#X connect 29 0 37 1;
#X connect 29 0 37 0;
#X connect 30 0 3 0;
#X connect 31 0 9 0;
#X connect 32 0 33 0;
#X connect 33 0 16 0;
#X connect 34 0 35 0;
#X connect 35 0 0 0;
#X connect 36 0 2 1;
#X connect 36 0 2 0;
#X connect 37 0 8 0;
#X connect 38 0 10 0;
