#N canvas 4 22 1276 756 10;
#X obj 149 294 line~;
#X floatatom 164 111 5 0 0 1 f - -;
#X obj 164 132 swap 1000;
#X floatatom 164 176 5 0 0 1 t_(ms) - -;
#X floatatom 271 158 5 0 0 1 cycles - -;
#X obj 164 199 *;
#X msg 149 269 0 \, 1 \$1 0;
#X obj 149 247 f;
#X obj 149 338 *~;
#X obj 298 321 int;
#X obj 51 232 bng 15 250 50 0 empty empty empty 17 7 0 10 -262144 -1
-1;
#X obj 149 360 -~ 0.25;
#X obj 149 382 cos~;
#X floatatom 164 220 5 0 0 0 - - -;
#X obj 271 182 t b f;
#X obj 50 370 *~;
#X obj 50 289 sig~ 1;
#X obj 50 311 -~;
#X obj 134 493 *~;
#X obj 51 37 inlet bang;
#X obj 134 545 outlet~;
#X obj 325 359 *~;
#X obj 325 379 -~ 0.25;
#X obj 325 401 cos~;
#X obj 340 338 * 2;
#X floatatom 397 406 5 0 0 0 - - -;
#X floatatom 551 506 5 0 0 0 - - -;
#X obj 149 461 +~;
#X obj 149 432 *~ 0.5;
#X obj 325 444 *~ 0.5;
#X obj 164 37 inlet f_fond;
#X obj 164 154 / \$1;
#X obj 188 59 loadbang;
#X obj 288 59 loadbang;
#X obj 288 81 f \$2;
#X obj 325 422 *~ \$3;
#X obj 134 522 *~ \$4;
#X obj 188 80 f \$1;
#X text 370 334 2nd harmonics;
#X text 48 269 envelope;
#X obj 271 37 inlet cycles;
#X obj 551 37 inlet volume;
#X obj 397 37 inlet vol_2nd_harmonics;
#X connect 0 0 8 0;
#X connect 0 0 17 1;
#X connect 0 0 21 0;
#X connect 1 0 2 0;
#X connect 2 0 31 0;
#X connect 2 1 31 1;
#X connect 3 0 5 0;
#X connect 4 0 14 0;
#X connect 5 0 13 0;
#X connect 6 0 0 0;
#X connect 7 0 6 0;
#X connect 8 0 11 0;
#X connect 9 0 8 1;
#X connect 9 0 24 0;
#X connect 10 0 7 0;
#X connect 11 0 12 0;
#X connect 12 0 28 0;
#X connect 13 0 7 1;
#X connect 14 0 5 0;
#X connect 14 1 5 1;
#X connect 14 1 9 0;
#X connect 15 0 18 0;
#X connect 16 0 17 0;
#X connect 17 0 15 1;
#X connect 17 0 15 0;
#X connect 18 0 36 0;
#X connect 19 0 10 0;
#X connect 21 0 22 0;
#X connect 22 0 23 0;
#X connect 23 0 35 0;
#X connect 24 0 21 1;
#X connect 25 0 35 1;
#X connect 26 0 36 1;
#X connect 27 0 18 1;
#X connect 28 0 27 0;
#X connect 29 0 27 1;
#X connect 30 0 1 0;
#X connect 31 0 3 0;
#X connect 32 0 37 0;
#X connect 33 0 34 0;
#X connect 34 0 4 0;
#X connect 35 0 29 0;
#X connect 36 0 20 0;
#X connect 37 0 1 0;
#X connect 40 0 4 0;
#X connect 41 0 26 0;
#X connect 42 0 25 0;
