#N canvas 541 68 588 339 10;
#N canvas 417 63 545 371 controlli_globali 0;
#X obj 10 10 cnv 15 490 80 empty empty controlli_del_singolo_grano
5 12 0 14 -261682 -66577 0;
#X floatatom 377 215 5 0 0 1 (ms) - -;
#X obj 380 194 hsl 100 15 0 1000 0 0 empty my-start startoffset 0 7
0 10 -203904 -1 -1 0 1;
#X obj 43 44 hsl 100 15 0 50 0 0 empty my-dur dur-offset-amt 0 7 0
10 -204800 -1 -1 9900 1;
#X floatatom 40 65 5 0 0 1 (%) - -;
#X obj 157 44 hsl 100 15 0 100 0 0 empty my-dim dim-offset-amt 0 7
0 10 -232576 -1 -1 9900 1;
#X floatatom 154 63 5 0 0 1 (%) - -;
#X obj 154 97 / 100;
#X floatatom 154 118 5 0 0 1 - - -;
#X floatatom 270 65 5 0 0 1 (%) - -;
#X obj 273 44 hsl 100 15 0 50 0 0 empty my-pan pan-offset-amt 0 7 0
10 -261234 -1 -1 9900 1;
#X obj 270 191 s mypan;
#X obj 467 17 bng 15 250 50 0 empty empty reset -35 7 0 10 -262144
-1 -1;
#X obj 467 142 t b b b b;
#X msg 377 309 0;
#X msg 40 159 0;
#X msg 154 159 0;
#X msg 270 159 0;
#X obj 377 340 s myvolume;
#X obj 40 95 / 100;
#X floatatom 57 122 5 0 0 0 - - -;
#X obj 270 104 / 100;
#X floatatom 287 131 5 0 0 0 - - -;
#X obj 154 190 s mydim;
#X obj 40 190 s mydur;
#X connect 1 0 18 0;
#X connect 2 0 1 0;
#X connect 3 0 19 0;
#X connect 3 0 4 0;
#X connect 5 0 6 0;
#X connect 6 0 7 0;
#X connect 7 0 8 0;
#X connect 8 0 23 0;
#X connect 9 0 11 0;
#X connect 10 0 9 0;
#X connect 10 0 21 0;
#X connect 12 0 13 0;
#X connect 13 0 14 0;
#X connect 13 1 15 0;
#X connect 13 2 16 0;
#X connect 13 3 17 0;
#X connect 14 0 2 0;
#X connect 15 0 3 0;
#X connect 16 0 5 0;
#X connect 17 0 10 0;
#X connect 19 0 20 0;
#X connect 19 0 24 0;
#X connect 21 0 22 0;
#X connect 21 0 11 0;
#X coords 0 -1 1 1 490 80 2 10 10;
#X restore -147 199 pd controlli_globali;
#N canvas 187 102 613 332 controlli_globali 0;
#X obj 10 10 cnv 15 490 140 empty empty controlli_globali 5 12 0 14
-261682 -66577 0;
#X obj 154 105 hsl 100 15 1000 5000 0 0 empty b-range bubble-range
0 7 0 10 -232576 -1 -1 9900 1;
#X floatatom 151 125 5 0 0 1 (Hz) - -;
#X obj 39 105 hsl 100 15 1 500 0 0 empty b-dur bubble-duration 0 7
0 10 -204800 -1 -1 1666 1;
#X floatatom 36 125 5 0 0 1 (ms) - -;
#X floatatom 151 67 5 0 0 1 - - -;
#X obj 154 46 hsl 100 15 0 1 0 0 empty b-pan bubble-pan 0 7 0 10 -262130
-1 -1 7100 1;
#X msg 151 175 0.5;
#X obj 152 21 bng 15 250 50 0 empty empty Center 17 7 0 10 -262144
-1 -1;
#X floatatom 36 67 5 0 0 1 - - -;
#X obj 39 46 hsl 100 15 0 1 0 0 empty b-vol bubble-vol 0 7 0 10 -204786
-1 -1 9900 1;
#X msg 36 175 1;
#X msg 36 225 90;
#X msg 151 225 2000;
#X obj 384 105 hsl 100 15 0 1000 0 0 empty b-fmax bubble-fmax 0 7 0
10 -261234 -1 -1 9900 1;
#X floatatom 381 125 5 0 0 1 (Hz) - -;
#X obj 271 105 hsl 100 15 20 200 0 0 empty b-fmin bubble-fmin 0 7 0
10 -228856 -1 -1 9300 1;
#X floatatom 268 125 5 0 0 1 (Hz) - -;
#X msg 268 225 60;
#X msg 381 225 300;
#X obj 517 10 loadbang;
#X obj 268 248 s fmin;
#X obj 151 248 s range;
#X obj 36 248 s dur;
#X obj 381 248 s fmax;
#X obj 471 44 bng 15 250 50 0 empty empty default -50 7 0 10 -262144
-1 -1;
#X obj 471 208 b;
#X obj 36 198 s vol;
#X obj 151 198 s pan;
#X floatatom 268 67 5 0 0 1 - - -;
#X obj 271 46 hsl 100 15 0 1 0 0 empty b-dim bubble-dim 0 7 0 10 -203904
-1 -1 9900 1;
#X obj 268 198 s dim;
#X msg 268 175 0.5;
#X obj 471 158 b;
#X connect 1 0 2 0;
#X connect 2 0 22 0;
#X connect 3 0 4 0;
#X connect 4 0 23 0;
#X connect 6 0 5 0;
#X connect 6 0 28 0;
#X connect 7 0 6 0;
#X connect 8 0 7 0;
#X connect 10 0 9 0;
#X connect 10 0 27 0;
#X connect 11 0 10 0;
#X connect 12 0 3 0;
#X connect 13 0 1 0;
#X connect 14 0 15 0;
#X connect 15 0 24 0;
#X connect 16 0 17 0;
#X connect 17 0 21 0;
#X connect 18 0 16 0;
#X connect 19 0 14 0;
#X connect 20 0 25 0;
#X connect 25 0 26 0;
#X connect 25 0 33 0;
#X connect 26 0 19 0;
#X connect 26 0 18 0;
#X connect 26 0 13 0;
#X connect 26 0 12 0;
#X connect 30 0 29 0;
#X connect 30 0 31 0;
#X connect 32 0 30 0;
#X connect 33 0 32 0;
#X connect 33 0 7 0;
#X connect 33 0 11 0;
#X coords 0 -1 1 1 490 140 1 10 10;
#X restore -146 54 pd controlli_globali;
#N canvas 203 58 402 474 master 0;
#X obj 18 29 tgl 20 0 empty empty DSP_ON 25 7 0 10 -4034 -1 -1 0 1
;
#X msg 112 49 \; pd dsp \$1;
#X obj 152 324 hip~ 5;
#X obj 152 348 clip~ -1 1;
#X obj 152 379 dac~;
#X msg 18 185 \$1 50;
#X obj 18 207 line~;
#X obj 152 254 *~;
#X msg 62 186 \$1 50;
#X obj 62 237 line~;
#X obj 55 145 tgl 20 0 empty empty MUTE 0 -7 0 10 -258113 -1 -1 1 1
;
#X obj 18 62 vsl 15 100 0 1 0 0 empty empty Vol 25 7 0 10 -257985 -1
-1 5500 1;
#X obj 152 224 *~;
#X obj 152 196 *~;
#X obj 132 147 catch~ busL;
#X obj 232 324 hip~ 5;
#X obj 232 348 clip~ -1 1;
#X obj 232 254 *~;
#X obj 232 224 *~;
#X obj 232 196 *~;
#X obj 212 147 catch~ busR;
#X obj 132 438 outlet~ toRecL;
#X obj 212 418 outlet~ toRecR;
#X obj 99 126 swap 1;
#X obj 99 148 -;
#X obj 190 48 loadbang;
#X msg 190 70 1;
#X obj 152 285 *~ 5;
#X obj 232 285 *~ 5;
#X connect 0 0 1 0;
#X connect 2 0 3 0;
#X connect 3 0 4 0;
#X connect 5 0 6 0;
#X connect 6 0 12 0;
#X connect 6 0 18 0;
#X connect 7 0 27 0;
#X connect 8 0 9 0;
#X connect 9 0 7 0;
#X connect 9 0 17 0;
#X connect 10 0 23 0;
#X connect 11 0 5 0;
#X connect 12 0 7 1;
#X connect 14 0 21 0;
#X connect 14 0 12 1;
#X connect 15 0 16 0;
#X connect 16 0 4 1;
#X connect 17 0 28 0;
#X connect 18 0 17 1;
#X connect 20 0 22 0;
#X connect 20 0 18 1;
#X connect 23 0 24 0;
#X connect 23 1 24 1;
#X connect 24 0 8 0;
#X connect 25 0 26 0;
#X connect 26 0 10 0;
#X connect 27 0 2 0;
#X connect 28 0 15 0;
#X coords 0 -1 1 1 75 160 1 10 10;
#X restore 350 -49 pd master;
#N canvas 87 326 378 242 recording 0;
#N canvas 216 126 926 612 recording-util 0;
#X msg 483 135 stop;
#X obj 322 35 loadbang;
#X msg 309 57 0;
#X obj 209 93 f 0;
#X obj 240 93 + 1;
#X floatatom 209 114 5 0 0 0 - - -;
#X obj 209 57 t b b;
#X obj 209 13 r start;
#X obj 309 13 r reset;
#X obj 483 11 r stop;
#X obj 13 248 writesf~ 2;
#X obj 13 13 inlet~ L;
#X obj 69 13 inlet~ R;
#X obj 125 13 inlet~ mono;
#X obj 125 248 writesf~ 1;
#X msg 335 201 open -wave -bytes 3 -rate 48000 recordings_2/bolla_\$1.wav
;
#X msg 209 135 open sounds/\$1_bolle_stereo.wav \, start;
#X msg 209 159 open sounds/\$1_bolle_mono.wav \, start;
#X connect 0 0 10 0;
#X connect 0 0 14 0;
#X connect 1 0 2 0;
#X connect 2 0 3 1;
#X connect 3 0 4 0;
#X connect 3 0 5 0;
#X connect 4 0 3 1;
#X connect 5 0 16 0;
#X connect 5 0 17 0;
#X connect 6 0 3 0;
#X connect 6 1 0 0;
#X connect 7 0 6 0;
#X connect 8 0 2 0;
#X connect 9 0 0 0;
#X connect 11 0 10 0;
#X connect 12 0 10 1;
#X connect 13 0 14 0;
#X connect 16 0 10 0;
#X connect 17 0 14 0;
#X restore 160 89 pd recording-util;
#X obj 259 60 catch~ busMono;
#X obj 17 70 bng 20 250 50 0 empty empty START 25 7 0 10 -4034 -1 -1
;
#X obj 16 107 bng 20 250 50 0 empty empty STOP 25 7 0 10 -258113 -1
-1;
#X obj 95 115 s start;
#X obj 16 205 s reset;
#X obj 16 178 s stop;
#X obj 16 142 bng 20 250 50 0 empty empty RESET 25 7 0 10 -257985 -1
-1;
#X obj 95 90 t b b;
#X obj 160 13 inlet~ fromMasterL;
#X obj 209 37 inlet~ fromMasterR;
#X obj 161 116 loadbang;
#X msg 161 139 0;
#X obj 161 164 s \$0-sync-toggle;
#X connect 1 0 0 2;
#X connect 2 0 8 0;
#X connect 3 0 6 0;
#X connect 7 0 5 0;
#X connect 8 0 4 0;
#X connect 8 1 3 0;
#X connect 9 0 0 0;
#X connect 10 0 0 1;
#X connect 11 0 12 0;
#X connect 12 0 13 0;
#X coords 0 -1 1 1 75 160 1 10 10;
#X restore 350 119 pd recording;
#X text 33 -49 Sintetizzatore procedurale di 'bolle'.;
#N canvas 904 377 330 182 ctrl 0;
#X obj 20 70 hsl 128 15 20 1000 0 0 empty b-dist bubble-distance 0
7 0 10 -257985 -1 -1 3200 1;
#X floatatom 17 90 5 0 0 1 (ms) - -;
#X obj 17 42 tgl 20 0 empty c-metro bubble-always 25 7 0 10 -262144
-1 -1 1 1;
#X obj 17 16 bng 20 250 50 0 empty c-single single-bubble 25 7 0 10
-262144 -1 -1;
#X obj 18 146 poly-128;
#N canvas 30 300 1180 503 midi 0;
#X floatatom 110 31 5 0 0 0 - - -;
#X obj 110 52 / 127;
#X obj 114 292 / 127;
#X obj 244 292 / 127;
#X obj 652 52 / 127;
#X obj 284 52 / 127;
#X obj 384 52 / 127;
#X obj 181 292 / 127;
#X text 10 170 bending;
#X obj 11 9 bendin;
#X floatatom 11 33 5 0 0 0 - - -;
#X floatatom 61 33 5 0 0 0 - - -;
#X obj 11 57 - 8192;
#X obj 11 78 / 8192;
#X floatatom 11 100 5 0 0 0 - - -;
#X floatatom 114 271 5 0 0 0 - - -;
#X floatatom 244 271 5 0 0 0 - - -;
#X floatatom 652 31 5 0 0 0 - - -;
#X floatatom 284 31 5 0 0 0 - - -;
#X floatatom 384 31 5 0 0 0 - - -;
#X floatatom 181 271 5 0 0 0 - - -;
#X obj 181 249 ctlin 1;
#X obj 194 52 / 127;
#X floatatom 194 31 5 0 0 0 - - -;
#X obj 244 364 s my-pan;
#X obj 114 364 s my-dur;
#X obj 652 110 * 500;
#X obj 110 9 ctlin 7;
#X obj 652 9 ctlin 14;
#X obj 284 9 ctlin 15;
#X obj 114 249 ctlin 16;
#X obj 384 9 ctlin 17;
#X obj 800 9 notein;
#X floatatom 800 31 5 0 0 0 - - -;
#X floatatom 851 31 5 0 0 0 - - -;
#X floatatom 891 31 5 0 0 0 - - -;
#X obj 800 56 stripnote;
#X obj 924 83 sel 48 50 52 53 55 57;
#X msg 924 114 105;
#X msg 957 114 106;
#X msg 987 114 107;
#X msg 1017 114 108;
#X msg 1047 114 109;
#X msg 1080 114 113;
#X obj 924 218 / 127;
#X obj 924 154 f;
#X obj 924 197 line;
#X msg 924 175 \$1 500;
#X obj 244 249 ctlin 8;
#X obj 194 9 ctlin 10;
#X floatatom 239 33 5 0 0 0 - - -;
#X floatatom 156 31 5 0 0 0 - - -;
#X floatatom 329 31 5 0 0 0 - - -;
#X floatatom 429 31 5 0 0 0 - - -;
#X obj 924 269 s g1-start;
#X obj 652 154 s b-dist;
#X obj 110 153 s b-vol;
#X obj 194 154 s b-pan;
#X obj 284 154 s b-dur;
#X obj 284 110 * 499;
#X obj 284 132 + 1;
#X obj 384 154 s b-range;
#X obj 384 111 * 4000;
#X obj 384 133 + 1000;
#X obj 564 52 / 127;
#X obj 474 52 / 127;
#X floatatom 564 31 5 0 0 0 - - -;
#X floatatom 474 31 5 0 0 0 - - -;
#X floatatom 609 31 5 0 0 0 - - -;
#X floatatom 519 31 5 0 0 0 - - -;
#X obj 474 133 + 20;
#X obj 474 111 * 180;
#X obj 474 154 s b-fmin;
#X obj 564 154 s b-fmax;
#X obj 564 110 * 1000;
#X obj 181 364 s my-dim;
#X obj 181 342 * 100;
#X obj 114 342 * 50;
#X obj 244 342 * 50;
#X obj 564 9 ctlin 19;
#X obj 474 9 ctlin 18;
#X obj 11 153 s b-dim;
#X obj 11 121 * 1;
#X obj 652 292 / 127;
#X floatatom 652 271 5 0 0 0 - - -;
#X obj 562 292 / 127;
#X floatatom 562 271 5 0 0 0 - - -;
#X obj 562 340 * 500;
#X obj 562 249 ctlin 11;
#X obj 652 249 ctlin 12;
#X obj 562 364 s c-single;
#X obj 652 364 s c-metro;
#X obj 800 83 moses 48;
#X obj 800 105 moses 73;
#X floatatom 800 127 5 0 0 0 - - -;
#X obj 800 148 - 48;
#X obj 800 170 / 24;
#X floatatom 800 192 5 0 0 0 - - -;
#X obj 800 213 t b f;
#X obj 827 245 s b-dim;
#X obj 800 268 s c-single;
#X connect 0 0 1 0;
#X connect 1 0 56 0;
#X connect 2 0 77 0;
#X connect 3 0 78 0;
#X connect 4 0 26 0;
#X connect 5 0 59 0;
#X connect 6 0 62 0;
#X connect 7 0 76 0;
#X connect 9 0 10 0;
#X connect 9 1 11 0;
#X connect 10 0 12 0;
#X connect 12 0 13 0;
#X connect 13 0 14 0;
#X connect 14 0 82 0;
#X connect 15 0 2 0;
#X connect 16 0 3 0;
#X connect 17 0 4 0;
#X connect 18 0 5 0;
#X connect 19 0 6 0;
#X connect 20 0 7 0;
#X connect 21 0 20 0;
#X connect 22 0 57 0;
#X connect 23 0 22 0;
#X connect 26 0 55 0;
#X connect 27 0 0 0;
#X connect 27 1 51 0;
#X connect 28 0 17 0;
#X connect 29 0 18 0;
#X connect 29 1 52 0;
#X connect 30 0 15 0;
#X connect 31 0 19 0;
#X connect 31 1 53 0;
#X connect 32 0 33 0;
#X connect 32 1 34 0;
#X connect 32 2 35 0;
#X connect 33 0 36 0;
#X connect 34 0 36 1;
#X connect 36 0 37 0;
#X connect 36 0 92 0;
#X connect 37 0 38 0;
#X connect 37 1 39 0;
#X connect 37 2 40 0;
#X connect 37 3 41 0;
#X connect 37 4 42 0;
#X connect 37 5 43 0;
#X connect 38 0 45 0;
#X connect 39 0 45 0;
#X connect 40 0 45 0;
#X connect 41 0 45 0;
#X connect 42 0 45 0;
#X connect 43 0 45 0;
#X connect 44 0 54 0;
#X connect 45 0 47 0;
#X connect 46 0 44 0;
#X connect 47 0 46 0;
#X connect 48 0 16 0;
#X connect 49 0 23 0;
#X connect 49 1 50 0;
#X connect 59 0 60 0;
#X connect 60 0 58 0;
#X connect 62 0 63 0;
#X connect 63 0 61 0;
#X connect 64 0 74 0;
#X connect 65 0 71 0;
#X connect 66 0 64 0;
#X connect 67 0 65 0;
#X connect 70 0 72 0;
#X connect 71 0 70 0;
#X connect 74 0 73 0;
#X connect 76 0 75 0;
#X connect 77 0 25 0;
#X connect 78 0 24 0;
#X connect 79 0 66 0;
#X connect 79 1 68 0;
#X connect 80 0 67 0;
#X connect 80 1 69 0;
#X connect 82 0 81 0;
#X connect 83 0 91 0;
#X connect 84 0 83 0;
#X connect 85 0 87 0;
#X connect 86 0 85 0;
#X connect 88 0 86 0;
#X connect 89 0 84 0;
#X connect 92 1 93 0;
#X connect 93 0 94 0;
#X connect 94 0 95 0;
#X connect 95 0 96 0;
#X connect 96 0 97 0;
#X connect 97 0 98 0;
#X connect 98 0 100 0;
#X connect 98 1 99 0;
#X restore 188 11 pd midi;
#X obj 188 32 loadbang;
#X msg 188 53 500;
#X connect 0 0 1 0;
#X connect 1 0 4 2;
#X connect 2 0 4 1;
#X connect 3 0 4 0;
#X connect 6 0 7 0;
#X connect 7 0 0 0;
#X coords 0 -1 1 1 170 100 2 10 10;
#X restore -146 -51 pd ctrl;
#X text 33 -32 Attivare il DSP \;;
#X text 33 -12 disattivare il MUTE \;;
#X text 33 8 alzare il volume \;;
#X text 33 28 fare click su single-bubble.;
#X connect 2 0 3 0;
#X connect 2 1 3 1;
