#N canvas 63 142 1237 721 10;
#X obj 603 729 cnv 15 230 150 empty empty pan_del_grano 5 12 0 14 -261234
-66577 0;
#X text 277 896 se i parametri locali del grano variano solo al momento
del trigger iniziale non cè problema per cui occorra utilizzare sample
and hold di sorta;
#X obj 201 871 *~;
#X obj 282 871 *~;
#X obj 201 833 *~ 0.5;
#X obj 21 27 inlet~ L;
#X obj 81 27 inlet~ R;
#X obj 141 27 inlet~ M;
#X obj 141 888 +~;
#X obj 81 888 +~;
#X obj 21 888 +~;
#X obj 21 916 outlet~ L;
#X obj 81 916 outlet~ R;
#X obj 141 916 outlet~ M;
#X obj 612 777 clip~ 0 1;
#X obj 612 799 *~ 0.25;
#X obj 612 854 cos~;
#X obj 646 832 -~ 0.25;
#X obj 646 854 cos~;
#X obj 612 754 sig~;
#X obj 356 80 s \$0-pan;
#X floatatom 756 858 5 0 0 0 - - -;
#X floatatom 756 837 5 0 0 0 - - -;
#X obj 756 782 r mypan;
#X obj 697 758 r \$0-pan;
#X obj 697 780 t b b;
#X obj 724 808 myrandom;
#X obj 697 808 f;
#X obj 697 832 *;
#X obj 697 856 +;
#X obj 201 714 *~;
#X obj 341 101 s \$0-vol;
#X obj 603 574 cnv 15 240 142 empty empty volume_del_grano 5 12 0 14
-204786 -66577 0;
#X obj 621 600 r \$0-vol;
#X floatatom 693 695 5 0 0 0 - - -;
#X floatatom 693 674 5 0 0 0 - - -;
#X obj 621 624 t b b;
#X obj 648 648 myrandom;
#X obj 621 649 f;
#X obj 621 671 *;
#X obj 621 693 +;
#X obj 693 621 r myvolume;
#X obj 793 617 f;
#X obj 793 697 sig~;
#N canvas 681 433 577 227 env4pow 0;
#X obj 74 6 inlet;
#X obj 74 58 vline~;
#X obj 74 93 *~;
#X obj 74 123 *~;
#X obj 74 153 *~;
#X obj 7 124 sig~ 1;
#X obj 7 151 -~;
#X obj 7 184 outlet~;
#X obj 74 184 outlet~;
#X text 168 18 una rampa che scende da 1 a 0 in un tempo impostato
tramite inlet.;
#X msg 74 31 1 0 \, 0 \$1 0;
#X connect 0 0 10 0;
#X connect 1 0 2 0;
#X connect 1 0 2 1;
#X connect 2 0 3 1;
#X connect 2 0 3 0;
#X connect 3 0 4 1;
#X connect 3 0 4 0;
#X connect 3 0 6 1;
#X connect 4 0 8 0;
#X connect 5 0 6 0;
#X connect 6 0 7 0;
#X connect 10 0 1 0;
#X restore 201 463 pd env4pow;
#X obj 269 380 t f f f;
#X obj 278 440 swap 1;
#X obj 278 464 -;
#X obj 347 440 + 0.1;
#X obj 201 619 +~;
#X text 227 619 frequenza;
#X obj 332 585 lop~ 12;
#X obj 332 609 *~;
#X obj 201 646 osc~;
#X obj 631 438 r range;
#X obj 616 504 f;
#X obj 686 525 f;
#X obj 756 547 f;
#X obj 327 122 s \$0-dur;
#X obj 312 142 s \$0-range;
#X obj 298 162 s \$0-fmin;
#X obj 283 182 s \$0-fmax;
#X obj 616 412 r \$0-range;
#X obj 201 440 *;
#X obj 278 542 *;
#X obj 278 564 +;
#X obj 201 521 *~;
#X obj 693 600 r vol;
#X obj 756 758 r pan;
#X obj 269 27 inlet bubbledimension;
#X floatatom 631 460 5 0 0 0 - - -;
#X floatatom 701 460 5 0 0 0 - - -;
#X floatatom 771 460 5 0 0 0 - - -;
#X obj 850 333 f;
#X obj 833 157 cnv 15 220 170 empty empty bubble_duration 5 12 0 14
-204800 -66577 0;
#X floatatom 949 302 5 0 0 0 - - -;
#X floatatom 949 281 5 0 0 0 - - -;
#X obj 850 204 t b b;
#X obj 877 229 myrandom;
#X obj 850 257 *;
#X obj 850 231 f;
#X obj 850 279 *;
#X obj 850 301 +;
#X obj 949 229 t f f;
#X floatatom 882 302 5 0 0 1 (ms) - -;
#X obj 949 182 r dur;
#X obj 850 182 r \$0-dur;
#X obj 492 157 cnv 15 220 230 empty empty bubble_dimension 5 12 0 14
-262130 -66577 0;
#X floatatom 638 302 5 0 0 0 - - -;
#X floatatom 638 281 5 0 0 0 - - -;
#X obj 509 204 t b b;
#X obj 509 277 *;
#X obj 509 231 f;
#X obj 509 299 *;
#X obj 509 341 +;
#X obj 648 229 t f f;
#X floatatom 541 342 5 0 0 1 (ms) - -;
#X obj 509 182 r \$0-dim;
#X obj 638 182 r dim;
#X obj 638 202 r mydim;
#X obj 269 203 s \$0-dim;
#X obj 269 50 t b b b b b b b;
#X text 474 37 il parametro mydim permette di impostare qanto il caso
influisca sulla dimensione della bolla.;
#X text 477 111 Un valore di 50% fa si che la dimensione finale delle
bole vari da dim/2 a dim.;
#X text 476 67 Un valore pari a 100% ad esempio fa si che la dimensione
finale delle bolle spazi nell'intero range che va da 0 a 'dim'.;
#X obj 509 320 * -1;
#X obj 536 231 random 1000;
#X obj 536 253 / 1000;
#X obj 509 363 f;
#X text 476 17 singlebubble v1.3;
#X obj 949 202 r mydur;
#X obj 201 673 *~;
#X obj 756 412 r \$0-fmin;
#X obj 771 438 r fmin;
#X obj 686 412 r \$0-fmax;
#X obj 701 438 r fmax;
#X connect 2 0 10 1;
#X connect 3 0 9 1;
#X connect 4 0 2 0;
#X connect 4 0 3 0;
#X connect 5 0 10 0;
#X connect 6 0 9 0;
#X connect 7 0 8 0;
#X connect 8 0 13 0;
#X connect 9 0 12 0;
#X connect 10 0 11 0;
#X connect 14 0 15 0;
#X connect 15 0 16 0;
#X connect 15 0 17 0;
#X connect 16 0 2 1;
#X connect 17 0 18 0;
#X connect 18 0 3 1;
#X connect 19 0 14 0;
#X connect 23 0 27 1;
#X connect 23 0 21 0;
#X connect 24 0 25 0;
#X connect 25 0 27 0;
#X connect 25 1 26 0;
#X connect 26 0 28 1;
#X connect 27 0 28 0;
#X connect 28 0 29 0;
#X connect 29 0 19 0;
#X connect 30 0 8 1;
#X connect 30 0 4 0;
#X connect 33 0 36 0;
#X connect 33 0 42 0;
#X connect 36 0 38 0;
#X connect 36 1 37 0;
#X connect 37 0 39 1;
#X connect 38 0 39 0;
#X connect 39 0 40 0;
#X connect 41 0 38 1;
#X connect 41 0 34 0;
#X connect 42 0 43 0;
#X connect 43 0 30 1;
#X connect 44 0 66 0;
#X connect 44 1 51 0;
#X connect 45 0 63 0;
#X connect 45 1 46 0;
#X connect 45 2 48 0;
#X connect 46 0 47 0;
#X connect 46 1 47 1;
#X connect 47 0 64 0;
#X connect 48 0 52 1;
#X connect 49 0 53 0;
#X connect 51 0 52 0;
#X connect 52 0 111 1;
#X connect 53 0 111 0;
#X connect 54 0 70 0;
#X connect 55 0 66 1;
#X connect 56 0 64 1;
#X connect 57 0 65 1;
#X connect 62 0 55 0;
#X connect 63 0 44 0;
#X connect 64 0 65 0;
#X connect 65 0 49 1;
#X connect 66 0 49 0;
#X connect 67 0 40 1;
#X connect 67 0 35 0;
#X connect 67 0 42 1;
#X connect 68 0 29 1;
#X connect 68 0 22 0;
#X connect 69 0 101 0;
#X connect 70 0 55 1;
#X connect 71 0 56 1;
#X connect 72 0 57 1;
#X connect 73 0 63 1;
#X connect 77 0 80 0;
#X connect 77 1 78 0;
#X connect 78 0 79 1;
#X connect 79 0 81 0;
#X connect 80 0 79 0;
#X connect 81 0 82 0;
#X connect 82 0 73 0;
#X connect 82 0 84 0;
#X connect 83 0 81 1;
#X connect 83 1 82 1;
#X connect 85 0 83 0;
#X connect 85 0 76 0;
#X connect 86 0 77 0;
#X connect 90 0 92 0;
#X connect 90 1 106 0;
#X connect 91 0 93 0;
#X connect 92 0 91 0;
#X connect 93 0 105 0;
#X connect 94 0 96 0;
#X connect 94 0 108 0;
#X connect 95 0 93 1;
#X connect 95 1 94 1;
#X connect 97 0 90 0;
#X connect 98 0 95 0;
#X connect 98 0 89 0;
#X connect 99 0 92 1;
#X connect 99 0 88 0;
#X connect 101 0 100 0;
#X connect 101 1 61 0;
#X connect 101 2 60 0;
#X connect 101 3 59 0;
#X connect 101 4 58 0;
#X connect 101 5 31 0;
#X connect 101 6 20 0;
#X connect 105 0 94 0;
#X connect 106 0 107 0;
#X connect 107 0 91 1;
#X connect 108 0 45 0;
#X connect 110 0 80 1;
#X connect 110 0 75 0;
#X connect 111 0 30 0;
#X connect 112 0 57 0;
#X connect 113 0 72 0;
#X connect 114 0 56 0;
#X connect 115 0 71 0;
