#N canvas 506 126 810 526 10;
#X declare -path abs;
#X obj 69 166 select 0 1 2 3 4 5 6 7;
#X obj 69 51 metro 125;
#X obj 111 394 dac~;
#X obj 69 31 tgl 15 0 empty empty empty 0 -6 0 8 -262144 -1 -1 0 1
;
#X obj 69 73 f;
#X obj 100 73 + 1;
#X obj 69 94 mod 8;
#X obj 111 367 *~ 1;
#X obj 214 268 loadbang;
#X obj 220 214 escapement;
#X obj 163 54 noise~;
#X obj 163 78 hip~ 200;
#X obj 69 215 clocktick;
#X obj 139 214 clocktick2;
#X msg 214 287 0.09;
#X obj -3 215 clockhand;
#X obj 111 282 *~ 0.3;
#X obj 69 238 *~ 0.1;
#X obj 139 237 *~ 0.1;
#X obj 220 237 *~ 0.06;
#X obj -3 238 *~ 0.3;
#X obj 121 309 bodyresonance~;
#X obj 343 139 select 0 1 2 3 4 5 6 7;
#X obj 343 54 metro 125;
#X obj 427 328 dac~;
#X obj 427 225 *~ 0.5;
#X obj 343 29 tgl 15 0 empty empty empty 0 -6 0 8 -262144 -1 -1 0 1
;
#X obj 343 86 f;
#X obj 374 86 + 1;
#X obj 343 113 mod 8;
#N canvas 519 442 234 279 tock1 0;
#N canvas 0 50 472 536 delaychain 0;
#X obj 357 113 del 1;
#X obj 357 157 del 2;
#X obj 357 202 del 3;
#X obj 357 246 del 4;
#X obj 357 284 del 5;
#X obj 357 326 del 6;
#X obj 357 370 del 7;
#X obj 187 229 +;
#X obj 164 254 +;
#X obj 210 204 +;
#X obj 302 104 +;
#X obj 279 129 +;
#X obj 256 154 +;
#X obj 233 179 +;
#X floatatom 399 114 5 0 0 0 - - -, f 5;
#X floatatom 327 30 5 0 0 0 - - -, f 5;
#X floatatom 397 159 5 0 0 0 - - -, f 5;
#X obj 314 50 + 0;
#X floatatom 400 204 5 0 0 0 - - -, f 5;
#X floatatom 399 247 5 0 0 0 - - -, f 5;
#X floatatom 400 284 5 0 0 0 - - -, f 5;
#X floatatom 400 329 5 0 0 0 - - -, f 5;
#X floatatom 403 374 5 0 0 0 - - -, f 5;
#X floatatom 402 417 5 0 0 0 - - -, f 5;
#X obj 357 416 del 8;
#X obj 314 9 inlet diff;
#X obj 222 8 inlet ctrl;
#X obj 4 470 outlet;
#X obj 54 470 outlet;
#X obj 104 470 outlet;
#X obj 154 470 outlet;
#X obj 204 469 outlet;
#X obj 254 469 outlet;
#X obj 304 469 outlet;
#X obj 354 469 outlet;
#X obj 325 79 + 0;
#X connect 0 0 1 0;
#X connect 0 0 27 0;
#X connect 1 0 2 0;
#X connect 1 0 28 0;
#X connect 2 0 3 0;
#X connect 2 0 29 0;
#X connect 3 0 4 0;
#X connect 3 0 30 0;
#X connect 4 0 5 0;
#X connect 4 0 31 0;
#X connect 5 0 6 0;
#X connect 5 0 32 0;
#X connect 6 0 24 0;
#X connect 6 0 33 0;
#X connect 7 0 8 1;
#X connect 7 0 6 1;
#X connect 7 0 22 0;
#X connect 8 0 24 0;
#X connect 8 0 23 0;
#X connect 9 0 7 1;
#X connect 9 0 5 1;
#X connect 9 0 21 0;
#X connect 10 0 11 1;
#X connect 10 0 16 0;
#X connect 10 0 1 1;
#X connect 11 0 12 1;
#X connect 11 0 2 1;
#X connect 11 0 18 0;
#X connect 12 0 13 1;
#X connect 12 0 3 1;
#X connect 12 0 19 0;
#X connect 13 0 9 1;
#X connect 13 0 4 1;
#X connect 13 0 20 0;
#X connect 17 0 10 0;
#X connect 17 0 11 0;
#X connect 17 0 12 0;
#X connect 17 0 13 0;
#X connect 17 0 9 0;
#X connect 17 0 7 0;
#X connect 17 0 8 0;
#X connect 17 0 35 0;
#X connect 24 0 34 0;
#X connect 25 0 17 0;
#X connect 25 0 15 0;
#X connect 26 0 0 0;
#X connect 35 0 10 1;
#X connect 35 0 14 0;
#X connect 35 0 0 1;
#X restore 18 66 pd delaychain;
#X obj 18 14 inlet;
#X obj 18 40 t b;
#X msg 18 103 1;
#X msg 54 104 2;
#X msg 95 103 3;
#X obj 18 202 outlet~;
#X obj 18 178 hip~ 100;
#N canvas 0 50 1255 942 3cogs 0;
#X obj 100 328 *~;
#X obj 100 121 ead~ 1 10;
#X obj 187 325 *~;
#X obj 187 118 ead~ 1 10;
#X obj 320 325 *~;
#X obj 408 325 *~;
#X obj 508 327 *~;
#X obj 651 324 *~;
#X obj 751 326 *~;
#X obj 351 143 noise~;
#X obj 351 164 hip~ 300;
#X obj 11 120 ead~ 1 30;
#X obj 12 326 *~;
#X obj 407 518 outlet~;
#X obj 27 224 bp~ 6666 40;
#X obj 115 223 bp~ 7012 40;
#X obj 202 222 bp~ 1500 35;
#X obj 335 222 bp~ 4535 45;
#X obj 423 223 bp~ 8325 40;
#X obj 524 223 bp~ 11023 46;
#X obj 668 223 bp~ 3567 40;
#X obj 100 389 *~ 0.33;
#X obj 855 327 *~;
#X obj 408 385 *~ 0.33;
#X obj 750 379 *~ 0.33;
#X obj 767 224 bp~ 4290 20;
#X obj 871 225 bp~ 6470 20;
#X obj 855 120 ead~ 1 8;
#X obj 651 117 ead~ 1 40;
#X obj 751 119 ead~ 1 22;
#X obj 508 120 ead~ 1 11;
#X obj 408 118 ead~ 1 45;
#X obj 320 118 ead~ 1 70;
#X obj 422 11 inlet;
#X obj 422 37 sel 1 2 3;
#X obj 407 477 *~ 1;
#X connect 0 0 21 0;
#X connect 1 0 0 0;
#X connect 2 0 21 0;
#X connect 3 0 2 0;
#X connect 4 0 23 0;
#X connect 5 0 23 0;
#X connect 6 0 23 0;
#X connect 7 0 24 0;
#X connect 8 0 24 0;
#X connect 9 0 10 0;
#X connect 10 0 14 0;
#X connect 10 0 15 0;
#X connect 10 0 16 0;
#X connect 10 0 17 0;
#X connect 10 0 18 0;
#X connect 10 0 19 0;
#X connect 10 0 20 0;
#X connect 10 0 25 0;
#X connect 10 0 26 0;
#X connect 11 0 12 0;
#X connect 12 0 21 0;
#X connect 14 0 12 1;
#X connect 15 0 0 1;
#X connect 16 0 2 1;
#X connect 17 0 4 1;
#X connect 18 0 5 1;
#X connect 19 0 6 1;
#X connect 20 0 7 1;
#X connect 21 0 35 0;
#X connect 22 0 24 0;
#X connect 23 0 35 0;
#X connect 24 0 35 0;
#X connect 25 0 8 1;
#X connect 26 0 22 1;
#X connect 27 0 22 0;
#X connect 28 0 7 0;
#X connect 29 0 8 0;
#X connect 30 0 6 0;
#X connect 31 0 5 0;
#X connect 32 0 4 0;
#X connect 33 0 34 0;
#X connect 34 0 11 0;
#X connect 34 0 1 0;
#X connect 34 0 3 0;
#X connect 34 1 32 0;
#X connect 34 1 31 0;
#X connect 34 1 30 0;
#X connect 34 2 28 0;
#X connect 34 2 29 0;
#X connect 34 2 27 0;
#X connect 35 0 13 0;
#X restore 18 153 pd 3cogs;
#X obj 158 42 loadbang;
#X msg 158 64 2;
#X connect 0 0 3 0;
#X connect 0 3 4 0;
#X connect 0 3 5 0;
#X connect 1 0 2 0;
#X connect 2 0 0 0;
#X connect 3 0 8 0;
#X connect 4 0 8 0;
#X connect 5 0 8 0;
#X connect 7 0 6 0;
#X connect 8 0 7 0;
#X connect 9 0 10 0;
#X connect 10 0 0 1;
#X restore 343 187 pd tock1;
#N canvas 488 387 205 268 tock2 0;
#N canvas 0 50 472 536 delaychain 0;
#X obj 357 113 del 1;
#X obj 357 157 del 2;
#X obj 357 202 del 3;
#X obj 357 246 del 4;
#X obj 357 284 del 5;
#X obj 357 326 del 6;
#X obj 357 370 del 7;
#X obj 187 229 +;
#X obj 164 254 +;
#X obj 210 204 +;
#X obj 302 104 +;
#X obj 279 129 +;
#X obj 256 154 +;
#X obj 233 179 +;
#X floatatom 399 114 5 0 0 0 - - -, f 5;
#X floatatom 327 30 5 0 0 0 - - -, f 5;
#X floatatom 397 159 5 0 0 0 - - -, f 5;
#X obj 314 50 + 0;
#X floatatom 400 204 5 0 0 0 - - -, f 5;
#X floatatom 399 247 5 0 0 0 - - -, f 5;
#X floatatom 400 284 5 0 0 0 - - -, f 5;
#X floatatom 400 329 5 0 0 0 - - -, f 5;
#X floatatom 403 374 5 0 0 0 - - -, f 5;
#X floatatom 402 417 5 0 0 0 - - -, f 5;
#X obj 357 416 del 8;
#X obj 314 9 inlet diff;
#X obj 222 8 inlet ctrl;
#X obj 4 470 outlet;
#X obj 54 470 outlet;
#X obj 104 470 outlet;
#X obj 154 470 outlet;
#X obj 204 469 outlet;
#X obj 254 469 outlet;
#X obj 304 469 outlet;
#X obj 354 469 outlet;
#X obj 325 79 + 0;
#X connect 0 0 1 0;
#X connect 0 0 27 0;
#X connect 1 0 2 0;
#X connect 1 0 28 0;
#X connect 2 0 3 0;
#X connect 2 0 29 0;
#X connect 3 0 4 0;
#X connect 3 0 30 0;
#X connect 4 0 5 0;
#X connect 4 0 31 0;
#X connect 5 0 6 0;
#X connect 5 0 32 0;
#X connect 6 0 24 0;
#X connect 6 0 33 0;
#X connect 7 0 8 1;
#X connect 7 0 6 1;
#X connect 7 0 22 0;
#X connect 8 0 24 0;
#X connect 8 0 23 0;
#X connect 9 0 7 1;
#X connect 9 0 5 1;
#X connect 9 0 21 0;
#X connect 10 0 11 1;
#X connect 10 0 16 0;
#X connect 10 0 1 1;
#X connect 11 0 12 1;
#X connect 11 0 2 1;
#X connect 11 0 18 0;
#X connect 12 0 13 1;
#X connect 12 0 3 1;
#X connect 12 0 19 0;
#X connect 13 0 9 1;
#X connect 13 0 4 1;
#X connect 13 0 20 0;
#X connect 17 0 10 0;
#X connect 17 0 11 0;
#X connect 17 0 12 0;
#X connect 17 0 13 0;
#X connect 17 0 9 0;
#X connect 17 0 7 0;
#X connect 17 0 8 0;
#X connect 17 0 35 0;
#X connect 24 0 34 0;
#X connect 25 0 17 0;
#X connect 25 0 15 0;
#X connect 26 0 0 0;
#X connect 35 0 10 1;
#X connect 35 0 14 0;
#X connect 35 0 0 1;
#X restore 18 66 pd delaychain;
#X obj 18 14 inlet;
#X obj 18 40 t b;
#X msg 18 108 1;
#X msg 54 109 2;
#X msg 95 108 3;
#X obj 19 206 outlet~;
#X obj 19 182 hip~ 100;
#N canvas 0 50 980 543 3cogs 0;
#X obj 100 328 *~;
#X obj 100 121 ead~ 1 10;
#X obj 187 325 *~;
#X obj 187 118 ead~ 1 10;
#X obj 320 325 *~;
#X obj 408 325 *~;
#X obj 508 327 *~;
#X obj 651 324 *~;
#X obj 751 326 *~;
#X obj 351 143 noise~;
#X obj 351 164 hip~ 300;
#X obj 11 120 ead~ 1 30;
#X obj 12 326 *~;
#X obj 407 518 outlet~;
#X obj 27 224 bp~ 6666 40;
#X obj 115 223 bp~ 7012 40;
#X obj 202 222 bp~ 1500 35;
#X obj 335 222 bp~ 4535 45;
#X obj 422 223 bp~ 8325 40;
#X obj 524 223 bp~ 11023 46;
#X obj 668 223 bp~ 3567 40;
#X obj 100 389 *~ 0.33;
#X obj 855 327 *~;
#X obj 408 385 *~ 0.33;
#X obj 750 379 *~ 0.33;
#X obj 767 224 bp~ 4290 20;
#X obj 871 225 bp~ 6470 20;
#X obj 855 120 ead~ 1 8;
#X obj 651 117 ead~ 1 40;
#X obj 751 119 ead~ 1 22;
#X obj 508 120 ead~ 1 11;
#X obj 408 118 ead~ 1 45;
#X obj 320 118 ead~ 1 70;
#X obj 422 11 inlet;
#X obj 422 37 sel 1 2 3;
#X obj 407 477 *~ 1;
#X text 1089 871 ajf 2006;
#X connect 0 0 21 0;
#X connect 1 0 0 0;
#X connect 2 0 21 0;
#X connect 3 0 2 0;
#X connect 4 0 23 0;
#X connect 5 0 23 0;
#X connect 6 0 23 0;
#X connect 7 0 24 0;
#X connect 8 0 24 0;
#X connect 9 0 10 0;
#X connect 10 0 14 0;
#X connect 10 0 15 0;
#X connect 10 0 16 0;
#X connect 10 0 17 0;
#X connect 10 0 18 0;
#X connect 10 0 19 0;
#X connect 10 0 20 0;
#X connect 10 0 25 0;
#X connect 10 0 26 0;
#X connect 11 0 12 0;
#X connect 12 0 21 0;
#X connect 14 0 12 1;
#X connect 15 0 0 1;
#X connect 16 0 2 1;
#X connect 17 0 4 1;
#X connect 18 0 5 1;
#X connect 19 0 6 1;
#X connect 20 0 7 1;
#X connect 21 0 35 0;
#X connect 22 0 24 0;
#X connect 23 0 35 0;
#X connect 24 0 35 0;
#X connect 25 0 8 1;
#X connect 26 0 22 1;
#X connect 27 0 22 0;
#X connect 28 0 7 0;
#X connect 29 0 8 0;
#X connect 30 0 6 0;
#X connect 31 0 5 0;
#X connect 32 0 4 0;
#X connect 33 0 34 0;
#X connect 34 0 11 0;
#X connect 34 0 1 0;
#X connect 34 0 3 0;
#X connect 34 1 32 0;
#X connect 34 1 31 0;
#X connect 34 1 30 0;
#X connect 34 2 28 0;
#X connect 34 2 29 0;
#X connect 34 2 27 0;
#X connect 35 0 13 0;
#X restore 18 158 pd 3cogs;
#X obj 155 39 loadbang;
#X msg 155 61 2;
#X connect 0 0 3 0;
#X connect 0 0 4 0;
#X connect 0 3 5 0;
#X connect 0 6 4 0;
#X connect 1 0 2 0;
#X connect 2 0 0 0;
#X connect 3 0 8 0;
#X connect 4 0 8 0;
#X connect 5 0 8 0;
#X connect 7 0 6 0;
#X connect 8 0 7 0;
#X connect 9 0 10 0;
#X connect 10 0 0 1;
#X restore 426 187 pd tock2;
#N canvas 521 78 450 343 bodyresonance 0;
#X obj 17 192 delwrite~ \$0-clockbodyl 100;
#X obj 15 116 delread~ \$0-clockbodyl 50;
#X obj 15 137 bp~ 1200 3;
#N canvas 617 584 261 182 sizescale 0;
#X obj 102 42 * 10000;
#X obj 33 41 inv;
#X obj 33 66 max 1e-07;
#X obj 33 92 min 100;
#X obj 69 15 inlet;
#X obj 33 121 outlet ms;
#X obj 102 66 outlet Hz;
#X connect 0 0 6 0;
#X connect 1 0 2 0;
#X connect 2 0 3 0;
#X connect 3 0 5 0;
#X connect 4 0 1 0;
#X connect 4 0 0 0;
#X restore 15 93 pd sizescale;
#X obj 220 137 bp~ 1200 3;
#X obj 220 116 delread~ \$0-clockbodyw 50;
#X obj 222 192 delwrite~ \$0-clockbodyw 100;
#N canvas 617 584 261 182 sizescale 0;
#X obj 102 42 * 10000;
#X obj 33 41 inv;
#X obj 33 66 max 1e-07;
#X obj 33 92 min 100;
#X obj 69 15 inlet;
#X obj 33 121 outlet ms;
#X obj 102 66 outlet Hz;
#X connect 0 0 6 0;
#X connect 1 0 2 0;
#X connect 2 0 3 0;
#X connect 3 0 5 0;
#X connect 4 0 1 0;
#X connect 4 0 0 0;
#X restore 220 94 pd sizescale;
#X obj 220 72 + 0.02;
#X obj 247 30 inlet;
#X obj 70 27 inlet~;
#X obj 136 223 outlet~;
#X text 215 5 0-1 size = 10000Hz-10Hz;
#X text 116 160 damping;
#X obj 16 162 *~ 0.3;
#X obj 221 162 *~ 0.3;
#X text 69 5 body resonance;
#X connect 1 0 2 0;
#X connect 2 0 11 0;
#X connect 2 0 14 0;
#X connect 3 0 1 0;
#X connect 3 1 2 1;
#X connect 4 0 11 0;
#X connect 4 0 15 0;
#X connect 5 0 4 0;
#X connect 7 0 5 0;
#X connect 7 1 4 1;
#X connect 8 0 7 0;
#X connect 9 0 3 0;
#X connect 9 0 8 0;
#X connect 10 0 0 0;
#X connect 10 0 6 0;
#X connect 14 0 0 0;
#X connect 14 0 4 0;
#X connect 15 0 6 0;
#X restore 439 253 pd bodyresonance;
#X obj 428 301 *~ 1;
#N canvas 442 163 390 399 escapement 0;
#N canvas 1 78 472 536 delaychain 0;
#X obj 357 113 del 1;
#X obj 357 157 del 2;
#X obj 357 202 del 3;
#X obj 357 246 del 4;
#X obj 357 284 del 5;
#X obj 357 326 del 6;
#X obj 357 370 del 7;
#X obj 187 229 +;
#X obj 164 254 +;
#X obj 210 204 +;
#X obj 302 104 +;
#X obj 279 129 +;
#X obj 256 154 +;
#X obj 233 179 +;
#X floatatom 399 114 5 0 0 0 - - -, f 5;
#X floatatom 327 30 5 0 0 0 - - -, f 5;
#X floatatom 397 159 5 0 0 0 - - -, f 5;
#X obj 314 50 + 0;
#X floatatom 400 204 5 0 0 0 - - -, f 5;
#X floatatom 399 247 5 0 0 0 - - -, f 5;
#X floatatom 400 284 5 0 0 0 - - -, f 5;
#X floatatom 400 329 5 0 0 0 - - -, f 5;
#X floatatom 403 374 5 0 0 0 - - -, f 5;
#X floatatom 402 417 5 0 0 0 - - -, f 5;
#X obj 357 416 del 8;
#X obj 314 9 inlet diff;
#X obj 222 8 inlet ctrl;
#X obj 4 470 outlet;
#X obj 54 470 outlet;
#X obj 104 470 outlet;
#X obj 154 470 outlet;
#X obj 204 469 outlet;
#X obj 254 469 outlet;
#X obj 304 469 outlet;
#X obj 354 469 outlet;
#X obj 325 79 + 0;
#X connect 0 0 1 0;
#X connect 0 0 27 0;
#X connect 1 0 2 0;
#X connect 1 0 28 0;
#X connect 2 0 3 0;
#X connect 2 0 29 0;
#X connect 3 0 4 0;
#X connect 3 0 30 0;
#X connect 4 0 5 0;
#X connect 4 0 31 0;
#X connect 5 0 6 0;
#X connect 5 0 32 0;
#X connect 6 0 24 0;
#X connect 6 0 33 0;
#X connect 7 0 8 1;
#X connect 7 0 6 1;
#X connect 7 0 22 0;
#X connect 8 0 24 0;
#X connect 8 0 23 0;
#X connect 9 0 7 1;
#X connect 9 0 5 1;
#X connect 9 0 21 0;
#X connect 10 0 11 1;
#X connect 10 0 16 0;
#X connect 10 0 1 1;
#X connect 11 0 12 1;
#X connect 11 0 2 1;
#X connect 11 0 18 0;
#X connect 12 0 13 1;
#X connect 12 0 3 1;
#X connect 12 0 19 0;
#X connect 13 0 9 1;
#X connect 13 0 4 1;
#X connect 13 0 20 0;
#X connect 17 0 10 0;
#X connect 17 0 11 0;
#X connect 17 0 12 0;
#X connect 17 0 13 0;
#X connect 17 0 9 0;
#X connect 17 0 7 0;
#X connect 17 0 8 0;
#X connect 17 0 35 0;
#X connect 24 0 34 0;
#X connect 25 0 17 0;
#X connect 25 0 15 0;
#X connect 26 0 0 0;
#X connect 35 0 10 1;
#X connect 35 0 14 0;
#X connect 35 0 0 1;
#X restore 48 112 pd delaychain;
#X obj 23 199 *~;
#X obj 23 154 ead~ 1 10;
#X obj 38 177 osc~ 10000;
#X obj 123 201 *~;
#X obj 123 156 ead~ 1 10;
#X obj 62 254 outlet~;
#X obj 48 60 inlet;
#X obj 48 86 t b;
#X obj 138 179 osc~ 8000;
#X obj 62 230 *~ 0.05;
#X text 45 25 escapement ratchet;
#X obj 204 89 loadbang;
#X msg 204 111 2;
#X connect 0 0 2 0;
#X connect 0 1 5 0;
#X connect 0 2 2 0;
#X connect 0 3 5 0;
#X connect 0 4 5 0;
#X connect 0 5 2 0;
#X connect 0 6 5 0;
#X connect 0 7 2 0;
#X connect 1 0 10 0;
#X connect 2 0 1 0;
#X connect 3 0 1 1;
#X connect 4 0 10 0;
#X connect 5 0 4 0;
#X connect 7 0 8 0;
#X connect 8 0 0 0;
#X connect 9 0 4 1;
#X connect 10 0 6 0;
#X connect 12 0 13 0;
#X connect 13 0 0 1;
#X restore 495 186 pd escapement;
#X text 372 9 Alarm Clock;
#X obj 621 164 loadbang;
#X msg 621 186 0.1;
#X text 553 34 a patch by Andy J Farnell;
#X floatatom 79 116 5 0 0 0 - - -, f 5;
#X text -2 192 lancetta;
#X text 566 78 comportamento emergente;
#X obj 625 208 hsl 100 15 0 0.15 0 0 empty empty body-size -2 7 0 10
-261682 -1 -1 6600 1;
#X floatatom 621 228 5 0 0 0 - - -, f 5;
#X obj 610 12 declare -path abs;
#X text 560 50 edited by Nicola Ariutti;
#X connect 0 0 9 0;
#X connect 0 0 12 0;
#X connect 0 0 15 0;
#X connect 0 1 9 0;
#X connect 0 2 9 0;
#X connect 0 2 13 0;
#X connect 0 3 9 0;
#X connect 0 4 9 0;
#X connect 0 4 12 0;
#X connect 0 5 9 0;
#X connect 0 6 9 0;
#X connect 0 6 13 0;
#X connect 0 7 9 0;
#X connect 1 0 4 0;
#X connect 3 0 1 0;
#X connect 4 0 5 0;
#X connect 4 0 6 0;
#X connect 5 0 4 1;
#X connect 6 0 0 0;
#X connect 6 0 39 0;
#X connect 7 0 2 0;
#X connect 7 0 2 1;
#X connect 8 0 14 0;
#X connect 9 0 19 0;
#X connect 10 0 11 0;
#X connect 11 0 12 1;
#X connect 11 0 13 1;
#X connect 11 0 15 1;
#X connect 12 0 17 0;
#X connect 13 0 18 0;
#X connect 14 0 21 1;
#X connect 15 0 20 0;
#X connect 16 0 21 0;
#X connect 17 0 16 0;
#X connect 18 0 16 0;
#X connect 19 0 16 0;
#X connect 20 0 16 0;
#X connect 21 0 7 0;
#X connect 22 0 30 0;
#X connect 22 0 34 0;
#X connect 22 1 34 0;
#X connect 22 2 31 0;
#X connect 22 2 34 0;
#X connect 22 3 34 0;
#X connect 22 4 30 0;
#X connect 22 4 34 0;
#X connect 22 5 34 0;
#X connect 22 6 31 0;
#X connect 22 6 34 0;
#X connect 22 7 34 0;
#X connect 22 8 34 0;
#X connect 23 0 27 0;
#X connect 25 0 32 0;
#X connect 25 0 33 0;
#X connect 26 0 23 0;
#X connect 27 0 28 0;
#X connect 27 0 29 0;
#X connect 28 0 27 1;
#X connect 29 0 22 0;
#X connect 30 0 25 0;
#X connect 31 0 25 0;
#X connect 32 0 33 0;
#X connect 33 0 24 0;
#X connect 33 0 24 1;
#X connect 34 0 25 0;
#X connect 36 0 37 0;
#X connect 37 0 42 0;
#X connect 42 0 32 1;
#X connect 42 0 43 0;
