#N canvas 262 296 450 300 10;
#X obj 202 47 inlet~ L;
#X obj 292 47 inlet~ R;
#X obj 106 104 hsl 60 15 0 1 0 1 empty empty vol -2 8 0 10 -262130
-1 -1 3600 1;
#X obj 185 185 *~;
#X obj 225 185 *~;
#X msg 103 135 \$1 20;
#X obj 103 157 line~;
#X obj 185 257 outlet~ L;
#X obj 225 236 outlet~ R;
#X connect 0 0 3 1;
#X connect 1 0 4 1;
#X connect 2 0 5 0;
#X connect 3 0 7 0;
#X connect 4 0 8 0;
#X connect 5 0 6 0;
#X connect 6 0 3 0;
#X connect 6 0 4 0;
#X coords 0 -1 1 1 75 25 2 100 100;
