#N canvas 58 106 978 594 10;
#X obj 90 383 throw~ 2rev;
#X obj 89 320 *~;
#X obj 107 105 tgl 15 0 empty empty empty 17 7 0 10 -262144 -1 -1 1
1;
#X msg 107 276 \$1 20;
#X obj 107 298 line~;
#X obj 90 362 *~;
#X msg 207 323 \$1 20;
#X obj 207 345 line~;
#X obj 130 105 hsl 35 15 0 1 0 1 empty empty fx -2 8 0 10 -204786 -1
-1 2600 1;
#X obj 58 69 inlet~;
#X obj 59 472 throw~ mono;
#X obj 107 150 sel 0;
#X msg 107 177 0;
#X obj 207 215 f;
#X msg 277 323 \$1 20;
#X obj 277 345 line~;
#X obj 277 273 swap 1;
#X obj 277 295 -;
#X obj 59 444 *~;
#X obj 139 215 t b b;
#X msg 139 237 1;
#X obj 239 28 loadbang;
#X msg 239 50 1;
#X connect 1 0 5 0;
#X connect 2 0 11 0;
#X connect 3 0 4 0;
#X connect 4 0 1 1;
#X connect 5 0 0 0;
#X connect 6 0 7 0;
#X connect 7 0 5 1;
#X connect 8 0 13 0;
#X connect 9 0 1 0;
#X connect 9 0 18 0;
#X connect 11 0 12 0;
#X connect 11 1 19 0;
#X connect 12 0 3 0;
#X connect 12 0 13 0;
#X connect 13 0 16 0;
#X connect 13 0 6 0;
#X connect 14 0 15 0;
#X connect 15 0 18 1;
#X connect 16 0 17 0;
#X connect 16 1 17 1;
#X connect 17 0 14 0;
#X connect 18 0 10 0;
#X connect 19 0 20 0;
#X connect 19 1 8 0;
#X connect 20 0 3 0;
#X connect 21 0 22 0;
#X connect 22 0 2 0;
#X coords 0 -1 1 1 75 25 2 100 100;
