#N canvas 68 127 1168 655 10;
#N canvas 1 78 1351 689 ctrl-master 0;
#X msg 156 100 \; critters \$1 \; critters2 \$1 \;;
#X obj 110 154 tgl 15 0 empty empty empty 17 7 0 10 -262144 -1 -1 0
1;
#X obj 110 206 tgl 15 0 empty empty empty 17 7 0 10 -262144 -1 -1 0
1;
#X msg 156 148 \; cricketA \$1 \; cricketB \$1 \; cricketC \$1 \; chirper
\$1 \; bullcricket \$1 \; japanese \$1 \;;
#X obj 110 310 tgl 15 0 empty empty empty 17 7 0 10 -262144 -1 -1 0
1;
#X msg 157 323 \; frogA \$1 \; frogB \$1 \; frogC \$1 \;;
#X obj 110 252 tgl 15 0 empty empty empty 17 7 0 10 -262144 -1 -1 0
1;
#X msg 156 248 \; cicadaA \$1 \; cicadaB \$1 \; rattler \$1 \; flutter
\$1 \;;
#X obj 110 359 tgl 15 0 empty empty empty 17 7 0 10 -262144 -1 -1 0
1;
#X msg 157 392 \; fly \$1 \; mosquito \$1 \; bee \$1 \;;
#X obj 110 125 tgl 15 0 empty empty All 17 7 0 10 -262144 -1 -1 0 1
;
#X obj 109 24 loadbang;
#X msg 109 46 0;
#N canvas 1 78 538 497 chirper 0;
#X obj 222 357 *~;
#X obj 222 260 cos~;
#X obj 222 238 +~ 0.25;
#X obj 222 282 clip~ 0 1;
#X obj 237 324 osc~ 12342;
#X obj 251 304 osc~ 5134;
#X obj 239 171 wrap~;
#X obj 223 214 +~;
#X obj 160 133 clip~ 0 1;
#X obj 160 170 wrap~;
#X obj 239 134 clip~ 1 4;
#X obj 205 94 *~ 44;
#X obj 204 71 phasor~ 0.8;
#X obj 222 381 *~ 0.05;
#X obj 221 431 *~;
#X obj 237 406 inlet~;
#X obj 220 458 outlet~;
#X connect 0 0 13 0;
#X connect 1 0 3 0;
#X connect 2 0 1 0;
#X connect 3 0 0 0;
#X connect 4 0 0 1;
#X connect 5 0 0 1;
#X connect 6 0 7 1;
#X connect 7 0 2 0;
#X connect 8 0 9 0;
#X connect 9 0 7 0;
#X connect 10 0 6 0;
#X connect 11 0 8 0;
#X connect 11 0 10 0;
#X connect 12 0 11 0;
#X connect 13 0 14 0;
#X connect 14 0 16 0;
#X connect 15 0 14 1;
#X restore 551 165 pd chirper;
#N canvas 1 78 772 689 mosquito 0;
#X obj 157 329 phasor~ 600;
#X obj 247 329 phasor~ 600;
#X obj 248 304 +~;
#X obj 264 276 osc~ 0.2;
#X obj 226 234 +~;
#X obj 289 98 noise~;
#X obj 158 358 >~ 0.97;
#X obj 248 358 >~ 0.97;
#X obj 289 120 lop~ 1;
#X obj 289 142 *~ 2000;
#X obj 214 554 *~;
#X obj 263 555 *~;
#X obj 237 488 sig~ 1;
#X obj 236 513 -~;
#X obj 226 143 lop~ 0.2;
#X obj 341 256 noise~;
#X obj 343 347 clip~ 0 1;
#X obj 343 323 *~ 1e+09;
#X obj 342 278 lop~ 0.2;
#X obj 343 300 lop~ 0.2;
#X obj 196 430 *~;
#X obj 314 203 lop~ 0.5;
#X obj 303 166 *~ 0.2;
#X obj 194 456 *~ 0.02;
#X obj 226 167 *~ 3000;
#X obj 226 189 +~ 600;
#X obj 159 384 bp~ 8000 12;
#X obj 250 387 bp~ 8000 12;
#X obj 214 587 *~;
#X obj 262 586 *~;
#X obj 300 553 inlet~;
#X obj 215 660 outlet~ L;
#X obj 262 640 outlet~ R;
#X connect 0 0 6 0;
#X connect 1 0 7 0;
#X connect 2 0 1 0;
#X connect 3 0 2 1;
#X connect 4 0 0 0;
#X connect 4 0 2 0;
#X connect 5 0 8 0;
#X connect 5 0 14 0;
#X connect 6 0 26 0;
#X connect 7 0 27 0;
#X connect 8 0 9 0;
#X connect 9 0 4 1;
#X connect 9 0 3 0;
#X connect 9 0 22 0;
#X connect 10 0 28 0;
#X connect 11 0 29 0;
#X connect 12 0 13 0;
#X connect 13 0 10 1;
#X connect 14 0 24 0;
#X connect 15 0 18 0;
#X connect 16 0 20 1;
#X connect 17 0 16 0;
#X connect 18 0 19 0;
#X connect 19 0 17 0;
#X connect 20 0 23 0;
#X connect 21 0 13 1;
#X connect 21 0 11 1;
#X connect 22 0 21 0;
#X connect 23 0 10 0;
#X connect 23 0 11 0;
#X connect 24 0 25 0;
#X connect 25 0 4 0;
#X connect 26 0 20 0;
#X connect 27 0 20 0;
#X connect 28 0 31 0;
#X connect 29 0 32 0;
#X connect 30 0 29 1;
#X connect 30 0 28 1;
#X restore 397 567 pd mosquito;
#N canvas 1 78 632 558 rattler 0;
#X obj 121 158 sig~ 1;
#X obj 121 190 /~;
#X obj 174 167 +~ 1;
#X obj 175 141 *~;
#X obj 230 167 noise~;
#X obj 121 215 *~;
#X obj 121 309 *~;
#X obj 230 213 *~ 0.1;
#X obj 317 186 clip~ 0 1;
#X obj 121 342 *~ 0.2;
#X obj 316 163 *~ 3;
#X obj 317 211 *~ 1;
#X obj 175 112 *~ 6;
#X obj 317 140 osc~ 0.5;
#X obj 175 90 osc~ 10;
#X obj 230 189 bp~ 7000 13;
#X obj 121 241 bp~ 6000 16;
#X obj 122 390 *~;
#X obj 138 365 inlet~;
#X obj 121 425 outlet~;
#X connect 0 0 1 0;
#X connect 1 0 5 0;
#X connect 2 0 1 1;
#X connect 3 0 2 0;
#X connect 4 0 15 0;
#X connect 5 0 16 0;
#X connect 6 0 9 0;
#X connect 7 0 16 0;
#X connect 8 0 11 0;
#X connect 9 0 17 0;
#X connect 10 0 8 0;
#X connect 11 0 6 1;
#X connect 12 0 3 0;
#X connect 12 0 3 1;
#X connect 13 0 10 0;
#X connect 14 0 12 0;
#X connect 15 0 5 1;
#X connect 15 0 7 0;
#X connect 16 0 6 0;
#X connect 17 0 19 0;
#X connect 18 0 17 1;
#X restore 484 295 pd rattler;
#N canvas 14 98 519 413 critters2 0;
#X obj 93 226 *~;
#X obj 94 188 *~;
#X obj 94 152 *~;
#X obj 126 46 unpack 1 2 3 4;
#X obj 92 253 hip~ 20;
#X obj 95 107 cos~;
#X obj 158 106 cos~;
#X obj 233 105 cos~;
#X obj 303 105 cos~;
#X obj 303 75 phasor~;
#X obj 234 75 phasor~;
#X obj 158 76 phasor~;
#X obj 96 76 phasor~;
#X obj 126 -1 loadbang;
#X text 129 296 night critters \, ajf2005;
#X obj 108 270 osc~ 0.01;
#X obj 91 295 *~;
#X obj 91 317 *~ 0.007;
#X msg 126 23 2012 4 20 2;
#X obj 92 345 *~;
#X obj 158 316 inlet~;
#X obj 92 375 outlet~;
#X connect 0 0 4 0;
#X connect 1 0 0 0;
#X connect 2 0 1 0;
#X connect 3 0 12 0;
#X connect 3 1 11 0;
#X connect 3 2 10 0;
#X connect 3 3 9 0;
#X connect 4 0 16 0;
#X connect 5 0 2 0;
#X connect 6 0 2 1;
#X connect 7 0 1 1;
#X connect 8 0 0 1;
#X connect 9 0 8 0;
#X connect 10 0 7 0;
#X connect 11 0 6 0;
#X connect 12 0 5 0;
#X connect 13 0 18 0;
#X connect 15 0 16 1;
#X connect 16 0 17 0;
#X connect 17 0 19 0;
#X connect 18 0 3 0;
#X connect 19 0 21 0;
#X connect 20 0 19 1;
#X restore 311 38 pd critters2;
#N canvas 1 78 537 689 frog 0;
#X obj 95 461 *~ 1;
#X obj 105 564 *~ 0.45;
#X obj 208 153 vline~;
#X obj 148 339 wrap~;
#X obj 148 390 *~;
#X obj 97 413 sig~ 1;
#X obj 96 440 /~;
#X obj 148 416 +~ 1;
#X obj 148 318 -~ 1;
#X obj 12 520 vcf~ 800 40;
#X obj 96 521 vcf~ 1 40;
#X obj 168 520 vcf~ 2600 20;
#X obj 211 445 *~ 120;
#X obj 157 446 *~ 60;
#X obj 274 445 *~ 340;
#X msg 208 132 1 \, 0 400;
#X msg 286 53 80;
#X msg 321 53 60;
#X msg 359 53 40;
#X obj 147 272 *~;
#X obj 96 590 hip~ 10;
#X obj 299 32 loadbang;
#X obj 208 62 metro 1000;
#X obj 208 110 sel 0;
#X obj 185 181 sig~ 1;
#X obj 184 204 -~;
#X obj 149 364 *~ 42;
#X obj 148 244 *~ 2.3;
#X obj 156 470 +~ 600;
#X obj 211 470 +~ 1500;
#X obj 274 470 +~ 2300;
#X obj 148 295 *~ 4;
#X obj 212 419 *~ 0.35;
#X obj 208 85 random 7;
#X obj 96 652 *~;
#X obj 155 616 inlet~;
#X obj 95 615 *~ 0.1;
#X obj 95 678 outlet~;
#X connect 0 0 9 0;
#X connect 0 0 10 0;
#X connect 0 0 11 0;
#X connect 1 0 20 0;
#X connect 2 0 25 1;
#X connect 3 0 26 0;
#X connect 4 0 7 0;
#X connect 5 0 6 0;
#X connect 6 0 0 0;
#X connect 7 0 6 1;
#X connect 8 0 3 0;
#X connect 9 0 1 0;
#X connect 10 0 20 0;
#X connect 11 0 1 0;
#X connect 12 0 29 0;
#X connect 13 0 28 0;
#X connect 14 0 30 0;
#X connect 15 0 2 0;
#X connect 16 0 9 2;
#X connect 17 0 10 2;
#X connect 18 0 11 2;
#X connect 19 0 31 0;
#X connect 19 0 32 0;
#X connect 20 0 36 0;
#X connect 21 0 18 0;
#X connect 21 0 17 0;
#X connect 21 0 16 0;
#X connect 21 0 22 0;
#X connect 22 0 33 0;
#X connect 23 0 15 0;
#X connect 24 0 25 0;
#X connect 25 0 27 0;
#X connect 26 0 4 0;
#X connect 26 0 4 1;
#X connect 27 0 19 0;
#X connect 27 0 19 1;
#X connect 28 0 9 1;
#X connect 29 0 10 1;
#X connect 30 0 11 1;
#X connect 31 0 8 0;
#X connect 32 0 12 0;
#X connect 32 0 13 0;
#X connect 32 0 14 0;
#X connect 33 0 23 0;
#X connect 34 0 37 0;
#X connect 35 0 34 1;
#X connect 36 0 34 0;
#X restore 397 429 pd frog;
#N canvas 1 78 543 689 frog2 0;
#X obj 95 461 *~ 1;
#X obj 105 564 *~ 0.45;
#X obj 218 153 vline~;
#X obj 148 339 wrap~;
#X obj 148 390 *~;
#X obj 97 413 sig~ 1;
#X obj 96 440 /~;
#X obj 148 416 +~ 1;
#X obj 148 318 -~ 1;
#X obj 149 364 *~ 122;
#X obj 2 520 vcf~ 800 40;
#X obj 96 521 vcf~ 1 40;
#X obj 168 520 vcf~ 2600 20;
#X obj 201 393 *~ -1;
#X obj 272 304 sig~ 1;
#X obj 271 327 -~;
#X obj 271 361 min~ 0.5;
#X obj 201 361 max~ 0.9;
#X obj 147 272 *~;
#X obj 148 220 *~ -1;
#X obj 218 188 min~ 0.5;
#X obj 147 189 max~ 0.5;
#X obj 96 590 hip~ 10;
#X obj 309 32 loadbang;
#X obj 218 110 sel 0;
#X obj 156 470 +~ 900;
#X obj 211 470 +~ 1800;
#X obj 274 470 +~ 2900;
#X obj 274 445 *~ 240;
#X obj 211 445 *~ 90;
#X obj 157 446 *~ 40;
#X obj 200 417 *~ 3;
#X obj 148 244 *~ 3;
#X msg 218 132 1 \, 0 200;
#X obj 148 295 *~ 2;
#X msg 369 53 30;
#X msg 331 53 40;
#X msg 296 53 50;
#X obj 218 62 metro 700;
#X obj 218 85 random 7;
#X obj 96 634 *~;
#X obj 156 612 inlet~;
#X obj 96 611 *~ 0.2;
#X obj 95 677 outlet~;
#X connect 0 0 10 0;
#X connect 0 0 11 0;
#X connect 0 0 12 0;
#X connect 1 0 22 0;
#X connect 2 0 15 1;
#X connect 2 0 21 0;
#X connect 2 0 20 0;
#X connect 3 0 9 0;
#X connect 4 0 7 0;
#X connect 5 0 6 0;
#X connect 6 0 0 0;
#X connect 7 0 6 1;
#X connect 8 0 3 0;
#X connect 9 0 4 0;
#X connect 9 0 4 1;
#X connect 10 0 1 0;
#X connect 11 0 22 0;
#X connect 12 0 1 0;
#X connect 13 0 31 0;
#X connect 14 0 15 0;
#X connect 15 0 16 0;
#X connect 15 0 17 0;
#X connect 16 0 31 0;
#X connect 17 0 13 0;
#X connect 18 0 34 0;
#X connect 19 0 32 0;
#X connect 20 0 32 0;
#X connect 21 0 19 0;
#X connect 22 0 42 0;
#X connect 23 0 35 0;
#X connect 23 0 36 0;
#X connect 23 0 37 0;
#X connect 23 0 38 0;
#X connect 24 0 33 0;
#X connect 25 0 10 1;
#X connect 26 0 11 1;
#X connect 27 0 12 1;
#X connect 28 0 27 0;
#X connect 29 0 26 0;
#X connect 30 0 25 0;
#X connect 31 0 28 0;
#X connect 31 0 29 0;
#X connect 31 0 30 0;
#X connect 32 0 18 0;
#X connect 32 0 18 1;
#X connect 33 0 2 0;
#X connect 34 0 8 0;
#X connect 35 0 12 2;
#X connect 36 0 11 2;
#X connect 37 0 10 2;
#X connect 38 0 39 0;
#X connect 39 0 24 0;
#X connect 40 0 43 0;
#X connect 41 0 40 1;
#X connect 42 0 40 0;
#X restore 312 429 pd frog2;
#N canvas 1 95 532 508 frog 0;
#X obj 111 124 noise~;
#X obj 112 159 *~;
#X obj 161 75 *~;
#X obj 161 100 *~;
#X obj 162 123 *~;
#X obj 112 286 *~;
#X obj 113 235 vcf~ 500 1;
#X obj 203 139 +~ 450;
#X obj 111 312 *~;
#X obj 162 261 osc~ 12;
#X obj 222 194 loadbang;
#X obj 161 51 osc~ 0.4444;
#X msg 222 216 80;
#X obj 112 208 bp~ 510 220;
#X obj 111 182 bp~ 450 220;
#X obj 205 117 *~ 70;
#X obj 113 262 *~ 60;
#X obj 111 444 *~;
#X obj 128 419 inlet~;
#X obj 125 368 lop~ 1;
#X obj 369 158 bng 15 250 50 0 empty empty empty 0 -6 0 8 -262144 -1
-1;
#X obj 302 231 sel 0 1;
#X msg 300 253 0;
#X msg 335 253 1;
#X obj 301 208 random 4;
#X obj 110 391 *~;
#X obj 301 183 metro 1300;
#X obj 110 336 *~ 0.4;
#X obj 111 471 outlet~;
#X connect 0 0 1 0;
#X connect 1 0 14 0;
#X connect 2 0 3 0;
#X connect 2 0 3 1;
#X connect 2 0 5 1;
#X connect 2 0 15 0;
#X connect 3 0 4 0;
#X connect 3 0 4 1;
#X connect 4 0 1 1;
#X connect 5 0 8 0;
#X connect 6 0 16 0;
#X connect 7 0 6 1;
#X connect 8 0 27 0;
#X connect 9 0 8 1;
#X connect 10 0 12 0;
#X connect 10 0 26 0;
#X connect 11 0 2 0;
#X connect 11 0 2 1;
#X connect 12 0 6 2;
#X connect 13 0 6 0;
#X connect 14 0 13 0;
#X connect 15 0 7 0;
#X connect 16 0 5 0;
#X connect 17 0 28 0;
#X connect 18 0 17 1;
#X connect 19 0 25 1;
#X connect 20 0 26 0;
#X connect 21 0 22 0;
#X connect 21 1 23 0;
#X connect 22 0 19 0;
#X connect 23 0 19 0;
#X connect 24 0 21 0;
#X connect 25 0 17 0;
#X connect 26 0 24 0;
#X connect 27 0 25 0;
#X restore 485 429 pd frog reson;
#N canvas 1 78 537 503 cricket 0;
#X obj 141 220 cos~;
#X obj 156 140 cos~;
#X obj 141 197 +~;
#X obj 104 164 wrap~;
#X obj 119 344 *~ 0.07;
#X obj 156 168 *~ 0.2;
#X obj 140 247 *~;
#X obj 156 119 wrap~;
#X obj 119 281 *~;
#X obj 66 162 cos~;
#X obj 129 57 phasor~ 18;
#X obj 104 140 *~ 250;
#X obj 156 95 *~ 2.1;
#X obj 264 179 *~;
#X obj 212 104 noise~;
#X obj 212 126 lop~ 5;
#X obj 197 224 *~;
#X obj 198 200 +~ 0.6;
#X obj 211 157 *~ 12;
#X obj 264 131 phasor~ -2;
#X obj 261 -9 noise~;
#X obj 262 13 lop~ 0.2;
#X obj 263 35 lop~ 0.2;
#X obj 263 82 clip~ 0 1;
#X obj 263 58 *~ 1e+09;
#X obj 119 311 *~;
#X obj 263 108 *~ -2;
#X obj 264 154 lop~ 8;
#X obj 119 393 *~;
#X obj 135 368 inlet~;
#X obj 119 418 outlet~;
#X connect 0 0 6 0;
#X connect 1 0 5 0;
#X connect 2 0 0 0;
#X connect 3 0 2 0;
#X connect 4 0 28 0;
#X connect 5 0 2 1;
#X connect 6 0 8 1;
#X connect 7 0 1 0;
#X connect 8 0 25 0;
#X connect 9 0 8 0;
#X connect 10 0 11 0;
#X connect 10 0 12 0;
#X connect 10 0 9 0;
#X connect 11 0 3 0;
#X connect 12 0 7 0;
#X connect 13 0 16 1;
#X connect 14 0 15 0;
#X connect 15 0 18 0;
#X connect 15 0 27 0;
#X connect 16 0 6 1;
#X connect 17 0 16 0;
#X connect 18 0 17 0;
#X connect 19 0 27 0;
#X connect 20 0 21 0;
#X connect 21 0 22 0;
#X connect 22 0 24 0;
#X connect 23 0 25 1;
#X connect 23 0 26 0;
#X connect 24 0 23 0;
#X connect 25 0 4 0;
#X connect 26 0 19 0;
#X connect 27 0 13 1;
#X connect 27 0 13 0;
#X connect 28 0 30 0;
#X connect 29 0 28 1;
#X restore 311 165 pd cricket;
#N canvas 1 95 531 585 cricket 0;
#X obj 141 220 cos~;
#X obj 156 140 cos~;
#X obj 141 197 +~;
#X obj 104 164 wrap~;
#X obj 119 344 *~ 0.07;
#X obj 156 168 *~ 0.2;
#X obj 140 247 *~;
#X obj 156 119 wrap~;
#X obj 119 281 *~;
#X obj 66 162 cos~;
#X obj 104 140 *~ 250;
#X obj 156 95 *~ 2.1;
#X obj 264 179 *~;
#X obj 212 104 noise~;
#X obj 212 126 lop~ 5;
#X obj 197 224 *~;
#X obj 198 200 +~ 0.6;
#X obj 211 157 *~ 12;
#X obj 264 131 phasor~ -2;
#X obj 261 -9 noise~;
#X obj 262 13 lop~ 0.2;
#X obj 263 35 lop~ 0.2;
#X obj 263 82 clip~ 0 1;
#X obj 263 58 *~ 1e+09;
#X obj 119 311 *~;
#X obj 264 154 lop~ 8;
#X obj 129 57 phasor~ 21;
#X obj 263 108 *~ -4;
#X obj 119 392 *~;
#X obj 135 367 inlet~;
#X obj 115 420 outlet~;
#X connect 0 0 6 0;
#X connect 1 0 5 0;
#X connect 2 0 0 0;
#X connect 3 0 2 0;
#X connect 4 0 28 0;
#X connect 5 0 2 1;
#X connect 6 0 8 1;
#X connect 7 0 1 0;
#X connect 8 0 24 0;
#X connect 9 0 8 0;
#X connect 10 0 3 0;
#X connect 11 0 7 0;
#X connect 12 0 15 1;
#X connect 13 0 14 0;
#X connect 14 0 17 0;
#X connect 14 0 25 0;
#X connect 15 0 6 1;
#X connect 16 0 15 0;
#X connect 17 0 16 0;
#X connect 18 0 25 0;
#X connect 19 0 20 0;
#X connect 20 0 21 0;
#X connect 21 0 23 0;
#X connect 22 0 24 1;
#X connect 22 0 27 0;
#X connect 23 0 22 0;
#X connect 24 0 4 0;
#X connect 25 0 12 1;
#X connect 25 0 12 0;
#X connect 26 0 10 0;
#X connect 26 0 11 0;
#X connect 26 0 9 0;
#X connect 27 0 18 0;
#X connect 28 0 30 0;
#X connect 29 0 28 1;
#X restore 391 165 pd cricket;
#N canvas 1 95 559 558 cricket 0;
#X obj 141 220 cos~;
#X obj 156 140 cos~;
#X obj 141 197 +~;
#X obj 104 164 wrap~;
#X obj 119 344 *~ 0.07;
#X obj 156 168 *~ 0.2;
#X obj 140 247 *~;
#X obj 156 119 wrap~;
#X obj 119 281 *~;
#X obj 66 162 cos~;
#X obj 104 140 *~ 250;
#X obj 156 95 *~ 2.1;
#X obj 264 179 *~;
#X obj 212 104 noise~;
#X obj 212 126 lop~ 5;
#X obj 197 224 *~;
#X obj 198 200 +~ 0.6;
#X obj 211 157 *~ 12;
#X obj 264 131 phasor~ -2;
#X obj 261 -9 noise~;
#X obj 263 82 clip~ 0 1;
#X obj 263 58 *~ 1e+09;
#X obj 119 311 *~;
#X obj 264 154 lop~ 8;
#X obj 129 57 phasor~ 12;
#X obj 263 108 *~ -3;
#X obj 263 35 lop~ 0.1;
#X obj 262 13 lop~ 0.1;
#X obj 120 393 *~;
#X obj 136 368 inlet~;
#X obj 120 426 outlet~;
#X connect 0 0 6 0;
#X connect 1 0 5 0;
#X connect 2 0 0 0;
#X connect 3 0 2 0;
#X connect 4 0 28 0;
#X connect 5 0 2 1;
#X connect 6 0 8 1;
#X connect 7 0 1 0;
#X connect 8 0 22 0;
#X connect 9 0 8 0;
#X connect 10 0 3 0;
#X connect 11 0 7 0;
#X connect 12 0 15 1;
#X connect 13 0 14 0;
#X connect 14 0 17 0;
#X connect 14 0 23 0;
#X connect 15 0 6 1;
#X connect 16 0 15 0;
#X connect 17 0 16 0;
#X connect 18 0 23 0;
#X connect 19 0 27 0;
#X connect 20 0 22 1;
#X connect 20 0 25 0;
#X connect 21 0 20 0;
#X connect 22 0 4 0;
#X connect 23 0 12 1;
#X connect 23 0 12 0;
#X connect 24 0 10 0;
#X connect 24 0 11 0;
#X connect 24 0 9 0;
#X connect 25 0 18 0;
#X connect 26 0 21 0;
#X connect 27 0 26 0;
#X connect 28 0 30 0;
#X connect 29 0 28 1;
#X restore 470 165 pd cricket;
#N canvas 1 95 586 454 cricket 0;
#X obj 216 113 osc~ 3000;
#X obj 151 119 *~;
#X obj 152 42 osc~ 3.6;
#X obj 151 147 *~;
#X obj 152 69 +~ 1;
#X obj 152 93 *~ 0.5;
#X obj 151 173 *~;
#X obj 217 88 +~ 3000;
#X obj 216 63 *~ 300;
#X obj 151 203 *~;
#X obj 217 40 osc~ 120;
#X obj 296 25 noise~;
#X obj 298 116 clip~ 0 1;
#X obj 298 92 *~ 1e+09;
#X obj 298 69 lop~ 0.1;
#X obj 297 47 lop~ 0.1;
#X obj 151 231 *~;
#X obj 164 315 *~;
#X obj 180 290 inlet~;
#X obj 152 265 *~ 0.05;
#X obj 152 346 outlet~;
#X connect 0 0 9 1;
#X connect 1 0 3 0;
#X connect 1 0 3 1;
#X connect 2 0 4 0;
#X connect 3 0 6 0;
#X connect 3 0 6 1;
#X connect 4 0 5 0;
#X connect 5 0 1 0;
#X connect 5 0 1 1;
#X connect 6 0 9 0;
#X connect 7 0 0 0;
#X connect 8 0 7 0;
#X connect 9 0 16 0;
#X connect 10 0 8 0;
#X connect 11 0 15 0;
#X connect 12 0 16 1;
#X connect 13 0 12 0;
#X connect 14 0 13 0;
#X connect 15 0 14 0;
#X connect 16 0 19 0;
#X connect 17 0 20 0;
#X connect 18 0 17 1;
#X connect 19 0 17 0;
#X restore 741 165 pd cricket japanese;
#N canvas 1 95 724 521 bullcricket 0;
#X obj 118 47 *~ 4;
#X obj 73 86 clip~ 0 1;
#X obj 153 87 clip~ 1 2;
#X obj 153 109 -~ 1;
#X obj 152 134 wrap~;
#X obj 136 167 +~;
#X obj 262 133 cos~;
#X obj 216 131 cos~;
#X obj 222 304 *~;
#X obj 221 161 *~;
#X obj 118 24 phasor~ 1;
#X obj 136 243 cos~;
#X obj 136 219 -~ 0.75;
#X obj 136 197 *~ 0.5;
#X obj 237 190 +~;
#X obj 240 85 phasor~ 20;
#X obj 261 110 *~ 900;
#X obj 322 208 clip~ 0 1;
#X obj 322 184 *~ 1e+09;
#X obj 293 261 *~;
#X obj 302 152 osc~ 0.057;
#X obj 378 152 osc~ 0.027;
#X obj 237 212 hip~ 2000;
#X obj 223 454 *~;
#X obj 239 429 inlet~;
#X obj 223 328 hip~ 30;
#X obj 222 361 lop~ 3000;
#X obj 222 407 *~ 0.4;
#X obj 222 492 outlet~;
#X connect 0 0 1 0;
#X connect 0 0 2 0;
#X connect 1 0 5 0;
#X connect 2 0 3 0;
#X connect 3 0 4 0;
#X connect 4 0 5 1;
#X connect 5 0 13 0;
#X connect 6 0 9 1;
#X connect 6 0 14 1;
#X connect 7 0 9 0;
#X connect 7 0 14 1;
#X connect 8 0 25 0;
#X connect 9 0 14 0;
#X connect 10 0 0 0;
#X connect 11 0 8 0;
#X connect 12 0 11 0;
#X connect 13 0 12 0;
#X connect 14 0 22 0;
#X connect 15 0 7 0;
#X connect 15 0 16 0;
#X connect 16 0 6 0;
#X connect 17 0 19 1;
#X connect 18 0 17 0;
#X connect 19 0 8 1;
#X connect 20 0 18 0;
#X connect 21 0 18 0;
#X connect 22 0 19 0;
#X connect 23 0 28 0;
#X connect 24 0 23 1;
#X connect 25 0 26 0;
#X connect 26 0 27 0;
#X connect 27 0 23 0;
#X restore 631 165 pd bullcricket;
#N canvas 1 95 543 556 critters 0;
#X obj 93 226 *~;
#X obj 94 188 *~;
#X obj 94 152 *~;
#X obj 126 46 unpack 1 2 3 4;
#X obj 92 253 hip~ 20;
#X obj 95 107 cos~;
#X obj 158 106 cos~;
#X obj 233 105 cos~;
#X obj 303 105 cos~;
#X obj 303 75 phasor~;
#X obj 234 75 phasor~;
#X obj 158 76 phasor~;
#X obj 96 76 phasor~;
#X obj 126 -1 loadbang;
#X text 129 296 night critters \, ajf2005;
#X msg 126 23 2134 4.279 20.4 15.5;
#X obj 108 270 osc~ 0.01;
#X obj 91 295 *~;
#X obj 91 317 *~ 0.007;
#X obj 90 382 *~;
#X obj 106 357 inlet~;
#X obj 90 415 outlet~;
#X connect 0 0 4 0;
#X connect 1 0 0 0;
#X connect 2 0 1 0;
#X connect 3 0 12 0;
#X connect 3 1 11 0;
#X connect 3 2 10 0;
#X connect 3 3 9 0;
#X connect 4 0 17 0;
#X connect 5 0 2 0;
#X connect 6 0 2 1;
#X connect 7 0 1 1;
#X connect 8 0 0 1;
#X connect 9 0 8 0;
#X connect 10 0 7 0;
#X connect 11 0 6 0;
#X connect 12 0 5 0;
#X connect 13 0 15 0;
#X connect 15 0 3 0;
#X connect 16 0 17 1;
#X connect 17 0 18 0;
#X connect 18 0 19 0;
#X connect 19 0 21 0;
#X connect 20 0 19 1;
#X restore 404 38 pd critters;
#N canvas 1 78 772 689 bee 0;
#X obj 157 329 phasor~ 600;
#X obj 247 329 phasor~ 600;
#X obj 248 304 +~;
#X obj 264 276 osc~ 0.2;
#X obj 226 234 +~;
#X obj 289 98 noise~;
#X obj 158 358 >~ 0.97;
#X obj 248 358 >~ 0.97;
#X obj 289 120 lop~ 1;
#X obj 289 142 *~ 2000;
#X obj 214 554 *~;
#X obj 263 555 *~;
#X obj 237 488 sig~ 1;
#X obj 236 513 -~;
#X obj 159 384 bp~ 6000 12;
#X obj 250 387 bp~ 6000 12;
#X obj 226 143 lop~ 0.2;
#X obj 226 167 *~ 5000;
#X obj 341 256 noise~;
#X obj 343 347 clip~ 0 1;
#X obj 343 323 *~ 1e+09;
#X obj 342 278 lop~ 0.2;
#X obj 343 300 lop~ 0.2;
#X obj 196 430 *~;
#X obj 226 189 +~ 300;
#X obj 314 203 lop~ 0.5;
#X obj 303 166 *~ 0.2;
#X obj 194 456 *~ 0.02;
#X obj 265 592 *~;
#X obj 297 556 inlet~;
#X obj 213 595 *~;
#X obj 214 645 outlet~ L;
#X obj 264 625 outlet~ R;
#X connect 0 0 6 0;
#X connect 1 0 7 0;
#X connect 2 0 1 0;
#X connect 3 0 2 1;
#X connect 4 0 0 0;
#X connect 4 0 2 0;
#X connect 5 0 8 0;
#X connect 5 0 16 0;
#X connect 6 0 14 0;
#X connect 7 0 15 0;
#X connect 8 0 9 0;
#X connect 9 0 4 1;
#X connect 9 0 3 0;
#X connect 9 0 26 0;
#X connect 10 0 30 0;
#X connect 11 0 28 0;
#X connect 12 0 13 0;
#X connect 13 0 10 1;
#X connect 14 0 23 0;
#X connect 15 0 23 0;
#X connect 16 0 17 0;
#X connect 17 0 24 0;
#X connect 18 0 21 0;
#X connect 19 0 23 1;
#X connect 20 0 19 0;
#X connect 21 0 22 0;
#X connect 22 0 20 0;
#X connect 23 0 27 0;
#X connect 24 0 4 0;
#X connect 25 0 13 1;
#X connect 25 0 11 1;
#X connect 26 0 25 0;
#X connect 27 0 10 0;
#X connect 27 0 11 0;
#X connect 28 0 32 0;
#X connect 29 0 28 1;
#X connect 29 0 30 1;
#X connect 30 0 31 0;
#X restore 485 567 pd bee;
#N canvas 1 95 607 636 fly 0;
#X obj 110 274 +~ 284;
#X obj 110 295 phasor~ 640;
#X obj 96 505 /~;
#X obj 112 478 +~ 1;
#X obj 113 454 *~;
#X obj 56 454 sig~ 1;
#X obj 110 182 noise~;
#X obj 110 203 lop~ 2;
#X obj 110 223 lop~ 2;
#X obj 110 246 *~ 2000;
#X obj 111 318 -~ 0.5;
#X obj 111 350 *~;
#X obj 111 374 *~ -4;
#X obj 111 403 +~ 1;
#X obj 172 223 * 4;
#X obj 222 265 / 500;
#X obj 145 532 *~;
#X obj 174 193 line;
#X msg 219 164 280 60;
#X obj 112 426 *~ 16;
#X obj 146 553 bp~ 2000 0.3;
#X msg 174 165 0 20;
#X obj 174 135 sel 0 1;
#X obj 204 58 loadbang;
#X obj 174 58 bng 15 250 50 0 empty empty empty 0 -6 0 8 -262144 -1
-1;
#X obj 174 86 metro 1000;
#X obj 174 109 random 3;
#X obj 147 627 *~;
#X obj 164 602 inlet~;
#X obj 147 580 *~ 0.007;
#X obj 147 657 outlet~;
#X connect 0 0 1 0;
#X connect 1 0 10 0;
#X connect 2 0 16 0;
#X connect 3 0 2 1;
#X connect 4 0 3 0;
#X connect 5 0 2 0;
#X connect 6 0 7 0;
#X connect 7 0 8 0;
#X connect 8 0 9 0;
#X connect 9 0 0 0;
#X connect 10 0 11 0;
#X connect 10 0 11 1;
#X connect 11 0 12 0;
#X connect 12 0 13 0;
#X connect 13 0 19 0;
#X connect 14 0 9 1;
#X connect 15 0 16 1;
#X connect 16 0 20 0;
#X connect 17 0 15 0;
#X connect 17 0 14 0;
#X connect 17 0 0 1;
#X connect 18 0 17 0;
#X connect 19 0 4 0;
#X connect 19 0 4 1;
#X connect 20 0 29 0;
#X connect 21 0 17 0;
#X connect 22 0 21 0;
#X connect 22 1 18 0;
#X connect 23 0 25 0;
#X connect 24 0 25 0;
#X connect 25 0 26 0;
#X connect 26 0 22 0;
#X connect 27 0 30 0;
#X connect 28 0 27 1;
#X connect 29 0 27 0;
#X restore 313 567 pd fly;
#N canvas 1 78 682 607 circada1 0;
#X obj 17 7 noise~;
#X obj 17 75 hip~ 5000;
#X obj 17 96 hip~ 5000;
#X obj 17 117 lop~ 8000;
#X obj 17 138 lop~ 8000;
#X obj 99 216 *~;
#X obj 187 216 *~;
#X obj 99 317 *~;
#X obj 116 271 +~;
#X obj 99 337 bp~ 6000 7;
#X obj 99 358 hip~ 4000;
#X obj 99 240 *~;
#X obj 99 168 *~ -90;
#X obj 99 144 +~ 1;
#X obj 143 96 lop~ 2;
#X obj 143 72 lop~ 2;
#X obj 99 120 *~ 30;
#X obj 187 120 *~ 10;
#X obj 187 144 +~ 1;
#X obj 187 168 *~ -20;
#X obj 99 192 phasor~;
#X obj 187 192 phasor~;
#X obj 116 295 lop~ 70;
#X obj 307 103 metro 3000;
#X obj 308 78 loadbang;
#X obj 375 78 bng 15 250 50 0 empty empty empty 0 -6 0 8 -262144 -1
-1;
#X obj 308 151 sel 0 1;
#X obj 99 402 *~;
#X obj 157 379 lop~ 1;
#X msg 279 198 0;
#X msg 314 198 1;
#X obj 307 128 random 3;
#X obj 98 437 *~;
#X obj 33 385 inlet~;
#X obj 99 380 *~ 0.1;
#X obj 98 468 outlet~;
#X connect 0 0 1 0;
#X connect 0 0 15 0;
#X connect 1 0 2 0;
#X connect 2 0 3 0;
#X connect 3 0 4 0;
#X connect 4 0 7 0;
#X connect 5 0 11 0;
#X connect 5 0 11 1;
#X connect 6 0 8 1;
#X connect 7 0 9 0;
#X connect 8 0 22 0;
#X connect 9 0 10 0;
#X connect 10 0 34 0;
#X connect 11 0 8 0;
#X connect 12 0 20 0;
#X connect 13 0 12 0;
#X connect 14 0 16 0;
#X connect 14 0 17 0;
#X connect 15 0 14 0;
#X connect 16 0 13 0;
#X connect 17 0 18 0;
#X connect 18 0 19 0;
#X connect 19 0 21 0;
#X connect 20 0 5 0;
#X connect 20 0 5 1;
#X connect 21 0 6 0;
#X connect 21 0 6 1;
#X connect 22 0 7 1;
#X connect 23 0 31 0;
#X connect 24 0 23 0;
#X connect 25 0 23 0;
#X connect 26 0 29 0;
#X connect 26 1 30 0;
#X connect 27 0 32 1;
#X connect 28 0 27 1;
#X connect 29 0 28 0;
#X connect 30 0 28 0;
#X connect 31 0 26 0;
#X connect 32 0 35 0;
#X connect 33 0 32 0;
#X connect 34 0 27 0;
#X restore 397 295 pd circada1;
#X obj 397 546 tgl 15 1 empty mosquito empty 0 -6 0 8 -262144 -1 -1
0 1;
#X obj 313 545 tgl 15 1 empty fly empty 0 -6 0 8 -262144 -1 -1 0 1
;
#X obj 485 546 tgl 15 1 empty bee empty 0 -6 0 8 -262144 -1 -1 0 1
;
#X obj 631 144 tgl 15 1 empty bullcricket empty 0 -6 0 8 -262144 -1
-1 0 1;
#X obj 741 144 tgl 15 1 empty japanese empty 0 -6 0 8 -262144 -1 -1
0 1;
#X obj 564 276 tgl 15 1 empty flutter empty 0 -6 0 8 -262144 -1 -1
0 1;
#X obj 311 145 tgl 15 1 empty cricketA empty 0 -6 0 8 -262144 -1 -1
0 1;
#X obj 391 144 tgl 15 1 empty cricketB empty 0 -6 0 8 -262144 -1 -1
0 1;
#X obj 470 144 tgl 15 1 empty cricketC empty 0 -6 0 8 -262144 -1 -1
0 1;
#X obj 484 276 tgl 15 1 empty rattler empty 0 -6 0 8 -262144 -1 -1
0 1;
#X obj 551 146 tgl 15 1 empty chirper empty 0 -6 0 8 -262144 -1 -1
0 1;
#X obj 485 409 tgl 15 1 empty frogC empty 0 -6 0 8 -262144 -1 -1 0
1;
#X obj 311 18 tgl 15 1 empty critters empty 0 -6 0 8 -262144 -1 -1
0 1;
#X obj 404 18 tgl 15 1 empty critters2 empty 0 -6 0 8 -262144 -1 -1
0 1;
#X obj 397 409 tgl 15 1 empty frogB empty 0 -6 0 8 -262144 -1 -1 0
1;
#X obj 312 410 tgl 15 1 empty frogA empty 0 -6 0 8 -262144 -1 -1 0
1;
#X obj 397 275 tgl 15 1 empty cicadaB empty 0 -6 0 8 -262144 -1 -1
0 1;
#N canvas 1 78 548 524 circada2 0;
#X obj 187 27 noise~;
#X obj 139 106 +~ 1;
#X obj 224 125 +~ 1;
#X obj 224 83 lop~ 5;
#X obj 224 62 lop~ 5;
#X obj 139 169 hip~ 12000;
#X obj 139 190 hip~ 12000;
#X obj 139 148 phasor~;
#X obj 139 127 *~ -120;
#X obj 224 167 osc~;
#X obj 224 104 *~ 0;
#X obj 224 188 clip~ 0 1;
#X obj 150 223 bp~ 5000 30;
#X obj 234 223 bp~ 6000 30;
#X obj 223 248 bp~ 8000 30;
#X obj 139 248 bp~ 7000 30;
#X obj 138 309 *~;
#X obj 138 330 bp~ 6000 5;
#X obj 224 146 *~ -12;
#X obj 139 64 bp~ 120 40;
#X obj 139 85 *~ 190;
#X obj 138 406 *~;
#X obj 154 384 inlet~;
#X obj 138 359 *~;
#X obj 222 329 lop~ 1;
#X obj 381 54 loadbang;
#X obj 448 54 bng 15 250 50 0 empty empty empty 0 -6 0 8 -262144 -1
-1;
#X obj 381 127 sel 0 1;
#X msg 352 174 0;
#X msg 387 174 1;
#X obj 380 104 random 4;
#X obj 380 79 metro 1000;
#X obj 138 288 *~ 0.7;
#X obj 138 450 outlet~;
#X connect 0 0 4 0;
#X connect 0 0 19 0;
#X connect 1 0 8 0;
#X connect 2 0 18 0;
#X connect 3 0 10 0;
#X connect 4 0 3 0;
#X connect 5 0 6 0;
#X connect 6 0 12 0;
#X connect 6 0 13 0;
#X connect 6 0 14 0;
#X connect 6 0 15 0;
#X connect 7 0 5 0;
#X connect 8 0 7 0;
#X connect 9 0 11 0;
#X connect 10 0 2 0;
#X connect 11 0 16 1;
#X connect 12 0 32 0;
#X connect 13 0 32 0;
#X connect 14 0 32 0;
#X connect 15 0 32 0;
#X connect 16 0 17 0;
#X connect 17 0 23 0;
#X connect 18 0 9 0;
#X connect 19 0 20 0;
#X connect 20 0 1 0;
#X connect 21 0 33 0;
#X connect 22 0 21 1;
#X connect 23 0 21 0;
#X connect 24 0 23 1;
#X connect 25 0 31 0;
#X connect 26 0 31 0;
#X connect 27 0 28 0;
#X connect 27 1 29 0;
#X connect 28 0 24 0;
#X connect 29 0 24 0;
#X connect 30 0 27 0;
#X connect 31 0 30 0;
#X connect 32 0 16 0;
#X restore 311 295 pd circada2;
#X obj 311 275 tgl 15 1 empty cicadaA empty 0 -6 0 8 -262144 -1 -1
0 1;
#N canvas 1 78 590 525 flutter 0;
#X obj 121 158 sig~ 1;
#X obj 121 190 /~;
#X obj 174 167 +~ 1;
#X obj 175 141 *~;
#X obj 175 90 osc~ 20;
#X obj 230 167 noise~;
#X obj 121 215 *~;
#X obj 230 189 hip~ 8000;
#X obj 175 112 *~ 14;
#X obj 320 68 noise~;
#X obj 322 159 clip~ 0 1;
#X obj 322 135 *~ 1e+09;
#X obj 121 309 *~;
#X obj 121 241 bp~ 10000 15;
#X obj 230 213 *~ 0.1;
#X obj 304 226 clip~ 0 1;
#X obj 305 251 *~;
#X obj 303 181 osc~ 0.3;
#X obj 321 90 lop~ 0.2;
#X obj 322 112 lop~ 0.2;
#X obj 121 342 *~ 0.2;
#X obj 303 203 *~ 3;
#X obj 122 389 *~;
#X obj 138 364 inlet~;
#X obj 121 421 outlet~;
#X connect 0 0 1 0;
#X connect 1 0 6 0;
#X connect 2 0 1 1;
#X connect 3 0 2 0;
#X connect 4 0 8 0;
#X connect 5 0 7 0;
#X connect 6 0 13 0;
#X connect 7 0 6 1;
#X connect 7 0 14 0;
#X connect 8 0 3 0;
#X connect 8 0 3 1;
#X connect 9 0 18 0;
#X connect 10 0 16 1;
#X connect 11 0 10 0;
#X connect 12 0 20 0;
#X connect 13 0 12 0;
#X connect 14 0 13 0;
#X connect 15 0 16 0;
#X connect 16 0 12 1;
#X connect 17 0 21 0;
#X connect 18 0 19 0;
#X connect 19 0 11 0;
#X connect 20 0 22 0;
#X connect 21 0 15 0;
#X connect 22 0 24 0;
#X connect 23 0 22 1;
#X restore 564 295 pd flutter;
#X obj 983 534 catch~ 2rev;
#X obj 1016 377 vsl 15 100 0 100 0 1 empty empty vol 0 -9 0 10 -262130
-1 -1 6400 1;
#X floatatom 1016 493 5 0 0 0 - - -, f 5;
#X text 1013 262 control inlets:;
#X text 1010 281 1: output level \, dB \, 0-100;
#X text 1009 331 4: high frequency damping \, 0-100;
#X text 1010 314 3: crossover frequency in Hz. (3000 default);
#X text 1010 297 2: liveness \, 0-100 \, usually between 85 and 100
;
#X obj 984 568 rev2~ 50 85 5000 75;
#X obj 1056 377 vsl 15 100 0 100 0 1 empty empty live 0 -9 0 10 -204786
-1 -1 9000 1;
#X floatatom 1056 493 5 0 0 0 - - -, f 5;
#X obj 1096 377 vsl 15 100 500 15000 0 1 empty empty freq 0 -9 0 10
-232576 -1 -1 7200 1;
#X floatatom 1096 493 5 0 0 0 - - -, f 5;
#X obj 1136 377 vsl 15 100 0 100 0 1 empty empty damp 0 -9 0 10 -204800
-1 -1 1800 1;
#X floatatom 1136 493 5 0 0 0 - - -, f 5;
#X obj 75 526 catch~ mono;
#X obj 35 587 hip~ 5;
#X obj 35 609 clip~ -1 1;
#X obj 35 505 catch~ L;
#X obj 125 505 catch~ R;
#X obj 125 587 hip~ 5;
#X obj 125 609 clip~ -1 1;
#X obj 35 631 dac~ 1 2;
#X obj 984 630 throw~ L;
#X obj 1027 610 throw~ R;
#N canvas 1 78 450 300 level 0;
#X obj 202 47 inlet~ L;
#X obj 292 47 inlet~ R;
#X obj 106 104 hsl 60 15 0 1 0 1 empty empty vol -2 8 0 10 -262130
-1 -1 5000 1;
#X obj 185 185 *~;
#X obj 225 185 *~;
#X msg 103 135 \$1 20;
#X obj 103 157 line~;
#X obj 185 257 outlet~ L;
#X obj 225 236 outlet~ R;
#X connect 0 0 3 1;
#X connect 1 0 4 1;
#X connect 2 0 5 0;
#X connect 3 0 7 0;
#X connect 4 0 8 0;
#X connect 5 0 6 0;
#X connect 6 0 3 0;
#X connect 6 0 4 0;
#X coords 0 -1 1 1 75 25 2 100 100;
#X restore 311 59 pd level;
#N canvas 1 78 450 300 fxsend 0;
#X obj 90 383 throw~ 2rev;
#X obj 89 320 *~;
#X obj 107 105 tgl 15 0 empty empty empty 17 7 0 10 -262144 -1 -1 1
1;
#X msg 107 276 \$1 20;
#X obj 107 298 line~;
#X obj 90 362 *~;
#X msg 207 323 \$1 20;
#X obj 207 345 line~;
#X obj 130 105 hsl 35 15 0 1 0 1 empty empty fx -2 8 0 10 -204786 -1
-1 1000 1;
#X obj 58 69 inlet~;
#X obj 107 150 sel 0;
#X msg 107 177 0;
#X obj 207 215 f;
#X msg 277 323 \$1 20;
#X obj 277 345 line~;
#X obj 277 273 swap 1;
#X obj 277 295 -;
#X obj 59 444 *~;
#X obj 139 215 t b b;
#X msg 139 237 1;
#X obj 239 28 loadbang;
#X msg 239 50 1;
#X obj 59 472 outlet~;
#X connect 1 0 5 0;
#X connect 2 0 10 0;
#X connect 3 0 4 0;
#X connect 4 0 1 1;
#X connect 5 0 0 0;
#X connect 6 0 7 0;
#X connect 7 0 5 1;
#X connect 8 0 12 0;
#X connect 9 0 1 0;
#X connect 9 0 17 0;
#X connect 10 0 11 0;
#X connect 10 1 18 0;
#X connect 11 0 3 0;
#X connect 11 0 12 0;
#X connect 12 0 15 0;
#X connect 12 0 6 0;
#X connect 13 0 14 0;
#X connect 14 0 17 1;
#X connect 15 0 16 0;
#X connect 15 1 16 1;
#X connect 16 0 13 0;
#X connect 17 0 22 0;
#X connect 18 0 19 0;
#X connect 18 1 8 0;
#X connect 19 0 3 0;
#X connect 20 0 21 0;
#X connect 21 0 2 0;
#X coords 0 -1 1 1 75 25 2 100 100;
#X restore 311 87 pd fxsend;
#N canvas 1 78 450 300 level 0;
#X obj 202 47 inlet~ L;
#X obj 292 47 inlet~ R;
#X obj 106 104 hsl 60 15 0 1 0 1 empty empty vol -2 8 0 10 -262130
-1 -1 4700 1;
#X obj 185 185 *~;
#X obj 225 185 *~;
#X msg 103 135 \$1 20;
#X obj 103 157 line~;
#X obj 185 257 outlet~ L;
#X obj 225 236 outlet~ R;
#X connect 0 0 3 1;
#X connect 1 0 4 1;
#X connect 2 0 5 0;
#X connect 3 0 7 0;
#X connect 4 0 8 0;
#X connect 5 0 6 0;
#X connect 6 0 3 0;
#X connect 6 0 4 0;
#X coords 0 -1 1 1 75 25 2 100 100;
#X restore 404 59 pd level;
#N canvas 447 247 450 300 pan 0;
#X obj 106 104 hsl 60 15 0 1 0 1 empty empty pan -2 8 0 10 -203904
-1 -1 400 1;
#X obj 185 215 *~;
#X obj 225 215 *~;
#X msg 103 135 \$1 20;
#X obj 103 157 line~;
#X obj 202 47 inlet~ mono;
#X obj 185 257 throw~ L;
#X obj 225 236 throw~ R;
#X obj 86 198 sig~ 1;
#X obj 86 220 -~;
#X connect 0 0 3 0;
#X connect 1 0 6 0;
#X connect 2 0 7 0;
#X connect 3 0 4 0;
#X connect 4 0 9 1;
#X connect 4 0 2 0;
#X connect 5 0 1 1;
#X connect 5 0 2 1;
#X connect 8 0 9 0;
#X connect 9 0 1 0;
#X coords 0 -1 1 1 75 25 2 100 100;
#X restore 311 116 pd pan;
#N canvas 1 78 450 300 fxsend 0;
#X obj 90 383 throw~ 2rev;
#X obj 89 320 *~;
#X obj 107 105 tgl 15 0 empty empty empty 17 7 0 10 -262144 -1 -1 1
1;
#X msg 107 276 \$1 20;
#X obj 107 298 line~;
#X obj 90 362 *~;
#X msg 207 323 \$1 20;
#X obj 207 345 line~;
#X obj 130 105 hsl 35 15 0 1 0 1 empty empty fx -2 8 0 10 -204786 -1
-1 1900 1;
#X obj 58 69 inlet~;
#X obj 107 150 sel 0;
#X msg 107 177 0;
#X obj 207 215 f;
#X msg 277 323 \$1 20;
#X obj 277 345 line~;
#X obj 277 273 swap 1;
#X obj 277 295 -;
#X obj 59 444 *~;
#X obj 139 215 t b b;
#X msg 139 237 1;
#X obj 239 28 loadbang;
#X msg 239 50 1;
#X obj 59 472 outlet~;
#X connect 1 0 5 0;
#X connect 2 0 10 0;
#X connect 3 0 4 0;
#X connect 4 0 1 1;
#X connect 5 0 0 0;
#X connect 6 0 7 0;
#X connect 7 0 5 1;
#X connect 8 0 12 0;
#X connect 9 0 1 0;
#X connect 9 0 17 0;
#X connect 10 0 11 0;
#X connect 10 1 18 0;
#X connect 11 0 3 0;
#X connect 11 0 12 0;
#X connect 12 0 15 0;
#X connect 12 0 6 0;
#X connect 13 0 14 0;
#X connect 14 0 17 1;
#X connect 15 0 16 0;
#X connect 15 1 16 1;
#X connect 16 0 13 0;
#X connect 17 0 22 0;
#X connect 18 0 19 0;
#X connect 18 1 8 0;
#X connect 19 0 3 0;
#X connect 20 0 21 0;
#X connect 21 0 2 0;
#X coords 0 -1 1 1 75 25 2 100 100;
#X restore 404 87 pd fxsend;
#N canvas 447 247 450 300 pan 0;
#X obj 106 104 hsl 60 15 0 1 0 1 empty empty pan -2 8 0 10 -203904
-1 -1 3800 1;
#X obj 185 215 *~;
#X obj 225 215 *~;
#X msg 103 135 \$1 20;
#X obj 103 157 line~;
#X obj 202 47 inlet~ mono;
#X obj 185 257 throw~ L;
#X obj 225 236 throw~ R;
#X obj 86 198 sig~ 1;
#X obj 86 220 -~;
#X connect 0 0 3 0;
#X connect 1 0 6 0;
#X connect 2 0 7 0;
#X connect 3 0 4 0;
#X connect 4 0 9 1;
#X connect 4 0 2 0;
#X connect 5 0 1 1;
#X connect 5 0 2 1;
#X connect 8 0 9 0;
#X connect 9 0 1 0;
#X coords 0 -1 1 1 75 25 2 100 100;
#X restore 404 116 pd pan;
#N canvas 1 78 450 300 level 0;
#X obj 202 47 inlet~ L;
#X obj 292 47 inlet~ R;
#X obj 106 104 hsl 60 15 0 1 0 1 empty empty vol -2 8 0 10 -262130
-1 -1 1400 1;
#X obj 185 185 *~;
#X obj 225 185 *~;
#X msg 103 135 \$1 20;
#X obj 103 157 line~;
#X obj 185 257 outlet~ L;
#X obj 225 236 outlet~ R;
#X connect 0 0 3 1;
#X connect 1 0 4 1;
#X connect 2 0 5 0;
#X connect 3 0 7 0;
#X connect 4 0 8 0;
#X connect 5 0 6 0;
#X connect 6 0 3 0;
#X connect 6 0 4 0;
#X coords 0 -1 1 1 75 25 2 100 100;
#X restore 311 188 pd level;
#N canvas 1 78 450 300 fxsend 0;
#X obj 90 383 throw~ 2rev;
#X obj 89 320 *~;
#X obj 107 105 tgl 15 0 empty empty empty 17 7 0 10 -262144 -1 -1 1
1;
#X msg 107 276 \$1 20;
#X obj 107 298 line~;
#X obj 90 362 *~;
#X msg 207 323 \$1 20;
#X obj 207 345 line~;
#X obj 130 105 hsl 35 15 0 1 0 1 empty empty fx -2 8 0 10 -204786 -1
-1 1800 1;
#X obj 58 69 inlet~;
#X obj 107 150 sel 0;
#X msg 107 177 0;
#X obj 207 215 f;
#X msg 277 323 \$1 20;
#X obj 277 345 line~;
#X obj 277 273 swap 1;
#X obj 277 295 -;
#X obj 59 444 *~;
#X obj 139 215 t b b;
#X msg 139 237 1;
#X obj 239 28 loadbang;
#X msg 239 50 1;
#X obj 59 472 outlet~;
#X connect 1 0 5 0;
#X connect 2 0 10 0;
#X connect 3 0 4 0;
#X connect 4 0 1 1;
#X connect 5 0 0 0;
#X connect 6 0 7 0;
#X connect 7 0 5 1;
#X connect 8 0 12 0;
#X connect 9 0 1 0;
#X connect 9 0 17 0;
#X connect 10 0 11 0;
#X connect 10 1 18 0;
#X connect 11 0 3 0;
#X connect 11 0 12 0;
#X connect 12 0 15 0;
#X connect 12 0 6 0;
#X connect 13 0 14 0;
#X connect 14 0 17 1;
#X connect 15 0 16 0;
#X connect 15 1 16 1;
#X connect 16 0 13 0;
#X connect 17 0 22 0;
#X connect 18 0 19 0;
#X connect 18 1 8 0;
#X connect 19 0 3 0;
#X connect 20 0 21 0;
#X connect 21 0 2 0;
#X coords 0 -1 1 1 75 25 2 100 100;
#X restore 311 216 pd fxsend;
#N canvas 1 78 450 300 level 0;
#X obj 202 47 inlet~ L;
#X obj 292 47 inlet~ R;
#X obj 106 104 hsl 60 15 0 1 0 1 empty empty vol -2 8 0 10 -262130
-1 -1 4000 1;
#X obj 185 185 *~;
#X obj 225 185 *~;
#X msg 103 135 \$1 20;
#X obj 103 157 line~;
#X obj 185 257 outlet~ L;
#X obj 225 236 outlet~ R;
#X connect 0 0 3 1;
#X connect 1 0 4 1;
#X connect 2 0 5 0;
#X connect 3 0 7 0;
#X connect 4 0 8 0;
#X connect 5 0 6 0;
#X connect 6 0 3 0;
#X connect 6 0 4 0;
#X coords 0 -1 1 1 75 25 2 100 100;
#X restore 392 188 pd level;
#N canvas 447 247 450 300 pan 0;
#X obj 106 104 hsl 60 15 0 1 0 1 empty empty pan -2 8 0 10 -203904
-1 -1 2100 1;
#X obj 185 215 *~;
#X obj 225 215 *~;
#X msg 103 135 \$1 20;
#X obj 103 157 line~;
#X obj 202 47 inlet~ mono;
#X obj 185 257 throw~ L;
#X obj 225 236 throw~ R;
#X obj 86 198 sig~ 1;
#X obj 86 220 -~;
#X connect 0 0 3 0;
#X connect 1 0 6 0;
#X connect 2 0 7 0;
#X connect 3 0 4 0;
#X connect 4 0 9 1;
#X connect 4 0 2 0;
#X connect 5 0 1 1;
#X connect 5 0 2 1;
#X connect 8 0 9 0;
#X connect 9 0 1 0;
#X coords 0 -1 1 1 75 25 2 100 100;
#X restore 311 245 pd pan;
#N canvas 1 78 450 300 fxsend 0;
#X obj 90 383 throw~ 2rev;
#X obj 89 320 *~;
#X obj 107 105 tgl 15 0 empty empty empty 17 7 0 10 -262144 -1 -1 1
1;
#X msg 107 276 \$1 20;
#X obj 107 298 line~;
#X obj 90 362 *~;
#X msg 207 323 \$1 20;
#X obj 207 345 line~;
#X obj 130 105 hsl 35 15 0 1 0 1 empty empty fx -2 8 0 10 -204786 -1
-1 2600 1;
#X obj 58 69 inlet~;
#X obj 107 150 sel 0;
#X msg 107 177 0;
#X obj 207 215 f;
#X msg 277 323 \$1 20;
#X obj 277 345 line~;
#X obj 277 273 swap 1;
#X obj 277 295 -;
#X obj 59 444 *~;
#X obj 139 215 t b b;
#X msg 139 237 1;
#X obj 239 28 loadbang;
#X msg 239 50 1;
#X obj 59 472 outlet~;
#X connect 1 0 5 0;
#X connect 2 0 10 0;
#X connect 3 0 4 0;
#X connect 4 0 1 1;
#X connect 5 0 0 0;
#X connect 6 0 7 0;
#X connect 7 0 5 1;
#X connect 8 0 12 0;
#X connect 9 0 1 0;
#X connect 9 0 17 0;
#X connect 10 0 11 0;
#X connect 10 1 18 0;
#X connect 11 0 3 0;
#X connect 11 0 12 0;
#X connect 12 0 15 0;
#X connect 12 0 6 0;
#X connect 13 0 14 0;
#X connect 14 0 17 1;
#X connect 15 0 16 0;
#X connect 15 1 16 1;
#X connect 16 0 13 0;
#X connect 17 0 22 0;
#X connect 18 0 19 0;
#X connect 18 1 8 0;
#X connect 19 0 3 0;
#X connect 20 0 21 0;
#X connect 21 0 2 0;
#X coords 0 -1 1 1 75 25 2 100 100;
#X restore 392 216 pd fxsend;
#N canvas 447 247 450 300 pan 0;
#X obj 106 104 hsl 60 15 0 1 0 1 empty empty pan -2 8 0 10 -203904
-1 -1 5400 1;
#X obj 185 215 *~;
#X obj 225 215 *~;
#X msg 103 135 \$1 20;
#X obj 103 157 line~;
#X obj 202 47 inlet~ mono;
#X obj 185 257 throw~ L;
#X obj 225 236 throw~ R;
#X obj 86 198 sig~ 1;
#X obj 86 220 -~;
#X connect 0 0 3 0;
#X connect 1 0 6 0;
#X connect 2 0 7 0;
#X connect 3 0 4 0;
#X connect 4 0 9 1;
#X connect 4 0 2 0;
#X connect 5 0 1 1;
#X connect 5 0 2 1;
#X connect 8 0 9 0;
#X connect 9 0 1 0;
#X coords 0 -1 1 1 75 25 2 100 100;
#X restore 392 245 pd pan;
#N canvas 1 78 450 300 level 0;
#X obj 202 47 inlet~ L;
#X obj 292 47 inlet~ R;
#X obj 106 104 hsl 60 15 0 1 0 1 empty empty vol -2 8 0 10 -262130
-1 -1 1700 1;
#X obj 185 185 *~;
#X obj 225 185 *~;
#X msg 103 135 \$1 20;
#X obj 103 157 line~;
#X obj 185 257 outlet~ L;
#X obj 225 236 outlet~ R;
#X connect 0 0 3 1;
#X connect 1 0 4 1;
#X connect 2 0 5 0;
#X connect 3 0 7 0;
#X connect 4 0 8 0;
#X connect 5 0 6 0;
#X connect 6 0 3 0;
#X connect 6 0 4 0;
#X coords 0 -1 1 1 75 25 2 100 100;
#X restore 472 188 pd level;
#N canvas 1 78 450 300 fxsend 0;
#X obj 90 383 throw~ 2rev;
#X obj 89 320 *~;
#X obj 107 105 tgl 15 0 empty empty empty 17 7 0 10 -262144 -1 -1 1
1;
#X msg 107 276 \$1 20;
#X obj 107 298 line~;
#X obj 90 362 *~;
#X msg 207 323 \$1 20;
#X obj 207 345 line~;
#X obj 130 105 hsl 35 15 0 1 0 1 empty empty fx -2 8 0 10 -204786 -1
-1 1200 1;
#X obj 58 69 inlet~;
#X obj 107 150 sel 0;
#X msg 107 177 0;
#X obj 207 215 f;
#X msg 277 323 \$1 20;
#X obj 277 345 line~;
#X obj 277 273 swap 1;
#X obj 277 295 -;
#X obj 59 444 *~;
#X obj 139 215 t b b;
#X msg 139 237 1;
#X obj 239 28 loadbang;
#X msg 239 50 1;
#X obj 59 472 outlet~;
#X connect 1 0 5 0;
#X connect 2 0 10 0;
#X connect 3 0 4 0;
#X connect 4 0 1 1;
#X connect 5 0 0 0;
#X connect 6 0 7 0;
#X connect 7 0 5 1;
#X connect 8 0 12 0;
#X connect 9 0 1 0;
#X connect 9 0 17 0;
#X connect 10 0 11 0;
#X connect 10 1 18 0;
#X connect 11 0 3 0;
#X connect 11 0 12 0;
#X connect 12 0 15 0;
#X connect 12 0 6 0;
#X connect 13 0 14 0;
#X connect 14 0 17 1;
#X connect 15 0 16 0;
#X connect 15 1 16 1;
#X connect 16 0 13 0;
#X connect 17 0 22 0;
#X connect 18 0 19 0;
#X connect 18 1 8 0;
#X connect 19 0 3 0;
#X connect 20 0 21 0;
#X connect 21 0 2 0;
#X coords 0 -1 1 1 75 25 2 100 100;
#X restore 472 216 pd fxsend;
#N canvas 447 247 450 300 pan 0;
#X obj 106 104 hsl 60 15 0 1 0 1 empty empty pan -2 8 0 10 -203904
-1 -1 2600 1;
#X obj 185 215 *~;
#X obj 225 215 *~;
#X msg 103 135 \$1 20;
#X obj 103 157 line~;
#X obj 202 47 inlet~ mono;
#X obj 185 257 throw~ L;
#X obj 225 236 throw~ R;
#X obj 86 198 sig~ 1;
#X obj 86 220 -~;
#X connect 0 0 3 0;
#X connect 1 0 6 0;
#X connect 2 0 7 0;
#X connect 3 0 4 0;
#X connect 4 0 9 1;
#X connect 4 0 2 0;
#X connect 5 0 1 1;
#X connect 5 0 2 1;
#X connect 8 0 9 0;
#X connect 9 0 1 0;
#X coords 0 -1 1 1 75 25 2 100 100;
#X restore 472 245 pd pan;
#N canvas 1 78 450 300 level 0;
#X obj 202 47 inlet~ L;
#X obj 292 47 inlet~ R;
#X obj 106 104 hsl 60 15 0 1 0 1 empty empty vol -2 8 0 10 -262130
-1 -1 4000 1;
#X obj 185 185 *~;
#X obj 225 185 *~;
#X msg 103 135 \$1 20;
#X obj 103 157 line~;
#X obj 185 257 outlet~ L;
#X obj 225 236 outlet~ R;
#X connect 0 0 3 1;
#X connect 1 0 4 1;
#X connect 2 0 5 0;
#X connect 3 0 7 0;
#X connect 4 0 8 0;
#X connect 5 0 6 0;
#X connect 6 0 3 0;
#X connect 6 0 4 0;
#X coords 0 -1 1 1 75 25 2 100 100;
#X restore 552 188 pd level;
#N canvas 1 78 450 300 fxsend 0;
#X obj 90 383 throw~ 2rev;
#X obj 89 320 *~;
#X obj 107 105 tgl 15 0 empty empty empty 17 7 0 10 -262144 -1 -1 1
1;
#X msg 107 276 \$1 20;
#X obj 107 298 line~;
#X obj 90 362 *~;
#X msg 207 323 \$1 20;
#X obj 207 345 line~;
#X obj 130 105 hsl 35 15 0 1 0 1 empty empty fx -2 8 0 10 -204786 -1
-1 2000 1;
#X obj 58 69 inlet~;
#X obj 107 150 sel 0;
#X msg 107 177 0;
#X obj 207 215 f;
#X msg 277 323 \$1 20;
#X obj 277 345 line~;
#X obj 277 273 swap 1;
#X obj 277 295 -;
#X obj 59 444 *~;
#X obj 139 215 t b b;
#X msg 139 237 1;
#X obj 239 28 loadbang;
#X msg 239 50 1;
#X obj 59 472 outlet~;
#X connect 1 0 5 0;
#X connect 2 0 10 0;
#X connect 3 0 4 0;
#X connect 4 0 1 1;
#X connect 5 0 0 0;
#X connect 6 0 7 0;
#X connect 7 0 5 1;
#X connect 8 0 12 0;
#X connect 9 0 1 0;
#X connect 9 0 17 0;
#X connect 10 0 11 0;
#X connect 10 1 18 0;
#X connect 11 0 3 0;
#X connect 11 0 12 0;
#X connect 12 0 15 0;
#X connect 12 0 6 0;
#X connect 13 0 14 0;
#X connect 14 0 17 1;
#X connect 15 0 16 0;
#X connect 15 1 16 1;
#X connect 16 0 13 0;
#X connect 17 0 22 0;
#X connect 18 0 19 0;
#X connect 18 1 8 0;
#X connect 19 0 3 0;
#X connect 20 0 21 0;
#X connect 21 0 2 0;
#X coords 0 -1 1 1 75 25 2 100 100;
#X restore 552 216 pd fxsend;
#N canvas 447 247 450 300 pan 0;
#X obj 106 104 hsl 60 15 0 1 0 1 empty empty pan -2 8 0 10 -203904
-1 -1 5900 1;
#X obj 185 215 *~;
#X obj 225 215 *~;
#X msg 103 135 \$1 20;
#X obj 103 157 line~;
#X obj 202 47 inlet~ mono;
#X obj 185 257 throw~ L;
#X obj 225 236 throw~ R;
#X obj 86 198 sig~ 1;
#X obj 86 220 -~;
#X connect 0 0 3 0;
#X connect 1 0 6 0;
#X connect 2 0 7 0;
#X connect 3 0 4 0;
#X connect 4 0 9 1;
#X connect 4 0 2 0;
#X connect 5 0 1 1;
#X connect 5 0 2 1;
#X connect 8 0 9 0;
#X connect 9 0 1 0;
#X coords 0 -1 1 1 75 25 2 100 100;
#X restore 552 245 pd pan;
#N canvas 1 78 450 300 level 0;
#X obj 202 47 inlet~ L;
#X obj 292 47 inlet~ R;
#X obj 106 104 hsl 60 15 0 1 0 1 empty empty vol -2 8 0 10 -262130
-1 -1 5900 1;
#X obj 185 185 *~;
#X obj 225 185 *~;
#X msg 103 135 \$1 20;
#X obj 103 157 line~;
#X obj 185 257 outlet~ L;
#X obj 225 236 outlet~ R;
#X connect 0 0 3 1;
#X connect 1 0 4 1;
#X connect 2 0 5 0;
#X connect 3 0 7 0;
#X connect 4 0 8 0;
#X connect 5 0 6 0;
#X connect 6 0 3 0;
#X connect 6 0 4 0;
#X coords 0 -1 1 1 75 25 2 100 100;
#X restore 632 188 pd level;
#N canvas 1 78 450 300 fxsend 0;
#X obj 90 383 throw~ 2rev;
#X obj 89 320 *~;
#X obj 107 105 tgl 15 0 empty empty empty 17 7 0 10 -262144 -1 -1 1
1;
#X msg 107 276 \$1 20;
#X obj 107 298 line~;
#X obj 90 362 *~;
#X msg 207 323 \$1 20;
#X obj 207 345 line~;
#X obj 130 105 hsl 35 15 0 1 0 1 empty empty fx -2 8 0 10 -204786 -1
-1 0 1;
#X obj 58 69 inlet~;
#X obj 107 150 sel 0;
#X msg 107 177 0;
#X obj 207 215 f;
#X msg 277 323 \$1 20;
#X obj 277 345 line~;
#X obj 277 273 swap 1;
#X obj 277 295 -;
#X obj 59 444 *~;
#X obj 139 215 t b b;
#X msg 139 237 1;
#X obj 239 28 loadbang;
#X msg 239 50 1;
#X obj 59 472 outlet~;
#X connect 1 0 5 0;
#X connect 2 0 10 0;
#X connect 3 0 4 0;
#X connect 4 0 1 1;
#X connect 5 0 0 0;
#X connect 6 0 7 0;
#X connect 7 0 5 1;
#X connect 8 0 12 0;
#X connect 9 0 1 0;
#X connect 9 0 17 0;
#X connect 10 0 11 0;
#X connect 10 1 18 0;
#X connect 11 0 3 0;
#X connect 11 0 12 0;
#X connect 12 0 15 0;
#X connect 12 0 6 0;
#X connect 13 0 14 0;
#X connect 14 0 17 1;
#X connect 15 0 16 0;
#X connect 15 1 16 1;
#X connect 16 0 13 0;
#X connect 17 0 22 0;
#X connect 18 0 19 0;
#X connect 18 1 8 0;
#X connect 19 0 3 0;
#X connect 20 0 21 0;
#X connect 21 0 2 0;
#X coords 0 -1 1 1 75 25 2 100 100;
#X restore 632 216 pd fxsend;
#N canvas 447 247 450 300 pan 0;
#X obj 106 104 hsl 60 15 0 1 0 1 empty empty pan -2 8 0 10 -203904
-1 -1 700 1;
#X obj 185 215 *~;
#X obj 225 215 *~;
#X msg 103 135 \$1 20;
#X obj 103 157 line~;
#X obj 202 47 inlet~ mono;
#X obj 185 257 throw~ L;
#X obj 225 236 throw~ R;
#X obj 86 198 sig~ 1;
#X obj 86 220 -~;
#X connect 0 0 3 0;
#X connect 1 0 6 0;
#X connect 2 0 7 0;
#X connect 3 0 4 0;
#X connect 4 0 9 1;
#X connect 4 0 2 0;
#X connect 5 0 1 1;
#X connect 5 0 2 1;
#X connect 8 0 9 0;
#X connect 9 0 1 0;
#X coords 0 -1 1 1 75 25 2 100 100;
#X restore 632 245 pd pan;
#N canvas 1 78 450 300 level 0;
#X obj 202 47 inlet~ L;
#X obj 292 47 inlet~ R;
#X obj 106 104 hsl 60 15 0 1 0 1 empty empty vol -2 8 0 10 -262130
-1 -1 3000 1;
#X obj 185 185 *~;
#X obj 225 185 *~;
#X msg 103 135 \$1 20;
#X obj 103 157 line~;
#X obj 185 257 outlet~ L;
#X obj 225 236 outlet~ R;
#X connect 0 0 3 1;
#X connect 1 0 4 1;
#X connect 2 0 5 0;
#X connect 3 0 7 0;
#X connect 4 0 8 0;
#X connect 5 0 6 0;
#X connect 6 0 3 0;
#X connect 6 0 4 0;
#X coords 0 -1 1 1 75 25 2 100 100;
#X restore 742 188 pd level;
#N canvas 1 78 450 300 fxsend 0;
#X obj 90 383 throw~ 2rev;
#X obj 89 320 *~;
#X obj 107 105 tgl 15 0 empty empty empty 17 7 0 10 -262144 -1 -1 1
1;
#X msg 107 276 \$1 20;
#X obj 107 298 line~;
#X obj 90 362 *~;
#X msg 207 323 \$1 20;
#X obj 207 345 line~;
#X obj 130 105 hsl 35 15 0 1 0 1 empty empty fx -2 8 0 10 -204786 -1
-1 1300 1;
#X obj 58 69 inlet~;
#X obj 107 150 sel 0;
#X msg 107 177 0;
#X obj 207 215 f;
#X msg 277 323 \$1 20;
#X obj 277 345 line~;
#X obj 277 273 swap 1;
#X obj 277 295 -;
#X obj 59 444 *~;
#X obj 139 215 t b b;
#X msg 139 237 1;
#X obj 239 28 loadbang;
#X msg 239 50 1;
#X obj 59 472 outlet~;
#X connect 1 0 5 0;
#X connect 2 0 10 0;
#X connect 3 0 4 0;
#X connect 4 0 1 1;
#X connect 5 0 0 0;
#X connect 6 0 7 0;
#X connect 7 0 5 1;
#X connect 8 0 12 0;
#X connect 9 0 1 0;
#X connect 9 0 17 0;
#X connect 10 0 11 0;
#X connect 10 1 18 0;
#X connect 11 0 3 0;
#X connect 11 0 12 0;
#X connect 12 0 15 0;
#X connect 12 0 6 0;
#X connect 13 0 14 0;
#X connect 14 0 17 1;
#X connect 15 0 16 0;
#X connect 15 1 16 1;
#X connect 16 0 13 0;
#X connect 17 0 22 0;
#X connect 18 0 19 0;
#X connect 18 1 8 0;
#X connect 19 0 3 0;
#X connect 20 0 21 0;
#X connect 21 0 2 0;
#X coords 0 -1 1 1 75 25 2 100 100;
#X restore 742 216 pd fxsend;
#N canvas 447 247 450 300 pan 0;
#X obj 106 104 hsl 60 15 0 1 0 1 empty empty pan -2 8 0 10 -203904
-1 -1 2200 1;
#X obj 185 215 *~;
#X obj 225 215 *~;
#X msg 103 135 \$1 20;
#X obj 103 157 line~;
#X obj 202 47 inlet~ mono;
#X obj 185 257 throw~ L;
#X obj 225 236 throw~ R;
#X obj 86 198 sig~ 1;
#X obj 86 220 -~;
#X connect 0 0 3 0;
#X connect 1 0 6 0;
#X connect 2 0 7 0;
#X connect 3 0 4 0;
#X connect 4 0 9 1;
#X connect 4 0 2 0;
#X connect 5 0 1 1;
#X connect 5 0 2 1;
#X connect 8 0 9 0;
#X connect 9 0 1 0;
#X coords 0 -1 1 1 75 25 2 100 100;
#X restore 742 245 pd pan;
#N canvas 1 78 450 300 level 0;
#X obj 202 47 inlet~ L;
#X obj 292 47 inlet~ R;
#X obj 106 104 hsl 60 15 0 1 0 1 empty empty vol -2 8 0 10 -262130
-1 -1 5900 1;
#X obj 185 185 *~;
#X obj 225 185 *~;
#X msg 103 135 \$1 20;
#X obj 103 157 line~;
#X obj 185 257 outlet~ L;
#X obj 225 236 outlet~ R;
#X connect 0 0 3 1;
#X connect 1 0 4 1;
#X connect 2 0 5 0;
#X connect 3 0 7 0;
#X connect 4 0 8 0;
#X connect 5 0 6 0;
#X connect 6 0 3 0;
#X connect 6 0 4 0;
#X coords 0 -1 1 1 75 25 2 100 100;
#X restore 312 320 pd level;
#N canvas 1 78 450 300 fxsend 0;
#X obj 90 383 throw~ 2rev;
#X obj 89 320 *~;
#X obj 107 105 tgl 15 0 empty empty empty 17 7 0 10 -262144 -1 -1 1
1;
#X msg 107 276 \$1 20;
#X obj 107 298 line~;
#X obj 90 362 *~;
#X msg 207 323 \$1 20;
#X obj 207 345 line~;
#X obj 130 105 hsl 35 15 0 1 0 1 empty empty fx -2 8 0 10 -204786 -1
-1 0 1;
#X obj 58 69 inlet~;
#X obj 107 150 sel 0;
#X msg 107 177 0;
#X obj 207 215 f;
#X msg 277 323 \$1 20;
#X obj 277 345 line~;
#X obj 277 273 swap 1;
#X obj 277 295 -;
#X obj 59 444 *~;
#X obj 139 215 t b b;
#X msg 139 237 1;
#X obj 239 28 loadbang;
#X msg 239 50 1;
#X obj 59 472 outlet~;
#X connect 1 0 5 0;
#X connect 2 0 10 0;
#X connect 3 0 4 0;
#X connect 4 0 1 1;
#X connect 5 0 0 0;
#X connect 6 0 7 0;
#X connect 7 0 5 1;
#X connect 8 0 12 0;
#X connect 9 0 1 0;
#X connect 9 0 17 0;
#X connect 10 0 11 0;
#X connect 10 1 18 0;
#X connect 11 0 3 0;
#X connect 11 0 12 0;
#X connect 12 0 15 0;
#X connect 12 0 6 0;
#X connect 13 0 14 0;
#X connect 14 0 17 1;
#X connect 15 0 16 0;
#X connect 15 1 16 1;
#X connect 16 0 13 0;
#X connect 17 0 22 0;
#X connect 18 0 19 0;
#X connect 18 1 8 0;
#X connect 19 0 3 0;
#X connect 20 0 21 0;
#X connect 21 0 2 0;
#X coords 0 -1 1 1 75 25 2 100 100;
#X restore 312 348 pd fxsend;
#N canvas 1 78 450 300 level 0;
#X obj 202 47 inlet~ L;
#X obj 292 47 inlet~ R;
#X obj 106 104 hsl 60 15 0 1 0 1 empty empty vol -2 8 0 10 -262130
-1 -1 5600 1;
#X obj 185 185 *~;
#X obj 225 185 *~;
#X msg 103 135 \$1 20;
#X obj 103 157 line~;
#X obj 185 257 outlet~ L;
#X obj 225 236 outlet~ R;
#X connect 0 0 3 1;
#X connect 1 0 4 1;
#X connect 2 0 5 0;
#X connect 3 0 7 0;
#X connect 4 0 8 0;
#X connect 5 0 6 0;
#X connect 6 0 3 0;
#X connect 6 0 4 0;
#X coords 0 -1 1 1 75 25 2 100 100;
#X restore 396 320 pd level;
#N canvas 447 247 450 300 pan 0;
#X obj 106 104 hsl 60 15 0 1 0 1 empty empty pan -2 8 0 10 -203904
-1 -1 4300 1;
#X obj 185 215 *~;
#X obj 225 215 *~;
#X msg 103 135 \$1 20;
#X obj 103 157 line~;
#X obj 202 47 inlet~ mono;
#X obj 185 257 throw~ L;
#X obj 225 236 throw~ R;
#X obj 86 198 sig~ 1;
#X obj 86 220 -~;
#X connect 0 0 3 0;
#X connect 1 0 6 0;
#X connect 2 0 7 0;
#X connect 3 0 4 0;
#X connect 4 0 9 1;
#X connect 4 0 2 0;
#X connect 5 0 1 1;
#X connect 5 0 2 1;
#X connect 8 0 9 0;
#X connect 9 0 1 0;
#X coords 0 -1 1 1 75 25 2 100 100;
#X restore 312 377 pd pan;
#N canvas 1 78 450 300 fxsend 0;
#X obj 90 383 throw~ 2rev;
#X obj 89 320 *~;
#X obj 107 105 tgl 15 0 empty empty empty 17 7 0 10 -262144 -1 -1 1
1;
#X msg 107 276 \$1 20;
#X obj 107 298 line~;
#X obj 90 362 *~;
#X msg 207 323 \$1 20;
#X obj 207 345 line~;
#X obj 130 105 hsl 35 15 0 1 0 1 empty empty fx -2 8 0 10 -204786 -1
-1 500 1;
#X obj 58 69 inlet~;
#X obj 107 150 sel 0;
#X msg 107 177 0;
#X obj 207 215 f;
#X msg 277 323 \$1 20;
#X obj 277 345 line~;
#X obj 277 273 swap 1;
#X obj 277 295 -;
#X obj 59 444 *~;
#X obj 139 215 t b b;
#X msg 139 237 1;
#X obj 239 28 loadbang;
#X msg 239 50 1;
#X obj 59 472 outlet~;
#X connect 1 0 5 0;
#X connect 2 0 10 0;
#X connect 3 0 4 0;
#X connect 4 0 1 1;
#X connect 5 0 0 0;
#X connect 6 0 7 0;
#X connect 7 0 5 1;
#X connect 8 0 12 0;
#X connect 9 0 1 0;
#X connect 9 0 17 0;
#X connect 10 0 11 0;
#X connect 10 1 18 0;
#X connect 11 0 3 0;
#X connect 11 0 12 0;
#X connect 12 0 15 0;
#X connect 12 0 6 0;
#X connect 13 0 14 0;
#X connect 14 0 17 1;
#X connect 15 0 16 0;
#X connect 15 1 16 1;
#X connect 16 0 13 0;
#X connect 17 0 22 0;
#X connect 18 0 19 0;
#X connect 18 1 8 0;
#X connect 19 0 3 0;
#X connect 20 0 21 0;
#X connect 21 0 2 0;
#X coords 0 -1 1 1 75 25 2 100 100;
#X restore 396 348 pd fxsend;
#N canvas 447 247 450 300 pan 0;
#X obj 106 104 hsl 60 15 0 1 0 1 empty empty pan -2 8 0 10 -203904
-1 -1 2100 1;
#X obj 185 215 *~;
#X obj 225 215 *~;
#X msg 103 135 \$1 20;
#X obj 103 157 line~;
#X obj 202 47 inlet~ mono;
#X obj 185 257 throw~ L;
#X obj 225 236 throw~ R;
#X obj 86 198 sig~ 1;
#X obj 86 220 -~;
#X connect 0 0 3 0;
#X connect 1 0 6 0;
#X connect 2 0 7 0;
#X connect 3 0 4 0;
#X connect 4 0 9 1;
#X connect 4 0 2 0;
#X connect 5 0 1 1;
#X connect 5 0 2 1;
#X connect 8 0 9 0;
#X connect 9 0 1 0;
#X coords 0 -1 1 1 75 25 2 100 100;
#X restore 396 377 pd pan;
#N canvas 1 78 450 300 level 0;
#X obj 202 47 inlet~ L;
#X obj 292 47 inlet~ R;
#X obj 106 104 hsl 60 15 0 1 0 1 empty empty vol -2 8 0 10 -262130
-1 -1 3300 1;
#X obj 185 185 *~;
#X obj 225 185 *~;
#X msg 103 135 \$1 20;
#X obj 103 157 line~;
#X obj 185 257 outlet~ L;
#X obj 225 236 outlet~ R;
#X connect 0 0 3 1;
#X connect 1 0 4 1;
#X connect 2 0 5 0;
#X connect 3 0 7 0;
#X connect 4 0 8 0;
#X connect 5 0 6 0;
#X connect 6 0 3 0;
#X connect 6 0 4 0;
#X coords 0 -1 1 1 75 25 2 100 100;
#X restore 484 320 pd level;
#N canvas 1 78 450 300 fxsend 0;
#X obj 90 383 throw~ 2rev;
#X obj 89 320 *~;
#X obj 107 105 tgl 15 0 empty empty empty 17 7 0 10 -262144 -1 -1 1
1;
#X msg 107 276 \$1 20;
#X obj 107 298 line~;
#X obj 90 362 *~;
#X msg 207 323 \$1 20;
#X obj 207 345 line~;
#X obj 130 105 hsl 35 15 0 1 0 1 empty empty fx -2 8 0 10 -204786 -1
-1 2200 1;
#X obj 58 69 inlet~;
#X obj 107 150 sel 0;
#X msg 107 177 0;
#X obj 207 215 f;
#X msg 277 323 \$1 20;
#X obj 277 345 line~;
#X obj 277 273 swap 1;
#X obj 277 295 -;
#X obj 59 444 *~;
#X obj 139 215 t b b;
#X msg 139 237 1;
#X obj 239 28 loadbang;
#X msg 239 50 1;
#X obj 59 472 outlet~;
#X connect 1 0 5 0;
#X connect 2 0 10 0;
#X connect 3 0 4 0;
#X connect 4 0 1 1;
#X connect 5 0 0 0;
#X connect 6 0 7 0;
#X connect 7 0 5 1;
#X connect 8 0 12 0;
#X connect 9 0 1 0;
#X connect 9 0 17 0;
#X connect 10 0 11 0;
#X connect 10 1 18 0;
#X connect 11 0 3 0;
#X connect 11 0 12 0;
#X connect 12 0 15 0;
#X connect 12 0 6 0;
#X connect 13 0 14 0;
#X connect 14 0 17 1;
#X connect 15 0 16 0;
#X connect 15 1 16 1;
#X connect 16 0 13 0;
#X connect 17 0 22 0;
#X connect 18 0 19 0;
#X connect 18 1 8 0;
#X connect 19 0 3 0;
#X connect 20 0 21 0;
#X connect 21 0 2 0;
#X coords 0 -1 1 1 75 25 2 100 100;
#X restore 484 348 pd fxsend;
#N canvas 447 247 450 300 pan 0;
#X obj 106 104 hsl 60 15 0 1 0 1 empty empty pan -2 8 0 10 -203904
-1 -1 2800 1;
#X obj 185 215 *~;
#X obj 225 215 *~;
#X msg 103 135 \$1 20;
#X obj 103 157 line~;
#X obj 202 47 inlet~ mono;
#X obj 185 257 throw~ L;
#X obj 225 236 throw~ R;
#X obj 86 198 sig~ 1;
#X obj 86 220 -~;
#X connect 0 0 3 0;
#X connect 1 0 6 0;
#X connect 2 0 7 0;
#X connect 3 0 4 0;
#X connect 4 0 9 1;
#X connect 4 0 2 0;
#X connect 5 0 1 1;
#X connect 5 0 2 1;
#X connect 8 0 9 0;
#X connect 9 0 1 0;
#X coords 0 -1 1 1 75 25 2 100 100;
#X restore 484 377 pd pan;
#N canvas 1 78 450 300 level 0;
#X obj 202 47 inlet~ L;
#X obj 292 47 inlet~ R;
#X obj 106 104 hsl 60 15 0 1 0 1 empty empty vol -2 8 0 10 -262130
-1 -1 4000 1;
#X obj 185 185 *~;
#X obj 225 185 *~;
#X msg 103 135 \$1 20;
#X obj 103 157 line~;
#X obj 185 257 outlet~ L;
#X obj 225 236 outlet~ R;
#X connect 0 0 3 1;
#X connect 1 0 4 1;
#X connect 2 0 5 0;
#X connect 3 0 7 0;
#X connect 4 0 8 0;
#X connect 5 0 6 0;
#X connect 6 0 3 0;
#X connect 6 0 4 0;
#X coords 0 -1 1 1 75 25 2 100 100;
#X restore 564 320 pd level;
#N canvas 1 78 450 300 fxsend 0;
#X obj 90 383 throw~ 2rev;
#X obj 89 320 *~;
#X obj 107 105 tgl 15 0 empty empty empty 17 7 0 10 -262144 -1 -1 1
1;
#X msg 107 276 \$1 20;
#X obj 107 298 line~;
#X obj 90 362 *~;
#X msg 207 323 \$1 20;
#X obj 207 345 line~;
#X obj 130 105 hsl 35 15 0 1 0 1 empty empty fx -2 8 0 10 -204786 -1
-1 2800 1;
#X obj 58 69 inlet~;
#X obj 107 150 sel 0;
#X msg 107 177 0;
#X obj 207 215 f;
#X msg 277 323 \$1 20;
#X obj 277 345 line~;
#X obj 277 273 swap 1;
#X obj 277 295 -;
#X obj 59 444 *~;
#X obj 139 215 t b b;
#X msg 139 237 1;
#X obj 239 28 loadbang;
#X msg 239 50 1;
#X obj 59 472 outlet~;
#X connect 1 0 5 0;
#X connect 2 0 10 0;
#X connect 3 0 4 0;
#X connect 4 0 1 1;
#X connect 5 0 0 0;
#X connect 6 0 7 0;
#X connect 7 0 5 1;
#X connect 8 0 12 0;
#X connect 9 0 1 0;
#X connect 9 0 17 0;
#X connect 10 0 11 0;
#X connect 10 1 18 0;
#X connect 11 0 3 0;
#X connect 11 0 12 0;
#X connect 12 0 15 0;
#X connect 12 0 6 0;
#X connect 13 0 14 0;
#X connect 14 0 17 1;
#X connect 15 0 16 0;
#X connect 15 1 16 1;
#X connect 16 0 13 0;
#X connect 17 0 22 0;
#X connect 18 0 19 0;
#X connect 18 1 8 0;
#X connect 19 0 3 0;
#X connect 20 0 21 0;
#X connect 21 0 2 0;
#X coords 0 -1 1 1 75 25 2 100 100;
#X restore 564 348 pd fxsend;
#N canvas 447 247 450 300 pan 0;
#X obj 106 104 hsl 60 15 0 1 0 1 empty empty pan -2 8 0 10 -203904
-1 -1 5800 1;
#X obj 185 215 *~;
#X obj 225 215 *~;
#X msg 103 135 \$1 20;
#X obj 103 157 line~;
#X obj 202 47 inlet~ mono;
#X obj 185 257 throw~ L;
#X obj 225 236 throw~ R;
#X obj 86 198 sig~ 1;
#X obj 86 220 -~;
#X connect 0 0 3 0;
#X connect 1 0 6 0;
#X connect 2 0 7 0;
#X connect 3 0 4 0;
#X connect 4 0 9 1;
#X connect 4 0 2 0;
#X connect 5 0 1 1;
#X connect 5 0 2 1;
#X connect 8 0 9 0;
#X connect 9 0 1 0;
#X coords 0 -1 1 1 75 25 2 100 100;
#X restore 564 377 pd pan;
#N canvas 1 78 450 300 level 0;
#X obj 202 47 inlet~ L;
#X obj 292 47 inlet~ R;
#X obj 106 104 hsl 60 15 0 1 0 1 empty empty vol -2 8 0 10 -262130
-1 -1 5900 1;
#X obj 185 185 *~;
#X obj 225 185 *~;
#X msg 103 135 \$1 20;
#X obj 103 157 line~;
#X obj 185 257 outlet~ L;
#X obj 225 236 outlet~ R;
#X connect 0 0 3 1;
#X connect 1 0 4 1;
#X connect 2 0 5 0;
#X connect 3 0 7 0;
#X connect 4 0 8 0;
#X connect 5 0 6 0;
#X connect 6 0 3 0;
#X connect 6 0 4 0;
#X coords 0 -1 1 1 75 25 2 100 100;
#X restore 312 451 pd level;
#N canvas 1 78 450 300 fxsend 0;
#X obj 90 383 throw~ 2rev;
#X obj 89 320 *~;
#X obj 107 105 tgl 15 0 empty empty empty 17 7 0 10 -262144 -1 -1 1
1;
#X msg 107 276 \$1 20;
#X obj 107 298 line~;
#X obj 90 362 *~;
#X msg 207 323 \$1 20;
#X obj 207 345 line~;
#X obj 130 105 hsl 35 15 0 1 0 1 empty empty fx -2 8 0 10 -204786 -1
-1 1300 1;
#X obj 58 69 inlet~;
#X obj 107 150 sel 0;
#X msg 107 177 0;
#X obj 207 215 f;
#X msg 277 323 \$1 20;
#X obj 277 345 line~;
#X obj 277 273 swap 1;
#X obj 277 295 -;
#X obj 59 444 *~;
#X obj 139 215 t b b;
#X msg 139 237 1;
#X obj 239 28 loadbang;
#X msg 239 50 1;
#X obj 59 472 outlet~;
#X connect 1 0 5 0;
#X connect 2 0 10 0;
#X connect 3 0 4 0;
#X connect 4 0 1 1;
#X connect 5 0 0 0;
#X connect 6 0 7 0;
#X connect 7 0 5 1;
#X connect 8 0 12 0;
#X connect 9 0 1 0;
#X connect 9 0 17 0;
#X connect 10 0 11 0;
#X connect 10 1 18 0;
#X connect 11 0 3 0;
#X connect 11 0 12 0;
#X connect 12 0 15 0;
#X connect 12 0 6 0;
#X connect 13 0 14 0;
#X connect 14 0 17 1;
#X connect 15 0 16 0;
#X connect 15 1 16 1;
#X connect 16 0 13 0;
#X connect 17 0 22 0;
#X connect 18 0 19 0;
#X connect 18 1 8 0;
#X connect 19 0 3 0;
#X connect 20 0 21 0;
#X connect 21 0 2 0;
#X coords 0 -1 1 1 75 25 2 100 100;
#X restore 312 479 pd fxsend;
#N canvas 1 78 450 300 level 0;
#X obj 202 47 inlet~ L;
#X obj 292 47 inlet~ R;
#X obj 106 104 hsl 60 15 0 1 0 1 empty empty vol -2 8 0 10 -262130
-1 -1 5900 1;
#X obj 185 185 *~;
#X obj 225 185 *~;
#X msg 103 135 \$1 20;
#X obj 103 157 line~;
#X obj 185 257 outlet~ L;
#X obj 225 236 outlet~ R;
#X connect 0 0 3 1;
#X connect 1 0 4 1;
#X connect 2 0 5 0;
#X connect 3 0 7 0;
#X connect 4 0 8 0;
#X connect 5 0 6 0;
#X connect 6 0 3 0;
#X connect 6 0 4 0;
#X coords 0 -1 1 1 75 25 2 100 100;
#X restore 396 451 pd level;
#N canvas 447 247 450 300 pan 0;
#X obj 106 104 hsl 60 15 0 1 0 1 empty empty pan -2 8 0 10 -203904
-1 -1 2700 1;
#X obj 185 215 *~;
#X obj 225 215 *~;
#X msg 103 135 \$1 20;
#X obj 103 157 line~;
#X obj 202 47 inlet~ mono;
#X obj 185 257 throw~ L;
#X obj 225 236 throw~ R;
#X obj 86 198 sig~ 1;
#X obj 86 220 -~;
#X connect 0 0 3 0;
#X connect 1 0 6 0;
#X connect 2 0 7 0;
#X connect 3 0 4 0;
#X connect 4 0 9 1;
#X connect 4 0 2 0;
#X connect 5 0 1 1;
#X connect 5 0 2 1;
#X connect 8 0 9 0;
#X connect 9 0 1 0;
#X coords 0 -1 1 1 75 25 2 100 100;
#X restore 312 508 pd pan;
#N canvas 1 78 450 300 fxsend 0;
#X obj 90 383 throw~ 2rev;
#X obj 89 320 *~;
#X obj 107 105 tgl 15 0 empty empty empty 17 7 0 10 -262144 -1 -1 1
1;
#X msg 107 276 \$1 20;
#X obj 107 298 line~;
#X obj 90 362 *~;
#X msg 207 323 \$1 20;
#X obj 207 345 line~;
#X obj 130 105 hsl 35 15 0 1 0 1 empty empty fx -2 8 0 10 -204786 -1
-1 900 1;
#X obj 58 69 inlet~;
#X obj 107 150 sel 0;
#X msg 107 177 0;
#X obj 207 215 f;
#X msg 277 323 \$1 20;
#X obj 277 345 line~;
#X obj 277 273 swap 1;
#X obj 277 295 -;
#X obj 59 444 *~;
#X obj 139 215 t b b;
#X msg 139 237 1;
#X obj 239 28 loadbang;
#X msg 239 50 1;
#X obj 59 472 outlet~;
#X connect 1 0 5 0;
#X connect 2 0 10 0;
#X connect 3 0 4 0;
#X connect 4 0 1 1;
#X connect 5 0 0 0;
#X connect 6 0 7 0;
#X connect 7 0 5 1;
#X connect 8 0 12 0;
#X connect 9 0 1 0;
#X connect 9 0 17 0;
#X connect 10 0 11 0;
#X connect 10 1 18 0;
#X connect 11 0 3 0;
#X connect 11 0 12 0;
#X connect 12 0 15 0;
#X connect 12 0 6 0;
#X connect 13 0 14 0;
#X connect 14 0 17 1;
#X connect 15 0 16 0;
#X connect 15 1 16 1;
#X connect 16 0 13 0;
#X connect 17 0 22 0;
#X connect 18 0 19 0;
#X connect 18 1 8 0;
#X connect 19 0 3 0;
#X connect 20 0 21 0;
#X connect 21 0 2 0;
#X coords 0 -1 1 1 75 25 2 100 100;
#X restore 396 479 pd fxsend;
#N canvas 447 247 450 300 pan 0;
#X obj 106 104 hsl 60 15 0 1 0 1 empty empty pan -2 8 0 10 -203904
-1 -1 4400 1;
#X obj 185 215 *~;
#X obj 225 215 *~;
#X msg 103 135 \$1 20;
#X obj 103 157 line~;
#X obj 202 47 inlet~ mono;
#X obj 185 257 throw~ L;
#X obj 225 236 throw~ R;
#X obj 86 198 sig~ 1;
#X obj 86 220 -~;
#X connect 0 0 3 0;
#X connect 1 0 6 0;
#X connect 2 0 7 0;
#X connect 3 0 4 0;
#X connect 4 0 9 1;
#X connect 4 0 2 0;
#X connect 5 0 1 1;
#X connect 5 0 2 1;
#X connect 8 0 9 0;
#X connect 9 0 1 0;
#X coords 0 -1 1 1 75 25 2 100 100;
#X restore 396 508 pd pan;
#N canvas 1 78 450 300 level 0;
#X obj 202 47 inlet~ L;
#X obj 292 47 inlet~ R;
#X obj 106 104 hsl 60 15 0 1 0 1 empty empty vol -2 8 0 10 -262130
-1 -1 5900 1;
#X obj 185 185 *~;
#X obj 225 185 *~;
#X msg 103 135 \$1 20;
#X obj 103 157 line~;
#X obj 185 257 outlet~ L;
#X obj 225 236 outlet~ R;
#X connect 0 0 3 1;
#X connect 1 0 4 1;
#X connect 2 0 5 0;
#X connect 3 0 7 0;
#X connect 4 0 8 0;
#X connect 5 0 6 0;
#X connect 6 0 3 0;
#X connect 6 0 4 0;
#X coords 0 -1 1 1 75 25 2 100 100;
#X restore 484 451 pd level;
#N canvas 1 78 450 300 fxsend 0;
#X obj 90 383 throw~ 2rev;
#X obj 89 320 *~;
#X obj 107 105 tgl 15 0 empty empty empty 17 7 0 10 -262144 -1 -1 1
1;
#X msg 107 276 \$1 20;
#X obj 107 298 line~;
#X obj 90 362 *~;
#X msg 207 323 \$1 20;
#X obj 207 345 line~;
#X obj 130 105 hsl 35 15 0 1 0 1 empty empty fx -2 8 0 10 -204786 -1
-1 1300 1;
#X obj 58 69 inlet~;
#X obj 107 150 sel 0;
#X msg 107 177 0;
#X obj 207 215 f;
#X msg 277 323 \$1 20;
#X obj 277 345 line~;
#X obj 277 273 swap 1;
#X obj 277 295 -;
#X obj 59 444 *~;
#X obj 139 215 t b b;
#X msg 139 237 1;
#X obj 239 28 loadbang;
#X msg 239 50 1;
#X obj 59 472 outlet~;
#X connect 1 0 5 0;
#X connect 2 0 10 0;
#X connect 3 0 4 0;
#X connect 4 0 1 1;
#X connect 5 0 0 0;
#X connect 6 0 7 0;
#X connect 7 0 5 1;
#X connect 8 0 12 0;
#X connect 9 0 1 0;
#X connect 9 0 17 0;
#X connect 10 0 11 0;
#X connect 10 1 18 0;
#X connect 11 0 3 0;
#X connect 11 0 12 0;
#X connect 12 0 15 0;
#X connect 12 0 6 0;
#X connect 13 0 14 0;
#X connect 14 0 17 1;
#X connect 15 0 16 0;
#X connect 15 1 16 1;
#X connect 16 0 13 0;
#X connect 17 0 22 0;
#X connect 18 0 19 0;
#X connect 18 1 8 0;
#X connect 19 0 3 0;
#X connect 20 0 21 0;
#X connect 21 0 2 0;
#X coords 0 -1 1 1 75 25 2 100 100;
#X restore 484 479 pd fxsend;
#N canvas 447 247 450 300 pan 0;
#X obj 106 104 hsl 60 15 0 1 0 1 empty empty pan -2 8 0 10 -203904
-1 -1 200 1;
#X obj 185 215 *~;
#X obj 225 215 *~;
#X msg 103 135 \$1 20;
#X obj 103 157 line~;
#X obj 202 47 inlet~ mono;
#X obj 185 257 throw~ L;
#X obj 225 236 throw~ R;
#X obj 86 198 sig~ 1;
#X obj 86 220 -~;
#X connect 0 0 3 0;
#X connect 1 0 6 0;
#X connect 2 0 7 0;
#X connect 3 0 4 0;
#X connect 4 0 9 1;
#X connect 4 0 2 0;
#X connect 5 0 1 1;
#X connect 5 0 2 1;
#X connect 8 0 9 0;
#X connect 9 0 1 0;
#X coords 0 -1 1 1 75 25 2 100 100;
#X restore 484 508 pd pan;
#N canvas 1 78 450 300 level 0;
#X obj 202 47 inlet~ L;
#X obj 292 47 inlet~ R;
#X obj 106 104 hsl 60 15 0 1 0 1 empty empty vol -2 8 0 10 -262130
-1 -1 3600 1;
#X obj 185 185 *~;
#X obj 225 185 *~;
#X msg 103 135 \$1 20;
#X obj 103 157 line~;
#X obj 185 257 outlet~ L;
#X obj 225 236 outlet~ R;
#X connect 0 0 3 1;
#X connect 1 0 4 1;
#X connect 2 0 5 0;
#X connect 3 0 7 0;
#X connect 4 0 8 0;
#X connect 5 0 6 0;
#X connect 6 0 3 0;
#X connect 6 0 4 0;
#X coords 0 -1 1 1 75 25 2 100 100;
#X restore 313 589 pd level;
#N canvas 1 78 450 300 fxsend 0;
#X obj 90 383 throw~ 2rev;
#X obj 89 320 *~;
#X obj 107 105 tgl 15 0 empty empty empty 17 7 0 10 -262144 -1 -1 1
1;
#X msg 107 276 \$1 20;
#X obj 107 298 line~;
#X obj 90 362 *~;
#X msg 207 323 \$1 20;
#X obj 207 345 line~;
#X obj 130 105 hsl 35 15 0 1 0 1 empty empty fx -2 8 0 10 -204786 -1
-1 0 1;
#X obj 58 69 inlet~;
#X obj 107 150 sel 0;
#X msg 107 177 0;
#X obj 207 215 f;
#X msg 277 323 \$1 20;
#X obj 277 345 line~;
#X obj 277 273 swap 1;
#X obj 277 295 -;
#X obj 59 444 *~;
#X obj 139 215 t b b;
#X msg 139 237 1;
#X obj 239 28 loadbang;
#X msg 239 50 1;
#X obj 59 472 outlet~;
#X connect 1 0 5 0;
#X connect 2 0 10 0;
#X connect 3 0 4 0;
#X connect 4 0 1 1;
#X connect 5 0 0 0;
#X connect 6 0 7 0;
#X connect 7 0 5 1;
#X connect 8 0 12 0;
#X connect 9 0 1 0;
#X connect 9 0 17 0;
#X connect 10 0 11 0;
#X connect 10 1 18 0;
#X connect 11 0 3 0;
#X connect 11 0 12 0;
#X connect 12 0 15 0;
#X connect 12 0 6 0;
#X connect 13 0 14 0;
#X connect 14 0 17 1;
#X connect 15 0 16 0;
#X connect 15 1 16 1;
#X connect 16 0 13 0;
#X connect 17 0 22 0;
#X connect 18 0 19 0;
#X connect 18 1 8 0;
#X connect 19 0 3 0;
#X connect 20 0 21 0;
#X connect 21 0 2 0;
#X coords 0 -1 1 1 75 25 2 100 100;
#X restore 313 617 pd fxsend;
#N canvas 1 78 450 300 level 0;
#X obj 202 47 inlet~ L;
#X obj 292 47 inlet~ R;
#X obj 106 104 hsl 60 15 0 1 0 1 empty empty vol -2 8 0 10 -262130
-1 -1 2500 1;
#X obj 185 185 *~;
#X obj 225 185 *~;
#X msg 103 135 \$1 20;
#X obj 103 157 line~;
#X obj 346 240 throw~ L;
#X obj 346 219 throw~ R;
#X obj 185 257 outlet~;
#X connect 0 0 3 1;
#X connect 1 0 4 1;
#X connect 2 0 5 0;
#X connect 3 0 7 0;
#X connect 3 0 9 0;
#X connect 4 0 8 0;
#X connect 4 0 9 0;
#X connect 5 0 6 0;
#X connect 6 0 3 0;
#X connect 6 0 4 0;
#X coords 0 -1 1 1 75 25 2 100 100;
#X restore 396 589 pd level;
#N canvas 443 247 450 300 pan 0;
#X obj 106 104 hsl 60 15 0 1 0 1 empty empty pan -2 8 0 10 -203904
-1 -1 3000 1;
#X obj 185 215 *~;
#X obj 225 215 *~;
#X msg 103 135 \$1 20;
#X obj 103 157 line~;
#X obj 202 47 inlet~ mono;
#X obj 185 257 throw~ L;
#X obj 225 236 throw~ R;
#X obj 86 198 sig~ 1;
#X obj 86 220 -~;
#X connect 0 0 3 0;
#X connect 1 0 6 0;
#X connect 2 0 7 0;
#X connect 3 0 4 0;
#X connect 4 0 9 1;
#X connect 4 0 2 0;
#X connect 5 0 1 1;
#X connect 5 0 2 1;
#X connect 8 0 9 0;
#X connect 9 0 1 0;
#X coords 0 -1 1 1 75 25 2 100 100;
#X restore 313 646 pd pan;
#N canvas 1 78 450 300 fxsend 0;
#X obj 90 383 throw~ 2rev;
#X obj 89 320 *~;
#X obj 107 105 tgl 15 0 empty empty empty 17 7 0 10 -262144 -1 -1 1
1;
#X msg 107 276 \$1 20;
#X obj 107 298 line~;
#X obj 90 362 *~;
#X msg 207 323 \$1 20;
#X obj 207 345 line~;
#X obj 130 105 hsl 35 15 0 1 0 1 empty empty fx -2 8 0 10 -204786 -1
-1 900 1;
#X obj 58 69 inlet~;
#X obj 107 150 sel 0;
#X msg 107 177 0;
#X obj 207 215 f;
#X msg 277 323 \$1 20;
#X obj 277 345 line~;
#X obj 277 273 swap 1;
#X obj 277 295 -;
#X obj 59 444 *~;
#X obj 139 215 t b b;
#X msg 139 237 1;
#X obj 239 28 loadbang;
#X msg 239 50 1;
#X obj 59 472 outlet~;
#X connect 1 0 5 0;
#X connect 2 0 10 0;
#X connect 3 0 4 0;
#X connect 4 0 1 1;
#X connect 5 0 0 0;
#X connect 6 0 7 0;
#X connect 7 0 5 1;
#X connect 8 0 12 0;
#X connect 9 0 1 0;
#X connect 9 0 17 0;
#X connect 10 0 11 0;
#X connect 10 1 18 0;
#X connect 11 0 3 0;
#X connect 11 0 12 0;
#X connect 12 0 15 0;
#X connect 12 0 6 0;
#X connect 13 0 14 0;
#X connect 14 0 17 1;
#X connect 15 0 16 0;
#X connect 15 1 16 1;
#X connect 16 0 13 0;
#X connect 17 0 22 0;
#X connect 18 0 19 0;
#X connect 18 1 8 0;
#X connect 19 0 3 0;
#X connect 20 0 21 0;
#X connect 21 0 2 0;
#X coords 0 -1 1 1 75 25 2 100 100;
#X restore 397 620 pd fxsend;
#N canvas 1 78 450 300 fxsend 0;
#X obj 90 383 throw~ 2rev;
#X obj 89 320 *~;
#X obj 107 105 tgl 15 0 empty empty empty 17 7 0 10 -262144 -1 -1 1
1;
#X msg 107 276 \$1 20;
#X obj 107 298 line~;
#X obj 90 362 *~;
#X msg 207 323 \$1 20;
#X obj 207 345 line~;
#X obj 130 105 hsl 35 15 0 1 0 1 empty empty fx -2 8 0 10 -204786 -1
-1 900 1;
#X obj 58 69 inlet~;
#X obj 107 150 sel 0;
#X msg 107 177 0;
#X obj 207 215 f;
#X msg 277 323 \$1 20;
#X obj 277 345 line~;
#X obj 277 273 swap 1;
#X obj 277 295 -;
#X obj 59 444 *~;
#X obj 139 215 t b b;
#X msg 139 237 1;
#X obj 239 28 loadbang;
#X msg 239 50 1;
#X obj 59 472 outlet~;
#X connect 1 0 5 0;
#X connect 2 0 10 0;
#X connect 3 0 4 0;
#X connect 4 0 1 1;
#X connect 5 0 0 0;
#X connect 6 0 7 0;
#X connect 7 0 5 1;
#X connect 8 0 12 0;
#X connect 9 0 1 0;
#X connect 9 0 17 0;
#X connect 10 0 11 0;
#X connect 10 1 18 0;
#X connect 11 0 3 0;
#X connect 11 0 12 0;
#X connect 12 0 15 0;
#X connect 12 0 6 0;
#X connect 13 0 14 0;
#X connect 14 0 17 1;
#X connect 15 0 16 0;
#X connect 15 1 16 1;
#X connect 16 0 13 0;
#X connect 17 0 22 0;
#X connect 18 0 19 0;
#X connect 18 1 8 0;
#X connect 19 0 3 0;
#X connect 20 0 21 0;
#X connect 21 0 2 0;
#X coords 0 -1 1 1 75 25 2 100 100;
#X restore 485 620 pd fxsend;
#N canvas 1 78 450 300 level 0;
#X obj 202 47 inlet~ L;
#X obj 292 47 inlet~ R;
#X obj 106 104 hsl 60 15 0 1 0 1 empty empty vol -2 8 0 10 -262130
-1 -1 2700 1;
#X obj 185 185 *~;
#X obj 225 185 *~;
#X msg 103 135 \$1 20;
#X obj 103 157 line~;
#X obj 346 240 throw~ L;
#X obj 346 219 throw~ R;
#X obj 185 257 outlet~;
#X connect 0 0 3 1;
#X connect 1 0 4 1;
#X connect 2 0 5 0;
#X connect 3 0 7 0;
#X connect 3 0 9 0;
#X connect 4 0 8 0;
#X connect 4 0 9 0;
#X connect 5 0 6 0;
#X connect 6 0 3 0;
#X connect 6 0 4 0;
#X coords 0 -1 1 1 75 25 2 100 100;
#X restore 486 589 pd level;
#X connect 1 0 0 0;
#X connect 2 0 3 0;
#X connect 4 0 5 0;
#X connect 6 0 7 0;
#X connect 8 0 9 0;
#X connect 10 0 1 0;
#X connect 10 0 2 0;
#X connect 10 0 6 0;
#X connect 10 0 4 0;
#X connect 10 0 8 0;
#X connect 11 0 12 0;
#X connect 12 0 10 0;
#X connect 13 0 89 0;
#X connect 14 0 121 0;
#X connect 14 1 121 1;
#X connect 15 0 104 0;
#X connect 16 0 74 0;
#X connect 17 0 112 0;
#X connect 18 0 110 0;
#X connect 19 0 116 0;
#X connect 20 0 80 0;
#X connect 21 0 82 0;
#X connect 22 0 86 0;
#X connect 23 0 95 0;
#X connect 24 0 92 0;
#X connect 25 0 76 0;
#X connect 26 0 125 0;
#X connect 26 1 125 1;
#X connect 27 0 119 0;
#X connect 28 0 100 0;
#X connect 29 0 14 0;
#X connect 30 0 27 0;
#X connect 31 0 26 0;
#X connect 32 0 24 0;
#X connect 33 0 23 0;
#X connect 34 0 48 0;
#X connect 35 0 20 0;
#X connect 36 0 21 0;
#X connect 37 0 22 0;
#X connect 38 0 15 0;
#X connect 39 0 13 0;
#X connect 40 0 19 0;
#X connect 41 0 16 0;
#X connect 42 0 25 0;
#X connect 43 0 17 0;
#X connect 44 0 18 0;
#X connect 45 0 28 0;
#X connect 46 0 98 0;
#X connect 47 0 46 0;
#X connect 48 0 107 0;
#X connect 49 0 57 0;
#X connect 50 0 51 0;
#X connect 51 0 57 1;
#X connect 57 0 72 0;
#X connect 57 1 73 0;
#X connect 58 0 59 0;
#X connect 59 0 57 2;
#X connect 60 0 61 0;
#X connect 61 0 57 3;
#X connect 62 0 63 0;
#X connect 63 0 57 4;
#X connect 64 0 65 0;
#X connect 64 0 69 0;
#X connect 65 0 66 0;
#X connect 66 0 71 0;
#X connect 67 0 65 0;
#X connect 68 0 69 0;
#X connect 69 0 70 0;
#X connect 70 0 71 1;
#X connect 74 0 75 0;
#X connect 75 0 77 0;
#X connect 76 0 78 0;
#X connect 78 0 79 0;
#X connect 80 0 81 0;
#X connect 81 0 83 0;
#X connect 82 0 84 0;
#X connect 84 0 85 0;
#X connect 86 0 87 0;
#X connect 87 0 88 0;
#X connect 89 0 90 0;
#X connect 90 0 91 0;
#X connect 92 0 93 0;
#X connect 93 0 94 0;
#X connect 95 0 96 0;
#X connect 96 0 97 0;
#X connect 98 0 99 0;
#X connect 99 0 101 0;
#X connect 100 0 102 0;
#X connect 102 0 103 0;
#X connect 104 0 105 0;
#X connect 105 0 106 0;
#X connect 107 0 108 0;
#X connect 108 0 109 0;
#X connect 110 0 111 0;
#X connect 111 0 113 0;
#X connect 112 0 114 0;
#X connect 114 0 115 0;
#X connect 116 0 117 0;
#X connect 117 0 118 0;
#X connect 119 0 120 0;
#X connect 120 0 122 0;
#X connect 121 0 123 0;
#X connect 125 0 124 0;
#X coords 0 -1 1 1 50 300 2 100 100;
#X restore 980 3 pd ctrl-master;
#X obj 492 324 image landscape-2.gif;
#X text 980 316 Andy J Farnell;
#X text 980 306 a patch by;
#X text 983 346 edited by;
#X text 983 359 Nicola Ariutti;
