#N canvas 0 95 1440 805 10;
#X declare -path abs;
#N canvas 0 95 1440 805 raw-inputs-timer 0;
#X obj 10 304 cnv 15 400 90 empty empty router 5 12 0 14 -233017 -66577
0;
#X text 82 305 time between two readings from the same sensor;
#X obj 52 24 inlet from-serial;
#X obj 52 259 outlet accel-X;
#X obj 162 259 outlet accel-Y;
#X obj 52 48 moses 128;
#X floatatom 52 80 5 0 0 2 data - -, f 5;
#X floatatom 103 80 5 0 0 2 addr - -, f 5;
#X msg 52 141 \$2 \$1;
#X obj 52 119 pack 0 1;
#X obj 103 98 - 128;
#X floatatom 52 237 4 0 0 0 - - -, f 4;
#X floatatom 162 237 4 0 0 0 - - -, f 4;
#X floatatom 272 237 4 0 0 0 - - -, f 4;
#X text 13 330 accelerometer;
#X floatatom 16 369 5 0 0 1 (ms) - -, f 5;
#X obj 16 351 bng 15 250 50 0 empty empty empty 17 7 0 10 -262144 -1
-1;
#X floatatom 106 369 5 0 0 1 (ms) - -, f 5;
#X obj 106 351 bng 15 250 50 0 empty empty empty 17 7 0 10 -262144
-1 -1;
#X floatatom 196 369 5 0 0 1 (ms) - -, f 5;
#X obj 196 351 bng 15 250 50 0 empty empty empty 17 7 0 10 -262144
-1 -1;
#X obj 52 188 route 40 41 42;
#X text 8 189 ACCEL;
#X obj 272 259 outlet accel-Z;
#X obj 16 438 timer;
#X obj 16 415 t b b;
#X obj 106 438 timer;
#X obj 106 415 t b b;
#X obj 196 438 timer;
#X obj 196 415 t b b;
#X connect 2 0 5 0;
#X connect 5 0 6 0;
#X connect 5 1 7 0;
#X connect 6 0 9 0;
#X connect 7 0 10 0;
#X connect 8 0 21 0;
#X connect 9 0 8 0;
#X connect 10 0 9 1;
#X connect 11 0 3 0;
#X connect 11 0 16 0;
#X connect 12 0 4 0;
#X connect 12 0 18 0;
#X connect 13 0 23 0;
#X connect 13 0 20 0;
#X connect 16 0 25 0;
#X connect 18 0 27 0;
#X connect 20 0 29 0;
#X connect 21 0 11 0;
#X connect 21 1 12 0;
#X connect 21 2 13 0;
#X connect 24 0 15 0;
#X connect 25 0 24 0;
#X connect 25 1 24 1;
#X connect 26 0 17 0;
#X connect 27 0 26 0;
#X connect 27 1 26 1;
#X connect 28 0 19 0;
#X connect 29 0 28 0;
#X connect 29 1 28 1;
#X coords 0 -1 1 1 400 100 2 10 300;
#X restore 46 106 pd raw-inputs-timer;
#X obj 45 23 master_serial;
#X obj 46 229 AC_channel;
#X obj 165 606 s ac-trunk;
#X obj 138 508 swap 1;
#X obj 138 530 -;
#X obj 138 578 line;
#X msg 138 557 \$1 20;
#X obj 138 607 vsl 15 100 0 1 0 0 empty empty empty 0 -9 0 10 -262144
-1 -1 9900 1;
#X obj 550 44 declare -path abs;
#X obj 159 229 AC_channel;
#X obj 272 229 AC_channel;
#X obj 457 192 bng 15 250 50 0 empty empty panic 17 7 0 10 -257985
-1 -1;
#X msg 457 212 0;
#X connect 0 0 2 0;
#X connect 0 1 10 0;
#X connect 0 2 11 0;
#X connect 4 0 5 0;
#X connect 4 1 5 1;
#X connect 5 0 7 0;
#X connect 6 0 3 0;
#X connect 6 0 8 0;
#X connect 7 0 6 0;
#X connect 10 0 4 0;
#X connect 12 0 13 0;
#X connect 13 0 11 1;
#X connect 13 0 10 1;
#X connect 13 0 2 1;
#X coords 0 805 1 804 150 100 0;
