#N canvas 314 389 443 292 10;
#X obj 193 191 *~;
#X obj 56 183 *~;
#X obj 209 145 cos~;
#X obj 209 108 -~ 0.25;
#X obj 209 86 *~ 0.25;
#X obj 72 161 cos~;
#X obj 72 137 -~ 0.25;
#X obj 56 243 outlet~ l;
#X obj 193 251 outlet~ r;
#X obj 56 56 inlet~;
#X obj 209 64 sig~;
#X obj 209 32 inlet;
#X connect 0 0 8 0;
#X connect 1 0 7 0;
#X connect 2 0 0 1;
#X connect 3 0 2 0;
#X connect 3 0 6 0;
#X connect 4 0 3 0;
#X connect 5 0 1 1;
#X connect 6 0 5 0;
#X connect 9 0 1 0;
#X connect 9 0 0 0;
#X connect 10 0 4 0;
#X connect 11 0 10 0;
