#N canvas 0 0 450 300 10;
#X obj 68 86 metro 300;
#X obj 68 59 loadbang;
#X obj 68 113 random 24;
#X obj 68 140 + 48;
#X obj 68 167 mtof;
#X obj 68 194 osc~;
#X obj 68 248 dac~;
#X obj 68 221 *~ 0.3;
#X text 129 219 make it quieter;
#X text 129 194 cosine/sine generator;
#X text 129 169 convert midi number to Hz;
#X text 129 144 start on note 48;
#X text 149 114 pick a random note from 2 octaves;
#X text 144 83 every 300 ms;
#X text 93 10 random midi note sine wave;
#X text 144 58 send bang to start \, once at load;
#X connect 0 0 2 0;
#X connect 1 0 0 0;
#X connect 2 0 3 0;
#X connect 3 0 4 0;
#X connect 4 0 5 0;
#X connect 5 0 7 0;
#X connect 7 0 6 0;
#X connect 7 0 6 1;
