#N canvas 0 0 507 374 10;
#X obj 103 49 loadbang;
#X obj 175 200 random 24;
#X obj 175 222 + 48;
#X obj 175 244 mtof;
#X obj 175 266 osc~;
#X obj 160 347 dac~;
#X obj 159 315 *~ 0.3;
#X obj 164 74 hsl 128 15 10 500 0 1 empty empty rate 40 7 1 8 -262144
-260818 -1 5000 1;
#X obj 103 120 t bang bang;
#X obj 159 293 *~;
#X obj 103 164 / 100;
#X text 195 292 amplitude control;
#X text 99 14 random sine wave with controls;
#X obj 103 98 metro 200;
#X text 182 97 every 200 ms;
#X text 217 315 be quieter;
#X text 185 164 divide by 100 to get between 0 and 1;
#X obj 103 142 random 101;
#X text 186 143 random between 0 and 100;
#X text 190 121 order bang messages;
#X text 306 73 slider controls rate;
#X connect 0 0 13 0;
#X connect 1 0 2 0;
#X connect 2 0 3 0;
#X connect 3 0 4 0;
#X connect 4 0 9 1;
#X connect 6 0 5 0;
#X connect 6 0 5 1;
#X connect 7 0 13 1;
#X connect 8 0 17 0;
#X connect 8 1 1 0;
#X connect 9 0 6 0;
#X connect 10 0 9 0;
#X connect 13 0 8 0;
#X connect 17 0 10 0;
