#N canvas 778 29 450 300 10;
#X obj 75 25 r start-stop;
#X obj 75 47 t f b;
#X obj 119 47 loadbang;
#X obj 128 98 s period;
#X obj 196 24 r zero;
#X obj 75 234 s trig;
#X obj 102 212 s scoretime;
#X obj 129 190 s drumtime;
#X obj 156 168 s synthtime;
#X msg 119 69 250;
#X obj 75 139 A2-masterclock;
#X connect 0 0 1 0;
#X connect 1 0 10 0;
#X connect 1 1 9 0;
#X connect 2 0 9 0;
#X connect 4 0 10 2;
#X connect 9 0 3 0;
#X connect 9 0 10 1;
#X connect 10 0 5 0;
#X connect 10 1 6 0;
#X connect 10 2 7 0;
#X connect 10 3 8 0;
