#N canvas 685 460 450 300 10;
#X obj 60 118 line~;
#X msg 60 97 1 \, 0 \$1;
#X obj 12 91 osc~;
#X obj 13 234 outlet~;
#X obj 12 70 * \$1;
#X obj 13 134 *~;
#X obj 12 10 inlet;
#X obj 12 32 unpack 1 2;
#X text 117 33 freq duration;
#X obj 60 70 * \$3;
#X obj 13 166 *~;
#X obj 13 204 *~ \$2;
#X connect 0 0 5 1;
#X connect 1 0 0 0;
#X connect 2 0 5 0;
#X connect 4 0 2 0;
#X connect 5 0 10 1;
#X connect 5 0 10 0;
#X connect 6 0 7 0;
#X connect 7 0 4 0;
#X connect 7 1 9 0;
#X connect 9 0 1 0;
#X connect 10 0 11 0;
#X connect 11 0 3 0;
