#N canvas 350 207 702 402 10;
#X obj 32 196 osc~ 200;
#X obj 32 227 *~;
#X obj 113 197 sqrt~;
#X obj 32 139 *~ 15;
#X obj 32 163 +~ 70;
#X obj 32 248 *~ 0.5;
#X obj 47 71 ead~ 2 800;
#X msg 111 149 0;
#X obj 32 112 *~;
#X obj 47 18 inlet;
#X obj 47 43 t b;
#X obj 32 270 outlet~;
#X obj 140 106 tabwrite~ t;
#X obj 139 39 bng 15 250 50 0 empty empty empty 0 -6 0 8 -262144 -1
-1;
#X text 229 156 60db attack and decay time;
#X text 228 136 exponential attack/decay envelope;
#X obj 229 183 table t 5000;
#X connect 0 0 1 0;
#X connect 1 0 5 0;
#X connect 2 0 1 1;
#X connect 3 0 4 0;
#X connect 4 0 0 0;
#X connect 5 0 11 0;
#X connect 6 0 2 0;
#X connect 6 0 8 0;
#X connect 6 0 8 1;
#X connect 6 0 12 0;
#X connect 7 0 0 1;
#X connect 8 0 3 0;
#X connect 9 0 10 0;
#X connect 10 0 7 0;
#X connect 10 0 6 0;
#X connect 13 0 12 0;
#X connect 13 0 6 0;
#X connect 13 0 7 0;
