#N canvas 934 360 213 247 10;
#X obj 14 78 metro 125;
#X obj 14 56 tgl 15 0 empty empty empty 17 7 0 10 -262144 -1 -1 0 1
;
#X obj 74 131 + 1;
#X obj 41 131 f 0;
#X obj 14 108 t b b;
#X obj 14 14 inlet startstop;
#X obj 115 14 inlet period;
#X obj 14 203 outlet bangs;
#X obj 95 203 outlet floats;
#X connect 0 0 4 0;
#X connect 1 0 0 0;
#X connect 2 0 3 1;
#X connect 3 0 2 0;
#X connect 3 0 8 0;
#X connect 4 0 7 0;
#X connect 4 1 3 0;
#X connect 5 0 1 0;
#X connect 6 0 0 1;
