#N canvas 731 359 250 201 10;
#X obj 8 10 inlet time;
#X obj 8 39 mod 16;
#X msg 8 100 40;
#X msg 42 100 42;
#X msg 93 99 44;
#X obj 8 68 select 0 3 4 5 6 7 8 11 12 13 14;
#X msg 128 100 43;
#X msg 162 100 38;
#X obj 8 147 outlet notes;
#X connect 0 0 1 0;
#X connect 1 0 5 0;
#X connect 2 0 8 0;
#X connect 3 0 8 0;
#X connect 4 0 8 0;
#X connect 5 0 2 0;
#X connect 5 1 2 0;
#X connect 5 2 3 0;
#X connect 5 5 4 0;
#X connect 5 7 6 0;
#X connect 5 9 7 0;
#X connect 6 0 8 0;
#X connect 7 0 8 0;
