#N canvas 730 360 418 287 10;
#X obj 32 141 osc~;
#X obj 32 66 mtof;
#X obj 32 20 inlet note;
#X obj 32 42 t f b;
#X obj 32 233 *~;
#X obj 32 255 outlet~;
#X obj 194 127 vline~;
#X obj 194 157 *~;
#X obj 81 94 *~ 3;
#X obj 81 72 osc~ 8;
#X obj 32 109 +~;
#X obj 32 173 clip~ -0.1 0.1;
#X obj 32 201 *~ 2;
#X msg 194 105 1 12 0 \, 0 \$1 12;
#X obj 221 21 inlet decay;
#X obj 221 43 * 1000;
#X obj 194 82 f 100;
#X connect 0 0 11 0;
#X connect 1 0 10 0;
#X connect 2 0 3 0;
#X connect 3 0 1 0;
#X connect 3 1 16 0;
#X connect 4 0 5 0;
#X connect 6 0 7 0;
#X connect 6 0 7 1;
#X connect 7 0 4 1;
#X connect 8 0 10 1;
#X connect 9 0 8 0;
#X connect 10 0 0 0;
#X connect 11 0 12 0;
#X connect 12 0 4 0;
#X connect 13 0 6 0;
#X connect 14 0 15 0;
#X connect 15 0 16 1;
#X connect 16 0 13 0;
