#N canvas 749 305 204 358 10;
#X obj 80 16 inlet note;
#X obj 80 38 t f f;
#X obj 69 60 mtof;
#X obj 107 61 / 127;
#X obj 107 83 swap 1;
#X obj 107 105 -;
#X obj 107 127 t f f;
#X obj 107 149 * 400;
#X msg 107 173 1 \, 0 \$1;
#X obj 107 195 line~;
#X obj 107 217 *~;
#X obj 20 16 noise~;
#X obj 20 92 bp~ 100 0.5;
#X obj 20 244 *~;
#X obj 20 266 lop~ 3000;
#X text 22 18;
#X obj 20 288 *~ 4;
#X obj 20 310 outlet~;
#X connect 0 0 1 0;
#X connect 1 0 2 0;
#X connect 1 1 3 0;
#X connect 2 0 12 1;
#X connect 3 0 4 0;
#X connect 4 0 5 0;
#X connect 4 1 5 1;
#X connect 5 0 6 0;
#X connect 6 0 7 0;
#X connect 6 1 10 1;
#X connect 7 0 8 0;
#X connect 8 0 9 0;
#X connect 9 0 10 0;
#X connect 10 0 13 1;
#X connect 11 0 12 0;
#X connect 12 0 13 0;
#X connect 13 0 14 0;
#X connect 14 0 16 0;
#X connect 16 0 17 0;
