#N canvas 737 359 288 313 10;
#X obj 23 17 inlet chords;
#X obj 23 39 t l b;
#X obj 23 79 unpack 1 2 3;
#X msg 152 85 1 35 0 \, 0 100 165;
#X obj 152 107 vline~;
#X obj 152 131 *~;
#N canvas 0 22 190 252 vo1 0;
#X obj 35 92 mtof;
#X obj 35 143 osc~;
#X obj 70 71 osc~ 7;
#X obj 70 92 *~ 2;
#X obj 35 117 +~;
#X obj 34 168 *~;
#X obj 35 191 *~;
#X obj 34 214 outlet~;
#X obj 35 48 inlet note;
#X text 34 19 poly voice;
#X connect 0 0 4 0;
#X connect 1 0 5 0;
#X connect 1 0 5 1;
#X connect 2 0 3 0;
#X connect 3 0 4 1;
#X connect 4 0 1 0;
#X connect 5 0 6 0;
#X connect 5 0 6 1;
#X connect 6 0 7 0;
#X connect 8 0 0 0;
#X restore 23 145 pd vo1;
#N canvas 390 173 450 300 vo1 0;
#X obj 142 123 mtof;
#X obj 142 174 osc~;
#X obj 142 148 +~;
#X obj 141 199 *~;
#X obj 142 222 *~;
#X obj 142 59 inlet;
#X obj 141 245 outlet~;
#X obj 177 102 osc~ 8;
#X obj 177 122 *~ 1.6;
#X connect 0 0 2 0;
#X connect 1 0 3 0;
#X connect 1 0 3 1;
#X connect 2 0 1 0;
#X connect 3 0 4 0;
#X connect 3 0 4 1;
#X connect 4 0 6 0;
#X connect 5 0 0 0;
#X connect 7 0 8 0;
#X connect 8 0 2 1;
#X restore 57 125 pd vo1;
#N canvas 128 389 450 300 vo1 0;
#X obj 142 123 mtof;
#X obj 142 174 osc~;
#X obj 142 148 +~;
#X obj 141 199 *~;
#X obj 142 222 *~;
#X obj 142 59 inlet;
#X obj 141 245 outlet~;
#X obj 177 102 osc~ 9;
#X obj 177 123 *~ 1.3;
#X connect 0 0 2 0;
#X connect 1 0 3 0;
#X connect 1 0 3 1;
#X connect 2 0 1 0;
#X connect 3 0 4 0;
#X connect 3 0 4 1;
#X connect 4 0 6 0;
#X connect 5 0 0 0;
#X connect 7 0 8 0;
#X connect 8 0 2 1;
#X restore 92 105 pd vo1;
#X obj 92 217 *~;
#X obj 92 239 /~ 3;
#X obj 92 261 outlet~;
#X connect 0 0 1 0;
#X connect 1 0 2 0;
#X connect 1 1 3 0;
#X connect 2 0 6 0;
#X connect 2 1 7 0;
#X connect 2 2 8 0;
#X connect 3 0 4 0;
#X connect 4 0 5 0;
#X connect 4 0 5 1;
#X connect 5 0 9 1;
#X connect 6 0 9 0;
#X connect 7 0 9 0;
#X connect 8 0 9 0;
#X connect 9 0 10 0;
#X connect 10 0 11 0;
