#N canvas 718 424 197 162 10;
#X obj 17 16 inlet time;
#X obj 17 38 mod 32;
#X obj 17 60 sel 0 14;
#X msg 17 89 54 56 60 64;
#X msg 98 89 54 60 62 66;
#X obj 17 119 outlet chords;
#X connect 0 0 1 0;
#X connect 1 0 2 0;
#X connect 2 0 3 0;
#X connect 2 1 4 0;
#X connect 3 0 5 0;
#X connect 4 0 5 0;
