#N canvas 400 27 563 728 10;
#X obj 104 524 *~;
#X obj 87 644 dac~;
#X obj 88 549 +~;
#X obj 88 572 cos~;
#X obj 116 313 mtof;
#X obj 88 423 phasor~;
#X obj 178 404 vline~;
#X obj 192 438 *~;
#X obj 104 445 *~;
#X msg 178 383 1 2 \, 0 \$1 2;
#X obj 191 475 *~;
#X obj 87 596 *~;
#X obj 87 619 *~ 0.2;
#X obj 178 361 *;
#X obj 266 382 sqrt;
#X obj 105 473 osc~;
#X obj 116 340 t f f;
#X obj 116 282 unpack f f f;
#X obj 209 310 t b f f;
#X msg 108 205 47 1 0.6;
#X msg 94 184 33 2 0.68;
#X msg 73 165 47 1.333 0.45;
#X msg 178 340 800;
#X obj 231 333 pow 2;
#X msg 126 247 35 1 0.8;
#X msg 117 227 59 0.2 0.5;
#X connect 0 0 2 1;
#X connect 2 0 3 0;
#X connect 3 0 11 0;
#X connect 4 0 16 0;
#X connect 5 0 2 0;
#X connect 6 0 7 0;
#X connect 7 0 10 0;
#X connect 7 0 10 1;
#X connect 8 0 15 0;
#X connect 9 0 6 0;
#X connect 10 0 0 1;
#X connect 10 0 11 1;
#X connect 11 0 12 0;
#X connect 12 0 1 0;
#X connect 12 0 1 1;
#X connect 13 0 9 0;
#X connect 14 0 7 1;
#X connect 15 0 0 0;
#X connect 16 0 5 0;
#X connect 16 1 8 0;
#X connect 17 0 4 0;
#X connect 17 1 8 1;
#X connect 17 2 18 0;
#X connect 18 0 22 0;
#X connect 18 1 23 0;
#X connect 18 2 14 0;
#X connect 19 0 17 0;
#X connect 20 0 17 0;
#X connect 21 0 17 0;
#X connect 22 0 13 0;
#X connect 23 0 13 1;
#X connect 24 0 17 0;
#X connect 25 0 17 0;
