#N canvas 143 164 132 284 10;
#X obj 5 149 +~;
#X obj 25 221 *~;
#X obj 42 194 vline~;
#X obj 25 241 *~ 0.23;
#X obj 19 68 +~;
#X obj 5 169 osc~;
#X obj 20 108 +~;
#X msg 42 172 1 \, 0 100 0;
#X obj 4 6 sig~ 7435;
#X obj 21 128 *~ 3717;
#X obj 36 88 osc~ 1434;
#X obj 35 46 osc~ 583;
#X obj 19 26 osc~ 8263;
#X obj 42 151 r hat;
#X obj 25 261 s~ hihat;
#X connect 0 0 5 0;
#X connect 1 0 3 0;
#X connect 2 0 1 1;
#X connect 3 0 14 0;
#X connect 4 0 6 0;
#X connect 5 0 1 0;
#X connect 6 0 9 0;
#X connect 7 0 2 0;
#X connect 8 0 0 0;
#X connect 9 0 0 1;
#X connect 10 0 6 1;
#X connect 11 0 4 1;
#X connect 12 0 4 0;
#X connect 13 0 7 0;
