#N canvas 159 169 495 449 10;
#X obj 31 115 +~;
#X obj 31 53 inlet~;
#X obj 33 245 outlet~;
#X obj 41 224 s~ \$0-fba;
#X obj 47 74 r~ \$0-fba;
#X obj 32 136 delwrite~ \$0-a 100;
#X obj 342 51 inlet fb;
#X obj 342 121 line~;
#X msg 342 99 \$1 20;
#X obj 47 94 *~;
#X obj 33 199 vd~ \$0-a;
#X floatatom 222 162 5 0 0 0 - - -, f 5;
#X obj 222 181 sig~;
#X floatatom 342 73 5 0 0 0 - - -, f 5;
#X obj 222 51 inlet time;
#X connect 0 0 5 0;
#X connect 1 0 0 0;
#X connect 4 0 9 0;
#X connect 6 0 13 0;
#X connect 7 0 9 1;
#X connect 8 0 7 0;
#X connect 9 0 0 1;
#X connect 10 0 2 0;
#X connect 10 0 3 0;
#X connect 11 0 12 0;
#X connect 12 0 10 0;
#X connect 13 0 8 0;
#X connect 14 0 11 0;
