#N canvas 0 95 1440 805 10;
#X floatatom 38 155 5 0 0 0 h - -, f 5;
#X floatatom 93 155 5 0 0 0 w - -, f 5;
#X obj 85 211 f;
#X obj 85 237 *;
#X obj 125 211 f;
#X obj 125 237 *;
#X obj 84 264 *;
#X obj 84 286 sqrt;
#X floatatom 84 308 5 0 0 0 L - -, f 5;
#X obj 93 178 t b f;
#X obj 84 347 * 2;
#X floatatom 209 155 5 0 0 0 c - -, f 5;
#X obj 84 369 swap;
#X obj 209 243 f;
#X obj 84 401 /;
#X floatatom 84 433 5 0 0 0 f11 - -, f 5;
#X obj 209 265 t b f;
#X obj 84 537 s f11;
#X obj 84 454 t f f f f f f f;
#X obj 84 496 * 1;
#X floatatom 84 518 5 0 0 0 - - -, f 5;
#X floatatom 134 518 5 0 0 0 - - -, f 5;
#X floatatom 184 518 5 0 0 0 - - -, f 5;
#X floatatom 234 518 5 0 0 0 - - -, f 5;
#X floatatom 284 518 5 0 0 0 - - -, f 5;
#X floatatom 334 518 5 0 0 0 - - -, f 5;
#X floatatom 384 518 5 0 0 0 - - -, f 5;
#X obj 134 496 * 1.58;
#X obj 184 496 * 2.24;
#X obj 234 496 * 2.92;
#X obj 284 496 * 2;
#X obj 334 496 * 2.55;
#X obj 384 496 * 3.16;
#X msg 184 405 125;
#X msg 144 405 62.5;
#X obj 38 45 vsl 15 100 1 5 0 0 empty empty h 0 -9 0 10 -262130 -1
-1 9550 1;
#X obj 93 45 vsl 15 100 0.3 2 0 0 empty empty w 0 -9 0 10 -204786 -1
-1 2594 1;
#X obj 209 45 vsl 15 100 100 3300 0 0 empty empty c 0 -9 0 10 -204800
-1 -1 4142 1;
#X msg 38 10 3;
#X msg 93 10 0.9;
#X msg 209 13 340;
#X obj 134 537 s f12;
#X obj 184 537 s f13;
#X obj 234 537 s f14;
#X obj 284 537 s f22;
#X obj 334 537 s f23;
#X obj 384 537 s f24;
#X obj 84 577 r f11;
#X obj 154 577 r f12;
#X obj 224 577 r f13;
#X obj 294 577 r f14;
#X obj 364 577 r f22;
#X obj 434 577 r f23;
#X obj 504 577 r f24;
#X obj 84 599 swap 1000;
#X obj 84 621 /;
#X floatatom 84 643 5 0 0 0 - - -, f 5;
#X obj 154 599 swap 1000;
#X obj 154 621 /;
#X floatatom 154 643 5 0 0 0 - - -, f 5;
#X obj 224 599 swap 1000;
#X obj 224 621 /;
#X floatatom 224 643 5 0 0 0 - - -, f 5;
#X obj 294 599 swap 1000;
#X obj 294 621 /;
#X floatatom 294 643 5 0 0 0 - - -, f 5;
#X obj 364 599 swap 1000;
#X obj 364 621 /;
#X floatatom 364 643 5 0 0 0 - - -, f 5;
#X obj 434 599 swap 1000;
#X obj 434 621 /;
#X floatatom 434 643 5 0 0 0 - - -, f 5;
#X obj 504 599 swap 1000;
#X obj 504 621 /;
#X floatatom 504 643 5 0 0 0 - - -, f 5;
#N canvas 1 110 1425 626 filters 0;
#X obj 175 25 r f11;
#X obj 245 25 r f12;
#X obj 315 25 r f13;
#X obj 385 25 r f14;
#X obj 455 25 r f22;
#X obj 535 25 r f23;
#X obj 615 25 r f24;
#X obj 145 129 bp~ 100 1;
#X obj 8 112 inlet~;
#X obj 89 129 *~ 0.2;
#X obj 90 181 outlet~;
#X obj 215 129 bp~ 100 1;
#X obj 285 129 bp~ 100 1;
#X obj 355 129 bp~ 100 1;
#X obj 425 129 bp~ 100 1;
#X obj 505 129 bp~ 100 1;
#X obj 585 129 bp~ 100 1;
#X obj 704 112 f;
#X floatatom 704 82 5 0 0 1 Q - -, f 5;
#X obj 775 27 loadbang;
#X msg 775 49 2;
#X obj 704 27 inlet;
#X connect 0 0 7 1;
#X connect 1 0 11 1;
#X connect 2 0 12 1;
#X connect 3 0 13 1;
#X connect 4 0 14 1;
#X connect 5 0 15 1;
#X connect 6 0 16 1;
#X connect 7 0 10 0;
#X connect 8 0 9 0;
#X connect 8 0 7 0;
#X connect 8 0 11 0;
#X connect 8 0 12 0;
#X connect 8 0 13 0;
#X connect 8 0 14 0;
#X connect 8 0 15 0;
#X connect 8 0 16 0;
#X connect 9 0 10 0;
#X connect 11 0 10 0;
#X connect 12 0 10 0;
#X connect 13 0 10 0;
#X connect 14 0 10 0;
#X connect 15 0 10 0;
#X connect 16 0 10 0;
#X connect 17 0 16 2;
#X connect 17 0 15 2;
#X connect 17 0 14 2;
#X connect 17 0 13 2;
#X connect 17 0 12 2;
#X connect 17 0 11 2;
#X connect 17 0 7 2;
#X connect 18 0 17 0;
#X connect 19 0 20 0;
#X connect 20 0 18 0;
#X connect 21 0 18 0;
#X restore 705 132 pd filters;
#X obj 775 110 hsl 100 15 1 10 0 0 empty empty Q -2 8 0 10 -232576
-1 -1 1500 1;
#X obj 705 274 throw~ out;
#X obj 705 372 catch~ out;
#X obj 705 406 hip~ 5;
#X obj 705 428 clip~ -1 1;
#X obj 705 460 dac~;
#X obj 952 347 tgl 15 0 empty empty empty 17 7 0 10 -262144 -1 -1 1
1;
#X msg 952 367 \; pd dsp \$1;
#X obj 84 687 s f11-d;
#X obj 154 687 s f12-d;
#X obj 224 687 s f13-d;
#X obj 294 687 s f14-d;
#X obj 364 687 s f22-d;
#X obj 434 687 s f23-d;
#X obj 504 687 s f24-d;
#X text 549 642 time (ms);
#N canvas 1 95 531 512 resonators 0;
#X obj 163 146 mydfbef;
#X obj 163 186 mydfbef;
#X obj 163 226 mydfbef;
#X obj 163 266 mydfbef;
#X obj 163 306 mydfbef;
#X obj 163 336 mydfbef;
#X obj 266 129 r f11-d;
#X obj 266 169 r f12-d;
#X obj 265 209 r f13-d;
#X obj 265 249 r f14-d;
#X obj 265 289 r f22-d;
#X obj 265 319 r f23-d;
#X obj 265 359 r f24-d;
#X obj 163 376 mydfbef;
#X floatatom 209 43 5 0 0 1 decay - -, f 5;
#X obj 209 62 f;
#X obj 44 81 inlet~;
#X obj 44 458 outlet~;
#X obj 209 21 inlet decay;
#X connect 0 0 17 0;
#X connect 1 0 17 0;
#X connect 2 0 17 0;
#X connect 3 0 17 0;
#X connect 4 0 17 0;
#X connect 5 0 17 0;
#X connect 6 0 0 1;
#X connect 7 0 1 1;
#X connect 8 0 2 1;
#X connect 9 0 3 1;
#X connect 10 0 4 1;
#X connect 11 0 5 1;
#X connect 12 0 13 1;
#X connect 13 0 17 0;
#X connect 14 0 15 0;
#X connect 15 0 0 2;
#X connect 15 0 1 2;
#X connect 15 0 2 2;
#X connect 15 0 3 2;
#X connect 15 0 4 2;
#X connect 15 0 13 2;
#X connect 16 0 0 0;
#X connect 16 0 1 0;
#X connect 16 0 2 0;
#X connect 16 0 3 0;
#X connect 16 0 4 0;
#X connect 16 0 5 0;
#X connect 16 0 13 0;
#X connect 18 0 14 0;
#X restore 706 230 pd resonators;
#X obj 816 170 hsl 100 15 0 1 0 0 empty empty decay -2 8 0 10 -191407
-1 -1 600 1;
#N canvas 1 125 1167 701 excitator 0;
#X obj 21 63 bng 15 250 50 0 empty empty empty 17 7 0 10 -262144 -1
-1;
#X obj 21 105 vline~;
#X obj 20 137 *~;
#X obj 20 159 outlet~;
#X obj 21 25 inlet;
#X msg 21 83 1 \, 0 0.5;
#X connect 0 0 5 0;
#X connect 1 0 2 1;
#X connect 1 0 2 0;
#X connect 2 0 3 0;
#X connect 4 0 0 0;
#X connect 5 0 1 0;
#X restore 704 62 pd excitator;
#X obj 704 34 bng 15 250 50 0 empty empty excite! 17 7 0 10 -261234
-1 -1;
#X obj 626 215 vsl 15 100 0 3 0 0 empty empty vol 0 -9 0 10 -262144
-1 -1 2000 1;
#X floatatom 626 322 5 0 0 0 - - -, f 5;
#X msg 626 341 \$1 20;
#X obj 626 363 line~;
#X obj 626 388 *~;
#X floatatom 792 133 5 0 0 0 - - -, f 5;
#X floatatom 833 193 5 0 0 0 - - -, f 5;
#X connect 0 0 2 0;
#X connect 1 0 9 0;
#X connect 2 0 3 1;
#X connect 2 0 3 0;
#X connect 3 0 6 0;
#X connect 4 0 5 1;
#X connect 4 0 5 0;
#X connect 5 0 6 1;
#X connect 6 0 7 0;
#X connect 7 0 8 0;
#X connect 8 0 10 0;
#X connect 9 0 2 0;
#X connect 9 1 4 0;
#X connect 10 0 12 0;
#X connect 11 0 13 0;
#X connect 12 0 14 0;
#X connect 12 1 14 1;
#X connect 13 0 16 0;
#X connect 14 0 15 0;
#X connect 15 0 18 0;
#X connect 16 0 10 0;
#X connect 16 1 12 1;
#X connect 18 0 19 0;
#X connect 18 1 27 0;
#X connect 18 2 28 0;
#X connect 18 3 29 0;
#X connect 18 4 30 0;
#X connect 18 5 31 0;
#X connect 18 6 32 0;
#X connect 19 0 20 0;
#X connect 20 0 17 0;
#X connect 21 0 41 0;
#X connect 22 0 42 0;
#X connect 23 0 43 0;
#X connect 24 0 44 0;
#X connect 25 0 45 0;
#X connect 26 0 46 0;
#X connect 27 0 21 0;
#X connect 28 0 22 0;
#X connect 29 0 23 0;
#X connect 30 0 24 0;
#X connect 31 0 25 0;
#X connect 32 0 26 0;
#X connect 33 0 15 0;
#X connect 34 0 15 0;
#X connect 35 0 0 0;
#X connect 36 0 1 0;
#X connect 37 0 11 0;
#X connect 38 0 35 0;
#X connect 39 0 36 0;
#X connect 40 0 37 0;
#X connect 47 0 54 0;
#X connect 48 0 57 0;
#X connect 49 0 60 0;
#X connect 50 0 63 0;
#X connect 51 0 66 0;
#X connect 52 0 69 0;
#X connect 53 0 72 0;
#X connect 54 0 55 0;
#X connect 54 1 55 1;
#X connect 55 0 56 0;
#X connect 56 0 84 0;
#X connect 57 0 58 0;
#X connect 57 1 58 1;
#X connect 58 0 59 0;
#X connect 59 0 85 0;
#X connect 60 0 61 0;
#X connect 60 1 61 1;
#X connect 61 0 62 0;
#X connect 62 0 86 0;
#X connect 63 0 64 0;
#X connect 63 1 64 1;
#X connect 64 0 65 0;
#X connect 65 0 87 0;
#X connect 66 0 67 0;
#X connect 66 1 67 1;
#X connect 67 0 68 0;
#X connect 68 0 88 0;
#X connect 69 0 70 0;
#X connect 69 1 70 1;
#X connect 70 0 71 0;
#X connect 71 0 89 0;
#X connect 72 0 73 0;
#X connect 72 1 73 1;
#X connect 73 0 74 0;
#X connect 74 0 90 0;
#X connect 75 0 92 0;
#X connect 76 0 75 1;
#X connect 76 0 101 0;
#X connect 78 0 100 1;
#X connect 79 0 80 0;
#X connect 80 0 81 0;
#X connect 80 0 81 1;
#X connect 82 0 83 0;
#X connect 92 0 77 0;
#X connect 93 0 92 1;
#X connect 93 0 102 0;
#X connect 94 0 75 0;
#X connect 95 0 94 0;
#X connect 96 0 97 0;
#X connect 97 0 98 0;
#X connect 98 0 99 0;
#X connect 99 0 100 0;
#X connect 100 0 79 0;
