#N canvas 0 0 372 206 10;
#X obj 82 34 inlet note;
#X obj 82 87 mtof;
#X obj 82 58 t f b;
#X obj 82 113 osc~;
#X obj 83 141 *~;
#X obj 134 113 line~;
#X obj 82 169 outlet~;
#X text 99 3 synth 1;
#X text 127 58 trigger envelope;
#X text 112 140 amplitude envelope;
#X text 4 87 MIDI to Hz;
#X msg 134 87 1 0 \, 0 700;
#X text 182 114 line object;
#X text 217 86 set attack and decay;
#X connect 0 0 2 0;
#X connect 1 0 3 0;
#X connect 2 0 1 0;
#X connect 2 1 11 0;
#X connect 3 0 4 0;
#X connect 4 0 6 0;
#X connect 5 0 4 1;
#X connect 11 0 5 0;
