#N canvas 276 119 451 296 10;
#X obj 210 233 dac~;
#X obj 211 132 *~;
#X obj 230 111 hsl 128 15 0 1 0 1 empty empty synth1-volume 20 7 1
8 -262144 -1 -1 10600 1;
#X obj 211 208 *~ 0.35;
#X obj 92 209 A-timebase;
#X obj 157 233 s time;
#X obj 211 153 throw~ mix;
#X obj 211 185 catch~ mix;
#X obj 211 67 r synth1;
#X obj 59 106 s synth1;
#X obj 59 64 r time;
#X text 59 41 Bassline sequencer;
#X text 211 42 Bassline synth;
#X text 123 4 Playing the bass line;
#X obj 92 186 loadbang;
#X obj 59 85 C-bassline-seq;
#X obj 211 88 B-synth1;
#X connect 1 0 6 0;
#X connect 2 0 1 1;
#X connect 3 0 0 0;
#X connect 3 0 0 1;
#X connect 4 1 5 0;
#X connect 7 0 3 0;
#X connect 8 0 16 0;
#X connect 10 0 15 0;
#X connect 14 0 4 0;
#X connect 15 0 9 0;
#X connect 16 0 1 0;
