#N canvas 0 0 427 361 10;
#X obj 119 37 inlet note;
#X obj 119 93 mtof;
#X obj 119 65 t f b;
#X obj 103 156 osc~;
#X obj 103 280 *~;
#X obj 103 308 outlet~;
#X text 135 280 amplitude envelope;
#X obj 103 128 +~;
#X text 24 45 vibrato lfo;
#X obj 64 93 *~ 3;
#X obj 64 65 osc~ 8;
#X obj 171 158 vline~;
#X obj 172 224 *~;
#X text 201 223 square decay amp;
#X text 222 158 better line;
#X obj 103 184 clip~ -0.1 0.1;
#X text 211 184 obtain square wave;
#X text 45 251 rescale;
#X text 128 7 synth 2;
#X msg 171 130 1 12 0 \, 0 \$1 12;
#X text 257 87 set decay;
#X obj 201 56 inlet decay;
#X obj 201 78 * 1000;
#X obj 103 252 *~ 2;
#X obj 171 102 f 100;
#X connect 0 0 2 0;
#X connect 1 0 7 1;
#X connect 2 0 1 0;
#X connect 2 1 24 0;
#X connect 3 0 15 0;
#X connect 4 0 5 0;
#X connect 7 0 3 0;
#X connect 9 0 7 0;
#X connect 10 0 9 0;
#X connect 11 0 12 0;
#X connect 11 0 12 1;
#X connect 12 0 4 1;
#X connect 15 0 23 0;
#X connect 19 0 11 0;
#X connect 21 0 22 0;
#X connect 22 0 24 1;
#X connect 23 0 4 0;
#X connect 24 0 19 0;
