#N canvas 276 119 410 295 10;
#X obj 188 248 dac~;
#X obj 190 152 *~;
#X obj 209 131 hsl 128 15 0 1 0 1 empty empty synth2-volume 20 7 1
8 -262144 -1 -1 1500 1;
#X obj 189 223 *~ 0.35;
#X obj 69 224 A-timebase;
#X obj 134 248 s time;
#X obj 190 173 throw~ mix;
#X obj 189 200 catch~ mix;
#X obj 190 67 r synth2;
#X obj 40 144 s synth2;
#X obj 40 65 r time;
#X floatatom 119 105 5 -12 24 0 - - -;
#X obj 244 87 hsl 128 15 0 1 0 1 empty empty synth2-decay 20 7 1 8
-262144 -1 -1 5900 1;
#X msg 91 83 38 40 52 44;
#X text 40 36 melody sequencer;
#X text 189 35 melody synth;
#X text 108 2 playing melody line;
#X obj 69 202 loadbang;
#X obj 91 62 loadbang;
#X obj 190 108 D-synth2;
#X obj 40 123 E-melody-seq;
#X connect 1 0 6 0;
#X connect 2 0 1 1;
#X connect 3 0 0 0;
#X connect 3 0 0 1;
#X connect 4 1 5 0;
#X connect 7 0 3 0;
#X connect 8 0 19 0;
#X connect 10 0 20 0;
#X connect 11 0 20 2;
#X connect 12 0 19 1;
#X connect 13 0 20 1;
#X connect 17 0 4 0;
#X connect 18 0 13 0;
#X connect 19 0 1 0;
#X connect 20 0 9 0;
