#N canvas 0 0 305 271 10;
#X obj 21 50 inlet time;
#X obj 72 235 outlet notes;
#N canvas 0 0 450 300 bar1 0;
#X obj 21 96 select 0 1 2 3 4 5 6 7 8 9 10 11 12 13 14 15;
#X msg 88 141 119;
#X msg 121 141 76;
#X msg 54 141 112;
#X msg 21 141 32;
#X obj 72 173 outlet notes;
#X obj 21 69 inlet;
#X connect 0 0 4 0;
#X connect 0 1 1 0;
#X connect 0 2 3 0;
#X connect 0 4 2 0;
#X connect 0 6 1 0;
#X connect 0 9 4 0;
#X connect 0 10 1 0;
#X connect 0 12 2 0;
#X connect 0 14 1 0;
#X connect 1 0 5 0;
#X connect 2 0 5 0;
#X connect 3 0 5 0;
#X connect 4 0 5 0;
#X connect 6 0 0 0;
#X restore 21 165 pd bar1;
#N canvas 0 0 450 300 bar2 0;
#X obj 21 96 select 0 1 2 3 4 5 6 7 8 9 10 11 12 13 14 15;
#X msg 153 142 119;
#X msg 186 142 76;
#X msg 119 142 112;
#X msg 86 142 32;
#X obj 137 174 outlet notes;
#X obj 21 69 inlet;
#X connect 0 0 4 0;
#X connect 0 2 3 0;
#X connect 0 3 1 0;
#X connect 0 4 2 0;
#X connect 0 6 1 0;
#X connect 0 9 3 0;
#X connect 0 10 1 0;
#X connect 0 11 1 0;
#X connect 0 12 2 0;
#X connect 0 14 1 0;
#X connect 1 0 5 0;
#X connect 2 0 5 0;
#X connect 3 0 5 0;
#X connect 4 0 5 0;
#X connect 6 0 0 0;
#X restore 72 143 pd bar2;
#X obj 21 73 mod 32;
#X obj 21 97 moses 16;
#X obj 72 121 - 16;
#X text 120 114 extend bars with moses;
#X text 86 74 count twice as long;
#X text 54 19 two bar sequencer;
#X text 90 167 drum bar patterns;
#X connect 0 0 4 0;
#X connect 2 0 1 0;
#X connect 3 0 1 0;
#X connect 4 0 5 0;
#X connect 5 0 2 0;
#X connect 5 1 6 0;
#X connect 6 0 3 0;
