#N canvas 0 0 452 343 10;
#X obj 78 264 *~;
#X obj 78 310 outlet~;
#X obj 40 50 inlet chord list;
#X obj 40 150 unpack f f f;
#N canvas 0 0 190 252 vo1 0;
#X obj 35 92 mtof;
#X obj 35 143 osc~;
#X obj 70 71 osc~ 7;
#X obj 70 92 *~ 2;
#X obj 35 117 +~;
#X obj 34 168 *~;
#X obj 35 191 *~;
#X obj 34 214 outlet~;
#X obj 35 48 inlet note;
#X text 34 19 poly voice;
#X connect 0 0 4 0;
#X connect 1 0 5 0;
#X connect 1 0 5 1;
#X connect 2 0 3 0;
#X connect 3 0 4 1;
#X connect 4 0 1 0;
#X connect 5 0 6 0;
#X connect 5 0 6 1;
#X connect 6 0 7 0;
#X connect 8 0 0 0;
#X restore 40 211 pd vo1;
#N canvas 0 0 450 300 vo1 0;
#X obj 142 123 mtof;
#X obj 142 174 osc~;
#X obj 142 148 +~;
#X obj 141 199 *~;
#X obj 142 222 *~;
#X obj 142 59 inlet;
#X obj 141 245 outlet~;
#X obj 177 102 osc~ 8;
#X obj 177 122 *~ 1.6;
#X connect 0 0 2 0;
#X connect 1 0 3 0;
#X connect 1 0 3 1;
#X connect 2 0 1 0;
#X connect 3 0 4 0;
#X connect 3 0 4 1;
#X connect 4 0 6 0;
#X connect 5 0 0 0;
#X connect 7 0 8 0;
#X connect 8 0 2 1;
#X restore 79 191 pd vo1;
#N canvas 0 0 450 300 vo1 0;
#X obj 142 123 mtof;
#X obj 142 174 osc~;
#X obj 142 148 +~;
#X obj 141 199 *~;
#X obj 142 222 *~;
#X obj 142 59 inlet;
#X obj 141 245 outlet~;
#X obj 177 102 osc~ 9;
#X obj 177 123 *~ 1.3;
#X connect 0 0 2 0;
#X connect 1 0 3 0;
#X connect 1 0 3 1;
#X connect 2 0 1 0;
#X connect 3 0 4 0;
#X connect 3 0 4 1;
#X connect 4 0 6 0;
#X connect 5 0 0 0;
#X connect 7 0 8 0;
#X connect 8 0 2 1;
#X restore 119 171 pd vo1;
#X obj 94 126 vline~;
#X obj 40 73 t l b;
#X text 231 102 sustained envelope;
#X text 136 149 unpack the notes from list;
#X text 90 73 separate trigger from list;
#X text 112 263 mix and scale;
#X msg 94 103 1 35 0 \, 0 100 200;
#X obj 78 287 /~ 3;
#X text 136 6 synth 4;
#X text 174 49 3 note poly chord;
#X text 158 207 send to 3 voices;
#X connect 0 0 14 0;
#X connect 2 0 8 0;
#X connect 3 0 4 0;
#X connect 3 1 5 0;
#X connect 3 2 6 0;
#X connect 4 0 0 0;
#X connect 5 0 0 0;
#X connect 6 0 0 0;
#X connect 7 0 0 1;
#X connect 8 0 3 0;
#X connect 8 1 13 0;
#X connect 13 0 7 0;
#X connect 14 0 1 0;
