#N canvas 0 108 1276 604 10;
#X obj 10 10 cnv 15 150 70 empty empty serial 5 12 0 14 -233017 -66577
0;
#X floatatom 725 467 10 0 0 1 baud - -, f 10;
#X floatatom 821 498 3 0 0 3 parity - -, f 3;
#X floatatom 852 498 3 0 0 2 stop - -, f 3;
#X floatatom 885 497 3 0 0 3 data - -, f 3;
#X floatatom 981 459 5 0 0 0 port - -, f 5;
#X obj 917 463 tgl 15 0 empty empty rts/cts -10 20 1 11 -24198 -258699
-1 0 1;
#X obj 949 499 tgl 15 0 empty empty xon/xoff -14 20 1 11 -24198 -258699
-1 0 1;
#X text 664 497 serial packet format:;
#X text 826 463 handshaking:;
#X text 626 529 flow control inputs:;
#X obj 757 529 tgl 15 0 empty empty dsr 0 20 1 11 -24198 -258699 -1
0 1;
#X obj 789 529 tgl 15 0 empty empty cts 0 20 1 11 -24198 -258699 -1
0 1;
#X obj 1033 457 tgl 15 0 empty empty open -6 20 1 11 -24198 -258699
-1 0 1;
#X obj 1065 504 print port_list;
#X obj 1162 460 print other;
#X obj 1097 457 tgl 15 0 empty empty hupcl -6 20 1 11 -24198 -258699
-1 0 1;
#X floatatom 1129 480 10 0 0 1 rxerrors - -, f 10;
#X obj 725 420 route baud dsr cts parity stop data rtscts xonxoff port
open ports hupcl rxerrors;
#X msg 289 366 info;
#X msg 132 366 devices;
#X msg 244 366 close;
#X obj 132 403 comport;
#X obj 132 477 outlet value;
#X obj 188 283 f;
#X msg 188 366 open \$1;
#X text 461 207 data chunk of 8 bits;
#X text 461 217 extra stop bit off;
#X text 461 227 parity bit off;
#X text 461 237 baud rate 9600;
#X msg 398 386 ports;
#X text 404 207 settings;
#X obj 114 36 bng 15 250 50 0 empty empty dev? 17 7 0 10 -262144 -1
-1;
#X floatatom 114 63 5 0 100 2 port - -, f 5;
#X obj 17 37 tgl 15 0 empty empty connect 17 7 0 10 -24198 -1 -1 0
1;
#X obj 17 219 sel 1;
#X obj 182 10 inlet data-to-be-sent;
#X msg 269 273 bits 8 \, stopbit 0 \, parity 0 \, baud 9600 \, hupcl
0 \, verbose 0;
#X obj 169 256 t b b b;
#X obj 152 452 print from-Arduino;
#X obj 217 236 t b b;
#X obj 17 58 tgl 15 0 empty empty polling 17 7 0 10 -262144 -1 -1 0
1;
#X obj 319 10 key;
#X floatatom 319 32 5 0 0 0 - - -, f 5;
#X obj 649 420 route open;
#X obj 649 11 tgl 15 0 empty empty empty 17 7 0 10 -262144 -1 -1 0
1;
#X obj 670 26 sel 0;
#X msg 697 77 color 16 22 22;
#X msg 670 57 color 13 22 22 \, set 0;
#X text 461 247 hang up off last close off;
#X obj 17 356 f;
#X obj 989 505 bng 15 250 50 0 empty empty empty 17 7 0 10 -262144
-1 -1;
#X obj 17 269 sel 1;
#X msg 17 294 111;
#X text 54 295 o (open);
#X text 54 322 c (close);
#X msg 17 321 99;
#X obj 902 10 receive reset-touch-box;
#X obj 902 319 bng 15 250 50 0 empty empty empty 17 7 0 10 -262144
-1 -1;
#X msg 902 339 114;
#X text 133 11 v05;
#X connect 5 0 51 0;
#X connect 18 0 1 0;
#X connect 18 1 11 0;
#X connect 18 2 12 0;
#X connect 18 3 2 0;
#X connect 18 4 3 0;
#X connect 18 5 4 0;
#X connect 18 6 6 0;
#X connect 18 7 7 0;
#X connect 18 8 5 0;
#X connect 18 9 13 0;
#X connect 18 10 14 0;
#X connect 18 11 16 0;
#X connect 18 12 17 0;
#X connect 18 13 15 0;
#X connect 19 0 22 0;
#X connect 20 0 22 0;
#X connect 21 0 22 0;
#X connect 22 0 23 0;
#X connect 22 1 44 0;
#X connect 24 0 25 0;
#X connect 25 0 22 0;
#X connect 30 0 22 0;
#X connect 32 0 20 0;
#X connect 33 0 24 1;
#X connect 34 0 35 0;
#X connect 35 0 38 0;
#X connect 35 1 40 0;
#X connect 36 0 50 0;
#X connect 37 0 22 0;
#X connect 38 0 19 0;
#X connect 38 1 24 0;
#X connect 38 2 37 0;
#X connect 40 0 19 0;
#X connect 40 1 21 0;
#X connect 41 0 52 0;
#X connect 42 0 43 0;
#X connect 44 0 45 0;
#X connect 45 0 46 0;
#X connect 46 0 48 0;
#X connect 46 1 47 0;
#X connect 47 0 34 0;
#X connect 48 0 34 0;
#X connect 50 0 22 0;
#X connect 52 0 53 0;
#X connect 52 1 56 0;
#X connect 53 0 50 0;
#X connect 56 0 50 0;
#X connect 57 0 58 0;
#X connect 58 0 59 0;
#X connect 59 0 50 0;
#X coords 0 -1 1 1 150 70 2 10 10;
