#N canvas 552 156 609 541 10;
#X obj 10 10 cnv 15 130 200 empty empty normalizer 5 12 0 14 -233017
-66577 0;
#X obj 197 97 max;
#X floatatom 197 45 4 0 0 0 - - -, f 4;
#X floatatom 227 45 4 0 0 0 - - -, f 4;
#X floatatom 257 45 4 0 0 0 - - -, f 4;
#X obj 197 120 min;
#X obj 257 114 -;
#X obj 271 79 t b a;
#X floatatom 257 136 5 0 0 1 max-min - -, f 5;
#X obj 197 153 -;
#X obj 227 126 f;
#X obj 197 175 /;
#X obj 289 188 f;
#X floatatom 197 197 5 0 0 0 - - -, f 5;
#X obj 257 160 sel 0;
#X text 306 158 avoid division by zero;
#X obj 197 8 inlet raw;
#X obj 197 230 outlet normalized;
#X floatatom 287 45 4 0 0 0 - - -, f 4;
#X obj 267 8 inlet min;
#X obj 337 8 inlet max;
#X text 100 14 v.0.4;
#X connect 1 0 5 0;
#X connect 2 0 1 0;
#X connect 3 0 1 1;
#X connect 3 0 7 0;
#X connect 3 0 10 0;
#X connect 4 0 5 1;
#X connect 4 0 6 0;
#X connect 5 0 9 0;
#X connect 6 0 8 0;
#X connect 7 0 6 0;
#X connect 7 1 6 1;
#X connect 8 0 14 0;
#X connect 9 0 11 0;
#X connect 10 0 9 1;
#X connect 11 0 13 0;
#X connect 12 0 11 1;
#X connect 13 0 17 0;
#X connect 14 1 12 0;
#X connect 16 0 2 0;
#X connect 19 0 3 0;
#X connect 20 0 4 0;
#X coords 0 541 1 540 130 200 0;
